M48
; DRILL file {KiCad 8.0.5-8.0.5-0~ubuntu24.04.1} date 2024-12-07T14:49:10+1300
; FORMAT={-:-/ absolute / inch / decimal}
; #@! TF.CreationDate,2024-12-07T14:49:10+13:00
; #@! TF.GenerationSoftware,Kicad,Pcbnew,8.0.5-8.0.5-0~ubuntu24.04.1
; #@! TF.FileFunction,Plated,1,2,PTH
FMAT,2
INCH
; #@! TA.AperFunction,Plated,PTH,ViaDrill
T1C0.0118
; #@! TA.AperFunction,Plated,PTH,ComponentDrill
T2C0.0236
; #@! TA.AperFunction,Plated,PTH,ComponentDrill
T3C0.0276
; #@! TA.AperFunction,Plated,PTH,ComponentDrill
T4C0.0315
; #@! TA.AperFunction,Plated,PTH,ComponentDrill
T5C0.0354
; #@! TA.AperFunction,Plated,PTH,ComponentDrill
T6C0.0394
; #@! TA.AperFunction,Plated,PTH,ComponentDrill
T7C0.0433
; #@! TA.AperFunction,Plated,PTH,ComponentDrill
T8C0.0472
; #@! TA.AperFunction,Plated,PTH,ComponentDrill
T9C0.0512
; #@! TA.AperFunction,Plated,PTH,ComponentDrill
T10C0.1260
%
G90
G05
T1
X5.8268Y-2.5
X6.063Y-3.563
X6.063Y-3.7598
X6.063Y-3.9567
X6.7717Y-3.0709
X6.7717Y-3.6614
X6.8504Y-3.75
X6.8898Y-2.9331
X6.9291Y-3.3957
X6.9783Y-2.4606
X7.372Y-3.9075
X7.3819Y-3.4744
X7.4016Y-3.1594
X7.7067Y-3.248
X7.7067Y-3.3563
X7.7067Y-3.4646
T2
X5.9055Y-3.2983
X5.9055Y-3.3574
T3
X6.137Y-2.9528
X6.437Y-2.9528
T4
X5.8858Y-2.6213
X5.8858Y-2.7
X6.137Y-3.4142
X6.137Y-3.5142
X6.137Y-3.6142
X6.137Y-3.7142
X6.137Y-3.8142
X6.137Y-3.9142
X6.137Y-4.0142
X6.137Y-4.1142
X6.437Y-3.4142
X6.437Y-3.5142
X6.437Y-3.6142
X6.437Y-3.7142
X6.437Y-3.8142
X6.437Y-3.9142
X6.437Y-4.0142
X6.437Y-4.1142
T5
X6.2386Y-3.1693
X6.3386Y-3.1693
T6
X6.6835Y-2.7189
X6.6835Y-2.8189
X6.6835Y-2.9189
X6.6835Y-3.0189
X6.6835Y-3.1189
X6.6835Y-3.2189
X6.6835Y-3.3189
X6.6835Y-3.4189
X6.6835Y-3.5189
X6.6835Y-3.6189
X6.6835Y-3.7189
X6.6835Y-3.8189
X6.6835Y-3.9189
X6.6835Y-4.0189
X6.6835Y-4.1189
X7.2835Y-2.7189
X7.2835Y-2.8189
X7.2835Y-2.9189
X7.2835Y-3.0189
X7.2835Y-3.1189
X7.2835Y-3.2189
X7.2835Y-3.3189
X7.2835Y-3.4189
X7.2835Y-3.5189
X7.2835Y-3.6189
X7.2835Y-3.7189
X7.2835Y-3.8189
X7.2835Y-3.9189
X7.2835Y-4.0189
X7.2835Y-4.1189
X7.3787Y-2.185
X7.4787Y-2.185
X7.5063Y-3.1299
X7.5063Y-3.239
X7.5063Y-3.348
X7.5063Y-3.4571
X7.5063Y-3.5661
X7.5787Y-2.185
X7.6181Y-3.1844
X7.6181Y-3.2935
X7.6181Y-3.4026
X7.6181Y-3.5116
T7
X5.8858Y-2.8937
X5.8858Y-2.9937
X5.8858Y-3.0937
T8
X6.7244Y-2.185
X6.8244Y-2.185
X6.9244Y-2.185
X7.0244Y-2.185
X7.1244Y-2.185
X7.2244Y-2.185
T9
X7.4213Y-2.4016
X7.4213Y-2.5984
X7.815Y-2.5
T10
X7.5622Y-2.8559
X7.5622Y-3.8402
T6
G00X6.0906Y-2.4882
M15
G01X6.0906Y-2.4016
M16
G05
G00X6.3228Y-2.311
M15
G01X6.2362Y-2.311
M16
G05
G00X6.3307Y-2.5591
M15
G01X6.2283Y-2.5591
M16
G05
M30
