%TF.GenerationSoftware,KiCad,Pcbnew,8.0.5-8.0.5-0~ubuntu24.04.1*%
%TF.CreationDate,2024-12-07T12:22:58+13:00*%
%TF.ProjectId,pcb,7063622e-6b69-4636-9164-5f7063625858,rev?*%
%TF.SameCoordinates,Original*%
%TF.FileFunction,Drillmap*%
%TF.FilePolarity,Positive*%
%FSLAX45Y45*%
G04 Gerber Fmt 4.5, Leading zero omitted, Abs format (unit mm)*
G04 Created by KiCad (PCBNEW 8.0.5-8.0.5-0~ubuntu24.04.1) date 2024-12-07 12:22:58*
%MOMM*%
%LPD*%
G01*
G04 APERTURE LIST*
%ADD10C,0.050000*%
%ADD11C,0.200000*%
%ADD12C,0.100000*%
%ADD13C,0.110000*%
%ADD14C,0.120000*%
%ADD15C,0.130000*%
%ADD16C,0.320000*%
G04 APERTURE END LIST*
D10*
X20100000Y-5100000D02*
X14700000Y-5100000D01*
X14600000Y-5550000D02*
X14600000Y-10800000D01*
X14700000Y-10900000D02*
G75*
G02*
X14600000Y-10800000I0J100000D01*
G01*
X14600000Y-5200000D02*
G75*
G02*
X14700000Y-5100000I100000J0D01*
G01*
X14600000Y-5200000D02*
X14600000Y-5550000D01*
X20200000Y-6550000D02*
X20200000Y-10800000D01*
X20200000Y-5200000D02*
X20200000Y-5550000D01*
X20200000Y-6550000D02*
X20200000Y-5550000D01*
X20200000Y-10800000D02*
G75*
G02*
X20100000Y-10900000I-100000J0D01*
G01*
X20100000Y-10900000D02*
X14700000Y-10900000D01*
X20100000Y-5100000D02*
G75*
G02*
X20200000Y-5200000I0J-100000D01*
G01*
D11*
D12*
X14785000Y-6335000D02*
X14815000Y-6365000D01*
X14815000Y-6335000D02*
X14785000Y-6365000D01*
X15385000Y-9035000D02*
X15415000Y-9065000D01*
X15415000Y-9035000D02*
X15385000Y-9065000D01*
X15385000Y-9535000D02*
X15415000Y-9565000D01*
X15415000Y-9535000D02*
X15385000Y-9565000D01*
X15385000Y-10035000D02*
X15415000Y-10065000D01*
X15415000Y-10035000D02*
X15385000Y-10065000D01*
X17185000Y-7035000D02*
X17215000Y-7065000D01*
X17215000Y-7035000D02*
X17185000Y-7065000D01*
X17185000Y-7535000D02*
X17215000Y-7565000D01*
X17215000Y-7535000D02*
X17185000Y-7565000D01*
X17185000Y-9285000D02*
X17215000Y-9315000D01*
X17215000Y-9285000D02*
X17185000Y-9315000D01*
X17385000Y-9510000D02*
X17415000Y-9540000D01*
X17415000Y-9510000D02*
X17385000Y-9540000D01*
X17560000Y-7210000D02*
X17590000Y-7240000D01*
X17590000Y-7210000D02*
X17560000Y-7240000D01*
X17560000Y-7860000D02*
X17590000Y-7890000D01*
X17590000Y-7860000D02*
X17560000Y-7890000D01*
X17560000Y-8610000D02*
X17590000Y-8640000D01*
X17590000Y-8610000D02*
X17560000Y-8640000D01*
X17710000Y-6235000D02*
X17740000Y-6265000D01*
X17740000Y-6235000D02*
X17710000Y-6265000D01*
X18710000Y-9910000D02*
X18740000Y-9940000D01*
X18740000Y-9910000D02*
X18710000Y-9940000D01*
X18735000Y-8810000D02*
X18765000Y-8840000D01*
X18765000Y-8810000D02*
X18735000Y-8840000D01*
X18785000Y-8010000D02*
X18815000Y-8040000D01*
X18815000Y-8010000D02*
X18785000Y-8040000D01*
X19560000Y-8235000D02*
X19590000Y-8265000D01*
X19590000Y-8235000D02*
X19560000Y-8265000D01*
X19560000Y-8510000D02*
X19590000Y-8540000D01*
X19590000Y-8510000D02*
X19560000Y-8540000D01*
X19560000Y-8785000D02*
X19590000Y-8815000D01*
X19590000Y-8785000D02*
X19560000Y-8815000D01*
X15030000Y-8377740D02*
G75*
G02*
X14970000Y-8377740I-30000J0D01*
G01*
X14970000Y-8377740D02*
G75*
G02*
X15030000Y-8377740I30000J0D01*
G01*
X15030000Y-8527740D02*
G75*
G02*
X14970000Y-8527740I-30000J0D01*
G01*
X14970000Y-8527740D02*
G75*
G02*
X15030000Y-8527740I30000J0D01*
G01*
X15588000Y-7465000D02*
X15588000Y-7535000D01*
X15553000Y-7500000D02*
X15623000Y-7500000D01*
X16350000Y-7465000D02*
X16350000Y-7535000D01*
X16315000Y-7500000D02*
X16385000Y-7500000D01*
X14978284Y-6686284D02*
X14978284Y-6629715D01*
X14921715Y-6629715D01*
X14921715Y-6686284D01*
X14978284Y-6686284D01*
X14978284Y-6886284D02*
X14978284Y-6829715D01*
X14921715Y-6829715D01*
X14921715Y-6886284D01*
X14978284Y-6886284D01*
X15616284Y-8700285D02*
X15616284Y-8643716D01*
X15559715Y-8643716D01*
X15559715Y-8700285D01*
X15616284Y-8700285D01*
X15616284Y-8954285D02*
X15616284Y-8897716D01*
X15559715Y-8897716D01*
X15559715Y-8954285D01*
X15616284Y-8954285D01*
X15616284Y-9208285D02*
X15616284Y-9151716D01*
X15559715Y-9151716D01*
X15559715Y-9208285D01*
X15616284Y-9208285D01*
X15616284Y-9462285D02*
X15616284Y-9405716D01*
X15559715Y-9405716D01*
X15559715Y-9462285D01*
X15616284Y-9462285D01*
X15616284Y-9716285D02*
X15616284Y-9659716D01*
X15559715Y-9659716D01*
X15559715Y-9716285D01*
X15616284Y-9716285D01*
X15616284Y-9970285D02*
X15616284Y-9913716D01*
X15559715Y-9913716D01*
X15559715Y-9970285D01*
X15616284Y-9970285D01*
X15616284Y-10224285D02*
X15616284Y-10167716D01*
X15559715Y-10167716D01*
X15559715Y-10224285D01*
X15616284Y-10224285D01*
X15616284Y-10478285D02*
X15616284Y-10421716D01*
X15559715Y-10421716D01*
X15559715Y-10478285D01*
X15616284Y-10478285D01*
X16378284Y-8700285D02*
X16378284Y-8643716D01*
X16321715Y-8643716D01*
X16321715Y-8700285D01*
X16378284Y-8700285D01*
X16378284Y-8954285D02*
X16378284Y-8897716D01*
X16321715Y-8897716D01*
X16321715Y-8954285D01*
X16378284Y-8954285D01*
X16378284Y-9208285D02*
X16378284Y-9151716D01*
X16321715Y-9151716D01*
X16321715Y-9208285D01*
X16378284Y-9208285D01*
X16378284Y-9462285D02*
X16378284Y-9405716D01*
X16321715Y-9405716D01*
X16321715Y-9462285D01*
X16378284Y-9462285D01*
X16378284Y-9716285D02*
X16378284Y-9659716D01*
X16321715Y-9659716D01*
X16321715Y-9716285D01*
X16378284Y-9716285D01*
X16378284Y-9970285D02*
X16378284Y-9913716D01*
X16321715Y-9913716D01*
X16321715Y-9970285D01*
X16378284Y-9970285D01*
X16378284Y-10224285D02*
X16378284Y-10167716D01*
X16321715Y-10167716D01*
X16321715Y-10224285D01*
X16378284Y-10224285D01*
X16378284Y-10478285D02*
X16378284Y-10421716D01*
X16321715Y-10421716D01*
X16321715Y-10478285D01*
X16378284Y-10478285D01*
X15846000Y-8095000D02*
X15891000Y-8050000D01*
X15846000Y-8005000D01*
X15801000Y-8050000D01*
X15846000Y-8095000D01*
X16100000Y-8095000D02*
X16145000Y-8050000D01*
X16100000Y-8005000D01*
X16055000Y-8050000D01*
X16100000Y-8095000D01*
X15420000Y-6160000D02*
X15520000Y-6260000D01*
X15520000Y-6160000D02*
X15420000Y-6260000D01*
X15520000Y-6210000D02*
G75*
G02*
X15420000Y-6210000I-50000J0D01*
G01*
X15420000Y-6210000D02*
G75*
G02*
X15520000Y-6210000I50000J0D01*
G01*
X15520000Y-6320000D02*
X15520000Y-6100000D01*
X15420000Y-6100000D02*
G75*
G02*
X15520000Y-6100000I50000J0D01*
G01*
X15420000Y-6100000D02*
X15420000Y-6320000D01*
X15420000Y-6320000D02*
G75*
G03*
X15520000Y-6320000I50000J0D01*
G01*
X15900000Y-5820000D02*
X16000000Y-5920000D01*
X16000000Y-5820000D02*
X15900000Y-5920000D01*
X16000000Y-5870000D02*
G75*
G02*
X15900000Y-5870000I-50000J0D01*
G01*
X15900000Y-5870000D02*
G75*
G02*
X16000000Y-5870000I50000J0D01*
G01*
X16060000Y-5820000D02*
X15840000Y-5820000D01*
X15840000Y-5920000D02*
G75*
G02*
X15840000Y-5820000I0J50000D01*
G01*
X15840000Y-5920000D02*
X16060000Y-5920000D01*
X16060000Y-5920000D02*
G75*
G03*
X16060000Y-5820000I0J50000D01*
G01*
X15900000Y-6450000D02*
X16000000Y-6550000D01*
X16000000Y-6450000D02*
X15900000Y-6550000D01*
X16000000Y-6500000D02*
G75*
G02*
X15900000Y-6500000I-50000J0D01*
G01*
X15900000Y-6500000D02*
G75*
G02*
X16000000Y-6500000I50000J0D01*
G01*
X16080000Y-6450000D02*
X15820000Y-6450000D01*
X15820000Y-6550000D02*
G75*
G02*
X15820000Y-6450000I0J50000D01*
G01*
X15820000Y-6550000D02*
X16080000Y-6550000D01*
X16080000Y-6550000D02*
G75*
G03*
X16080000Y-6450000I0J50000D01*
G01*
X16926000Y-6856000D02*
X17026000Y-6956000D01*
X17026000Y-6856000D02*
X16926000Y-6956000D01*
X17026000Y-6906000D02*
G75*
G02*
X16926000Y-6906000I-50000J0D01*
G01*
X16926000Y-6906000D02*
G75*
G02*
X17026000Y-6906000I50000J0D01*
G01*
X16926000Y-7110000D02*
X17026000Y-7210000D01*
X17026000Y-7110000D02*
X16926000Y-7210000D01*
X17026000Y-7160000D02*
G75*
G02*
X16926000Y-7160000I-50000J0D01*
G01*
X16926000Y-7160000D02*
G75*
G02*
X17026000Y-7160000I50000J0D01*
G01*
X16926000Y-7364000D02*
X17026000Y-7464000D01*
X17026000Y-7364000D02*
X16926000Y-7464000D01*
X17026000Y-7414000D02*
G75*
G02*
X16926000Y-7414000I-50000J0D01*
G01*
X16926000Y-7414000D02*
G75*
G02*
X17026000Y-7414000I50000J0D01*
G01*
X16926000Y-7618000D02*
X17026000Y-7718000D01*
X17026000Y-7618000D02*
X16926000Y-7718000D01*
X17026000Y-7668000D02*
G75*
G02*
X16926000Y-7668000I-50000J0D01*
G01*
X16926000Y-7668000D02*
G75*
G02*
X17026000Y-7668000I50000J0D01*
G01*
X16926000Y-7872000D02*
X17026000Y-7972000D01*
X17026000Y-7872000D02*
X16926000Y-7972000D01*
X17026000Y-7922000D02*
G75*
G02*
X16926000Y-7922000I-50000J0D01*
G01*
X16926000Y-7922000D02*
G75*
G02*
X17026000Y-7922000I50000J0D01*
G01*
X16926000Y-8126000D02*
X17026000Y-8226000D01*
X17026000Y-8126000D02*
X16926000Y-8226000D01*
X17026000Y-8176000D02*
G75*
G02*
X16926000Y-8176000I-50000J0D01*
G01*
X16926000Y-8176000D02*
G75*
G02*
X17026000Y-8176000I50000J0D01*
G01*
X16926000Y-8380000D02*
X17026000Y-8480000D01*
X17026000Y-8380000D02*
X16926000Y-8480000D01*
X17026000Y-8430000D02*
G75*
G02*
X16926000Y-8430000I-50000J0D01*
G01*
X16926000Y-8430000D02*
G75*
G02*
X17026000Y-8430000I50000J0D01*
G01*
X16926000Y-8634000D02*
X17026000Y-8734000D01*
X17026000Y-8634000D02*
X16926000Y-8734000D01*
X17026000Y-8684000D02*
G75*
G02*
X16926000Y-8684000I-50000J0D01*
G01*
X16926000Y-8684000D02*
G75*
G02*
X17026000Y-8684000I50000J0D01*
G01*
X16926000Y-8888000D02*
X17026000Y-8988000D01*
X17026000Y-8888000D02*
X16926000Y-8988000D01*
X17026000Y-8938000D02*
G75*
G02*
X16926000Y-8938000I-50000J0D01*
G01*
X16926000Y-8938000D02*
G75*
G02*
X17026000Y-8938000I50000J0D01*
G01*
X16926000Y-9142000D02*
X17026000Y-9242000D01*
X17026000Y-9142000D02*
X16926000Y-9242000D01*
X17026000Y-9192000D02*
G75*
G02*
X16926000Y-9192000I-50000J0D01*
G01*
X16926000Y-9192000D02*
G75*
G02*
X17026000Y-9192000I50000J0D01*
G01*
X16926000Y-9396000D02*
X17026000Y-9496000D01*
X17026000Y-9396000D02*
X16926000Y-9496000D01*
X17026000Y-9446000D02*
G75*
G02*
X16926000Y-9446000I-50000J0D01*
G01*
X16926000Y-9446000D02*
G75*
G02*
X17026000Y-9446000I50000J0D01*
G01*
X16926000Y-9650000D02*
X17026000Y-9750000D01*
X17026000Y-9650000D02*
X16926000Y-9750000D01*
X17026000Y-9700000D02*
G75*
G02*
X16926000Y-9700000I-50000J0D01*
G01*
X16926000Y-9700000D02*
G75*
G02*
X17026000Y-9700000I50000J0D01*
G01*
X16926000Y-9904000D02*
X17026000Y-10004000D01*
X17026000Y-9904000D02*
X16926000Y-10004000D01*
X17026000Y-9954000D02*
G75*
G02*
X16926000Y-9954000I-50000J0D01*
G01*
X16926000Y-9954000D02*
G75*
G02*
X17026000Y-9954000I50000J0D01*
G01*
X16926000Y-10158000D02*
X17026000Y-10258000D01*
X17026000Y-10158000D02*
X16926000Y-10258000D01*
X17026000Y-10208000D02*
G75*
G02*
X16926000Y-10208000I-50000J0D01*
G01*
X16926000Y-10208000D02*
G75*
G02*
X17026000Y-10208000I50000J0D01*
G01*
X16926000Y-10412000D02*
X17026000Y-10512000D01*
X17026000Y-10412000D02*
X16926000Y-10512000D01*
X17026000Y-10462000D02*
G75*
G02*
X16926000Y-10462000I-50000J0D01*
G01*
X16926000Y-10462000D02*
G75*
G02*
X17026000Y-10462000I50000J0D01*
G01*
X18450000Y-6856000D02*
X18550000Y-6956000D01*
X18550000Y-6856000D02*
X18450000Y-6956000D01*
X18550000Y-6906000D02*
G75*
G02*
X18450000Y-6906000I-50000J0D01*
G01*
X18450000Y-6906000D02*
G75*
G02*
X18550000Y-6906000I50000J0D01*
G01*
X18450000Y-7110000D02*
X18550000Y-7210000D01*
X18550000Y-7110000D02*
X18450000Y-7210000D01*
X18550000Y-7160000D02*
G75*
G02*
X18450000Y-7160000I-50000J0D01*
G01*
X18450000Y-7160000D02*
G75*
G02*
X18550000Y-7160000I50000J0D01*
G01*
X18450000Y-7364000D02*
X18550000Y-7464000D01*
X18550000Y-7364000D02*
X18450000Y-7464000D01*
X18550000Y-7414000D02*
G75*
G02*
X18450000Y-7414000I-50000J0D01*
G01*
X18450000Y-7414000D02*
G75*
G02*
X18550000Y-7414000I50000J0D01*
G01*
X18450000Y-7618000D02*
X18550000Y-7718000D01*
X18550000Y-7618000D02*
X18450000Y-7718000D01*
X18550000Y-7668000D02*
G75*
G02*
X18450000Y-7668000I-50000J0D01*
G01*
X18450000Y-7668000D02*
G75*
G02*
X18550000Y-7668000I50000J0D01*
G01*
X18450000Y-7872000D02*
X18550000Y-7972000D01*
X18550000Y-7872000D02*
X18450000Y-7972000D01*
X18550000Y-7922000D02*
G75*
G02*
X18450000Y-7922000I-50000J0D01*
G01*
X18450000Y-7922000D02*
G75*
G02*
X18550000Y-7922000I50000J0D01*
G01*
X18450000Y-8126000D02*
X18550000Y-8226000D01*
X18550000Y-8126000D02*
X18450000Y-8226000D01*
X18550000Y-8176000D02*
G75*
G02*
X18450000Y-8176000I-50000J0D01*
G01*
X18450000Y-8176000D02*
G75*
G02*
X18550000Y-8176000I50000J0D01*
G01*
X18450000Y-8380000D02*
X18550000Y-8480000D01*
X18550000Y-8380000D02*
X18450000Y-8480000D01*
X18550000Y-8430000D02*
G75*
G02*
X18450000Y-8430000I-50000J0D01*
G01*
X18450000Y-8430000D02*
G75*
G02*
X18550000Y-8430000I50000J0D01*
G01*
X18450000Y-8634000D02*
X18550000Y-8734000D01*
X18550000Y-8634000D02*
X18450000Y-8734000D01*
X18550000Y-8684000D02*
G75*
G02*
X18450000Y-8684000I-50000J0D01*
G01*
X18450000Y-8684000D02*
G75*
G02*
X18550000Y-8684000I50000J0D01*
G01*
X18450000Y-8888000D02*
X18550000Y-8988000D01*
X18550000Y-8888000D02*
X18450000Y-8988000D01*
X18550000Y-8938000D02*
G75*
G02*
X18450000Y-8938000I-50000J0D01*
G01*
X18450000Y-8938000D02*
G75*
G02*
X18550000Y-8938000I50000J0D01*
G01*
X18450000Y-9142000D02*
X18550000Y-9242000D01*
X18550000Y-9142000D02*
X18450000Y-9242000D01*
X18550000Y-9192000D02*
G75*
G02*
X18450000Y-9192000I-50000J0D01*
G01*
X18450000Y-9192000D02*
G75*
G02*
X18550000Y-9192000I50000J0D01*
G01*
X18450000Y-9396000D02*
X18550000Y-9496000D01*
X18550000Y-9396000D02*
X18450000Y-9496000D01*
X18550000Y-9446000D02*
G75*
G02*
X18450000Y-9446000I-50000J0D01*
G01*
X18450000Y-9446000D02*
G75*
G02*
X18550000Y-9446000I50000J0D01*
G01*
X18450000Y-9650000D02*
X18550000Y-9750000D01*
X18550000Y-9650000D02*
X18450000Y-9750000D01*
X18550000Y-9700000D02*
G75*
G02*
X18450000Y-9700000I-50000J0D01*
G01*
X18450000Y-9700000D02*
G75*
G02*
X18550000Y-9700000I50000J0D01*
G01*
X18450000Y-9904000D02*
X18550000Y-10004000D01*
X18550000Y-9904000D02*
X18450000Y-10004000D01*
X18550000Y-9954000D02*
G75*
G02*
X18450000Y-9954000I-50000J0D01*
G01*
X18450000Y-9954000D02*
G75*
G02*
X18550000Y-9954000I50000J0D01*
G01*
X18450000Y-10158000D02*
X18550000Y-10258000D01*
X18550000Y-10158000D02*
X18450000Y-10258000D01*
X18550000Y-10208000D02*
G75*
G02*
X18450000Y-10208000I-50000J0D01*
G01*
X18450000Y-10208000D02*
G75*
G02*
X18550000Y-10208000I50000J0D01*
G01*
X18450000Y-10412000D02*
X18550000Y-10512000D01*
X18550000Y-10412000D02*
X18450000Y-10512000D01*
X18550000Y-10462000D02*
G75*
G02*
X18450000Y-10462000I-50000J0D01*
G01*
X18450000Y-10462000D02*
G75*
G02*
X18550000Y-10462000I50000J0D01*
G01*
X18692000Y-5500000D02*
X18792000Y-5600000D01*
X18792000Y-5500000D02*
X18692000Y-5600000D01*
X18792000Y-5550000D02*
G75*
G02*
X18692000Y-5550000I-50000J0D01*
G01*
X18692000Y-5550000D02*
G75*
G02*
X18792000Y-5550000I50000J0D01*
G01*
X18946000Y-5500000D02*
X19046000Y-5600000D01*
X19046000Y-5500000D02*
X18946000Y-5600000D01*
X19046000Y-5550000D02*
G75*
G02*
X18946000Y-5550000I-50000J0D01*
G01*
X18946000Y-5550000D02*
G75*
G02*
X19046000Y-5550000I50000J0D01*
G01*
X19016000Y-7900000D02*
X19116000Y-8000000D01*
X19116000Y-7900000D02*
X19016000Y-8000000D01*
X19116000Y-7950000D02*
G75*
G02*
X19016000Y-7950000I-50000J0D01*
G01*
X19016000Y-7950000D02*
G75*
G02*
X19116000Y-7950000I50000J0D01*
G01*
X19016000Y-8177000D02*
X19116000Y-8277000D01*
X19116000Y-8177000D02*
X19016000Y-8277000D01*
X19116000Y-8227000D02*
G75*
G02*
X19016000Y-8227000I-50000J0D01*
G01*
X19016000Y-8227000D02*
G75*
G02*
X19116000Y-8227000I50000J0D01*
G01*
X19016000Y-8454000D02*
X19116000Y-8554000D01*
X19116000Y-8454000D02*
X19016000Y-8554000D01*
X19116000Y-8504000D02*
G75*
G02*
X19016000Y-8504000I-50000J0D01*
G01*
X19016000Y-8504000D02*
G75*
G02*
X19116000Y-8504000I50000J0D01*
G01*
X19016000Y-8731000D02*
X19116000Y-8831000D01*
X19116000Y-8731000D02*
X19016000Y-8831000D01*
X19116000Y-8781000D02*
G75*
G02*
X19016000Y-8781000I-50000J0D01*
G01*
X19016000Y-8781000D02*
G75*
G02*
X19116000Y-8781000I50000J0D01*
G01*
X19016000Y-9008000D02*
X19116000Y-9108000D01*
X19116000Y-9008000D02*
X19016000Y-9108000D01*
X19116000Y-9058000D02*
G75*
G02*
X19016000Y-9058000I-50000J0D01*
G01*
X19016000Y-9058000D02*
G75*
G02*
X19116000Y-9058000I50000J0D01*
G01*
X19200000Y-5500000D02*
X19300000Y-5600000D01*
X19300000Y-5500000D02*
X19200000Y-5600000D01*
X19300000Y-5550000D02*
G75*
G02*
X19200000Y-5550000I-50000J0D01*
G01*
X19200000Y-5550000D02*
G75*
G02*
X19300000Y-5550000I50000J0D01*
G01*
X19300000Y-8038500D02*
X19400000Y-8138500D01*
X19400000Y-8038500D02*
X19300000Y-8138500D01*
X19400000Y-8088500D02*
G75*
G02*
X19300000Y-8088500I-50000J0D01*
G01*
X19300000Y-8088500D02*
G75*
G02*
X19400000Y-8088500I50000J0D01*
G01*
X19300000Y-8315500D02*
X19400000Y-8415500D01*
X19400000Y-8315500D02*
X19300000Y-8415500D01*
X19400000Y-8365500D02*
G75*
G02*
X19300000Y-8365500I-50000J0D01*
G01*
X19300000Y-8365500D02*
G75*
G02*
X19400000Y-8365500I50000J0D01*
G01*
X19300000Y-8592500D02*
X19400000Y-8692500D01*
X19400000Y-8592500D02*
X19300000Y-8692500D01*
X19400000Y-8642500D02*
G75*
G02*
X19300000Y-8642500I-50000J0D01*
G01*
X19300000Y-8642500D02*
G75*
G02*
X19400000Y-8642500I50000J0D01*
G01*
X19300000Y-8869500D02*
X19400000Y-8969500D01*
X19400000Y-8869500D02*
X19300000Y-8969500D01*
X19400000Y-8919500D02*
G75*
G02*
X19300000Y-8919500I-50000J0D01*
G01*
X19300000Y-8919500D02*
G75*
G02*
X19400000Y-8919500I50000J0D01*
G01*
D13*
X14895000Y-7295000D02*
X15005000Y-7405000D01*
X15005000Y-7295000D02*
X14895000Y-7405000D01*
X14950000Y-7295000D02*
X14950000Y-7405000D01*
X14895000Y-7350000D02*
X15005000Y-7350000D01*
X14895000Y-7549000D02*
X15005000Y-7659000D01*
X15005000Y-7549000D02*
X14895000Y-7659000D01*
X14950000Y-7549000D02*
X14950000Y-7659000D01*
X14895000Y-7604000D02*
X15005000Y-7604000D01*
X14895000Y-7803000D02*
X15005000Y-7913000D01*
X15005000Y-7803000D02*
X14895000Y-7913000D01*
X14950000Y-7803000D02*
X14950000Y-7913000D01*
X14895000Y-7858000D02*
X15005000Y-7858000D01*
D14*
X17020000Y-5490000D02*
X17140000Y-5610000D01*
X17140000Y-5490000D02*
X17020000Y-5610000D01*
X17122427Y-5592427D02*
X17122427Y-5507573D01*
X17037573Y-5507573D01*
X17037573Y-5592427D01*
X17122427Y-5592427D01*
X17274000Y-5490000D02*
X17394000Y-5610000D01*
X17394000Y-5490000D02*
X17274000Y-5610000D01*
X17376427Y-5592427D02*
X17376427Y-5507573D01*
X17291573Y-5507573D01*
X17291573Y-5592427D01*
X17376427Y-5592427D01*
X17528000Y-5490000D02*
X17648000Y-5610000D01*
X17648000Y-5490000D02*
X17528000Y-5610000D01*
X17630427Y-5592427D02*
X17630427Y-5507573D01*
X17545573Y-5507573D01*
X17545573Y-5592427D01*
X17630427Y-5592427D01*
X17782000Y-5490000D02*
X17902000Y-5610000D01*
X17902000Y-5490000D02*
X17782000Y-5610000D01*
X17884427Y-5592427D02*
X17884427Y-5507573D01*
X17799573Y-5507573D01*
X17799573Y-5592427D01*
X17884427Y-5592427D01*
X18036000Y-5490000D02*
X18156000Y-5610000D01*
X18156000Y-5490000D02*
X18036000Y-5610000D01*
X18138427Y-5592427D02*
X18138427Y-5507573D01*
X18053573Y-5507573D01*
X18053573Y-5592427D01*
X18138427Y-5592427D01*
X18290000Y-5490000D02*
X18410000Y-5610000D01*
X18410000Y-5490000D02*
X18290000Y-5610000D01*
X18392427Y-5592427D02*
X18392427Y-5507573D01*
X18307573Y-5507573D01*
X18307573Y-5592427D01*
X18392427Y-5592427D01*
D15*
X18785000Y-6035000D02*
X18915000Y-6165000D01*
X18915000Y-6035000D02*
X18785000Y-6165000D01*
X18850000Y-6165000D02*
X18915000Y-6100000D01*
X18850000Y-6035000D01*
X18785000Y-6100000D01*
X18850000Y-6165000D01*
X18785000Y-6535000D02*
X18915000Y-6665000D01*
X18915000Y-6535000D02*
X18785000Y-6665000D01*
X18850000Y-6665000D02*
X18915000Y-6600000D01*
X18850000Y-6535000D01*
X18785000Y-6600000D01*
X18850000Y-6665000D01*
X19785000Y-6285000D02*
X19915000Y-6415000D01*
X19915000Y-6285000D02*
X19785000Y-6415000D01*
X19850000Y-6415000D02*
X19915000Y-6350000D01*
X19850000Y-6285000D01*
X19785000Y-6350000D01*
X19850000Y-6415000D01*
D16*
X19208000Y-7094000D02*
X19208000Y-7414000D01*
X19048000Y-7254000D02*
X19368000Y-7254000D01*
X19368000Y-7254000D02*
G75*
G02*
X19048000Y-7254000I-160000J0D01*
G01*
X19048000Y-7254000D02*
G75*
G02*
X19368000Y-7254000I160000J0D01*
G01*
X19208000Y-9594000D02*
X19208000Y-9914000D01*
X19048000Y-9754000D02*
X19368000Y-9754000D01*
X19368000Y-9754000D02*
G75*
G02*
X19048000Y-9754000I-160000J0D01*
G01*
X19048000Y-9754000D02*
G75*
G02*
X19368000Y-9754000I160000J0D01*
G01*
D11*
X14858277Y-11213984D02*
X14858277Y-11013984D01*
X14858277Y-11013984D02*
X14905896Y-11013984D01*
X14905896Y-11013984D02*
X14934467Y-11023508D01*
X14934467Y-11023508D02*
X14953515Y-11042555D01*
X14953515Y-11042555D02*
X14963039Y-11061603D01*
X14963039Y-11061603D02*
X14972562Y-11099698D01*
X14972562Y-11099698D02*
X14972562Y-11128270D01*
X14972562Y-11128270D02*
X14963039Y-11166365D01*
X14963039Y-11166365D02*
X14953515Y-11185412D01*
X14953515Y-11185412D02*
X14934467Y-11204460D01*
X14934467Y-11204460D02*
X14905896Y-11213984D01*
X14905896Y-11213984D02*
X14858277Y-11213984D01*
X15058277Y-11213984D02*
X15058277Y-11080650D01*
X15058277Y-11118746D02*
X15067801Y-11099698D01*
X15067801Y-11099698D02*
X15077324Y-11090174D01*
X15077324Y-11090174D02*
X15096372Y-11080650D01*
X15096372Y-11080650D02*
X15115420Y-11080650D01*
X15182086Y-11213984D02*
X15182086Y-11080650D01*
X15182086Y-11013984D02*
X15172562Y-11023508D01*
X15172562Y-11023508D02*
X15182086Y-11033031D01*
X15182086Y-11033031D02*
X15191610Y-11023508D01*
X15191610Y-11023508D02*
X15182086Y-11013984D01*
X15182086Y-11013984D02*
X15182086Y-11033031D01*
X15305896Y-11213984D02*
X15286848Y-11204460D01*
X15286848Y-11204460D02*
X15277324Y-11185412D01*
X15277324Y-11185412D02*
X15277324Y-11013984D01*
X15410658Y-11213984D02*
X15391610Y-11204460D01*
X15391610Y-11204460D02*
X15382086Y-11185412D01*
X15382086Y-11185412D02*
X15382086Y-11013984D01*
X15639229Y-11213984D02*
X15639229Y-11013984D01*
X15639229Y-11013984D02*
X15705896Y-11156841D01*
X15705896Y-11156841D02*
X15772562Y-11013984D01*
X15772562Y-11013984D02*
X15772562Y-11213984D01*
X15953515Y-11213984D02*
X15953515Y-11109222D01*
X15953515Y-11109222D02*
X15943991Y-11090174D01*
X15943991Y-11090174D02*
X15924943Y-11080650D01*
X15924943Y-11080650D02*
X15886848Y-11080650D01*
X15886848Y-11080650D02*
X15867801Y-11090174D01*
X15953515Y-11204460D02*
X15934467Y-11213984D01*
X15934467Y-11213984D02*
X15886848Y-11213984D01*
X15886848Y-11213984D02*
X15867801Y-11204460D01*
X15867801Y-11204460D02*
X15858277Y-11185412D01*
X15858277Y-11185412D02*
X15858277Y-11166365D01*
X15858277Y-11166365D02*
X15867801Y-11147317D01*
X15867801Y-11147317D02*
X15886848Y-11137793D01*
X15886848Y-11137793D02*
X15934467Y-11137793D01*
X15934467Y-11137793D02*
X15953515Y-11128270D01*
X16048753Y-11080650D02*
X16048753Y-11280650D01*
X16048753Y-11090174D02*
X16067801Y-11080650D01*
X16067801Y-11080650D02*
X16105896Y-11080650D01*
X16105896Y-11080650D02*
X16124943Y-11090174D01*
X16124943Y-11090174D02*
X16134467Y-11099698D01*
X16134467Y-11099698D02*
X16143991Y-11118746D01*
X16143991Y-11118746D02*
X16143991Y-11175889D01*
X16143991Y-11175889D02*
X16134467Y-11194936D01*
X16134467Y-11194936D02*
X16124943Y-11204460D01*
X16124943Y-11204460D02*
X16105896Y-11213984D01*
X16105896Y-11213984D02*
X16067801Y-11213984D01*
X16067801Y-11213984D02*
X16048753Y-11204460D01*
X16229705Y-11194936D02*
X16239229Y-11204460D01*
X16239229Y-11204460D02*
X16229705Y-11213984D01*
X16229705Y-11213984D02*
X16220182Y-11204460D01*
X16220182Y-11204460D02*
X16229705Y-11194936D01*
X16229705Y-11194936D02*
X16229705Y-11213984D01*
X16229705Y-11090174D02*
X16239229Y-11099698D01*
X16239229Y-11099698D02*
X16229705Y-11109222D01*
X16229705Y-11109222D02*
X16220182Y-11099698D01*
X16220182Y-11099698D02*
X16229705Y-11090174D01*
X16229705Y-11090174D02*
X16229705Y-11109222D01*
D12*
X14567500Y-11527500D02*
X14597500Y-11557500D01*
X14597500Y-11527500D02*
X14567500Y-11557500D01*
D11*
X14896372Y-11433984D02*
X14915420Y-11433984D01*
X14915420Y-11433984D02*
X14934467Y-11443508D01*
X14934467Y-11443508D02*
X14943991Y-11453031D01*
X14943991Y-11453031D02*
X14953515Y-11472079D01*
X14953515Y-11472079D02*
X14963039Y-11510174D01*
X14963039Y-11510174D02*
X14963039Y-11557793D01*
X14963039Y-11557793D02*
X14953515Y-11595888D01*
X14953515Y-11595888D02*
X14943991Y-11614936D01*
X14943991Y-11614936D02*
X14934467Y-11624460D01*
X14934467Y-11624460D02*
X14915420Y-11633984D01*
X14915420Y-11633984D02*
X14896372Y-11633984D01*
X14896372Y-11633984D02*
X14877324Y-11624460D01*
X14877324Y-11624460D02*
X14867801Y-11614936D01*
X14867801Y-11614936D02*
X14858277Y-11595888D01*
X14858277Y-11595888D02*
X14848753Y-11557793D01*
X14848753Y-11557793D02*
X14848753Y-11510174D01*
X14848753Y-11510174D02*
X14858277Y-11472079D01*
X14858277Y-11472079D02*
X14867801Y-11453031D01*
X14867801Y-11453031D02*
X14877324Y-11443508D01*
X14877324Y-11443508D02*
X14896372Y-11433984D01*
X15048753Y-11614936D02*
X15058277Y-11624460D01*
X15058277Y-11624460D02*
X15048753Y-11633984D01*
X15048753Y-11633984D02*
X15039229Y-11624460D01*
X15039229Y-11624460D02*
X15048753Y-11614936D01*
X15048753Y-11614936D02*
X15048753Y-11633984D01*
X15124943Y-11433984D02*
X15248753Y-11433984D01*
X15248753Y-11433984D02*
X15182086Y-11510174D01*
X15182086Y-11510174D02*
X15210658Y-11510174D01*
X15210658Y-11510174D02*
X15229705Y-11519698D01*
X15229705Y-11519698D02*
X15239229Y-11529222D01*
X15239229Y-11529222D02*
X15248753Y-11548269D01*
X15248753Y-11548269D02*
X15248753Y-11595888D01*
X15248753Y-11595888D02*
X15239229Y-11614936D01*
X15239229Y-11614936D02*
X15229705Y-11624460D01*
X15229705Y-11624460D02*
X15210658Y-11633984D01*
X15210658Y-11633984D02*
X15153515Y-11633984D01*
X15153515Y-11633984D02*
X15134467Y-11624460D01*
X15134467Y-11624460D02*
X15124943Y-11614936D01*
X15372562Y-11433984D02*
X15391610Y-11433984D01*
X15391610Y-11433984D02*
X15410658Y-11443508D01*
X15410658Y-11443508D02*
X15420182Y-11453031D01*
X15420182Y-11453031D02*
X15429705Y-11472079D01*
X15429705Y-11472079D02*
X15439229Y-11510174D01*
X15439229Y-11510174D02*
X15439229Y-11557793D01*
X15439229Y-11557793D02*
X15429705Y-11595888D01*
X15429705Y-11595888D02*
X15420182Y-11614936D01*
X15420182Y-11614936D02*
X15410658Y-11624460D01*
X15410658Y-11624460D02*
X15391610Y-11633984D01*
X15391610Y-11633984D02*
X15372562Y-11633984D01*
X15372562Y-11633984D02*
X15353515Y-11624460D01*
X15353515Y-11624460D02*
X15343991Y-11614936D01*
X15343991Y-11614936D02*
X15334467Y-11595888D01*
X15334467Y-11595888D02*
X15324943Y-11557793D01*
X15324943Y-11557793D02*
X15324943Y-11510174D01*
X15324943Y-11510174D02*
X15334467Y-11472079D01*
X15334467Y-11472079D02*
X15343991Y-11453031D01*
X15343991Y-11453031D02*
X15353515Y-11443508D01*
X15353515Y-11443508D02*
X15372562Y-11433984D01*
X15563039Y-11433984D02*
X15582086Y-11433984D01*
X15582086Y-11433984D02*
X15601134Y-11443508D01*
X15601134Y-11443508D02*
X15610658Y-11453031D01*
X15610658Y-11453031D02*
X15620182Y-11472079D01*
X15620182Y-11472079D02*
X15629705Y-11510174D01*
X15629705Y-11510174D02*
X15629705Y-11557793D01*
X15629705Y-11557793D02*
X15620182Y-11595888D01*
X15620182Y-11595888D02*
X15610658Y-11614936D01*
X15610658Y-11614936D02*
X15601134Y-11624460D01*
X15601134Y-11624460D02*
X15582086Y-11633984D01*
X15582086Y-11633984D02*
X15563039Y-11633984D01*
X15563039Y-11633984D02*
X15543991Y-11624460D01*
X15543991Y-11624460D02*
X15534467Y-11614936D01*
X15534467Y-11614936D02*
X15524943Y-11595888D01*
X15524943Y-11595888D02*
X15515420Y-11557793D01*
X15515420Y-11557793D02*
X15515420Y-11510174D01*
X15515420Y-11510174D02*
X15524943Y-11472079D01*
X15524943Y-11472079D02*
X15534467Y-11453031D01*
X15534467Y-11453031D02*
X15543991Y-11443508D01*
X15543991Y-11443508D02*
X15563039Y-11433984D01*
X15715420Y-11633984D02*
X15715420Y-11500650D01*
X15715420Y-11519698D02*
X15724943Y-11510174D01*
X15724943Y-11510174D02*
X15743991Y-11500650D01*
X15743991Y-11500650D02*
X15772563Y-11500650D01*
X15772563Y-11500650D02*
X15791610Y-11510174D01*
X15791610Y-11510174D02*
X15801134Y-11529222D01*
X15801134Y-11529222D02*
X15801134Y-11633984D01*
X15801134Y-11529222D02*
X15810658Y-11510174D01*
X15810658Y-11510174D02*
X15829705Y-11500650D01*
X15829705Y-11500650D02*
X15858277Y-11500650D01*
X15858277Y-11500650D02*
X15877324Y-11510174D01*
X15877324Y-11510174D02*
X15886848Y-11529222D01*
X15886848Y-11529222D02*
X15886848Y-11633984D01*
X15982086Y-11633984D02*
X15982086Y-11500650D01*
X15982086Y-11519698D02*
X15991610Y-11510174D01*
X15991610Y-11510174D02*
X16010658Y-11500650D01*
X16010658Y-11500650D02*
X16039229Y-11500650D01*
X16039229Y-11500650D02*
X16058277Y-11510174D01*
X16058277Y-11510174D02*
X16067801Y-11529222D01*
X16067801Y-11529222D02*
X16067801Y-11633984D01*
X16067801Y-11529222D02*
X16077324Y-11510174D01*
X16077324Y-11510174D02*
X16096372Y-11500650D01*
X16096372Y-11500650D02*
X16124943Y-11500650D01*
X16124943Y-11500650D02*
X16143991Y-11510174D01*
X16143991Y-11510174D02*
X16153515Y-11529222D01*
X16153515Y-11529222D02*
X16153515Y-11633984D01*
X16543991Y-11424460D02*
X16372563Y-11681603D01*
X16801134Y-11433984D02*
X16820182Y-11433984D01*
X16820182Y-11433984D02*
X16839229Y-11443508D01*
X16839229Y-11443508D02*
X16848753Y-11453031D01*
X16848753Y-11453031D02*
X16858277Y-11472079D01*
X16858277Y-11472079D02*
X16867801Y-11510174D01*
X16867801Y-11510174D02*
X16867801Y-11557793D01*
X16867801Y-11557793D02*
X16858277Y-11595888D01*
X16858277Y-11595888D02*
X16848753Y-11614936D01*
X16848753Y-11614936D02*
X16839229Y-11624460D01*
X16839229Y-11624460D02*
X16820182Y-11633984D01*
X16820182Y-11633984D02*
X16801134Y-11633984D01*
X16801134Y-11633984D02*
X16782087Y-11624460D01*
X16782087Y-11624460D02*
X16772563Y-11614936D01*
X16772563Y-11614936D02*
X16763039Y-11595888D01*
X16763039Y-11595888D02*
X16753515Y-11557793D01*
X16753515Y-11557793D02*
X16753515Y-11510174D01*
X16753515Y-11510174D02*
X16763039Y-11472079D01*
X16763039Y-11472079D02*
X16772563Y-11453031D01*
X16772563Y-11453031D02*
X16782087Y-11443508D01*
X16782087Y-11443508D02*
X16801134Y-11433984D01*
X16953515Y-11614936D02*
X16963039Y-11624460D01*
X16963039Y-11624460D02*
X16953515Y-11633984D01*
X16953515Y-11633984D02*
X16943991Y-11624460D01*
X16943991Y-11624460D02*
X16953515Y-11614936D01*
X16953515Y-11614936D02*
X16953515Y-11633984D01*
X17086848Y-11433984D02*
X17105896Y-11433984D01*
X17105896Y-11433984D02*
X17124944Y-11443508D01*
X17124944Y-11443508D02*
X17134468Y-11453031D01*
X17134468Y-11453031D02*
X17143991Y-11472079D01*
X17143991Y-11472079D02*
X17153515Y-11510174D01*
X17153515Y-11510174D02*
X17153515Y-11557793D01*
X17153515Y-11557793D02*
X17143991Y-11595888D01*
X17143991Y-11595888D02*
X17134468Y-11614936D01*
X17134468Y-11614936D02*
X17124944Y-11624460D01*
X17124944Y-11624460D02*
X17105896Y-11633984D01*
X17105896Y-11633984D02*
X17086848Y-11633984D01*
X17086848Y-11633984D02*
X17067801Y-11624460D01*
X17067801Y-11624460D02*
X17058277Y-11614936D01*
X17058277Y-11614936D02*
X17048753Y-11595888D01*
X17048753Y-11595888D02*
X17039229Y-11557793D01*
X17039229Y-11557793D02*
X17039229Y-11510174D01*
X17039229Y-11510174D02*
X17048753Y-11472079D01*
X17048753Y-11472079D02*
X17058277Y-11453031D01*
X17058277Y-11453031D02*
X17067801Y-11443508D01*
X17067801Y-11443508D02*
X17086848Y-11433984D01*
X17343991Y-11633984D02*
X17229706Y-11633984D01*
X17286848Y-11633984D02*
X17286848Y-11433984D01*
X17286848Y-11433984D02*
X17267801Y-11462555D01*
X17267801Y-11462555D02*
X17248753Y-11481603D01*
X17248753Y-11481603D02*
X17229706Y-11491127D01*
X17534468Y-11633984D02*
X17420182Y-11633984D01*
X17477325Y-11633984D02*
X17477325Y-11433984D01*
X17477325Y-11433984D02*
X17458277Y-11462555D01*
X17458277Y-11462555D02*
X17439229Y-11481603D01*
X17439229Y-11481603D02*
X17420182Y-11491127D01*
X17648753Y-11519698D02*
X17629706Y-11510174D01*
X17629706Y-11510174D02*
X17620182Y-11500650D01*
X17620182Y-11500650D02*
X17610658Y-11481603D01*
X17610658Y-11481603D02*
X17610658Y-11472079D01*
X17610658Y-11472079D02*
X17620182Y-11453031D01*
X17620182Y-11453031D02*
X17629706Y-11443508D01*
X17629706Y-11443508D02*
X17648753Y-11433984D01*
X17648753Y-11433984D02*
X17686849Y-11433984D01*
X17686849Y-11433984D02*
X17705896Y-11443508D01*
X17705896Y-11443508D02*
X17715420Y-11453031D01*
X17715420Y-11453031D02*
X17724944Y-11472079D01*
X17724944Y-11472079D02*
X17724944Y-11481603D01*
X17724944Y-11481603D02*
X17715420Y-11500650D01*
X17715420Y-11500650D02*
X17705896Y-11510174D01*
X17705896Y-11510174D02*
X17686849Y-11519698D01*
X17686849Y-11519698D02*
X17648753Y-11519698D01*
X17648753Y-11519698D02*
X17629706Y-11529222D01*
X17629706Y-11529222D02*
X17620182Y-11538746D01*
X17620182Y-11538746D02*
X17610658Y-11557793D01*
X17610658Y-11557793D02*
X17610658Y-11595888D01*
X17610658Y-11595888D02*
X17620182Y-11614936D01*
X17620182Y-11614936D02*
X17629706Y-11624460D01*
X17629706Y-11624460D02*
X17648753Y-11633984D01*
X17648753Y-11633984D02*
X17686849Y-11633984D01*
X17686849Y-11633984D02*
X17705896Y-11624460D01*
X17705896Y-11624460D02*
X17715420Y-11614936D01*
X17715420Y-11614936D02*
X17724944Y-11595888D01*
X17724944Y-11595888D02*
X17724944Y-11557793D01*
X17724944Y-11557793D02*
X17715420Y-11538746D01*
X17715420Y-11538746D02*
X17705896Y-11529222D01*
X17705896Y-11529222D02*
X17686849Y-11519698D01*
X17801134Y-11433984D02*
X17801134Y-11472079D01*
X17877325Y-11433984D02*
X17877325Y-11472079D01*
X18172563Y-11710174D02*
X18163039Y-11700650D01*
X18163039Y-11700650D02*
X18143991Y-11672079D01*
X18143991Y-11672079D02*
X18134468Y-11653031D01*
X18134468Y-11653031D02*
X18124944Y-11624460D01*
X18124944Y-11624460D02*
X18115420Y-11576841D01*
X18115420Y-11576841D02*
X18115420Y-11538746D01*
X18115420Y-11538746D02*
X18124944Y-11491127D01*
X18124944Y-11491127D02*
X18134468Y-11462555D01*
X18134468Y-11462555D02*
X18143991Y-11443508D01*
X18143991Y-11443508D02*
X18163039Y-11414936D01*
X18163039Y-11414936D02*
X18172563Y-11405412D01*
X18353515Y-11633984D02*
X18239230Y-11633984D01*
X18296372Y-11633984D02*
X18296372Y-11433984D01*
X18296372Y-11433984D02*
X18277325Y-11462555D01*
X18277325Y-11462555D02*
X18258277Y-11481603D01*
X18258277Y-11481603D02*
X18239230Y-11491127D01*
X18467801Y-11519698D02*
X18448753Y-11510174D01*
X18448753Y-11510174D02*
X18439230Y-11500650D01*
X18439230Y-11500650D02*
X18429706Y-11481603D01*
X18429706Y-11481603D02*
X18429706Y-11472079D01*
X18429706Y-11472079D02*
X18439230Y-11453031D01*
X18439230Y-11453031D02*
X18448753Y-11443508D01*
X18448753Y-11443508D02*
X18467801Y-11433984D01*
X18467801Y-11433984D02*
X18505896Y-11433984D01*
X18505896Y-11433984D02*
X18524944Y-11443508D01*
X18524944Y-11443508D02*
X18534468Y-11453031D01*
X18534468Y-11453031D02*
X18543991Y-11472079D01*
X18543991Y-11472079D02*
X18543991Y-11481603D01*
X18543991Y-11481603D02*
X18534468Y-11500650D01*
X18534468Y-11500650D02*
X18524944Y-11510174D01*
X18524944Y-11510174D02*
X18505896Y-11519698D01*
X18505896Y-11519698D02*
X18467801Y-11519698D01*
X18467801Y-11519698D02*
X18448753Y-11529222D01*
X18448753Y-11529222D02*
X18439230Y-11538746D01*
X18439230Y-11538746D02*
X18429706Y-11557793D01*
X18429706Y-11557793D02*
X18429706Y-11595888D01*
X18429706Y-11595888D02*
X18439230Y-11614936D01*
X18439230Y-11614936D02*
X18448753Y-11624460D01*
X18448753Y-11624460D02*
X18467801Y-11633984D01*
X18467801Y-11633984D02*
X18505896Y-11633984D01*
X18505896Y-11633984D02*
X18524944Y-11624460D01*
X18524944Y-11624460D02*
X18534468Y-11614936D01*
X18534468Y-11614936D02*
X18543991Y-11595888D01*
X18543991Y-11595888D02*
X18543991Y-11557793D01*
X18543991Y-11557793D02*
X18534468Y-11538746D01*
X18534468Y-11538746D02*
X18524944Y-11529222D01*
X18524944Y-11529222D02*
X18505896Y-11519698D01*
X18782087Y-11633984D02*
X18782087Y-11433984D01*
X18867801Y-11633984D02*
X18867801Y-11529222D01*
X18867801Y-11529222D02*
X18858277Y-11510174D01*
X18858277Y-11510174D02*
X18839230Y-11500650D01*
X18839230Y-11500650D02*
X18810658Y-11500650D01*
X18810658Y-11500650D02*
X18791611Y-11510174D01*
X18791611Y-11510174D02*
X18782087Y-11519698D01*
X18991611Y-11633984D02*
X18972563Y-11624460D01*
X18972563Y-11624460D02*
X18963039Y-11614936D01*
X18963039Y-11614936D02*
X18953515Y-11595888D01*
X18953515Y-11595888D02*
X18953515Y-11538746D01*
X18953515Y-11538746D02*
X18963039Y-11519698D01*
X18963039Y-11519698D02*
X18972563Y-11510174D01*
X18972563Y-11510174D02*
X18991611Y-11500650D01*
X18991611Y-11500650D02*
X19020182Y-11500650D01*
X19020182Y-11500650D02*
X19039230Y-11510174D01*
X19039230Y-11510174D02*
X19048753Y-11519698D01*
X19048753Y-11519698D02*
X19058277Y-11538746D01*
X19058277Y-11538746D02*
X19058277Y-11595888D01*
X19058277Y-11595888D02*
X19048753Y-11614936D01*
X19048753Y-11614936D02*
X19039230Y-11624460D01*
X19039230Y-11624460D02*
X19020182Y-11633984D01*
X19020182Y-11633984D02*
X18991611Y-11633984D01*
X19172563Y-11633984D02*
X19153515Y-11624460D01*
X19153515Y-11624460D02*
X19143992Y-11605412D01*
X19143992Y-11605412D02*
X19143992Y-11433984D01*
X19324944Y-11624460D02*
X19305896Y-11633984D01*
X19305896Y-11633984D02*
X19267801Y-11633984D01*
X19267801Y-11633984D02*
X19248753Y-11624460D01*
X19248753Y-11624460D02*
X19239230Y-11605412D01*
X19239230Y-11605412D02*
X19239230Y-11529222D01*
X19239230Y-11529222D02*
X19248753Y-11510174D01*
X19248753Y-11510174D02*
X19267801Y-11500650D01*
X19267801Y-11500650D02*
X19305896Y-11500650D01*
X19305896Y-11500650D02*
X19324944Y-11510174D01*
X19324944Y-11510174D02*
X19334468Y-11529222D01*
X19334468Y-11529222D02*
X19334468Y-11548269D01*
X19334468Y-11548269D02*
X19239230Y-11567317D01*
X19410658Y-11624460D02*
X19429706Y-11633984D01*
X19429706Y-11633984D02*
X19467801Y-11633984D01*
X19467801Y-11633984D02*
X19486849Y-11624460D01*
X19486849Y-11624460D02*
X19496373Y-11605412D01*
X19496373Y-11605412D02*
X19496373Y-11595888D01*
X19496373Y-11595888D02*
X19486849Y-11576841D01*
X19486849Y-11576841D02*
X19467801Y-11567317D01*
X19467801Y-11567317D02*
X19439230Y-11567317D01*
X19439230Y-11567317D02*
X19420182Y-11557793D01*
X19420182Y-11557793D02*
X19410658Y-11538746D01*
X19410658Y-11538746D02*
X19410658Y-11529222D01*
X19410658Y-11529222D02*
X19420182Y-11510174D01*
X19420182Y-11510174D02*
X19439230Y-11500650D01*
X19439230Y-11500650D02*
X19467801Y-11500650D01*
X19467801Y-11500650D02*
X19486849Y-11510174D01*
X19563039Y-11710174D02*
X19572563Y-11700650D01*
X19572563Y-11700650D02*
X19591611Y-11672079D01*
X19591611Y-11672079D02*
X19601134Y-11653031D01*
X19601134Y-11653031D02*
X19610658Y-11624460D01*
X19610658Y-11624460D02*
X19620182Y-11576841D01*
X19620182Y-11576841D02*
X19620182Y-11538746D01*
X19620182Y-11538746D02*
X19610658Y-11491127D01*
X19610658Y-11491127D02*
X19601134Y-11462555D01*
X19601134Y-11462555D02*
X19591611Y-11443508D01*
X19591611Y-11443508D02*
X19572563Y-11414936D01*
X19572563Y-11414936D02*
X19563039Y-11405412D01*
D12*
X14597500Y-11806500D02*
G75*
G02*
X14537500Y-11806500I-30000J0D01*
G01*
X14537500Y-11806500D02*
G75*
G02*
X14597500Y-11806500I30000J0D01*
G01*
D11*
X14896372Y-11697984D02*
X14915420Y-11697984D01*
X14915420Y-11697984D02*
X14934467Y-11707508D01*
X14934467Y-11707508D02*
X14943991Y-11717031D01*
X14943991Y-11717031D02*
X14953515Y-11736079D01*
X14953515Y-11736079D02*
X14963039Y-11774174D01*
X14963039Y-11774174D02*
X14963039Y-11821793D01*
X14963039Y-11821793D02*
X14953515Y-11859888D01*
X14953515Y-11859888D02*
X14943991Y-11878936D01*
X14943991Y-11878936D02*
X14934467Y-11888460D01*
X14934467Y-11888460D02*
X14915420Y-11897984D01*
X14915420Y-11897984D02*
X14896372Y-11897984D01*
X14896372Y-11897984D02*
X14877324Y-11888460D01*
X14877324Y-11888460D02*
X14867801Y-11878936D01*
X14867801Y-11878936D02*
X14858277Y-11859888D01*
X14858277Y-11859888D02*
X14848753Y-11821793D01*
X14848753Y-11821793D02*
X14848753Y-11774174D01*
X14848753Y-11774174D02*
X14858277Y-11736079D01*
X14858277Y-11736079D02*
X14867801Y-11717031D01*
X14867801Y-11717031D02*
X14877324Y-11707508D01*
X14877324Y-11707508D02*
X14896372Y-11697984D01*
X15048753Y-11878936D02*
X15058277Y-11888460D01*
X15058277Y-11888460D02*
X15048753Y-11897984D01*
X15048753Y-11897984D02*
X15039229Y-11888460D01*
X15039229Y-11888460D02*
X15048753Y-11878936D01*
X15048753Y-11878936D02*
X15048753Y-11897984D01*
X15229705Y-11697984D02*
X15191610Y-11697984D01*
X15191610Y-11697984D02*
X15172562Y-11707508D01*
X15172562Y-11707508D02*
X15163039Y-11717031D01*
X15163039Y-11717031D02*
X15143991Y-11745603D01*
X15143991Y-11745603D02*
X15134467Y-11783698D01*
X15134467Y-11783698D02*
X15134467Y-11859888D01*
X15134467Y-11859888D02*
X15143991Y-11878936D01*
X15143991Y-11878936D02*
X15153515Y-11888460D01*
X15153515Y-11888460D02*
X15172562Y-11897984D01*
X15172562Y-11897984D02*
X15210658Y-11897984D01*
X15210658Y-11897984D02*
X15229705Y-11888460D01*
X15229705Y-11888460D02*
X15239229Y-11878936D01*
X15239229Y-11878936D02*
X15248753Y-11859888D01*
X15248753Y-11859888D02*
X15248753Y-11812269D01*
X15248753Y-11812269D02*
X15239229Y-11793222D01*
X15239229Y-11793222D02*
X15229705Y-11783698D01*
X15229705Y-11783698D02*
X15210658Y-11774174D01*
X15210658Y-11774174D02*
X15172562Y-11774174D01*
X15172562Y-11774174D02*
X15153515Y-11783698D01*
X15153515Y-11783698D02*
X15143991Y-11793222D01*
X15143991Y-11793222D02*
X15134467Y-11812269D01*
X15372562Y-11697984D02*
X15391610Y-11697984D01*
X15391610Y-11697984D02*
X15410658Y-11707508D01*
X15410658Y-11707508D02*
X15420182Y-11717031D01*
X15420182Y-11717031D02*
X15429705Y-11736079D01*
X15429705Y-11736079D02*
X15439229Y-11774174D01*
X15439229Y-11774174D02*
X15439229Y-11821793D01*
X15439229Y-11821793D02*
X15429705Y-11859888D01*
X15429705Y-11859888D02*
X15420182Y-11878936D01*
X15420182Y-11878936D02*
X15410658Y-11888460D01*
X15410658Y-11888460D02*
X15391610Y-11897984D01*
X15391610Y-11897984D02*
X15372562Y-11897984D01*
X15372562Y-11897984D02*
X15353515Y-11888460D01*
X15353515Y-11888460D02*
X15343991Y-11878936D01*
X15343991Y-11878936D02*
X15334467Y-11859888D01*
X15334467Y-11859888D02*
X15324943Y-11821793D01*
X15324943Y-11821793D02*
X15324943Y-11774174D01*
X15324943Y-11774174D02*
X15334467Y-11736079D01*
X15334467Y-11736079D02*
X15343991Y-11717031D01*
X15343991Y-11717031D02*
X15353515Y-11707508D01*
X15353515Y-11707508D02*
X15372562Y-11697984D01*
X15563039Y-11697984D02*
X15582086Y-11697984D01*
X15582086Y-11697984D02*
X15601134Y-11707508D01*
X15601134Y-11707508D02*
X15610658Y-11717031D01*
X15610658Y-11717031D02*
X15620182Y-11736079D01*
X15620182Y-11736079D02*
X15629705Y-11774174D01*
X15629705Y-11774174D02*
X15629705Y-11821793D01*
X15629705Y-11821793D02*
X15620182Y-11859888D01*
X15620182Y-11859888D02*
X15610658Y-11878936D01*
X15610658Y-11878936D02*
X15601134Y-11888460D01*
X15601134Y-11888460D02*
X15582086Y-11897984D01*
X15582086Y-11897984D02*
X15563039Y-11897984D01*
X15563039Y-11897984D02*
X15543991Y-11888460D01*
X15543991Y-11888460D02*
X15534467Y-11878936D01*
X15534467Y-11878936D02*
X15524943Y-11859888D01*
X15524943Y-11859888D02*
X15515420Y-11821793D01*
X15515420Y-11821793D02*
X15515420Y-11774174D01*
X15515420Y-11774174D02*
X15524943Y-11736079D01*
X15524943Y-11736079D02*
X15534467Y-11717031D01*
X15534467Y-11717031D02*
X15543991Y-11707508D01*
X15543991Y-11707508D02*
X15563039Y-11697984D01*
X15715420Y-11897984D02*
X15715420Y-11764650D01*
X15715420Y-11783698D02*
X15724943Y-11774174D01*
X15724943Y-11774174D02*
X15743991Y-11764650D01*
X15743991Y-11764650D02*
X15772563Y-11764650D01*
X15772563Y-11764650D02*
X15791610Y-11774174D01*
X15791610Y-11774174D02*
X15801134Y-11793222D01*
X15801134Y-11793222D02*
X15801134Y-11897984D01*
X15801134Y-11793222D02*
X15810658Y-11774174D01*
X15810658Y-11774174D02*
X15829705Y-11764650D01*
X15829705Y-11764650D02*
X15858277Y-11764650D01*
X15858277Y-11764650D02*
X15877324Y-11774174D01*
X15877324Y-11774174D02*
X15886848Y-11793222D01*
X15886848Y-11793222D02*
X15886848Y-11897984D01*
X15982086Y-11897984D02*
X15982086Y-11764650D01*
X15982086Y-11783698D02*
X15991610Y-11774174D01*
X15991610Y-11774174D02*
X16010658Y-11764650D01*
X16010658Y-11764650D02*
X16039229Y-11764650D01*
X16039229Y-11764650D02*
X16058277Y-11774174D01*
X16058277Y-11774174D02*
X16067801Y-11793222D01*
X16067801Y-11793222D02*
X16067801Y-11897984D01*
X16067801Y-11793222D02*
X16077324Y-11774174D01*
X16077324Y-11774174D02*
X16096372Y-11764650D01*
X16096372Y-11764650D02*
X16124943Y-11764650D01*
X16124943Y-11764650D02*
X16143991Y-11774174D01*
X16143991Y-11774174D02*
X16153515Y-11793222D01*
X16153515Y-11793222D02*
X16153515Y-11897984D01*
X16543991Y-11688460D02*
X16372563Y-11945603D01*
X16801134Y-11697984D02*
X16820182Y-11697984D01*
X16820182Y-11697984D02*
X16839229Y-11707508D01*
X16839229Y-11707508D02*
X16848753Y-11717031D01*
X16848753Y-11717031D02*
X16858277Y-11736079D01*
X16858277Y-11736079D02*
X16867801Y-11774174D01*
X16867801Y-11774174D02*
X16867801Y-11821793D01*
X16867801Y-11821793D02*
X16858277Y-11859888D01*
X16858277Y-11859888D02*
X16848753Y-11878936D01*
X16848753Y-11878936D02*
X16839229Y-11888460D01*
X16839229Y-11888460D02*
X16820182Y-11897984D01*
X16820182Y-11897984D02*
X16801134Y-11897984D01*
X16801134Y-11897984D02*
X16782087Y-11888460D01*
X16782087Y-11888460D02*
X16772563Y-11878936D01*
X16772563Y-11878936D02*
X16763039Y-11859888D01*
X16763039Y-11859888D02*
X16753515Y-11821793D01*
X16753515Y-11821793D02*
X16753515Y-11774174D01*
X16753515Y-11774174D02*
X16763039Y-11736079D01*
X16763039Y-11736079D02*
X16772563Y-11717031D01*
X16772563Y-11717031D02*
X16782087Y-11707508D01*
X16782087Y-11707508D02*
X16801134Y-11697984D01*
X16953515Y-11878936D02*
X16963039Y-11888460D01*
X16963039Y-11888460D02*
X16953515Y-11897984D01*
X16953515Y-11897984D02*
X16943991Y-11888460D01*
X16943991Y-11888460D02*
X16953515Y-11878936D01*
X16953515Y-11878936D02*
X16953515Y-11897984D01*
X17086848Y-11697984D02*
X17105896Y-11697984D01*
X17105896Y-11697984D02*
X17124944Y-11707508D01*
X17124944Y-11707508D02*
X17134468Y-11717031D01*
X17134468Y-11717031D02*
X17143991Y-11736079D01*
X17143991Y-11736079D02*
X17153515Y-11774174D01*
X17153515Y-11774174D02*
X17153515Y-11821793D01*
X17153515Y-11821793D02*
X17143991Y-11859888D01*
X17143991Y-11859888D02*
X17134468Y-11878936D01*
X17134468Y-11878936D02*
X17124944Y-11888460D01*
X17124944Y-11888460D02*
X17105896Y-11897984D01*
X17105896Y-11897984D02*
X17086848Y-11897984D01*
X17086848Y-11897984D02*
X17067801Y-11888460D01*
X17067801Y-11888460D02*
X17058277Y-11878936D01*
X17058277Y-11878936D02*
X17048753Y-11859888D01*
X17048753Y-11859888D02*
X17039229Y-11821793D01*
X17039229Y-11821793D02*
X17039229Y-11774174D01*
X17039229Y-11774174D02*
X17048753Y-11736079D01*
X17048753Y-11736079D02*
X17058277Y-11717031D01*
X17058277Y-11717031D02*
X17067801Y-11707508D01*
X17067801Y-11707508D02*
X17086848Y-11697984D01*
X17229706Y-11717031D02*
X17239229Y-11707508D01*
X17239229Y-11707508D02*
X17258277Y-11697984D01*
X17258277Y-11697984D02*
X17305896Y-11697984D01*
X17305896Y-11697984D02*
X17324944Y-11707508D01*
X17324944Y-11707508D02*
X17334468Y-11717031D01*
X17334468Y-11717031D02*
X17343991Y-11736079D01*
X17343991Y-11736079D02*
X17343991Y-11755127D01*
X17343991Y-11755127D02*
X17334468Y-11783698D01*
X17334468Y-11783698D02*
X17220182Y-11897984D01*
X17220182Y-11897984D02*
X17343991Y-11897984D01*
X17410658Y-11697984D02*
X17534468Y-11697984D01*
X17534468Y-11697984D02*
X17467801Y-11774174D01*
X17467801Y-11774174D02*
X17496372Y-11774174D01*
X17496372Y-11774174D02*
X17515420Y-11783698D01*
X17515420Y-11783698D02*
X17524944Y-11793222D01*
X17524944Y-11793222D02*
X17534468Y-11812269D01*
X17534468Y-11812269D02*
X17534468Y-11859888D01*
X17534468Y-11859888D02*
X17524944Y-11878936D01*
X17524944Y-11878936D02*
X17515420Y-11888460D01*
X17515420Y-11888460D02*
X17496372Y-11897984D01*
X17496372Y-11897984D02*
X17439229Y-11897984D01*
X17439229Y-11897984D02*
X17420182Y-11888460D01*
X17420182Y-11888460D02*
X17410658Y-11878936D01*
X17705896Y-11697984D02*
X17667801Y-11697984D01*
X17667801Y-11697984D02*
X17648753Y-11707508D01*
X17648753Y-11707508D02*
X17639229Y-11717031D01*
X17639229Y-11717031D02*
X17620182Y-11745603D01*
X17620182Y-11745603D02*
X17610658Y-11783698D01*
X17610658Y-11783698D02*
X17610658Y-11859888D01*
X17610658Y-11859888D02*
X17620182Y-11878936D01*
X17620182Y-11878936D02*
X17629706Y-11888460D01*
X17629706Y-11888460D02*
X17648753Y-11897984D01*
X17648753Y-11897984D02*
X17686849Y-11897984D01*
X17686849Y-11897984D02*
X17705896Y-11888460D01*
X17705896Y-11888460D02*
X17715420Y-11878936D01*
X17715420Y-11878936D02*
X17724944Y-11859888D01*
X17724944Y-11859888D02*
X17724944Y-11812269D01*
X17724944Y-11812269D02*
X17715420Y-11793222D01*
X17715420Y-11793222D02*
X17705896Y-11783698D01*
X17705896Y-11783698D02*
X17686849Y-11774174D01*
X17686849Y-11774174D02*
X17648753Y-11774174D01*
X17648753Y-11774174D02*
X17629706Y-11783698D01*
X17629706Y-11783698D02*
X17620182Y-11793222D01*
X17620182Y-11793222D02*
X17610658Y-11812269D01*
X17801134Y-11697984D02*
X17801134Y-11736079D01*
X17877325Y-11697984D02*
X17877325Y-11736079D01*
X18172563Y-11974174D02*
X18163039Y-11964650D01*
X18163039Y-11964650D02*
X18143991Y-11936079D01*
X18143991Y-11936079D02*
X18134468Y-11917031D01*
X18134468Y-11917031D02*
X18124944Y-11888460D01*
X18124944Y-11888460D02*
X18115420Y-11840841D01*
X18115420Y-11840841D02*
X18115420Y-11802746D01*
X18115420Y-11802746D02*
X18124944Y-11755127D01*
X18124944Y-11755127D02*
X18134468Y-11726555D01*
X18134468Y-11726555D02*
X18143991Y-11707508D01*
X18143991Y-11707508D02*
X18163039Y-11678936D01*
X18163039Y-11678936D02*
X18172563Y-11669412D01*
X18239230Y-11717031D02*
X18248753Y-11707508D01*
X18248753Y-11707508D02*
X18267801Y-11697984D01*
X18267801Y-11697984D02*
X18315420Y-11697984D01*
X18315420Y-11697984D02*
X18334468Y-11707508D01*
X18334468Y-11707508D02*
X18343991Y-11717031D01*
X18343991Y-11717031D02*
X18353515Y-11736079D01*
X18353515Y-11736079D02*
X18353515Y-11755127D01*
X18353515Y-11755127D02*
X18343991Y-11783698D01*
X18343991Y-11783698D02*
X18229706Y-11897984D01*
X18229706Y-11897984D02*
X18353515Y-11897984D01*
X18591611Y-11897984D02*
X18591611Y-11697984D01*
X18677325Y-11897984D02*
X18677325Y-11793222D01*
X18677325Y-11793222D02*
X18667801Y-11774174D01*
X18667801Y-11774174D02*
X18648753Y-11764650D01*
X18648753Y-11764650D02*
X18620182Y-11764650D01*
X18620182Y-11764650D02*
X18601134Y-11774174D01*
X18601134Y-11774174D02*
X18591611Y-11783698D01*
X18801134Y-11897984D02*
X18782087Y-11888460D01*
X18782087Y-11888460D02*
X18772563Y-11878936D01*
X18772563Y-11878936D02*
X18763039Y-11859888D01*
X18763039Y-11859888D02*
X18763039Y-11802746D01*
X18763039Y-11802746D02*
X18772563Y-11783698D01*
X18772563Y-11783698D02*
X18782087Y-11774174D01*
X18782087Y-11774174D02*
X18801134Y-11764650D01*
X18801134Y-11764650D02*
X18829706Y-11764650D01*
X18829706Y-11764650D02*
X18848753Y-11774174D01*
X18848753Y-11774174D02*
X18858277Y-11783698D01*
X18858277Y-11783698D02*
X18867801Y-11802746D01*
X18867801Y-11802746D02*
X18867801Y-11859888D01*
X18867801Y-11859888D02*
X18858277Y-11878936D01*
X18858277Y-11878936D02*
X18848753Y-11888460D01*
X18848753Y-11888460D02*
X18829706Y-11897984D01*
X18829706Y-11897984D02*
X18801134Y-11897984D01*
X18982087Y-11897984D02*
X18963039Y-11888460D01*
X18963039Y-11888460D02*
X18953515Y-11869412D01*
X18953515Y-11869412D02*
X18953515Y-11697984D01*
X19134468Y-11888460D02*
X19115420Y-11897984D01*
X19115420Y-11897984D02*
X19077325Y-11897984D01*
X19077325Y-11897984D02*
X19058277Y-11888460D01*
X19058277Y-11888460D02*
X19048753Y-11869412D01*
X19048753Y-11869412D02*
X19048753Y-11793222D01*
X19048753Y-11793222D02*
X19058277Y-11774174D01*
X19058277Y-11774174D02*
X19077325Y-11764650D01*
X19077325Y-11764650D02*
X19115420Y-11764650D01*
X19115420Y-11764650D02*
X19134468Y-11774174D01*
X19134468Y-11774174D02*
X19143992Y-11793222D01*
X19143992Y-11793222D02*
X19143992Y-11812269D01*
X19143992Y-11812269D02*
X19048753Y-11831317D01*
X19220182Y-11888460D02*
X19239230Y-11897984D01*
X19239230Y-11897984D02*
X19277325Y-11897984D01*
X19277325Y-11897984D02*
X19296373Y-11888460D01*
X19296373Y-11888460D02*
X19305896Y-11869412D01*
X19305896Y-11869412D02*
X19305896Y-11859888D01*
X19305896Y-11859888D02*
X19296373Y-11840841D01*
X19296373Y-11840841D02*
X19277325Y-11831317D01*
X19277325Y-11831317D02*
X19248753Y-11831317D01*
X19248753Y-11831317D02*
X19229706Y-11821793D01*
X19229706Y-11821793D02*
X19220182Y-11802746D01*
X19220182Y-11802746D02*
X19220182Y-11793222D01*
X19220182Y-11793222D02*
X19229706Y-11774174D01*
X19229706Y-11774174D02*
X19248753Y-11764650D01*
X19248753Y-11764650D02*
X19277325Y-11764650D01*
X19277325Y-11764650D02*
X19296373Y-11774174D01*
X19372563Y-11974174D02*
X19382087Y-11964650D01*
X19382087Y-11964650D02*
X19401134Y-11936079D01*
X19401134Y-11936079D02*
X19410658Y-11917031D01*
X19410658Y-11917031D02*
X19420182Y-11888460D01*
X19420182Y-11888460D02*
X19429706Y-11840841D01*
X19429706Y-11840841D02*
X19429706Y-11802746D01*
X19429706Y-11802746D02*
X19420182Y-11755127D01*
X19420182Y-11755127D02*
X19410658Y-11726555D01*
X19410658Y-11726555D02*
X19401134Y-11707508D01*
X19401134Y-11707508D02*
X19382087Y-11678936D01*
X19382087Y-11678936D02*
X19372563Y-11669412D01*
D12*
X14562500Y-12035500D02*
X14562500Y-12105500D01*
X14527500Y-12070500D02*
X14597500Y-12070500D01*
D11*
X14896372Y-11961984D02*
X14915420Y-11961984D01*
X14915420Y-11961984D02*
X14934467Y-11971508D01*
X14934467Y-11971508D02*
X14943991Y-11981031D01*
X14943991Y-11981031D02*
X14953515Y-12000079D01*
X14953515Y-12000079D02*
X14963039Y-12038174D01*
X14963039Y-12038174D02*
X14963039Y-12085793D01*
X14963039Y-12085793D02*
X14953515Y-12123888D01*
X14953515Y-12123888D02*
X14943991Y-12142936D01*
X14943991Y-12142936D02*
X14934467Y-12152460D01*
X14934467Y-12152460D02*
X14915420Y-12161984D01*
X14915420Y-12161984D02*
X14896372Y-12161984D01*
X14896372Y-12161984D02*
X14877324Y-12152460D01*
X14877324Y-12152460D02*
X14867801Y-12142936D01*
X14867801Y-12142936D02*
X14858277Y-12123888D01*
X14858277Y-12123888D02*
X14848753Y-12085793D01*
X14848753Y-12085793D02*
X14848753Y-12038174D01*
X14848753Y-12038174D02*
X14858277Y-12000079D01*
X14858277Y-12000079D02*
X14867801Y-11981031D01*
X14867801Y-11981031D02*
X14877324Y-11971508D01*
X14877324Y-11971508D02*
X14896372Y-11961984D01*
X15048753Y-12142936D02*
X15058277Y-12152460D01*
X15058277Y-12152460D02*
X15048753Y-12161984D01*
X15048753Y-12161984D02*
X15039229Y-12152460D01*
X15039229Y-12152460D02*
X15048753Y-12142936D01*
X15048753Y-12142936D02*
X15048753Y-12161984D01*
X15124943Y-11961984D02*
X15258277Y-11961984D01*
X15258277Y-11961984D02*
X15172562Y-12161984D01*
X15372562Y-11961984D02*
X15391610Y-11961984D01*
X15391610Y-11961984D02*
X15410658Y-11971508D01*
X15410658Y-11971508D02*
X15420182Y-11981031D01*
X15420182Y-11981031D02*
X15429705Y-12000079D01*
X15429705Y-12000079D02*
X15439229Y-12038174D01*
X15439229Y-12038174D02*
X15439229Y-12085793D01*
X15439229Y-12085793D02*
X15429705Y-12123888D01*
X15429705Y-12123888D02*
X15420182Y-12142936D01*
X15420182Y-12142936D02*
X15410658Y-12152460D01*
X15410658Y-12152460D02*
X15391610Y-12161984D01*
X15391610Y-12161984D02*
X15372562Y-12161984D01*
X15372562Y-12161984D02*
X15353515Y-12152460D01*
X15353515Y-12152460D02*
X15343991Y-12142936D01*
X15343991Y-12142936D02*
X15334467Y-12123888D01*
X15334467Y-12123888D02*
X15324943Y-12085793D01*
X15324943Y-12085793D02*
X15324943Y-12038174D01*
X15324943Y-12038174D02*
X15334467Y-12000079D01*
X15334467Y-12000079D02*
X15343991Y-11981031D01*
X15343991Y-11981031D02*
X15353515Y-11971508D01*
X15353515Y-11971508D02*
X15372562Y-11961984D01*
X15563039Y-11961984D02*
X15582086Y-11961984D01*
X15582086Y-11961984D02*
X15601134Y-11971508D01*
X15601134Y-11971508D02*
X15610658Y-11981031D01*
X15610658Y-11981031D02*
X15620182Y-12000079D01*
X15620182Y-12000079D02*
X15629705Y-12038174D01*
X15629705Y-12038174D02*
X15629705Y-12085793D01*
X15629705Y-12085793D02*
X15620182Y-12123888D01*
X15620182Y-12123888D02*
X15610658Y-12142936D01*
X15610658Y-12142936D02*
X15601134Y-12152460D01*
X15601134Y-12152460D02*
X15582086Y-12161984D01*
X15582086Y-12161984D02*
X15563039Y-12161984D01*
X15563039Y-12161984D02*
X15543991Y-12152460D01*
X15543991Y-12152460D02*
X15534467Y-12142936D01*
X15534467Y-12142936D02*
X15524943Y-12123888D01*
X15524943Y-12123888D02*
X15515420Y-12085793D01*
X15515420Y-12085793D02*
X15515420Y-12038174D01*
X15515420Y-12038174D02*
X15524943Y-12000079D01*
X15524943Y-12000079D02*
X15534467Y-11981031D01*
X15534467Y-11981031D02*
X15543991Y-11971508D01*
X15543991Y-11971508D02*
X15563039Y-11961984D01*
X15715420Y-12161984D02*
X15715420Y-12028650D01*
X15715420Y-12047698D02*
X15724943Y-12038174D01*
X15724943Y-12038174D02*
X15743991Y-12028650D01*
X15743991Y-12028650D02*
X15772563Y-12028650D01*
X15772563Y-12028650D02*
X15791610Y-12038174D01*
X15791610Y-12038174D02*
X15801134Y-12057222D01*
X15801134Y-12057222D02*
X15801134Y-12161984D01*
X15801134Y-12057222D02*
X15810658Y-12038174D01*
X15810658Y-12038174D02*
X15829705Y-12028650D01*
X15829705Y-12028650D02*
X15858277Y-12028650D01*
X15858277Y-12028650D02*
X15877324Y-12038174D01*
X15877324Y-12038174D02*
X15886848Y-12057222D01*
X15886848Y-12057222D02*
X15886848Y-12161984D01*
X15982086Y-12161984D02*
X15982086Y-12028650D01*
X15982086Y-12047698D02*
X15991610Y-12038174D01*
X15991610Y-12038174D02*
X16010658Y-12028650D01*
X16010658Y-12028650D02*
X16039229Y-12028650D01*
X16039229Y-12028650D02*
X16058277Y-12038174D01*
X16058277Y-12038174D02*
X16067801Y-12057222D01*
X16067801Y-12057222D02*
X16067801Y-12161984D01*
X16067801Y-12057222D02*
X16077324Y-12038174D01*
X16077324Y-12038174D02*
X16096372Y-12028650D01*
X16096372Y-12028650D02*
X16124943Y-12028650D01*
X16124943Y-12028650D02*
X16143991Y-12038174D01*
X16143991Y-12038174D02*
X16153515Y-12057222D01*
X16153515Y-12057222D02*
X16153515Y-12161984D01*
X16543991Y-11952460D02*
X16372563Y-12209603D01*
X16801134Y-11961984D02*
X16820182Y-11961984D01*
X16820182Y-11961984D02*
X16839229Y-11971508D01*
X16839229Y-11971508D02*
X16848753Y-11981031D01*
X16848753Y-11981031D02*
X16858277Y-12000079D01*
X16858277Y-12000079D02*
X16867801Y-12038174D01*
X16867801Y-12038174D02*
X16867801Y-12085793D01*
X16867801Y-12085793D02*
X16858277Y-12123888D01*
X16858277Y-12123888D02*
X16848753Y-12142936D01*
X16848753Y-12142936D02*
X16839229Y-12152460D01*
X16839229Y-12152460D02*
X16820182Y-12161984D01*
X16820182Y-12161984D02*
X16801134Y-12161984D01*
X16801134Y-12161984D02*
X16782087Y-12152460D01*
X16782087Y-12152460D02*
X16772563Y-12142936D01*
X16772563Y-12142936D02*
X16763039Y-12123888D01*
X16763039Y-12123888D02*
X16753515Y-12085793D01*
X16753515Y-12085793D02*
X16753515Y-12038174D01*
X16753515Y-12038174D02*
X16763039Y-12000079D01*
X16763039Y-12000079D02*
X16772563Y-11981031D01*
X16772563Y-11981031D02*
X16782087Y-11971508D01*
X16782087Y-11971508D02*
X16801134Y-11961984D01*
X16953515Y-12142936D02*
X16963039Y-12152460D01*
X16963039Y-12152460D02*
X16953515Y-12161984D01*
X16953515Y-12161984D02*
X16943991Y-12152460D01*
X16943991Y-12152460D02*
X16953515Y-12142936D01*
X16953515Y-12142936D02*
X16953515Y-12161984D01*
X17086848Y-11961984D02*
X17105896Y-11961984D01*
X17105896Y-11961984D02*
X17124944Y-11971508D01*
X17124944Y-11971508D02*
X17134468Y-11981031D01*
X17134468Y-11981031D02*
X17143991Y-12000079D01*
X17143991Y-12000079D02*
X17153515Y-12038174D01*
X17153515Y-12038174D02*
X17153515Y-12085793D01*
X17153515Y-12085793D02*
X17143991Y-12123888D01*
X17143991Y-12123888D02*
X17134468Y-12142936D01*
X17134468Y-12142936D02*
X17124944Y-12152460D01*
X17124944Y-12152460D02*
X17105896Y-12161984D01*
X17105896Y-12161984D02*
X17086848Y-12161984D01*
X17086848Y-12161984D02*
X17067801Y-12152460D01*
X17067801Y-12152460D02*
X17058277Y-12142936D01*
X17058277Y-12142936D02*
X17048753Y-12123888D01*
X17048753Y-12123888D02*
X17039229Y-12085793D01*
X17039229Y-12085793D02*
X17039229Y-12038174D01*
X17039229Y-12038174D02*
X17048753Y-12000079D01*
X17048753Y-12000079D02*
X17058277Y-11981031D01*
X17058277Y-11981031D02*
X17067801Y-11971508D01*
X17067801Y-11971508D02*
X17086848Y-11961984D01*
X17229706Y-11981031D02*
X17239229Y-11971508D01*
X17239229Y-11971508D02*
X17258277Y-11961984D01*
X17258277Y-11961984D02*
X17305896Y-11961984D01*
X17305896Y-11961984D02*
X17324944Y-11971508D01*
X17324944Y-11971508D02*
X17334468Y-11981031D01*
X17334468Y-11981031D02*
X17343991Y-12000079D01*
X17343991Y-12000079D02*
X17343991Y-12019127D01*
X17343991Y-12019127D02*
X17334468Y-12047698D01*
X17334468Y-12047698D02*
X17220182Y-12161984D01*
X17220182Y-12161984D02*
X17343991Y-12161984D01*
X17410658Y-11961984D02*
X17543991Y-11961984D01*
X17543991Y-11961984D02*
X17458277Y-12161984D01*
X17705896Y-11961984D02*
X17667801Y-11961984D01*
X17667801Y-11961984D02*
X17648753Y-11971508D01*
X17648753Y-11971508D02*
X17639229Y-11981031D01*
X17639229Y-11981031D02*
X17620182Y-12009603D01*
X17620182Y-12009603D02*
X17610658Y-12047698D01*
X17610658Y-12047698D02*
X17610658Y-12123888D01*
X17610658Y-12123888D02*
X17620182Y-12142936D01*
X17620182Y-12142936D02*
X17629706Y-12152460D01*
X17629706Y-12152460D02*
X17648753Y-12161984D01*
X17648753Y-12161984D02*
X17686849Y-12161984D01*
X17686849Y-12161984D02*
X17705896Y-12152460D01*
X17705896Y-12152460D02*
X17715420Y-12142936D01*
X17715420Y-12142936D02*
X17724944Y-12123888D01*
X17724944Y-12123888D02*
X17724944Y-12076269D01*
X17724944Y-12076269D02*
X17715420Y-12057222D01*
X17715420Y-12057222D02*
X17705896Y-12047698D01*
X17705896Y-12047698D02*
X17686849Y-12038174D01*
X17686849Y-12038174D02*
X17648753Y-12038174D01*
X17648753Y-12038174D02*
X17629706Y-12047698D01*
X17629706Y-12047698D02*
X17620182Y-12057222D01*
X17620182Y-12057222D02*
X17610658Y-12076269D01*
X17801134Y-11961984D02*
X17801134Y-12000079D01*
X17877325Y-11961984D02*
X17877325Y-12000079D01*
X18172563Y-12238174D02*
X18163039Y-12228650D01*
X18163039Y-12228650D02*
X18143991Y-12200079D01*
X18143991Y-12200079D02*
X18134468Y-12181031D01*
X18134468Y-12181031D02*
X18124944Y-12152460D01*
X18124944Y-12152460D02*
X18115420Y-12104841D01*
X18115420Y-12104841D02*
X18115420Y-12066746D01*
X18115420Y-12066746D02*
X18124944Y-12019127D01*
X18124944Y-12019127D02*
X18134468Y-11990555D01*
X18134468Y-11990555D02*
X18143991Y-11971508D01*
X18143991Y-11971508D02*
X18163039Y-11942936D01*
X18163039Y-11942936D02*
X18172563Y-11933412D01*
X18239230Y-11981031D02*
X18248753Y-11971508D01*
X18248753Y-11971508D02*
X18267801Y-11961984D01*
X18267801Y-11961984D02*
X18315420Y-11961984D01*
X18315420Y-11961984D02*
X18334468Y-11971508D01*
X18334468Y-11971508D02*
X18343991Y-11981031D01*
X18343991Y-11981031D02*
X18353515Y-12000079D01*
X18353515Y-12000079D02*
X18353515Y-12019127D01*
X18353515Y-12019127D02*
X18343991Y-12047698D01*
X18343991Y-12047698D02*
X18229706Y-12161984D01*
X18229706Y-12161984D02*
X18353515Y-12161984D01*
X18591611Y-12161984D02*
X18591611Y-11961984D01*
X18677325Y-12161984D02*
X18677325Y-12057222D01*
X18677325Y-12057222D02*
X18667801Y-12038174D01*
X18667801Y-12038174D02*
X18648753Y-12028650D01*
X18648753Y-12028650D02*
X18620182Y-12028650D01*
X18620182Y-12028650D02*
X18601134Y-12038174D01*
X18601134Y-12038174D02*
X18591611Y-12047698D01*
X18801134Y-12161984D02*
X18782087Y-12152460D01*
X18782087Y-12152460D02*
X18772563Y-12142936D01*
X18772563Y-12142936D02*
X18763039Y-12123888D01*
X18763039Y-12123888D02*
X18763039Y-12066746D01*
X18763039Y-12066746D02*
X18772563Y-12047698D01*
X18772563Y-12047698D02*
X18782087Y-12038174D01*
X18782087Y-12038174D02*
X18801134Y-12028650D01*
X18801134Y-12028650D02*
X18829706Y-12028650D01*
X18829706Y-12028650D02*
X18848753Y-12038174D01*
X18848753Y-12038174D02*
X18858277Y-12047698D01*
X18858277Y-12047698D02*
X18867801Y-12066746D01*
X18867801Y-12066746D02*
X18867801Y-12123888D01*
X18867801Y-12123888D02*
X18858277Y-12142936D01*
X18858277Y-12142936D02*
X18848753Y-12152460D01*
X18848753Y-12152460D02*
X18829706Y-12161984D01*
X18829706Y-12161984D02*
X18801134Y-12161984D01*
X18982087Y-12161984D02*
X18963039Y-12152460D01*
X18963039Y-12152460D02*
X18953515Y-12133412D01*
X18953515Y-12133412D02*
X18953515Y-11961984D01*
X19134468Y-12152460D02*
X19115420Y-12161984D01*
X19115420Y-12161984D02*
X19077325Y-12161984D01*
X19077325Y-12161984D02*
X19058277Y-12152460D01*
X19058277Y-12152460D02*
X19048753Y-12133412D01*
X19048753Y-12133412D02*
X19048753Y-12057222D01*
X19048753Y-12057222D02*
X19058277Y-12038174D01*
X19058277Y-12038174D02*
X19077325Y-12028650D01*
X19077325Y-12028650D02*
X19115420Y-12028650D01*
X19115420Y-12028650D02*
X19134468Y-12038174D01*
X19134468Y-12038174D02*
X19143992Y-12057222D01*
X19143992Y-12057222D02*
X19143992Y-12076269D01*
X19143992Y-12076269D02*
X19048753Y-12095317D01*
X19220182Y-12152460D02*
X19239230Y-12161984D01*
X19239230Y-12161984D02*
X19277325Y-12161984D01*
X19277325Y-12161984D02*
X19296373Y-12152460D01*
X19296373Y-12152460D02*
X19305896Y-12133412D01*
X19305896Y-12133412D02*
X19305896Y-12123888D01*
X19305896Y-12123888D02*
X19296373Y-12104841D01*
X19296373Y-12104841D02*
X19277325Y-12095317D01*
X19277325Y-12095317D02*
X19248753Y-12095317D01*
X19248753Y-12095317D02*
X19229706Y-12085793D01*
X19229706Y-12085793D02*
X19220182Y-12066746D01*
X19220182Y-12066746D02*
X19220182Y-12057222D01*
X19220182Y-12057222D02*
X19229706Y-12038174D01*
X19229706Y-12038174D02*
X19248753Y-12028650D01*
X19248753Y-12028650D02*
X19277325Y-12028650D01*
X19277325Y-12028650D02*
X19296373Y-12038174D01*
X19372563Y-12238174D02*
X19382087Y-12228650D01*
X19382087Y-12228650D02*
X19401134Y-12200079D01*
X19401134Y-12200079D02*
X19410658Y-12181031D01*
X19410658Y-12181031D02*
X19420182Y-12152460D01*
X19420182Y-12152460D02*
X19429706Y-12104841D01*
X19429706Y-12104841D02*
X19429706Y-12066746D01*
X19429706Y-12066746D02*
X19420182Y-12019127D01*
X19420182Y-12019127D02*
X19410658Y-11990555D01*
X19410658Y-11990555D02*
X19401134Y-11971508D01*
X19401134Y-11971508D02*
X19382087Y-11942936D01*
X19382087Y-11942936D02*
X19372563Y-11933412D01*
D12*
X14585784Y-12362784D02*
X14585784Y-12306215D01*
X14529215Y-12306215D01*
X14529215Y-12362784D01*
X14585784Y-12362784D01*
D11*
X14896372Y-12225984D02*
X14915420Y-12225984D01*
X14915420Y-12225984D02*
X14934467Y-12235508D01*
X14934467Y-12235508D02*
X14943991Y-12245031D01*
X14943991Y-12245031D02*
X14953515Y-12264079D01*
X14953515Y-12264079D02*
X14963039Y-12302174D01*
X14963039Y-12302174D02*
X14963039Y-12349793D01*
X14963039Y-12349793D02*
X14953515Y-12387888D01*
X14953515Y-12387888D02*
X14943991Y-12406936D01*
X14943991Y-12406936D02*
X14934467Y-12416460D01*
X14934467Y-12416460D02*
X14915420Y-12425984D01*
X14915420Y-12425984D02*
X14896372Y-12425984D01*
X14896372Y-12425984D02*
X14877324Y-12416460D01*
X14877324Y-12416460D02*
X14867801Y-12406936D01*
X14867801Y-12406936D02*
X14858277Y-12387888D01*
X14858277Y-12387888D02*
X14848753Y-12349793D01*
X14848753Y-12349793D02*
X14848753Y-12302174D01*
X14848753Y-12302174D02*
X14858277Y-12264079D01*
X14858277Y-12264079D02*
X14867801Y-12245031D01*
X14867801Y-12245031D02*
X14877324Y-12235508D01*
X14877324Y-12235508D02*
X14896372Y-12225984D01*
X15048753Y-12406936D02*
X15058277Y-12416460D01*
X15058277Y-12416460D02*
X15048753Y-12425984D01*
X15048753Y-12425984D02*
X15039229Y-12416460D01*
X15039229Y-12416460D02*
X15048753Y-12406936D01*
X15048753Y-12406936D02*
X15048753Y-12425984D01*
X15172562Y-12311698D02*
X15153515Y-12302174D01*
X15153515Y-12302174D02*
X15143991Y-12292650D01*
X15143991Y-12292650D02*
X15134467Y-12273603D01*
X15134467Y-12273603D02*
X15134467Y-12264079D01*
X15134467Y-12264079D02*
X15143991Y-12245031D01*
X15143991Y-12245031D02*
X15153515Y-12235508D01*
X15153515Y-12235508D02*
X15172562Y-12225984D01*
X15172562Y-12225984D02*
X15210658Y-12225984D01*
X15210658Y-12225984D02*
X15229705Y-12235508D01*
X15229705Y-12235508D02*
X15239229Y-12245031D01*
X15239229Y-12245031D02*
X15248753Y-12264079D01*
X15248753Y-12264079D02*
X15248753Y-12273603D01*
X15248753Y-12273603D02*
X15239229Y-12292650D01*
X15239229Y-12292650D02*
X15229705Y-12302174D01*
X15229705Y-12302174D02*
X15210658Y-12311698D01*
X15210658Y-12311698D02*
X15172562Y-12311698D01*
X15172562Y-12311698D02*
X15153515Y-12321222D01*
X15153515Y-12321222D02*
X15143991Y-12330746D01*
X15143991Y-12330746D02*
X15134467Y-12349793D01*
X15134467Y-12349793D02*
X15134467Y-12387888D01*
X15134467Y-12387888D02*
X15143991Y-12406936D01*
X15143991Y-12406936D02*
X15153515Y-12416460D01*
X15153515Y-12416460D02*
X15172562Y-12425984D01*
X15172562Y-12425984D02*
X15210658Y-12425984D01*
X15210658Y-12425984D02*
X15229705Y-12416460D01*
X15229705Y-12416460D02*
X15239229Y-12406936D01*
X15239229Y-12406936D02*
X15248753Y-12387888D01*
X15248753Y-12387888D02*
X15248753Y-12349793D01*
X15248753Y-12349793D02*
X15239229Y-12330746D01*
X15239229Y-12330746D02*
X15229705Y-12321222D01*
X15229705Y-12321222D02*
X15210658Y-12311698D01*
X15372562Y-12225984D02*
X15391610Y-12225984D01*
X15391610Y-12225984D02*
X15410658Y-12235508D01*
X15410658Y-12235508D02*
X15420182Y-12245031D01*
X15420182Y-12245031D02*
X15429705Y-12264079D01*
X15429705Y-12264079D02*
X15439229Y-12302174D01*
X15439229Y-12302174D02*
X15439229Y-12349793D01*
X15439229Y-12349793D02*
X15429705Y-12387888D01*
X15429705Y-12387888D02*
X15420182Y-12406936D01*
X15420182Y-12406936D02*
X15410658Y-12416460D01*
X15410658Y-12416460D02*
X15391610Y-12425984D01*
X15391610Y-12425984D02*
X15372562Y-12425984D01*
X15372562Y-12425984D02*
X15353515Y-12416460D01*
X15353515Y-12416460D02*
X15343991Y-12406936D01*
X15343991Y-12406936D02*
X15334467Y-12387888D01*
X15334467Y-12387888D02*
X15324943Y-12349793D01*
X15324943Y-12349793D02*
X15324943Y-12302174D01*
X15324943Y-12302174D02*
X15334467Y-12264079D01*
X15334467Y-12264079D02*
X15343991Y-12245031D01*
X15343991Y-12245031D02*
X15353515Y-12235508D01*
X15353515Y-12235508D02*
X15372562Y-12225984D01*
X15563039Y-12225984D02*
X15582086Y-12225984D01*
X15582086Y-12225984D02*
X15601134Y-12235508D01*
X15601134Y-12235508D02*
X15610658Y-12245031D01*
X15610658Y-12245031D02*
X15620182Y-12264079D01*
X15620182Y-12264079D02*
X15629705Y-12302174D01*
X15629705Y-12302174D02*
X15629705Y-12349793D01*
X15629705Y-12349793D02*
X15620182Y-12387888D01*
X15620182Y-12387888D02*
X15610658Y-12406936D01*
X15610658Y-12406936D02*
X15601134Y-12416460D01*
X15601134Y-12416460D02*
X15582086Y-12425984D01*
X15582086Y-12425984D02*
X15563039Y-12425984D01*
X15563039Y-12425984D02*
X15543991Y-12416460D01*
X15543991Y-12416460D02*
X15534467Y-12406936D01*
X15534467Y-12406936D02*
X15524943Y-12387888D01*
X15524943Y-12387888D02*
X15515420Y-12349793D01*
X15515420Y-12349793D02*
X15515420Y-12302174D01*
X15515420Y-12302174D02*
X15524943Y-12264079D01*
X15524943Y-12264079D02*
X15534467Y-12245031D01*
X15534467Y-12245031D02*
X15543991Y-12235508D01*
X15543991Y-12235508D02*
X15563039Y-12225984D01*
X15715420Y-12425984D02*
X15715420Y-12292650D01*
X15715420Y-12311698D02*
X15724943Y-12302174D01*
X15724943Y-12302174D02*
X15743991Y-12292650D01*
X15743991Y-12292650D02*
X15772563Y-12292650D01*
X15772563Y-12292650D02*
X15791610Y-12302174D01*
X15791610Y-12302174D02*
X15801134Y-12321222D01*
X15801134Y-12321222D02*
X15801134Y-12425984D01*
X15801134Y-12321222D02*
X15810658Y-12302174D01*
X15810658Y-12302174D02*
X15829705Y-12292650D01*
X15829705Y-12292650D02*
X15858277Y-12292650D01*
X15858277Y-12292650D02*
X15877324Y-12302174D01*
X15877324Y-12302174D02*
X15886848Y-12321222D01*
X15886848Y-12321222D02*
X15886848Y-12425984D01*
X15982086Y-12425984D02*
X15982086Y-12292650D01*
X15982086Y-12311698D02*
X15991610Y-12302174D01*
X15991610Y-12302174D02*
X16010658Y-12292650D01*
X16010658Y-12292650D02*
X16039229Y-12292650D01*
X16039229Y-12292650D02*
X16058277Y-12302174D01*
X16058277Y-12302174D02*
X16067801Y-12321222D01*
X16067801Y-12321222D02*
X16067801Y-12425984D01*
X16067801Y-12321222D02*
X16077324Y-12302174D01*
X16077324Y-12302174D02*
X16096372Y-12292650D01*
X16096372Y-12292650D02*
X16124943Y-12292650D01*
X16124943Y-12292650D02*
X16143991Y-12302174D01*
X16143991Y-12302174D02*
X16153515Y-12321222D01*
X16153515Y-12321222D02*
X16153515Y-12425984D01*
X16543991Y-12216460D02*
X16372563Y-12473603D01*
X16801134Y-12225984D02*
X16820182Y-12225984D01*
X16820182Y-12225984D02*
X16839229Y-12235508D01*
X16839229Y-12235508D02*
X16848753Y-12245031D01*
X16848753Y-12245031D02*
X16858277Y-12264079D01*
X16858277Y-12264079D02*
X16867801Y-12302174D01*
X16867801Y-12302174D02*
X16867801Y-12349793D01*
X16867801Y-12349793D02*
X16858277Y-12387888D01*
X16858277Y-12387888D02*
X16848753Y-12406936D01*
X16848753Y-12406936D02*
X16839229Y-12416460D01*
X16839229Y-12416460D02*
X16820182Y-12425984D01*
X16820182Y-12425984D02*
X16801134Y-12425984D01*
X16801134Y-12425984D02*
X16782087Y-12416460D01*
X16782087Y-12416460D02*
X16772563Y-12406936D01*
X16772563Y-12406936D02*
X16763039Y-12387888D01*
X16763039Y-12387888D02*
X16753515Y-12349793D01*
X16753515Y-12349793D02*
X16753515Y-12302174D01*
X16753515Y-12302174D02*
X16763039Y-12264079D01*
X16763039Y-12264079D02*
X16772563Y-12245031D01*
X16772563Y-12245031D02*
X16782087Y-12235508D01*
X16782087Y-12235508D02*
X16801134Y-12225984D01*
X16953515Y-12406936D02*
X16963039Y-12416460D01*
X16963039Y-12416460D02*
X16953515Y-12425984D01*
X16953515Y-12425984D02*
X16943991Y-12416460D01*
X16943991Y-12416460D02*
X16953515Y-12406936D01*
X16953515Y-12406936D02*
X16953515Y-12425984D01*
X17086848Y-12225984D02*
X17105896Y-12225984D01*
X17105896Y-12225984D02*
X17124944Y-12235508D01*
X17124944Y-12235508D02*
X17134468Y-12245031D01*
X17134468Y-12245031D02*
X17143991Y-12264079D01*
X17143991Y-12264079D02*
X17153515Y-12302174D01*
X17153515Y-12302174D02*
X17153515Y-12349793D01*
X17153515Y-12349793D02*
X17143991Y-12387888D01*
X17143991Y-12387888D02*
X17134468Y-12406936D01*
X17134468Y-12406936D02*
X17124944Y-12416460D01*
X17124944Y-12416460D02*
X17105896Y-12425984D01*
X17105896Y-12425984D02*
X17086848Y-12425984D01*
X17086848Y-12425984D02*
X17067801Y-12416460D01*
X17067801Y-12416460D02*
X17058277Y-12406936D01*
X17058277Y-12406936D02*
X17048753Y-12387888D01*
X17048753Y-12387888D02*
X17039229Y-12349793D01*
X17039229Y-12349793D02*
X17039229Y-12302174D01*
X17039229Y-12302174D02*
X17048753Y-12264079D01*
X17048753Y-12264079D02*
X17058277Y-12245031D01*
X17058277Y-12245031D02*
X17067801Y-12235508D01*
X17067801Y-12235508D02*
X17086848Y-12225984D01*
X17220182Y-12225984D02*
X17343991Y-12225984D01*
X17343991Y-12225984D02*
X17277325Y-12302174D01*
X17277325Y-12302174D02*
X17305896Y-12302174D01*
X17305896Y-12302174D02*
X17324944Y-12311698D01*
X17324944Y-12311698D02*
X17334468Y-12321222D01*
X17334468Y-12321222D02*
X17343991Y-12340269D01*
X17343991Y-12340269D02*
X17343991Y-12387888D01*
X17343991Y-12387888D02*
X17334468Y-12406936D01*
X17334468Y-12406936D02*
X17324944Y-12416460D01*
X17324944Y-12416460D02*
X17305896Y-12425984D01*
X17305896Y-12425984D02*
X17248753Y-12425984D01*
X17248753Y-12425984D02*
X17229706Y-12416460D01*
X17229706Y-12416460D02*
X17220182Y-12406936D01*
X17534468Y-12425984D02*
X17420182Y-12425984D01*
X17477325Y-12425984D02*
X17477325Y-12225984D01*
X17477325Y-12225984D02*
X17458277Y-12254555D01*
X17458277Y-12254555D02*
X17439229Y-12273603D01*
X17439229Y-12273603D02*
X17420182Y-12283127D01*
X17715420Y-12225984D02*
X17620182Y-12225984D01*
X17620182Y-12225984D02*
X17610658Y-12321222D01*
X17610658Y-12321222D02*
X17620182Y-12311698D01*
X17620182Y-12311698D02*
X17639229Y-12302174D01*
X17639229Y-12302174D02*
X17686849Y-12302174D01*
X17686849Y-12302174D02*
X17705896Y-12311698D01*
X17705896Y-12311698D02*
X17715420Y-12321222D01*
X17715420Y-12321222D02*
X17724944Y-12340269D01*
X17724944Y-12340269D02*
X17724944Y-12387888D01*
X17724944Y-12387888D02*
X17715420Y-12406936D01*
X17715420Y-12406936D02*
X17705896Y-12416460D01*
X17705896Y-12416460D02*
X17686849Y-12425984D01*
X17686849Y-12425984D02*
X17639229Y-12425984D01*
X17639229Y-12425984D02*
X17620182Y-12416460D01*
X17620182Y-12416460D02*
X17610658Y-12406936D01*
X17801134Y-12225984D02*
X17801134Y-12264079D01*
X17877325Y-12225984D02*
X17877325Y-12264079D01*
X18172563Y-12502174D02*
X18163039Y-12492650D01*
X18163039Y-12492650D02*
X18143991Y-12464079D01*
X18143991Y-12464079D02*
X18134468Y-12445031D01*
X18134468Y-12445031D02*
X18124944Y-12416460D01*
X18124944Y-12416460D02*
X18115420Y-12368841D01*
X18115420Y-12368841D02*
X18115420Y-12330746D01*
X18115420Y-12330746D02*
X18124944Y-12283127D01*
X18124944Y-12283127D02*
X18134468Y-12254555D01*
X18134468Y-12254555D02*
X18143991Y-12235508D01*
X18143991Y-12235508D02*
X18163039Y-12206936D01*
X18163039Y-12206936D02*
X18172563Y-12197412D01*
X18353515Y-12425984D02*
X18239230Y-12425984D01*
X18296372Y-12425984D02*
X18296372Y-12225984D01*
X18296372Y-12225984D02*
X18277325Y-12254555D01*
X18277325Y-12254555D02*
X18258277Y-12273603D01*
X18258277Y-12273603D02*
X18239230Y-12283127D01*
X18467801Y-12311698D02*
X18448753Y-12302174D01*
X18448753Y-12302174D02*
X18439230Y-12292650D01*
X18439230Y-12292650D02*
X18429706Y-12273603D01*
X18429706Y-12273603D02*
X18429706Y-12264079D01*
X18429706Y-12264079D02*
X18439230Y-12245031D01*
X18439230Y-12245031D02*
X18448753Y-12235508D01*
X18448753Y-12235508D02*
X18467801Y-12225984D01*
X18467801Y-12225984D02*
X18505896Y-12225984D01*
X18505896Y-12225984D02*
X18524944Y-12235508D01*
X18524944Y-12235508D02*
X18534468Y-12245031D01*
X18534468Y-12245031D02*
X18543991Y-12264079D01*
X18543991Y-12264079D02*
X18543991Y-12273603D01*
X18543991Y-12273603D02*
X18534468Y-12292650D01*
X18534468Y-12292650D02*
X18524944Y-12302174D01*
X18524944Y-12302174D02*
X18505896Y-12311698D01*
X18505896Y-12311698D02*
X18467801Y-12311698D01*
X18467801Y-12311698D02*
X18448753Y-12321222D01*
X18448753Y-12321222D02*
X18439230Y-12330746D01*
X18439230Y-12330746D02*
X18429706Y-12349793D01*
X18429706Y-12349793D02*
X18429706Y-12387888D01*
X18429706Y-12387888D02*
X18439230Y-12406936D01*
X18439230Y-12406936D02*
X18448753Y-12416460D01*
X18448753Y-12416460D02*
X18467801Y-12425984D01*
X18467801Y-12425984D02*
X18505896Y-12425984D01*
X18505896Y-12425984D02*
X18524944Y-12416460D01*
X18524944Y-12416460D02*
X18534468Y-12406936D01*
X18534468Y-12406936D02*
X18543991Y-12387888D01*
X18543991Y-12387888D02*
X18543991Y-12349793D01*
X18543991Y-12349793D02*
X18534468Y-12330746D01*
X18534468Y-12330746D02*
X18524944Y-12321222D01*
X18524944Y-12321222D02*
X18505896Y-12311698D01*
X18782087Y-12425984D02*
X18782087Y-12225984D01*
X18867801Y-12425984D02*
X18867801Y-12321222D01*
X18867801Y-12321222D02*
X18858277Y-12302174D01*
X18858277Y-12302174D02*
X18839230Y-12292650D01*
X18839230Y-12292650D02*
X18810658Y-12292650D01*
X18810658Y-12292650D02*
X18791611Y-12302174D01*
X18791611Y-12302174D02*
X18782087Y-12311698D01*
X18991611Y-12425984D02*
X18972563Y-12416460D01*
X18972563Y-12416460D02*
X18963039Y-12406936D01*
X18963039Y-12406936D02*
X18953515Y-12387888D01*
X18953515Y-12387888D02*
X18953515Y-12330746D01*
X18953515Y-12330746D02*
X18963039Y-12311698D01*
X18963039Y-12311698D02*
X18972563Y-12302174D01*
X18972563Y-12302174D02*
X18991611Y-12292650D01*
X18991611Y-12292650D02*
X19020182Y-12292650D01*
X19020182Y-12292650D02*
X19039230Y-12302174D01*
X19039230Y-12302174D02*
X19048753Y-12311698D01*
X19048753Y-12311698D02*
X19058277Y-12330746D01*
X19058277Y-12330746D02*
X19058277Y-12387888D01*
X19058277Y-12387888D02*
X19048753Y-12406936D01*
X19048753Y-12406936D02*
X19039230Y-12416460D01*
X19039230Y-12416460D02*
X19020182Y-12425984D01*
X19020182Y-12425984D02*
X18991611Y-12425984D01*
X19172563Y-12425984D02*
X19153515Y-12416460D01*
X19153515Y-12416460D02*
X19143992Y-12397412D01*
X19143992Y-12397412D02*
X19143992Y-12225984D01*
X19324944Y-12416460D02*
X19305896Y-12425984D01*
X19305896Y-12425984D02*
X19267801Y-12425984D01*
X19267801Y-12425984D02*
X19248753Y-12416460D01*
X19248753Y-12416460D02*
X19239230Y-12397412D01*
X19239230Y-12397412D02*
X19239230Y-12321222D01*
X19239230Y-12321222D02*
X19248753Y-12302174D01*
X19248753Y-12302174D02*
X19267801Y-12292650D01*
X19267801Y-12292650D02*
X19305896Y-12292650D01*
X19305896Y-12292650D02*
X19324944Y-12302174D01*
X19324944Y-12302174D02*
X19334468Y-12321222D01*
X19334468Y-12321222D02*
X19334468Y-12340269D01*
X19334468Y-12340269D02*
X19239230Y-12359317D01*
X19410658Y-12416460D02*
X19429706Y-12425984D01*
X19429706Y-12425984D02*
X19467801Y-12425984D01*
X19467801Y-12425984D02*
X19486849Y-12416460D01*
X19486849Y-12416460D02*
X19496373Y-12397412D01*
X19496373Y-12397412D02*
X19496373Y-12387888D01*
X19496373Y-12387888D02*
X19486849Y-12368841D01*
X19486849Y-12368841D02*
X19467801Y-12359317D01*
X19467801Y-12359317D02*
X19439230Y-12359317D01*
X19439230Y-12359317D02*
X19420182Y-12349793D01*
X19420182Y-12349793D02*
X19410658Y-12330746D01*
X19410658Y-12330746D02*
X19410658Y-12321222D01*
X19410658Y-12321222D02*
X19420182Y-12302174D01*
X19420182Y-12302174D02*
X19439230Y-12292650D01*
X19439230Y-12292650D02*
X19467801Y-12292650D01*
X19467801Y-12292650D02*
X19486849Y-12302174D01*
X19563039Y-12502174D02*
X19572563Y-12492650D01*
X19572563Y-12492650D02*
X19591611Y-12464079D01*
X19591611Y-12464079D02*
X19601134Y-12445031D01*
X19601134Y-12445031D02*
X19610658Y-12416460D01*
X19610658Y-12416460D02*
X19620182Y-12368841D01*
X19620182Y-12368841D02*
X19620182Y-12330746D01*
X19620182Y-12330746D02*
X19610658Y-12283127D01*
X19610658Y-12283127D02*
X19601134Y-12254555D01*
X19601134Y-12254555D02*
X19591611Y-12235508D01*
X19591611Y-12235508D02*
X19572563Y-12206936D01*
X19572563Y-12206936D02*
X19563039Y-12197412D01*
D12*
X14552500Y-12643500D02*
X14597500Y-12598500D01*
X14552500Y-12553500D01*
X14507500Y-12598500D01*
X14552500Y-12643500D01*
D11*
X14896372Y-12489984D02*
X14915420Y-12489984D01*
X14915420Y-12489984D02*
X14934467Y-12499508D01*
X14934467Y-12499508D02*
X14943991Y-12509031D01*
X14943991Y-12509031D02*
X14953515Y-12528079D01*
X14953515Y-12528079D02*
X14963039Y-12566174D01*
X14963039Y-12566174D02*
X14963039Y-12613793D01*
X14963039Y-12613793D02*
X14953515Y-12651888D01*
X14953515Y-12651888D02*
X14943991Y-12670936D01*
X14943991Y-12670936D02*
X14934467Y-12680460D01*
X14934467Y-12680460D02*
X14915420Y-12689984D01*
X14915420Y-12689984D02*
X14896372Y-12689984D01*
X14896372Y-12689984D02*
X14877324Y-12680460D01*
X14877324Y-12680460D02*
X14867801Y-12670936D01*
X14867801Y-12670936D02*
X14858277Y-12651888D01*
X14858277Y-12651888D02*
X14848753Y-12613793D01*
X14848753Y-12613793D02*
X14848753Y-12566174D01*
X14848753Y-12566174D02*
X14858277Y-12528079D01*
X14858277Y-12528079D02*
X14867801Y-12509031D01*
X14867801Y-12509031D02*
X14877324Y-12499508D01*
X14877324Y-12499508D02*
X14896372Y-12489984D01*
X15048753Y-12670936D02*
X15058277Y-12680460D01*
X15058277Y-12680460D02*
X15048753Y-12689984D01*
X15048753Y-12689984D02*
X15039229Y-12680460D01*
X15039229Y-12680460D02*
X15048753Y-12670936D01*
X15048753Y-12670936D02*
X15048753Y-12689984D01*
X15153515Y-12689984D02*
X15191610Y-12689984D01*
X15191610Y-12689984D02*
X15210658Y-12680460D01*
X15210658Y-12680460D02*
X15220182Y-12670936D01*
X15220182Y-12670936D02*
X15239229Y-12642365D01*
X15239229Y-12642365D02*
X15248753Y-12604269D01*
X15248753Y-12604269D02*
X15248753Y-12528079D01*
X15248753Y-12528079D02*
X15239229Y-12509031D01*
X15239229Y-12509031D02*
X15229705Y-12499508D01*
X15229705Y-12499508D02*
X15210658Y-12489984D01*
X15210658Y-12489984D02*
X15172562Y-12489984D01*
X15172562Y-12489984D02*
X15153515Y-12499508D01*
X15153515Y-12499508D02*
X15143991Y-12509031D01*
X15143991Y-12509031D02*
X15134467Y-12528079D01*
X15134467Y-12528079D02*
X15134467Y-12575698D01*
X15134467Y-12575698D02*
X15143991Y-12594746D01*
X15143991Y-12594746D02*
X15153515Y-12604269D01*
X15153515Y-12604269D02*
X15172562Y-12613793D01*
X15172562Y-12613793D02*
X15210658Y-12613793D01*
X15210658Y-12613793D02*
X15229705Y-12604269D01*
X15229705Y-12604269D02*
X15239229Y-12594746D01*
X15239229Y-12594746D02*
X15248753Y-12575698D01*
X15372562Y-12489984D02*
X15391610Y-12489984D01*
X15391610Y-12489984D02*
X15410658Y-12499508D01*
X15410658Y-12499508D02*
X15420182Y-12509031D01*
X15420182Y-12509031D02*
X15429705Y-12528079D01*
X15429705Y-12528079D02*
X15439229Y-12566174D01*
X15439229Y-12566174D02*
X15439229Y-12613793D01*
X15439229Y-12613793D02*
X15429705Y-12651888D01*
X15429705Y-12651888D02*
X15420182Y-12670936D01*
X15420182Y-12670936D02*
X15410658Y-12680460D01*
X15410658Y-12680460D02*
X15391610Y-12689984D01*
X15391610Y-12689984D02*
X15372562Y-12689984D01*
X15372562Y-12689984D02*
X15353515Y-12680460D01*
X15353515Y-12680460D02*
X15343991Y-12670936D01*
X15343991Y-12670936D02*
X15334467Y-12651888D01*
X15334467Y-12651888D02*
X15324943Y-12613793D01*
X15324943Y-12613793D02*
X15324943Y-12566174D01*
X15324943Y-12566174D02*
X15334467Y-12528079D01*
X15334467Y-12528079D02*
X15343991Y-12509031D01*
X15343991Y-12509031D02*
X15353515Y-12499508D01*
X15353515Y-12499508D02*
X15372562Y-12489984D01*
X15563039Y-12489984D02*
X15582086Y-12489984D01*
X15582086Y-12489984D02*
X15601134Y-12499508D01*
X15601134Y-12499508D02*
X15610658Y-12509031D01*
X15610658Y-12509031D02*
X15620182Y-12528079D01*
X15620182Y-12528079D02*
X15629705Y-12566174D01*
X15629705Y-12566174D02*
X15629705Y-12613793D01*
X15629705Y-12613793D02*
X15620182Y-12651888D01*
X15620182Y-12651888D02*
X15610658Y-12670936D01*
X15610658Y-12670936D02*
X15601134Y-12680460D01*
X15601134Y-12680460D02*
X15582086Y-12689984D01*
X15582086Y-12689984D02*
X15563039Y-12689984D01*
X15563039Y-12689984D02*
X15543991Y-12680460D01*
X15543991Y-12680460D02*
X15534467Y-12670936D01*
X15534467Y-12670936D02*
X15524943Y-12651888D01*
X15524943Y-12651888D02*
X15515420Y-12613793D01*
X15515420Y-12613793D02*
X15515420Y-12566174D01*
X15515420Y-12566174D02*
X15524943Y-12528079D01*
X15524943Y-12528079D02*
X15534467Y-12509031D01*
X15534467Y-12509031D02*
X15543991Y-12499508D01*
X15543991Y-12499508D02*
X15563039Y-12489984D01*
X15715420Y-12689984D02*
X15715420Y-12556650D01*
X15715420Y-12575698D02*
X15724943Y-12566174D01*
X15724943Y-12566174D02*
X15743991Y-12556650D01*
X15743991Y-12556650D02*
X15772563Y-12556650D01*
X15772563Y-12556650D02*
X15791610Y-12566174D01*
X15791610Y-12566174D02*
X15801134Y-12585222D01*
X15801134Y-12585222D02*
X15801134Y-12689984D01*
X15801134Y-12585222D02*
X15810658Y-12566174D01*
X15810658Y-12566174D02*
X15829705Y-12556650D01*
X15829705Y-12556650D02*
X15858277Y-12556650D01*
X15858277Y-12556650D02*
X15877324Y-12566174D01*
X15877324Y-12566174D02*
X15886848Y-12585222D01*
X15886848Y-12585222D02*
X15886848Y-12689984D01*
X15982086Y-12689984D02*
X15982086Y-12556650D01*
X15982086Y-12575698D02*
X15991610Y-12566174D01*
X15991610Y-12566174D02*
X16010658Y-12556650D01*
X16010658Y-12556650D02*
X16039229Y-12556650D01*
X16039229Y-12556650D02*
X16058277Y-12566174D01*
X16058277Y-12566174D02*
X16067801Y-12585222D01*
X16067801Y-12585222D02*
X16067801Y-12689984D01*
X16067801Y-12585222D02*
X16077324Y-12566174D01*
X16077324Y-12566174D02*
X16096372Y-12556650D01*
X16096372Y-12556650D02*
X16124943Y-12556650D01*
X16124943Y-12556650D02*
X16143991Y-12566174D01*
X16143991Y-12566174D02*
X16153515Y-12585222D01*
X16153515Y-12585222D02*
X16153515Y-12689984D01*
X16543991Y-12480460D02*
X16372563Y-12737603D01*
X16801134Y-12489984D02*
X16820182Y-12489984D01*
X16820182Y-12489984D02*
X16839229Y-12499508D01*
X16839229Y-12499508D02*
X16848753Y-12509031D01*
X16848753Y-12509031D02*
X16858277Y-12528079D01*
X16858277Y-12528079D02*
X16867801Y-12566174D01*
X16867801Y-12566174D02*
X16867801Y-12613793D01*
X16867801Y-12613793D02*
X16858277Y-12651888D01*
X16858277Y-12651888D02*
X16848753Y-12670936D01*
X16848753Y-12670936D02*
X16839229Y-12680460D01*
X16839229Y-12680460D02*
X16820182Y-12689984D01*
X16820182Y-12689984D02*
X16801134Y-12689984D01*
X16801134Y-12689984D02*
X16782087Y-12680460D01*
X16782087Y-12680460D02*
X16772563Y-12670936D01*
X16772563Y-12670936D02*
X16763039Y-12651888D01*
X16763039Y-12651888D02*
X16753515Y-12613793D01*
X16753515Y-12613793D02*
X16753515Y-12566174D01*
X16753515Y-12566174D02*
X16763039Y-12528079D01*
X16763039Y-12528079D02*
X16772563Y-12509031D01*
X16772563Y-12509031D02*
X16782087Y-12499508D01*
X16782087Y-12499508D02*
X16801134Y-12489984D01*
X16953515Y-12670936D02*
X16963039Y-12680460D01*
X16963039Y-12680460D02*
X16953515Y-12689984D01*
X16953515Y-12689984D02*
X16943991Y-12680460D01*
X16943991Y-12680460D02*
X16953515Y-12670936D01*
X16953515Y-12670936D02*
X16953515Y-12689984D01*
X17086848Y-12489984D02*
X17105896Y-12489984D01*
X17105896Y-12489984D02*
X17124944Y-12499508D01*
X17124944Y-12499508D02*
X17134468Y-12509031D01*
X17134468Y-12509031D02*
X17143991Y-12528079D01*
X17143991Y-12528079D02*
X17153515Y-12566174D01*
X17153515Y-12566174D02*
X17153515Y-12613793D01*
X17153515Y-12613793D02*
X17143991Y-12651888D01*
X17143991Y-12651888D02*
X17134468Y-12670936D01*
X17134468Y-12670936D02*
X17124944Y-12680460D01*
X17124944Y-12680460D02*
X17105896Y-12689984D01*
X17105896Y-12689984D02*
X17086848Y-12689984D01*
X17086848Y-12689984D02*
X17067801Y-12680460D01*
X17067801Y-12680460D02*
X17058277Y-12670936D01*
X17058277Y-12670936D02*
X17048753Y-12651888D01*
X17048753Y-12651888D02*
X17039229Y-12613793D01*
X17039229Y-12613793D02*
X17039229Y-12566174D01*
X17039229Y-12566174D02*
X17048753Y-12528079D01*
X17048753Y-12528079D02*
X17058277Y-12509031D01*
X17058277Y-12509031D02*
X17067801Y-12499508D01*
X17067801Y-12499508D02*
X17086848Y-12489984D01*
X17220182Y-12489984D02*
X17343991Y-12489984D01*
X17343991Y-12489984D02*
X17277325Y-12566174D01*
X17277325Y-12566174D02*
X17305896Y-12566174D01*
X17305896Y-12566174D02*
X17324944Y-12575698D01*
X17324944Y-12575698D02*
X17334468Y-12585222D01*
X17334468Y-12585222D02*
X17343991Y-12604269D01*
X17343991Y-12604269D02*
X17343991Y-12651888D01*
X17343991Y-12651888D02*
X17334468Y-12670936D01*
X17334468Y-12670936D02*
X17324944Y-12680460D01*
X17324944Y-12680460D02*
X17305896Y-12689984D01*
X17305896Y-12689984D02*
X17248753Y-12689984D01*
X17248753Y-12689984D02*
X17229706Y-12680460D01*
X17229706Y-12680460D02*
X17220182Y-12670936D01*
X17524944Y-12489984D02*
X17429706Y-12489984D01*
X17429706Y-12489984D02*
X17420182Y-12585222D01*
X17420182Y-12585222D02*
X17429706Y-12575698D01*
X17429706Y-12575698D02*
X17448753Y-12566174D01*
X17448753Y-12566174D02*
X17496372Y-12566174D01*
X17496372Y-12566174D02*
X17515420Y-12575698D01*
X17515420Y-12575698D02*
X17524944Y-12585222D01*
X17524944Y-12585222D02*
X17534468Y-12604269D01*
X17534468Y-12604269D02*
X17534468Y-12651888D01*
X17534468Y-12651888D02*
X17524944Y-12670936D01*
X17524944Y-12670936D02*
X17515420Y-12680460D01*
X17515420Y-12680460D02*
X17496372Y-12689984D01*
X17496372Y-12689984D02*
X17448753Y-12689984D01*
X17448753Y-12689984D02*
X17429706Y-12680460D01*
X17429706Y-12680460D02*
X17420182Y-12670936D01*
X17705896Y-12556650D02*
X17705896Y-12689984D01*
X17658277Y-12480460D02*
X17610658Y-12623317D01*
X17610658Y-12623317D02*
X17734468Y-12623317D01*
X17801134Y-12489984D02*
X17801134Y-12528079D01*
X17877325Y-12489984D02*
X17877325Y-12528079D01*
X18172563Y-12766174D02*
X18163039Y-12756650D01*
X18163039Y-12756650D02*
X18143991Y-12728079D01*
X18143991Y-12728079D02*
X18134468Y-12709031D01*
X18134468Y-12709031D02*
X18124944Y-12680460D01*
X18124944Y-12680460D02*
X18115420Y-12632841D01*
X18115420Y-12632841D02*
X18115420Y-12594746D01*
X18115420Y-12594746D02*
X18124944Y-12547127D01*
X18124944Y-12547127D02*
X18134468Y-12518555D01*
X18134468Y-12518555D02*
X18143991Y-12499508D01*
X18143991Y-12499508D02*
X18163039Y-12470936D01*
X18163039Y-12470936D02*
X18172563Y-12461412D01*
X18239230Y-12509031D02*
X18248753Y-12499508D01*
X18248753Y-12499508D02*
X18267801Y-12489984D01*
X18267801Y-12489984D02*
X18315420Y-12489984D01*
X18315420Y-12489984D02*
X18334468Y-12499508D01*
X18334468Y-12499508D02*
X18343991Y-12509031D01*
X18343991Y-12509031D02*
X18353515Y-12528079D01*
X18353515Y-12528079D02*
X18353515Y-12547127D01*
X18353515Y-12547127D02*
X18343991Y-12575698D01*
X18343991Y-12575698D02*
X18229706Y-12689984D01*
X18229706Y-12689984D02*
X18353515Y-12689984D01*
X18591611Y-12689984D02*
X18591611Y-12489984D01*
X18677325Y-12689984D02*
X18677325Y-12585222D01*
X18677325Y-12585222D02*
X18667801Y-12566174D01*
X18667801Y-12566174D02*
X18648753Y-12556650D01*
X18648753Y-12556650D02*
X18620182Y-12556650D01*
X18620182Y-12556650D02*
X18601134Y-12566174D01*
X18601134Y-12566174D02*
X18591611Y-12575698D01*
X18801134Y-12689984D02*
X18782087Y-12680460D01*
X18782087Y-12680460D02*
X18772563Y-12670936D01*
X18772563Y-12670936D02*
X18763039Y-12651888D01*
X18763039Y-12651888D02*
X18763039Y-12594746D01*
X18763039Y-12594746D02*
X18772563Y-12575698D01*
X18772563Y-12575698D02*
X18782087Y-12566174D01*
X18782087Y-12566174D02*
X18801134Y-12556650D01*
X18801134Y-12556650D02*
X18829706Y-12556650D01*
X18829706Y-12556650D02*
X18848753Y-12566174D01*
X18848753Y-12566174D02*
X18858277Y-12575698D01*
X18858277Y-12575698D02*
X18867801Y-12594746D01*
X18867801Y-12594746D02*
X18867801Y-12651888D01*
X18867801Y-12651888D02*
X18858277Y-12670936D01*
X18858277Y-12670936D02*
X18848753Y-12680460D01*
X18848753Y-12680460D02*
X18829706Y-12689984D01*
X18829706Y-12689984D02*
X18801134Y-12689984D01*
X18982087Y-12689984D02*
X18963039Y-12680460D01*
X18963039Y-12680460D02*
X18953515Y-12661412D01*
X18953515Y-12661412D02*
X18953515Y-12489984D01*
X19134468Y-12680460D02*
X19115420Y-12689984D01*
X19115420Y-12689984D02*
X19077325Y-12689984D01*
X19077325Y-12689984D02*
X19058277Y-12680460D01*
X19058277Y-12680460D02*
X19048753Y-12661412D01*
X19048753Y-12661412D02*
X19048753Y-12585222D01*
X19048753Y-12585222D02*
X19058277Y-12566174D01*
X19058277Y-12566174D02*
X19077325Y-12556650D01*
X19077325Y-12556650D02*
X19115420Y-12556650D01*
X19115420Y-12556650D02*
X19134468Y-12566174D01*
X19134468Y-12566174D02*
X19143992Y-12585222D01*
X19143992Y-12585222D02*
X19143992Y-12604269D01*
X19143992Y-12604269D02*
X19048753Y-12623317D01*
X19220182Y-12680460D02*
X19239230Y-12689984D01*
X19239230Y-12689984D02*
X19277325Y-12689984D01*
X19277325Y-12689984D02*
X19296373Y-12680460D01*
X19296373Y-12680460D02*
X19305896Y-12661412D01*
X19305896Y-12661412D02*
X19305896Y-12651888D01*
X19305896Y-12651888D02*
X19296373Y-12632841D01*
X19296373Y-12632841D02*
X19277325Y-12623317D01*
X19277325Y-12623317D02*
X19248753Y-12623317D01*
X19248753Y-12623317D02*
X19229706Y-12613793D01*
X19229706Y-12613793D02*
X19220182Y-12594746D01*
X19220182Y-12594746D02*
X19220182Y-12585222D01*
X19220182Y-12585222D02*
X19229706Y-12566174D01*
X19229706Y-12566174D02*
X19248753Y-12556650D01*
X19248753Y-12556650D02*
X19277325Y-12556650D01*
X19277325Y-12556650D02*
X19296373Y-12566174D01*
X19372563Y-12766174D02*
X19382087Y-12756650D01*
X19382087Y-12756650D02*
X19401134Y-12728079D01*
X19401134Y-12728079D02*
X19410658Y-12709031D01*
X19410658Y-12709031D02*
X19420182Y-12680460D01*
X19420182Y-12680460D02*
X19429706Y-12632841D01*
X19429706Y-12632841D02*
X19429706Y-12594746D01*
X19429706Y-12594746D02*
X19420182Y-12547127D01*
X19420182Y-12547127D02*
X19410658Y-12518555D01*
X19410658Y-12518555D02*
X19401134Y-12499508D01*
X19401134Y-12499508D02*
X19382087Y-12470936D01*
X19382087Y-12470936D02*
X19372563Y-12461412D01*
D12*
X14497500Y-12812500D02*
X14597500Y-12912500D01*
X14597500Y-12812500D02*
X14497500Y-12912500D01*
X14597500Y-12862500D02*
G75*
G02*
X14497500Y-12862500I-50000J0D01*
G01*
X14497500Y-12862500D02*
G75*
G02*
X14597500Y-12862500I50000J0D01*
G01*
D11*
X14963039Y-12953984D02*
X14848753Y-12953984D01*
X14905896Y-12953984D02*
X14905896Y-12753984D01*
X14905896Y-12753984D02*
X14886848Y-12782555D01*
X14886848Y-12782555D02*
X14867801Y-12801603D01*
X14867801Y-12801603D02*
X14848753Y-12811127D01*
X15048753Y-12934936D02*
X15058277Y-12944460D01*
X15058277Y-12944460D02*
X15048753Y-12953984D01*
X15048753Y-12953984D02*
X15039229Y-12944460D01*
X15039229Y-12944460D02*
X15048753Y-12934936D01*
X15048753Y-12934936D02*
X15048753Y-12953984D01*
X15182086Y-12753984D02*
X15201134Y-12753984D01*
X15201134Y-12753984D02*
X15220182Y-12763508D01*
X15220182Y-12763508D02*
X15229705Y-12773031D01*
X15229705Y-12773031D02*
X15239229Y-12792079D01*
X15239229Y-12792079D02*
X15248753Y-12830174D01*
X15248753Y-12830174D02*
X15248753Y-12877793D01*
X15248753Y-12877793D02*
X15239229Y-12915888D01*
X15239229Y-12915888D02*
X15229705Y-12934936D01*
X15229705Y-12934936D02*
X15220182Y-12944460D01*
X15220182Y-12944460D02*
X15201134Y-12953984D01*
X15201134Y-12953984D02*
X15182086Y-12953984D01*
X15182086Y-12953984D02*
X15163039Y-12944460D01*
X15163039Y-12944460D02*
X15153515Y-12934936D01*
X15153515Y-12934936D02*
X15143991Y-12915888D01*
X15143991Y-12915888D02*
X15134467Y-12877793D01*
X15134467Y-12877793D02*
X15134467Y-12830174D01*
X15134467Y-12830174D02*
X15143991Y-12792079D01*
X15143991Y-12792079D02*
X15153515Y-12773031D01*
X15153515Y-12773031D02*
X15163039Y-12763508D01*
X15163039Y-12763508D02*
X15182086Y-12753984D01*
X15372562Y-12753984D02*
X15391610Y-12753984D01*
X15391610Y-12753984D02*
X15410658Y-12763508D01*
X15410658Y-12763508D02*
X15420182Y-12773031D01*
X15420182Y-12773031D02*
X15429705Y-12792079D01*
X15429705Y-12792079D02*
X15439229Y-12830174D01*
X15439229Y-12830174D02*
X15439229Y-12877793D01*
X15439229Y-12877793D02*
X15429705Y-12915888D01*
X15429705Y-12915888D02*
X15420182Y-12934936D01*
X15420182Y-12934936D02*
X15410658Y-12944460D01*
X15410658Y-12944460D02*
X15391610Y-12953984D01*
X15391610Y-12953984D02*
X15372562Y-12953984D01*
X15372562Y-12953984D02*
X15353515Y-12944460D01*
X15353515Y-12944460D02*
X15343991Y-12934936D01*
X15343991Y-12934936D02*
X15334467Y-12915888D01*
X15334467Y-12915888D02*
X15324943Y-12877793D01*
X15324943Y-12877793D02*
X15324943Y-12830174D01*
X15324943Y-12830174D02*
X15334467Y-12792079D01*
X15334467Y-12792079D02*
X15343991Y-12773031D01*
X15343991Y-12773031D02*
X15353515Y-12763508D01*
X15353515Y-12763508D02*
X15372562Y-12753984D01*
X15563039Y-12753984D02*
X15582086Y-12753984D01*
X15582086Y-12753984D02*
X15601134Y-12763508D01*
X15601134Y-12763508D02*
X15610658Y-12773031D01*
X15610658Y-12773031D02*
X15620182Y-12792079D01*
X15620182Y-12792079D02*
X15629705Y-12830174D01*
X15629705Y-12830174D02*
X15629705Y-12877793D01*
X15629705Y-12877793D02*
X15620182Y-12915888D01*
X15620182Y-12915888D02*
X15610658Y-12934936D01*
X15610658Y-12934936D02*
X15601134Y-12944460D01*
X15601134Y-12944460D02*
X15582086Y-12953984D01*
X15582086Y-12953984D02*
X15563039Y-12953984D01*
X15563039Y-12953984D02*
X15543991Y-12944460D01*
X15543991Y-12944460D02*
X15534467Y-12934936D01*
X15534467Y-12934936D02*
X15524943Y-12915888D01*
X15524943Y-12915888D02*
X15515420Y-12877793D01*
X15515420Y-12877793D02*
X15515420Y-12830174D01*
X15515420Y-12830174D02*
X15524943Y-12792079D01*
X15524943Y-12792079D02*
X15534467Y-12773031D01*
X15534467Y-12773031D02*
X15543991Y-12763508D01*
X15543991Y-12763508D02*
X15563039Y-12753984D01*
X15715420Y-12953984D02*
X15715420Y-12820650D01*
X15715420Y-12839698D02*
X15724943Y-12830174D01*
X15724943Y-12830174D02*
X15743991Y-12820650D01*
X15743991Y-12820650D02*
X15772563Y-12820650D01*
X15772563Y-12820650D02*
X15791610Y-12830174D01*
X15791610Y-12830174D02*
X15801134Y-12849222D01*
X15801134Y-12849222D02*
X15801134Y-12953984D01*
X15801134Y-12849222D02*
X15810658Y-12830174D01*
X15810658Y-12830174D02*
X15829705Y-12820650D01*
X15829705Y-12820650D02*
X15858277Y-12820650D01*
X15858277Y-12820650D02*
X15877324Y-12830174D01*
X15877324Y-12830174D02*
X15886848Y-12849222D01*
X15886848Y-12849222D02*
X15886848Y-12953984D01*
X15982086Y-12953984D02*
X15982086Y-12820650D01*
X15982086Y-12839698D02*
X15991610Y-12830174D01*
X15991610Y-12830174D02*
X16010658Y-12820650D01*
X16010658Y-12820650D02*
X16039229Y-12820650D01*
X16039229Y-12820650D02*
X16058277Y-12830174D01*
X16058277Y-12830174D02*
X16067801Y-12849222D01*
X16067801Y-12849222D02*
X16067801Y-12953984D01*
X16067801Y-12849222D02*
X16077324Y-12830174D01*
X16077324Y-12830174D02*
X16096372Y-12820650D01*
X16096372Y-12820650D02*
X16124943Y-12820650D01*
X16124943Y-12820650D02*
X16143991Y-12830174D01*
X16143991Y-12830174D02*
X16153515Y-12849222D01*
X16153515Y-12849222D02*
X16153515Y-12953984D01*
X16543991Y-12744460D02*
X16372563Y-13001603D01*
X16801134Y-12753984D02*
X16820182Y-12753984D01*
X16820182Y-12753984D02*
X16839229Y-12763508D01*
X16839229Y-12763508D02*
X16848753Y-12773031D01*
X16848753Y-12773031D02*
X16858277Y-12792079D01*
X16858277Y-12792079D02*
X16867801Y-12830174D01*
X16867801Y-12830174D02*
X16867801Y-12877793D01*
X16867801Y-12877793D02*
X16858277Y-12915888D01*
X16858277Y-12915888D02*
X16848753Y-12934936D01*
X16848753Y-12934936D02*
X16839229Y-12944460D01*
X16839229Y-12944460D02*
X16820182Y-12953984D01*
X16820182Y-12953984D02*
X16801134Y-12953984D01*
X16801134Y-12953984D02*
X16782087Y-12944460D01*
X16782087Y-12944460D02*
X16772563Y-12934936D01*
X16772563Y-12934936D02*
X16763039Y-12915888D01*
X16763039Y-12915888D02*
X16753515Y-12877793D01*
X16753515Y-12877793D02*
X16753515Y-12830174D01*
X16753515Y-12830174D02*
X16763039Y-12792079D01*
X16763039Y-12792079D02*
X16772563Y-12773031D01*
X16772563Y-12773031D02*
X16782087Y-12763508D01*
X16782087Y-12763508D02*
X16801134Y-12753984D01*
X16953515Y-12934936D02*
X16963039Y-12944460D01*
X16963039Y-12944460D02*
X16953515Y-12953984D01*
X16953515Y-12953984D02*
X16943991Y-12944460D01*
X16943991Y-12944460D02*
X16953515Y-12934936D01*
X16953515Y-12934936D02*
X16953515Y-12953984D01*
X17086848Y-12753984D02*
X17105896Y-12753984D01*
X17105896Y-12753984D02*
X17124944Y-12763508D01*
X17124944Y-12763508D02*
X17134468Y-12773031D01*
X17134468Y-12773031D02*
X17143991Y-12792079D01*
X17143991Y-12792079D02*
X17153515Y-12830174D01*
X17153515Y-12830174D02*
X17153515Y-12877793D01*
X17153515Y-12877793D02*
X17143991Y-12915888D01*
X17143991Y-12915888D02*
X17134468Y-12934936D01*
X17134468Y-12934936D02*
X17124944Y-12944460D01*
X17124944Y-12944460D02*
X17105896Y-12953984D01*
X17105896Y-12953984D02*
X17086848Y-12953984D01*
X17086848Y-12953984D02*
X17067801Y-12944460D01*
X17067801Y-12944460D02*
X17058277Y-12934936D01*
X17058277Y-12934936D02*
X17048753Y-12915888D01*
X17048753Y-12915888D02*
X17039229Y-12877793D01*
X17039229Y-12877793D02*
X17039229Y-12830174D01*
X17039229Y-12830174D02*
X17048753Y-12792079D01*
X17048753Y-12792079D02*
X17058277Y-12773031D01*
X17058277Y-12773031D02*
X17067801Y-12763508D01*
X17067801Y-12763508D02*
X17086848Y-12753984D01*
X17220182Y-12753984D02*
X17343991Y-12753984D01*
X17343991Y-12753984D02*
X17277325Y-12830174D01*
X17277325Y-12830174D02*
X17305896Y-12830174D01*
X17305896Y-12830174D02*
X17324944Y-12839698D01*
X17324944Y-12839698D02*
X17334468Y-12849222D01*
X17334468Y-12849222D02*
X17343991Y-12868269D01*
X17343991Y-12868269D02*
X17343991Y-12915888D01*
X17343991Y-12915888D02*
X17334468Y-12934936D01*
X17334468Y-12934936D02*
X17324944Y-12944460D01*
X17324944Y-12944460D02*
X17305896Y-12953984D01*
X17305896Y-12953984D02*
X17248753Y-12953984D01*
X17248753Y-12953984D02*
X17229706Y-12944460D01*
X17229706Y-12944460D02*
X17220182Y-12934936D01*
X17439229Y-12953984D02*
X17477325Y-12953984D01*
X17477325Y-12953984D02*
X17496372Y-12944460D01*
X17496372Y-12944460D02*
X17505896Y-12934936D01*
X17505896Y-12934936D02*
X17524944Y-12906365D01*
X17524944Y-12906365D02*
X17534468Y-12868269D01*
X17534468Y-12868269D02*
X17534468Y-12792079D01*
X17534468Y-12792079D02*
X17524944Y-12773031D01*
X17524944Y-12773031D02*
X17515420Y-12763508D01*
X17515420Y-12763508D02*
X17496372Y-12753984D01*
X17496372Y-12753984D02*
X17458277Y-12753984D01*
X17458277Y-12753984D02*
X17439229Y-12763508D01*
X17439229Y-12763508D02*
X17429706Y-12773031D01*
X17429706Y-12773031D02*
X17420182Y-12792079D01*
X17420182Y-12792079D02*
X17420182Y-12839698D01*
X17420182Y-12839698D02*
X17429706Y-12858746D01*
X17429706Y-12858746D02*
X17439229Y-12868269D01*
X17439229Y-12868269D02*
X17458277Y-12877793D01*
X17458277Y-12877793D02*
X17496372Y-12877793D01*
X17496372Y-12877793D02*
X17515420Y-12868269D01*
X17515420Y-12868269D02*
X17524944Y-12858746D01*
X17524944Y-12858746D02*
X17534468Y-12839698D01*
X17705896Y-12820650D02*
X17705896Y-12953984D01*
X17658277Y-12744460D02*
X17610658Y-12887317D01*
X17610658Y-12887317D02*
X17734468Y-12887317D01*
X17801134Y-12753984D02*
X17801134Y-12792079D01*
X17877325Y-12753984D02*
X17877325Y-12792079D01*
X18172563Y-13030174D02*
X18163039Y-13020650D01*
X18163039Y-13020650D02*
X18143991Y-12992079D01*
X18143991Y-12992079D02*
X18134468Y-12973031D01*
X18134468Y-12973031D02*
X18124944Y-12944460D01*
X18124944Y-12944460D02*
X18115420Y-12896841D01*
X18115420Y-12896841D02*
X18115420Y-12858746D01*
X18115420Y-12858746D02*
X18124944Y-12811127D01*
X18124944Y-12811127D02*
X18134468Y-12782555D01*
X18134468Y-12782555D02*
X18143991Y-12763508D01*
X18143991Y-12763508D02*
X18163039Y-12734936D01*
X18163039Y-12734936D02*
X18172563Y-12725412D01*
X18334468Y-12820650D02*
X18334468Y-12953984D01*
X18286849Y-12744460D02*
X18239230Y-12887317D01*
X18239230Y-12887317D02*
X18363039Y-12887317D01*
X18429706Y-12773031D02*
X18439230Y-12763508D01*
X18439230Y-12763508D02*
X18458277Y-12753984D01*
X18458277Y-12753984D02*
X18505896Y-12753984D01*
X18505896Y-12753984D02*
X18524944Y-12763508D01*
X18524944Y-12763508D02*
X18534468Y-12773031D01*
X18534468Y-12773031D02*
X18543991Y-12792079D01*
X18543991Y-12792079D02*
X18543991Y-12811127D01*
X18543991Y-12811127D02*
X18534468Y-12839698D01*
X18534468Y-12839698D02*
X18420182Y-12953984D01*
X18420182Y-12953984D02*
X18543991Y-12953984D01*
X18782087Y-12953984D02*
X18782087Y-12753984D01*
X18867801Y-12953984D02*
X18867801Y-12849222D01*
X18867801Y-12849222D02*
X18858277Y-12830174D01*
X18858277Y-12830174D02*
X18839230Y-12820650D01*
X18839230Y-12820650D02*
X18810658Y-12820650D01*
X18810658Y-12820650D02*
X18791611Y-12830174D01*
X18791611Y-12830174D02*
X18782087Y-12839698D01*
X18991611Y-12953984D02*
X18972563Y-12944460D01*
X18972563Y-12944460D02*
X18963039Y-12934936D01*
X18963039Y-12934936D02*
X18953515Y-12915888D01*
X18953515Y-12915888D02*
X18953515Y-12858746D01*
X18953515Y-12858746D02*
X18963039Y-12839698D01*
X18963039Y-12839698D02*
X18972563Y-12830174D01*
X18972563Y-12830174D02*
X18991611Y-12820650D01*
X18991611Y-12820650D02*
X19020182Y-12820650D01*
X19020182Y-12820650D02*
X19039230Y-12830174D01*
X19039230Y-12830174D02*
X19048753Y-12839698D01*
X19048753Y-12839698D02*
X19058277Y-12858746D01*
X19058277Y-12858746D02*
X19058277Y-12915888D01*
X19058277Y-12915888D02*
X19048753Y-12934936D01*
X19048753Y-12934936D02*
X19039230Y-12944460D01*
X19039230Y-12944460D02*
X19020182Y-12953984D01*
X19020182Y-12953984D02*
X18991611Y-12953984D01*
X19172563Y-12953984D02*
X19153515Y-12944460D01*
X19153515Y-12944460D02*
X19143992Y-12925412D01*
X19143992Y-12925412D02*
X19143992Y-12753984D01*
X19324944Y-12944460D02*
X19305896Y-12953984D01*
X19305896Y-12953984D02*
X19267801Y-12953984D01*
X19267801Y-12953984D02*
X19248753Y-12944460D01*
X19248753Y-12944460D02*
X19239230Y-12925412D01*
X19239230Y-12925412D02*
X19239230Y-12849222D01*
X19239230Y-12849222D02*
X19248753Y-12830174D01*
X19248753Y-12830174D02*
X19267801Y-12820650D01*
X19267801Y-12820650D02*
X19305896Y-12820650D01*
X19305896Y-12820650D02*
X19324944Y-12830174D01*
X19324944Y-12830174D02*
X19334468Y-12849222D01*
X19334468Y-12849222D02*
X19334468Y-12868269D01*
X19334468Y-12868269D02*
X19239230Y-12887317D01*
X19410658Y-12944460D02*
X19429706Y-12953984D01*
X19429706Y-12953984D02*
X19467801Y-12953984D01*
X19467801Y-12953984D02*
X19486849Y-12944460D01*
X19486849Y-12944460D02*
X19496373Y-12925412D01*
X19496373Y-12925412D02*
X19496373Y-12915888D01*
X19496373Y-12915888D02*
X19486849Y-12896841D01*
X19486849Y-12896841D02*
X19467801Y-12887317D01*
X19467801Y-12887317D02*
X19439230Y-12887317D01*
X19439230Y-12887317D02*
X19420182Y-12877793D01*
X19420182Y-12877793D02*
X19410658Y-12858746D01*
X19410658Y-12858746D02*
X19410658Y-12849222D01*
X19410658Y-12849222D02*
X19420182Y-12830174D01*
X19420182Y-12830174D02*
X19439230Y-12820650D01*
X19439230Y-12820650D02*
X19467801Y-12820650D01*
X19467801Y-12820650D02*
X19486849Y-12830174D01*
X19734468Y-12877793D02*
X19886849Y-12877793D01*
X19810658Y-12953984D02*
X19810658Y-12801603D01*
X20115420Y-12753984D02*
X20239230Y-12753984D01*
X20239230Y-12753984D02*
X20172563Y-12830174D01*
X20172563Y-12830174D02*
X20201135Y-12830174D01*
X20201135Y-12830174D02*
X20220182Y-12839698D01*
X20220182Y-12839698D02*
X20229706Y-12849222D01*
X20229706Y-12849222D02*
X20239230Y-12868269D01*
X20239230Y-12868269D02*
X20239230Y-12915888D01*
X20239230Y-12915888D02*
X20229706Y-12934936D01*
X20229706Y-12934936D02*
X20220182Y-12944460D01*
X20220182Y-12944460D02*
X20201135Y-12953984D01*
X20201135Y-12953984D02*
X20143992Y-12953984D01*
X20143992Y-12953984D02*
X20124944Y-12944460D01*
X20124944Y-12944460D02*
X20115420Y-12934936D01*
X20467801Y-12944460D02*
X20486849Y-12953984D01*
X20486849Y-12953984D02*
X20524944Y-12953984D01*
X20524944Y-12953984D02*
X20543992Y-12944460D01*
X20543992Y-12944460D02*
X20553516Y-12925412D01*
X20553516Y-12925412D02*
X20553516Y-12915888D01*
X20553516Y-12915888D02*
X20543992Y-12896841D01*
X20543992Y-12896841D02*
X20524944Y-12887317D01*
X20524944Y-12887317D02*
X20496373Y-12887317D01*
X20496373Y-12887317D02*
X20477325Y-12877793D01*
X20477325Y-12877793D02*
X20467801Y-12858746D01*
X20467801Y-12858746D02*
X20467801Y-12849222D01*
X20467801Y-12849222D02*
X20477325Y-12830174D01*
X20477325Y-12830174D02*
X20496373Y-12820650D01*
X20496373Y-12820650D02*
X20524944Y-12820650D01*
X20524944Y-12820650D02*
X20543992Y-12830174D01*
X20667801Y-12953984D02*
X20648754Y-12944460D01*
X20648754Y-12944460D02*
X20639230Y-12925412D01*
X20639230Y-12925412D02*
X20639230Y-12753984D01*
X20772563Y-12953984D02*
X20753516Y-12944460D01*
X20753516Y-12944460D02*
X20743992Y-12934936D01*
X20743992Y-12934936D02*
X20734468Y-12915888D01*
X20734468Y-12915888D02*
X20734468Y-12858746D01*
X20734468Y-12858746D02*
X20743992Y-12839698D01*
X20743992Y-12839698D02*
X20753516Y-12830174D01*
X20753516Y-12830174D02*
X20772563Y-12820650D01*
X20772563Y-12820650D02*
X20801135Y-12820650D01*
X20801135Y-12820650D02*
X20820182Y-12830174D01*
X20820182Y-12830174D02*
X20829706Y-12839698D01*
X20829706Y-12839698D02*
X20839230Y-12858746D01*
X20839230Y-12858746D02*
X20839230Y-12915888D01*
X20839230Y-12915888D02*
X20829706Y-12934936D01*
X20829706Y-12934936D02*
X20820182Y-12944460D01*
X20820182Y-12944460D02*
X20801135Y-12953984D01*
X20801135Y-12953984D02*
X20772563Y-12953984D01*
X20896373Y-12820650D02*
X20972563Y-12820650D01*
X20924944Y-12753984D02*
X20924944Y-12925412D01*
X20924944Y-12925412D02*
X20934468Y-12944460D01*
X20934468Y-12944460D02*
X20953516Y-12953984D01*
X20953516Y-12953984D02*
X20972563Y-12953984D01*
X21029706Y-12944460D02*
X21048754Y-12953984D01*
X21048754Y-12953984D02*
X21086849Y-12953984D01*
X21086849Y-12953984D02*
X21105897Y-12944460D01*
X21105897Y-12944460D02*
X21115420Y-12925412D01*
X21115420Y-12925412D02*
X21115420Y-12915888D01*
X21115420Y-12915888D02*
X21105897Y-12896841D01*
X21105897Y-12896841D02*
X21086849Y-12887317D01*
X21086849Y-12887317D02*
X21058277Y-12887317D01*
X21058277Y-12887317D02*
X21039230Y-12877793D01*
X21039230Y-12877793D02*
X21029706Y-12858746D01*
X21029706Y-12858746D02*
X21029706Y-12849222D01*
X21029706Y-12849222D02*
X21039230Y-12830174D01*
X21039230Y-12830174D02*
X21058277Y-12820650D01*
X21058277Y-12820650D02*
X21086849Y-12820650D01*
X21086849Y-12820650D02*
X21105897Y-12830174D01*
X21182087Y-13030174D02*
X21191611Y-13020650D01*
X21191611Y-13020650D02*
X21210658Y-12992079D01*
X21210658Y-12992079D02*
X21220182Y-12973031D01*
X21220182Y-12973031D02*
X21229706Y-12944460D01*
X21229706Y-12944460D02*
X21239230Y-12896841D01*
X21239230Y-12896841D02*
X21239230Y-12858746D01*
X21239230Y-12858746D02*
X21229706Y-12811127D01*
X21229706Y-12811127D02*
X21220182Y-12782555D01*
X21220182Y-12782555D02*
X21210658Y-12763508D01*
X21210658Y-12763508D02*
X21191611Y-12734936D01*
X21191611Y-12734936D02*
X21182087Y-12725412D01*
D13*
X14487500Y-13071500D02*
X14597500Y-13181500D01*
X14597500Y-13071500D02*
X14487500Y-13181500D01*
X14542500Y-13071500D02*
X14542500Y-13181500D01*
X14487500Y-13126500D02*
X14597500Y-13126500D01*
D11*
X14963039Y-13217984D02*
X14848753Y-13217984D01*
X14905896Y-13217984D02*
X14905896Y-13017984D01*
X14905896Y-13017984D02*
X14886848Y-13046555D01*
X14886848Y-13046555D02*
X14867801Y-13065603D01*
X14867801Y-13065603D02*
X14848753Y-13075127D01*
X15048753Y-13198936D02*
X15058277Y-13208460D01*
X15058277Y-13208460D02*
X15048753Y-13217984D01*
X15048753Y-13217984D02*
X15039229Y-13208460D01*
X15039229Y-13208460D02*
X15048753Y-13198936D01*
X15048753Y-13198936D02*
X15048753Y-13217984D01*
X15248753Y-13217984D02*
X15134467Y-13217984D01*
X15191610Y-13217984D02*
X15191610Y-13017984D01*
X15191610Y-13017984D02*
X15172562Y-13046555D01*
X15172562Y-13046555D02*
X15153515Y-13065603D01*
X15153515Y-13065603D02*
X15134467Y-13075127D01*
X15372562Y-13017984D02*
X15391610Y-13017984D01*
X15391610Y-13017984D02*
X15410658Y-13027508D01*
X15410658Y-13027508D02*
X15420182Y-13037031D01*
X15420182Y-13037031D02*
X15429705Y-13056079D01*
X15429705Y-13056079D02*
X15439229Y-13094174D01*
X15439229Y-13094174D02*
X15439229Y-13141793D01*
X15439229Y-13141793D02*
X15429705Y-13179888D01*
X15429705Y-13179888D02*
X15420182Y-13198936D01*
X15420182Y-13198936D02*
X15410658Y-13208460D01*
X15410658Y-13208460D02*
X15391610Y-13217984D01*
X15391610Y-13217984D02*
X15372562Y-13217984D01*
X15372562Y-13217984D02*
X15353515Y-13208460D01*
X15353515Y-13208460D02*
X15343991Y-13198936D01*
X15343991Y-13198936D02*
X15334467Y-13179888D01*
X15334467Y-13179888D02*
X15324943Y-13141793D01*
X15324943Y-13141793D02*
X15324943Y-13094174D01*
X15324943Y-13094174D02*
X15334467Y-13056079D01*
X15334467Y-13056079D02*
X15343991Y-13037031D01*
X15343991Y-13037031D02*
X15353515Y-13027508D01*
X15353515Y-13027508D02*
X15372562Y-13017984D01*
X15563039Y-13017984D02*
X15582086Y-13017984D01*
X15582086Y-13017984D02*
X15601134Y-13027508D01*
X15601134Y-13027508D02*
X15610658Y-13037031D01*
X15610658Y-13037031D02*
X15620182Y-13056079D01*
X15620182Y-13056079D02*
X15629705Y-13094174D01*
X15629705Y-13094174D02*
X15629705Y-13141793D01*
X15629705Y-13141793D02*
X15620182Y-13179888D01*
X15620182Y-13179888D02*
X15610658Y-13198936D01*
X15610658Y-13198936D02*
X15601134Y-13208460D01*
X15601134Y-13208460D02*
X15582086Y-13217984D01*
X15582086Y-13217984D02*
X15563039Y-13217984D01*
X15563039Y-13217984D02*
X15543991Y-13208460D01*
X15543991Y-13208460D02*
X15534467Y-13198936D01*
X15534467Y-13198936D02*
X15524943Y-13179888D01*
X15524943Y-13179888D02*
X15515420Y-13141793D01*
X15515420Y-13141793D02*
X15515420Y-13094174D01*
X15515420Y-13094174D02*
X15524943Y-13056079D01*
X15524943Y-13056079D02*
X15534467Y-13037031D01*
X15534467Y-13037031D02*
X15543991Y-13027508D01*
X15543991Y-13027508D02*
X15563039Y-13017984D01*
X15715420Y-13217984D02*
X15715420Y-13084650D01*
X15715420Y-13103698D02*
X15724943Y-13094174D01*
X15724943Y-13094174D02*
X15743991Y-13084650D01*
X15743991Y-13084650D02*
X15772563Y-13084650D01*
X15772563Y-13084650D02*
X15791610Y-13094174D01*
X15791610Y-13094174D02*
X15801134Y-13113222D01*
X15801134Y-13113222D02*
X15801134Y-13217984D01*
X15801134Y-13113222D02*
X15810658Y-13094174D01*
X15810658Y-13094174D02*
X15829705Y-13084650D01*
X15829705Y-13084650D02*
X15858277Y-13084650D01*
X15858277Y-13084650D02*
X15877324Y-13094174D01*
X15877324Y-13094174D02*
X15886848Y-13113222D01*
X15886848Y-13113222D02*
X15886848Y-13217984D01*
X15982086Y-13217984D02*
X15982086Y-13084650D01*
X15982086Y-13103698D02*
X15991610Y-13094174D01*
X15991610Y-13094174D02*
X16010658Y-13084650D01*
X16010658Y-13084650D02*
X16039229Y-13084650D01*
X16039229Y-13084650D02*
X16058277Y-13094174D01*
X16058277Y-13094174D02*
X16067801Y-13113222D01*
X16067801Y-13113222D02*
X16067801Y-13217984D01*
X16067801Y-13113222D02*
X16077324Y-13094174D01*
X16077324Y-13094174D02*
X16096372Y-13084650D01*
X16096372Y-13084650D02*
X16124943Y-13084650D01*
X16124943Y-13084650D02*
X16143991Y-13094174D01*
X16143991Y-13094174D02*
X16153515Y-13113222D01*
X16153515Y-13113222D02*
X16153515Y-13217984D01*
X16543991Y-13008460D02*
X16372563Y-13265603D01*
X16801134Y-13017984D02*
X16820182Y-13017984D01*
X16820182Y-13017984D02*
X16839229Y-13027508D01*
X16839229Y-13027508D02*
X16848753Y-13037031D01*
X16848753Y-13037031D02*
X16858277Y-13056079D01*
X16858277Y-13056079D02*
X16867801Y-13094174D01*
X16867801Y-13094174D02*
X16867801Y-13141793D01*
X16867801Y-13141793D02*
X16858277Y-13179888D01*
X16858277Y-13179888D02*
X16848753Y-13198936D01*
X16848753Y-13198936D02*
X16839229Y-13208460D01*
X16839229Y-13208460D02*
X16820182Y-13217984D01*
X16820182Y-13217984D02*
X16801134Y-13217984D01*
X16801134Y-13217984D02*
X16782087Y-13208460D01*
X16782087Y-13208460D02*
X16772563Y-13198936D01*
X16772563Y-13198936D02*
X16763039Y-13179888D01*
X16763039Y-13179888D02*
X16753515Y-13141793D01*
X16753515Y-13141793D02*
X16753515Y-13094174D01*
X16753515Y-13094174D02*
X16763039Y-13056079D01*
X16763039Y-13056079D02*
X16772563Y-13037031D01*
X16772563Y-13037031D02*
X16782087Y-13027508D01*
X16782087Y-13027508D02*
X16801134Y-13017984D01*
X16953515Y-13198936D02*
X16963039Y-13208460D01*
X16963039Y-13208460D02*
X16953515Y-13217984D01*
X16953515Y-13217984D02*
X16943991Y-13208460D01*
X16943991Y-13208460D02*
X16953515Y-13198936D01*
X16953515Y-13198936D02*
X16953515Y-13217984D01*
X17086848Y-13017984D02*
X17105896Y-13017984D01*
X17105896Y-13017984D02*
X17124944Y-13027508D01*
X17124944Y-13027508D02*
X17134468Y-13037031D01*
X17134468Y-13037031D02*
X17143991Y-13056079D01*
X17143991Y-13056079D02*
X17153515Y-13094174D01*
X17153515Y-13094174D02*
X17153515Y-13141793D01*
X17153515Y-13141793D02*
X17143991Y-13179888D01*
X17143991Y-13179888D02*
X17134468Y-13198936D01*
X17134468Y-13198936D02*
X17124944Y-13208460D01*
X17124944Y-13208460D02*
X17105896Y-13217984D01*
X17105896Y-13217984D02*
X17086848Y-13217984D01*
X17086848Y-13217984D02*
X17067801Y-13208460D01*
X17067801Y-13208460D02*
X17058277Y-13198936D01*
X17058277Y-13198936D02*
X17048753Y-13179888D01*
X17048753Y-13179888D02*
X17039229Y-13141793D01*
X17039229Y-13141793D02*
X17039229Y-13094174D01*
X17039229Y-13094174D02*
X17048753Y-13056079D01*
X17048753Y-13056079D02*
X17058277Y-13037031D01*
X17058277Y-13037031D02*
X17067801Y-13027508D01*
X17067801Y-13027508D02*
X17086848Y-13017984D01*
X17324944Y-13084650D02*
X17324944Y-13217984D01*
X17277325Y-13008460D02*
X17229706Y-13151317D01*
X17229706Y-13151317D02*
X17353515Y-13151317D01*
X17410658Y-13017984D02*
X17534468Y-13017984D01*
X17534468Y-13017984D02*
X17467801Y-13094174D01*
X17467801Y-13094174D02*
X17496372Y-13094174D01*
X17496372Y-13094174D02*
X17515420Y-13103698D01*
X17515420Y-13103698D02*
X17524944Y-13113222D01*
X17524944Y-13113222D02*
X17534468Y-13132269D01*
X17534468Y-13132269D02*
X17534468Y-13179888D01*
X17534468Y-13179888D02*
X17524944Y-13198936D01*
X17524944Y-13198936D02*
X17515420Y-13208460D01*
X17515420Y-13208460D02*
X17496372Y-13217984D01*
X17496372Y-13217984D02*
X17439229Y-13217984D01*
X17439229Y-13217984D02*
X17420182Y-13208460D01*
X17420182Y-13208460D02*
X17410658Y-13198936D01*
X17601134Y-13017984D02*
X17724944Y-13017984D01*
X17724944Y-13017984D02*
X17658277Y-13094174D01*
X17658277Y-13094174D02*
X17686849Y-13094174D01*
X17686849Y-13094174D02*
X17705896Y-13103698D01*
X17705896Y-13103698D02*
X17715420Y-13113222D01*
X17715420Y-13113222D02*
X17724944Y-13132269D01*
X17724944Y-13132269D02*
X17724944Y-13179888D01*
X17724944Y-13179888D02*
X17715420Y-13198936D01*
X17715420Y-13198936D02*
X17705896Y-13208460D01*
X17705896Y-13208460D02*
X17686849Y-13217984D01*
X17686849Y-13217984D02*
X17629706Y-13217984D01*
X17629706Y-13217984D02*
X17610658Y-13208460D01*
X17610658Y-13208460D02*
X17601134Y-13198936D01*
X17801134Y-13017984D02*
X17801134Y-13056079D01*
X17877325Y-13017984D02*
X17877325Y-13056079D01*
X18172563Y-13294174D02*
X18163039Y-13284650D01*
X18163039Y-13284650D02*
X18143991Y-13256079D01*
X18143991Y-13256079D02*
X18134468Y-13237031D01*
X18134468Y-13237031D02*
X18124944Y-13208460D01*
X18124944Y-13208460D02*
X18115420Y-13160841D01*
X18115420Y-13160841D02*
X18115420Y-13122746D01*
X18115420Y-13122746D02*
X18124944Y-13075127D01*
X18124944Y-13075127D02*
X18134468Y-13046555D01*
X18134468Y-13046555D02*
X18143991Y-13027508D01*
X18143991Y-13027508D02*
X18163039Y-12998936D01*
X18163039Y-12998936D02*
X18172563Y-12989412D01*
X18229706Y-13017984D02*
X18353515Y-13017984D01*
X18353515Y-13017984D02*
X18286849Y-13094174D01*
X18286849Y-13094174D02*
X18315420Y-13094174D01*
X18315420Y-13094174D02*
X18334468Y-13103698D01*
X18334468Y-13103698D02*
X18343991Y-13113222D01*
X18343991Y-13113222D02*
X18353515Y-13132269D01*
X18353515Y-13132269D02*
X18353515Y-13179888D01*
X18353515Y-13179888D02*
X18343991Y-13198936D01*
X18343991Y-13198936D02*
X18334468Y-13208460D01*
X18334468Y-13208460D02*
X18315420Y-13217984D01*
X18315420Y-13217984D02*
X18258277Y-13217984D01*
X18258277Y-13217984D02*
X18239230Y-13208460D01*
X18239230Y-13208460D02*
X18229706Y-13198936D01*
X18591611Y-13217984D02*
X18591611Y-13017984D01*
X18677325Y-13217984D02*
X18677325Y-13113222D01*
X18677325Y-13113222D02*
X18667801Y-13094174D01*
X18667801Y-13094174D02*
X18648753Y-13084650D01*
X18648753Y-13084650D02*
X18620182Y-13084650D01*
X18620182Y-13084650D02*
X18601134Y-13094174D01*
X18601134Y-13094174D02*
X18591611Y-13103698D01*
X18801134Y-13217984D02*
X18782087Y-13208460D01*
X18782087Y-13208460D02*
X18772563Y-13198936D01*
X18772563Y-13198936D02*
X18763039Y-13179888D01*
X18763039Y-13179888D02*
X18763039Y-13122746D01*
X18763039Y-13122746D02*
X18772563Y-13103698D01*
X18772563Y-13103698D02*
X18782087Y-13094174D01*
X18782087Y-13094174D02*
X18801134Y-13084650D01*
X18801134Y-13084650D02*
X18829706Y-13084650D01*
X18829706Y-13084650D02*
X18848753Y-13094174D01*
X18848753Y-13094174D02*
X18858277Y-13103698D01*
X18858277Y-13103698D02*
X18867801Y-13122746D01*
X18867801Y-13122746D02*
X18867801Y-13179888D01*
X18867801Y-13179888D02*
X18858277Y-13198936D01*
X18858277Y-13198936D02*
X18848753Y-13208460D01*
X18848753Y-13208460D02*
X18829706Y-13217984D01*
X18829706Y-13217984D02*
X18801134Y-13217984D01*
X18982087Y-13217984D02*
X18963039Y-13208460D01*
X18963039Y-13208460D02*
X18953515Y-13189412D01*
X18953515Y-13189412D02*
X18953515Y-13017984D01*
X19134468Y-13208460D02*
X19115420Y-13217984D01*
X19115420Y-13217984D02*
X19077325Y-13217984D01*
X19077325Y-13217984D02*
X19058277Y-13208460D01*
X19058277Y-13208460D02*
X19048753Y-13189412D01*
X19048753Y-13189412D02*
X19048753Y-13113222D01*
X19048753Y-13113222D02*
X19058277Y-13094174D01*
X19058277Y-13094174D02*
X19077325Y-13084650D01*
X19077325Y-13084650D02*
X19115420Y-13084650D01*
X19115420Y-13084650D02*
X19134468Y-13094174D01*
X19134468Y-13094174D02*
X19143992Y-13113222D01*
X19143992Y-13113222D02*
X19143992Y-13132269D01*
X19143992Y-13132269D02*
X19048753Y-13151317D01*
X19220182Y-13208460D02*
X19239230Y-13217984D01*
X19239230Y-13217984D02*
X19277325Y-13217984D01*
X19277325Y-13217984D02*
X19296373Y-13208460D01*
X19296373Y-13208460D02*
X19305896Y-13189412D01*
X19305896Y-13189412D02*
X19305896Y-13179888D01*
X19305896Y-13179888D02*
X19296373Y-13160841D01*
X19296373Y-13160841D02*
X19277325Y-13151317D01*
X19277325Y-13151317D02*
X19248753Y-13151317D01*
X19248753Y-13151317D02*
X19229706Y-13141793D01*
X19229706Y-13141793D02*
X19220182Y-13122746D01*
X19220182Y-13122746D02*
X19220182Y-13113222D01*
X19220182Y-13113222D02*
X19229706Y-13094174D01*
X19229706Y-13094174D02*
X19248753Y-13084650D01*
X19248753Y-13084650D02*
X19277325Y-13084650D01*
X19277325Y-13084650D02*
X19296373Y-13094174D01*
X19372563Y-13294174D02*
X19382087Y-13284650D01*
X19382087Y-13284650D02*
X19401134Y-13256079D01*
X19401134Y-13256079D02*
X19410658Y-13237031D01*
X19410658Y-13237031D02*
X19420182Y-13208460D01*
X19420182Y-13208460D02*
X19429706Y-13160841D01*
X19429706Y-13160841D02*
X19429706Y-13122746D01*
X19429706Y-13122746D02*
X19420182Y-13075127D01*
X19420182Y-13075127D02*
X19410658Y-13046555D01*
X19410658Y-13046555D02*
X19401134Y-13027508D01*
X19401134Y-13027508D02*
X19382087Y-12998936D01*
X19382087Y-12998936D02*
X19372563Y-12989412D01*
D14*
X14477500Y-13330500D02*
X14597500Y-13450500D01*
X14597500Y-13330500D02*
X14477500Y-13450500D01*
X14579927Y-13432927D02*
X14579927Y-13348073D01*
X14495073Y-13348073D01*
X14495073Y-13432927D01*
X14579927Y-13432927D01*
D11*
X14963039Y-13481984D02*
X14848753Y-13481984D01*
X14905896Y-13481984D02*
X14905896Y-13281984D01*
X14905896Y-13281984D02*
X14886848Y-13310555D01*
X14886848Y-13310555D02*
X14867801Y-13329603D01*
X14867801Y-13329603D02*
X14848753Y-13339127D01*
X15048753Y-13462936D02*
X15058277Y-13472460D01*
X15058277Y-13472460D02*
X15048753Y-13481984D01*
X15048753Y-13481984D02*
X15039229Y-13472460D01*
X15039229Y-13472460D02*
X15048753Y-13462936D01*
X15048753Y-13462936D02*
X15048753Y-13481984D01*
X15134467Y-13301031D02*
X15143991Y-13291508D01*
X15143991Y-13291508D02*
X15163039Y-13281984D01*
X15163039Y-13281984D02*
X15210658Y-13281984D01*
X15210658Y-13281984D02*
X15229705Y-13291508D01*
X15229705Y-13291508D02*
X15239229Y-13301031D01*
X15239229Y-13301031D02*
X15248753Y-13320079D01*
X15248753Y-13320079D02*
X15248753Y-13339127D01*
X15248753Y-13339127D02*
X15239229Y-13367698D01*
X15239229Y-13367698D02*
X15124943Y-13481984D01*
X15124943Y-13481984D02*
X15248753Y-13481984D01*
X15372562Y-13281984D02*
X15391610Y-13281984D01*
X15391610Y-13281984D02*
X15410658Y-13291508D01*
X15410658Y-13291508D02*
X15420182Y-13301031D01*
X15420182Y-13301031D02*
X15429705Y-13320079D01*
X15429705Y-13320079D02*
X15439229Y-13358174D01*
X15439229Y-13358174D02*
X15439229Y-13405793D01*
X15439229Y-13405793D02*
X15429705Y-13443888D01*
X15429705Y-13443888D02*
X15420182Y-13462936D01*
X15420182Y-13462936D02*
X15410658Y-13472460D01*
X15410658Y-13472460D02*
X15391610Y-13481984D01*
X15391610Y-13481984D02*
X15372562Y-13481984D01*
X15372562Y-13481984D02*
X15353515Y-13472460D01*
X15353515Y-13472460D02*
X15343991Y-13462936D01*
X15343991Y-13462936D02*
X15334467Y-13443888D01*
X15334467Y-13443888D02*
X15324943Y-13405793D01*
X15324943Y-13405793D02*
X15324943Y-13358174D01*
X15324943Y-13358174D02*
X15334467Y-13320079D01*
X15334467Y-13320079D02*
X15343991Y-13301031D01*
X15343991Y-13301031D02*
X15353515Y-13291508D01*
X15353515Y-13291508D02*
X15372562Y-13281984D01*
X15563039Y-13281984D02*
X15582086Y-13281984D01*
X15582086Y-13281984D02*
X15601134Y-13291508D01*
X15601134Y-13291508D02*
X15610658Y-13301031D01*
X15610658Y-13301031D02*
X15620182Y-13320079D01*
X15620182Y-13320079D02*
X15629705Y-13358174D01*
X15629705Y-13358174D02*
X15629705Y-13405793D01*
X15629705Y-13405793D02*
X15620182Y-13443888D01*
X15620182Y-13443888D02*
X15610658Y-13462936D01*
X15610658Y-13462936D02*
X15601134Y-13472460D01*
X15601134Y-13472460D02*
X15582086Y-13481984D01*
X15582086Y-13481984D02*
X15563039Y-13481984D01*
X15563039Y-13481984D02*
X15543991Y-13472460D01*
X15543991Y-13472460D02*
X15534467Y-13462936D01*
X15534467Y-13462936D02*
X15524943Y-13443888D01*
X15524943Y-13443888D02*
X15515420Y-13405793D01*
X15515420Y-13405793D02*
X15515420Y-13358174D01*
X15515420Y-13358174D02*
X15524943Y-13320079D01*
X15524943Y-13320079D02*
X15534467Y-13301031D01*
X15534467Y-13301031D02*
X15543991Y-13291508D01*
X15543991Y-13291508D02*
X15563039Y-13281984D01*
X15715420Y-13481984D02*
X15715420Y-13348650D01*
X15715420Y-13367698D02*
X15724943Y-13358174D01*
X15724943Y-13358174D02*
X15743991Y-13348650D01*
X15743991Y-13348650D02*
X15772563Y-13348650D01*
X15772563Y-13348650D02*
X15791610Y-13358174D01*
X15791610Y-13358174D02*
X15801134Y-13377222D01*
X15801134Y-13377222D02*
X15801134Y-13481984D01*
X15801134Y-13377222D02*
X15810658Y-13358174D01*
X15810658Y-13358174D02*
X15829705Y-13348650D01*
X15829705Y-13348650D02*
X15858277Y-13348650D01*
X15858277Y-13348650D02*
X15877324Y-13358174D01*
X15877324Y-13358174D02*
X15886848Y-13377222D01*
X15886848Y-13377222D02*
X15886848Y-13481984D01*
X15982086Y-13481984D02*
X15982086Y-13348650D01*
X15982086Y-13367698D02*
X15991610Y-13358174D01*
X15991610Y-13358174D02*
X16010658Y-13348650D01*
X16010658Y-13348650D02*
X16039229Y-13348650D01*
X16039229Y-13348650D02*
X16058277Y-13358174D01*
X16058277Y-13358174D02*
X16067801Y-13377222D01*
X16067801Y-13377222D02*
X16067801Y-13481984D01*
X16067801Y-13377222D02*
X16077324Y-13358174D01*
X16077324Y-13358174D02*
X16096372Y-13348650D01*
X16096372Y-13348650D02*
X16124943Y-13348650D01*
X16124943Y-13348650D02*
X16143991Y-13358174D01*
X16143991Y-13358174D02*
X16153515Y-13377222D01*
X16153515Y-13377222D02*
X16153515Y-13481984D01*
X16543991Y-13272460D02*
X16372563Y-13529603D01*
X16801134Y-13281984D02*
X16820182Y-13281984D01*
X16820182Y-13281984D02*
X16839229Y-13291508D01*
X16839229Y-13291508D02*
X16848753Y-13301031D01*
X16848753Y-13301031D02*
X16858277Y-13320079D01*
X16858277Y-13320079D02*
X16867801Y-13358174D01*
X16867801Y-13358174D02*
X16867801Y-13405793D01*
X16867801Y-13405793D02*
X16858277Y-13443888D01*
X16858277Y-13443888D02*
X16848753Y-13462936D01*
X16848753Y-13462936D02*
X16839229Y-13472460D01*
X16839229Y-13472460D02*
X16820182Y-13481984D01*
X16820182Y-13481984D02*
X16801134Y-13481984D01*
X16801134Y-13481984D02*
X16782087Y-13472460D01*
X16782087Y-13472460D02*
X16772563Y-13462936D01*
X16772563Y-13462936D02*
X16763039Y-13443888D01*
X16763039Y-13443888D02*
X16753515Y-13405793D01*
X16753515Y-13405793D02*
X16753515Y-13358174D01*
X16753515Y-13358174D02*
X16763039Y-13320079D01*
X16763039Y-13320079D02*
X16772563Y-13301031D01*
X16772563Y-13301031D02*
X16782087Y-13291508D01*
X16782087Y-13291508D02*
X16801134Y-13281984D01*
X16953515Y-13462936D02*
X16963039Y-13472460D01*
X16963039Y-13472460D02*
X16953515Y-13481984D01*
X16953515Y-13481984D02*
X16943991Y-13472460D01*
X16943991Y-13472460D02*
X16953515Y-13462936D01*
X16953515Y-13462936D02*
X16953515Y-13481984D01*
X17086848Y-13281984D02*
X17105896Y-13281984D01*
X17105896Y-13281984D02*
X17124944Y-13291508D01*
X17124944Y-13291508D02*
X17134468Y-13301031D01*
X17134468Y-13301031D02*
X17143991Y-13320079D01*
X17143991Y-13320079D02*
X17153515Y-13358174D01*
X17153515Y-13358174D02*
X17153515Y-13405793D01*
X17153515Y-13405793D02*
X17143991Y-13443888D01*
X17143991Y-13443888D02*
X17134468Y-13462936D01*
X17134468Y-13462936D02*
X17124944Y-13472460D01*
X17124944Y-13472460D02*
X17105896Y-13481984D01*
X17105896Y-13481984D02*
X17086848Y-13481984D01*
X17086848Y-13481984D02*
X17067801Y-13472460D01*
X17067801Y-13472460D02*
X17058277Y-13462936D01*
X17058277Y-13462936D02*
X17048753Y-13443888D01*
X17048753Y-13443888D02*
X17039229Y-13405793D01*
X17039229Y-13405793D02*
X17039229Y-13358174D01*
X17039229Y-13358174D02*
X17048753Y-13320079D01*
X17048753Y-13320079D02*
X17058277Y-13301031D01*
X17058277Y-13301031D02*
X17067801Y-13291508D01*
X17067801Y-13291508D02*
X17086848Y-13281984D01*
X17324944Y-13348650D02*
X17324944Y-13481984D01*
X17277325Y-13272460D02*
X17229706Y-13415317D01*
X17229706Y-13415317D02*
X17353515Y-13415317D01*
X17410658Y-13281984D02*
X17543991Y-13281984D01*
X17543991Y-13281984D02*
X17458277Y-13481984D01*
X17610658Y-13301031D02*
X17620182Y-13291508D01*
X17620182Y-13291508D02*
X17639229Y-13281984D01*
X17639229Y-13281984D02*
X17686849Y-13281984D01*
X17686849Y-13281984D02*
X17705896Y-13291508D01*
X17705896Y-13291508D02*
X17715420Y-13301031D01*
X17715420Y-13301031D02*
X17724944Y-13320079D01*
X17724944Y-13320079D02*
X17724944Y-13339127D01*
X17724944Y-13339127D02*
X17715420Y-13367698D01*
X17715420Y-13367698D02*
X17601134Y-13481984D01*
X17601134Y-13481984D02*
X17724944Y-13481984D01*
X17801134Y-13281984D02*
X17801134Y-13320079D01*
X17877325Y-13281984D02*
X17877325Y-13320079D01*
X18172563Y-13558174D02*
X18163039Y-13548650D01*
X18163039Y-13548650D02*
X18143991Y-13520079D01*
X18143991Y-13520079D02*
X18134468Y-13501031D01*
X18134468Y-13501031D02*
X18124944Y-13472460D01*
X18124944Y-13472460D02*
X18115420Y-13424841D01*
X18115420Y-13424841D02*
X18115420Y-13386746D01*
X18115420Y-13386746D02*
X18124944Y-13339127D01*
X18124944Y-13339127D02*
X18134468Y-13310555D01*
X18134468Y-13310555D02*
X18143991Y-13291508D01*
X18143991Y-13291508D02*
X18163039Y-13262936D01*
X18163039Y-13262936D02*
X18172563Y-13253412D01*
X18334468Y-13281984D02*
X18296372Y-13281984D01*
X18296372Y-13281984D02*
X18277325Y-13291508D01*
X18277325Y-13291508D02*
X18267801Y-13301031D01*
X18267801Y-13301031D02*
X18248753Y-13329603D01*
X18248753Y-13329603D02*
X18239230Y-13367698D01*
X18239230Y-13367698D02*
X18239230Y-13443888D01*
X18239230Y-13443888D02*
X18248753Y-13462936D01*
X18248753Y-13462936D02*
X18258277Y-13472460D01*
X18258277Y-13472460D02*
X18277325Y-13481984D01*
X18277325Y-13481984D02*
X18315420Y-13481984D01*
X18315420Y-13481984D02*
X18334468Y-13472460D01*
X18334468Y-13472460D02*
X18343991Y-13462936D01*
X18343991Y-13462936D02*
X18353515Y-13443888D01*
X18353515Y-13443888D02*
X18353515Y-13396269D01*
X18353515Y-13396269D02*
X18343991Y-13377222D01*
X18343991Y-13377222D02*
X18334468Y-13367698D01*
X18334468Y-13367698D02*
X18315420Y-13358174D01*
X18315420Y-13358174D02*
X18277325Y-13358174D01*
X18277325Y-13358174D02*
X18258277Y-13367698D01*
X18258277Y-13367698D02*
X18248753Y-13377222D01*
X18248753Y-13377222D02*
X18239230Y-13396269D01*
X18591611Y-13481984D02*
X18591611Y-13281984D01*
X18677325Y-13481984D02*
X18677325Y-13377222D01*
X18677325Y-13377222D02*
X18667801Y-13358174D01*
X18667801Y-13358174D02*
X18648753Y-13348650D01*
X18648753Y-13348650D02*
X18620182Y-13348650D01*
X18620182Y-13348650D02*
X18601134Y-13358174D01*
X18601134Y-13358174D02*
X18591611Y-13367698D01*
X18801134Y-13481984D02*
X18782087Y-13472460D01*
X18782087Y-13472460D02*
X18772563Y-13462936D01*
X18772563Y-13462936D02*
X18763039Y-13443888D01*
X18763039Y-13443888D02*
X18763039Y-13386746D01*
X18763039Y-13386746D02*
X18772563Y-13367698D01*
X18772563Y-13367698D02*
X18782087Y-13358174D01*
X18782087Y-13358174D02*
X18801134Y-13348650D01*
X18801134Y-13348650D02*
X18829706Y-13348650D01*
X18829706Y-13348650D02*
X18848753Y-13358174D01*
X18848753Y-13358174D02*
X18858277Y-13367698D01*
X18858277Y-13367698D02*
X18867801Y-13386746D01*
X18867801Y-13386746D02*
X18867801Y-13443888D01*
X18867801Y-13443888D02*
X18858277Y-13462936D01*
X18858277Y-13462936D02*
X18848753Y-13472460D01*
X18848753Y-13472460D02*
X18829706Y-13481984D01*
X18829706Y-13481984D02*
X18801134Y-13481984D01*
X18982087Y-13481984D02*
X18963039Y-13472460D01*
X18963039Y-13472460D02*
X18953515Y-13453412D01*
X18953515Y-13453412D02*
X18953515Y-13281984D01*
X19134468Y-13472460D02*
X19115420Y-13481984D01*
X19115420Y-13481984D02*
X19077325Y-13481984D01*
X19077325Y-13481984D02*
X19058277Y-13472460D01*
X19058277Y-13472460D02*
X19048753Y-13453412D01*
X19048753Y-13453412D02*
X19048753Y-13377222D01*
X19048753Y-13377222D02*
X19058277Y-13358174D01*
X19058277Y-13358174D02*
X19077325Y-13348650D01*
X19077325Y-13348650D02*
X19115420Y-13348650D01*
X19115420Y-13348650D02*
X19134468Y-13358174D01*
X19134468Y-13358174D02*
X19143992Y-13377222D01*
X19143992Y-13377222D02*
X19143992Y-13396269D01*
X19143992Y-13396269D02*
X19048753Y-13415317D01*
X19220182Y-13472460D02*
X19239230Y-13481984D01*
X19239230Y-13481984D02*
X19277325Y-13481984D01*
X19277325Y-13481984D02*
X19296373Y-13472460D01*
X19296373Y-13472460D02*
X19305896Y-13453412D01*
X19305896Y-13453412D02*
X19305896Y-13443888D01*
X19305896Y-13443888D02*
X19296373Y-13424841D01*
X19296373Y-13424841D02*
X19277325Y-13415317D01*
X19277325Y-13415317D02*
X19248753Y-13415317D01*
X19248753Y-13415317D02*
X19229706Y-13405793D01*
X19229706Y-13405793D02*
X19220182Y-13386746D01*
X19220182Y-13386746D02*
X19220182Y-13377222D01*
X19220182Y-13377222D02*
X19229706Y-13358174D01*
X19229706Y-13358174D02*
X19248753Y-13348650D01*
X19248753Y-13348650D02*
X19277325Y-13348650D01*
X19277325Y-13348650D02*
X19296373Y-13358174D01*
X19372563Y-13558174D02*
X19382087Y-13548650D01*
X19382087Y-13548650D02*
X19401134Y-13520079D01*
X19401134Y-13520079D02*
X19410658Y-13501031D01*
X19410658Y-13501031D02*
X19420182Y-13472460D01*
X19420182Y-13472460D02*
X19429706Y-13424841D01*
X19429706Y-13424841D02*
X19429706Y-13386746D01*
X19429706Y-13386746D02*
X19420182Y-13339127D01*
X19420182Y-13339127D02*
X19410658Y-13310555D01*
X19410658Y-13310555D02*
X19401134Y-13291508D01*
X19401134Y-13291508D02*
X19382087Y-13262936D01*
X19382087Y-13262936D02*
X19372563Y-13253412D01*
D15*
X14467500Y-13589500D02*
X14597500Y-13719500D01*
X14597500Y-13589500D02*
X14467500Y-13719500D01*
X14532500Y-13719500D02*
X14597500Y-13654500D01*
X14532500Y-13589500D01*
X14467500Y-13654500D01*
X14532500Y-13719500D01*
D11*
X14963039Y-13745984D02*
X14848753Y-13745984D01*
X14905896Y-13745984D02*
X14905896Y-13545984D01*
X14905896Y-13545984D02*
X14886848Y-13574555D01*
X14886848Y-13574555D02*
X14867801Y-13593603D01*
X14867801Y-13593603D02*
X14848753Y-13603127D01*
X15048753Y-13726936D02*
X15058277Y-13736460D01*
X15058277Y-13736460D02*
X15048753Y-13745984D01*
X15048753Y-13745984D02*
X15039229Y-13736460D01*
X15039229Y-13736460D02*
X15048753Y-13726936D01*
X15048753Y-13726936D02*
X15048753Y-13745984D01*
X15124943Y-13545984D02*
X15248753Y-13545984D01*
X15248753Y-13545984D02*
X15182086Y-13622174D01*
X15182086Y-13622174D02*
X15210658Y-13622174D01*
X15210658Y-13622174D02*
X15229705Y-13631698D01*
X15229705Y-13631698D02*
X15239229Y-13641222D01*
X15239229Y-13641222D02*
X15248753Y-13660269D01*
X15248753Y-13660269D02*
X15248753Y-13707888D01*
X15248753Y-13707888D02*
X15239229Y-13726936D01*
X15239229Y-13726936D02*
X15229705Y-13736460D01*
X15229705Y-13736460D02*
X15210658Y-13745984D01*
X15210658Y-13745984D02*
X15153515Y-13745984D01*
X15153515Y-13745984D02*
X15134467Y-13736460D01*
X15134467Y-13736460D02*
X15124943Y-13726936D01*
X15372562Y-13545984D02*
X15391610Y-13545984D01*
X15391610Y-13545984D02*
X15410658Y-13555508D01*
X15410658Y-13555508D02*
X15420182Y-13565031D01*
X15420182Y-13565031D02*
X15429705Y-13584079D01*
X15429705Y-13584079D02*
X15439229Y-13622174D01*
X15439229Y-13622174D02*
X15439229Y-13669793D01*
X15439229Y-13669793D02*
X15429705Y-13707888D01*
X15429705Y-13707888D02*
X15420182Y-13726936D01*
X15420182Y-13726936D02*
X15410658Y-13736460D01*
X15410658Y-13736460D02*
X15391610Y-13745984D01*
X15391610Y-13745984D02*
X15372562Y-13745984D01*
X15372562Y-13745984D02*
X15353515Y-13736460D01*
X15353515Y-13736460D02*
X15343991Y-13726936D01*
X15343991Y-13726936D02*
X15334467Y-13707888D01*
X15334467Y-13707888D02*
X15324943Y-13669793D01*
X15324943Y-13669793D02*
X15324943Y-13622174D01*
X15324943Y-13622174D02*
X15334467Y-13584079D01*
X15334467Y-13584079D02*
X15343991Y-13565031D01*
X15343991Y-13565031D02*
X15353515Y-13555508D01*
X15353515Y-13555508D02*
X15372562Y-13545984D01*
X15563039Y-13545984D02*
X15582086Y-13545984D01*
X15582086Y-13545984D02*
X15601134Y-13555508D01*
X15601134Y-13555508D02*
X15610658Y-13565031D01*
X15610658Y-13565031D02*
X15620182Y-13584079D01*
X15620182Y-13584079D02*
X15629705Y-13622174D01*
X15629705Y-13622174D02*
X15629705Y-13669793D01*
X15629705Y-13669793D02*
X15620182Y-13707888D01*
X15620182Y-13707888D02*
X15610658Y-13726936D01*
X15610658Y-13726936D02*
X15601134Y-13736460D01*
X15601134Y-13736460D02*
X15582086Y-13745984D01*
X15582086Y-13745984D02*
X15563039Y-13745984D01*
X15563039Y-13745984D02*
X15543991Y-13736460D01*
X15543991Y-13736460D02*
X15534467Y-13726936D01*
X15534467Y-13726936D02*
X15524943Y-13707888D01*
X15524943Y-13707888D02*
X15515420Y-13669793D01*
X15515420Y-13669793D02*
X15515420Y-13622174D01*
X15515420Y-13622174D02*
X15524943Y-13584079D01*
X15524943Y-13584079D02*
X15534467Y-13565031D01*
X15534467Y-13565031D02*
X15543991Y-13555508D01*
X15543991Y-13555508D02*
X15563039Y-13545984D01*
X15715420Y-13745984D02*
X15715420Y-13612650D01*
X15715420Y-13631698D02*
X15724943Y-13622174D01*
X15724943Y-13622174D02*
X15743991Y-13612650D01*
X15743991Y-13612650D02*
X15772563Y-13612650D01*
X15772563Y-13612650D02*
X15791610Y-13622174D01*
X15791610Y-13622174D02*
X15801134Y-13641222D01*
X15801134Y-13641222D02*
X15801134Y-13745984D01*
X15801134Y-13641222D02*
X15810658Y-13622174D01*
X15810658Y-13622174D02*
X15829705Y-13612650D01*
X15829705Y-13612650D02*
X15858277Y-13612650D01*
X15858277Y-13612650D02*
X15877324Y-13622174D01*
X15877324Y-13622174D02*
X15886848Y-13641222D01*
X15886848Y-13641222D02*
X15886848Y-13745984D01*
X15982086Y-13745984D02*
X15982086Y-13612650D01*
X15982086Y-13631698D02*
X15991610Y-13622174D01*
X15991610Y-13622174D02*
X16010658Y-13612650D01*
X16010658Y-13612650D02*
X16039229Y-13612650D01*
X16039229Y-13612650D02*
X16058277Y-13622174D01*
X16058277Y-13622174D02*
X16067801Y-13641222D01*
X16067801Y-13641222D02*
X16067801Y-13745984D01*
X16067801Y-13641222D02*
X16077324Y-13622174D01*
X16077324Y-13622174D02*
X16096372Y-13612650D01*
X16096372Y-13612650D02*
X16124943Y-13612650D01*
X16124943Y-13612650D02*
X16143991Y-13622174D01*
X16143991Y-13622174D02*
X16153515Y-13641222D01*
X16153515Y-13641222D02*
X16153515Y-13745984D01*
X16543991Y-13536460D02*
X16372563Y-13793603D01*
X16801134Y-13545984D02*
X16820182Y-13545984D01*
X16820182Y-13545984D02*
X16839229Y-13555508D01*
X16839229Y-13555508D02*
X16848753Y-13565031D01*
X16848753Y-13565031D02*
X16858277Y-13584079D01*
X16858277Y-13584079D02*
X16867801Y-13622174D01*
X16867801Y-13622174D02*
X16867801Y-13669793D01*
X16867801Y-13669793D02*
X16858277Y-13707888D01*
X16858277Y-13707888D02*
X16848753Y-13726936D01*
X16848753Y-13726936D02*
X16839229Y-13736460D01*
X16839229Y-13736460D02*
X16820182Y-13745984D01*
X16820182Y-13745984D02*
X16801134Y-13745984D01*
X16801134Y-13745984D02*
X16782087Y-13736460D01*
X16782087Y-13736460D02*
X16772563Y-13726936D01*
X16772563Y-13726936D02*
X16763039Y-13707888D01*
X16763039Y-13707888D02*
X16753515Y-13669793D01*
X16753515Y-13669793D02*
X16753515Y-13622174D01*
X16753515Y-13622174D02*
X16763039Y-13584079D01*
X16763039Y-13584079D02*
X16772563Y-13565031D01*
X16772563Y-13565031D02*
X16782087Y-13555508D01*
X16782087Y-13555508D02*
X16801134Y-13545984D01*
X16953515Y-13726936D02*
X16963039Y-13736460D01*
X16963039Y-13736460D02*
X16953515Y-13745984D01*
X16953515Y-13745984D02*
X16943991Y-13736460D01*
X16943991Y-13736460D02*
X16953515Y-13726936D01*
X16953515Y-13726936D02*
X16953515Y-13745984D01*
X17086848Y-13545984D02*
X17105896Y-13545984D01*
X17105896Y-13545984D02*
X17124944Y-13555508D01*
X17124944Y-13555508D02*
X17134468Y-13565031D01*
X17134468Y-13565031D02*
X17143991Y-13584079D01*
X17143991Y-13584079D02*
X17153515Y-13622174D01*
X17153515Y-13622174D02*
X17153515Y-13669793D01*
X17153515Y-13669793D02*
X17143991Y-13707888D01*
X17143991Y-13707888D02*
X17134468Y-13726936D01*
X17134468Y-13726936D02*
X17124944Y-13736460D01*
X17124944Y-13736460D02*
X17105896Y-13745984D01*
X17105896Y-13745984D02*
X17086848Y-13745984D01*
X17086848Y-13745984D02*
X17067801Y-13736460D01*
X17067801Y-13736460D02*
X17058277Y-13726936D01*
X17058277Y-13726936D02*
X17048753Y-13707888D01*
X17048753Y-13707888D02*
X17039229Y-13669793D01*
X17039229Y-13669793D02*
X17039229Y-13622174D01*
X17039229Y-13622174D02*
X17048753Y-13584079D01*
X17048753Y-13584079D02*
X17058277Y-13565031D01*
X17058277Y-13565031D02*
X17067801Y-13555508D01*
X17067801Y-13555508D02*
X17086848Y-13545984D01*
X17334468Y-13545984D02*
X17239229Y-13545984D01*
X17239229Y-13545984D02*
X17229706Y-13641222D01*
X17229706Y-13641222D02*
X17239229Y-13631698D01*
X17239229Y-13631698D02*
X17258277Y-13622174D01*
X17258277Y-13622174D02*
X17305896Y-13622174D01*
X17305896Y-13622174D02*
X17324944Y-13631698D01*
X17324944Y-13631698D02*
X17334468Y-13641222D01*
X17334468Y-13641222D02*
X17343991Y-13660269D01*
X17343991Y-13660269D02*
X17343991Y-13707888D01*
X17343991Y-13707888D02*
X17334468Y-13726936D01*
X17334468Y-13726936D02*
X17324944Y-13736460D01*
X17324944Y-13736460D02*
X17305896Y-13745984D01*
X17305896Y-13745984D02*
X17258277Y-13745984D01*
X17258277Y-13745984D02*
X17239229Y-13736460D01*
X17239229Y-13736460D02*
X17229706Y-13726936D01*
X17534468Y-13745984D02*
X17420182Y-13745984D01*
X17477325Y-13745984D02*
X17477325Y-13545984D01*
X17477325Y-13545984D02*
X17458277Y-13574555D01*
X17458277Y-13574555D02*
X17439229Y-13593603D01*
X17439229Y-13593603D02*
X17420182Y-13603127D01*
X17610658Y-13565031D02*
X17620182Y-13555508D01*
X17620182Y-13555508D02*
X17639229Y-13545984D01*
X17639229Y-13545984D02*
X17686849Y-13545984D01*
X17686849Y-13545984D02*
X17705896Y-13555508D01*
X17705896Y-13555508D02*
X17715420Y-13565031D01*
X17715420Y-13565031D02*
X17724944Y-13584079D01*
X17724944Y-13584079D02*
X17724944Y-13603127D01*
X17724944Y-13603127D02*
X17715420Y-13631698D01*
X17715420Y-13631698D02*
X17601134Y-13745984D01*
X17601134Y-13745984D02*
X17724944Y-13745984D01*
X17801134Y-13545984D02*
X17801134Y-13584079D01*
X17877325Y-13545984D02*
X17877325Y-13584079D01*
X18172563Y-13822174D02*
X18163039Y-13812650D01*
X18163039Y-13812650D02*
X18143991Y-13784079D01*
X18143991Y-13784079D02*
X18134468Y-13765031D01*
X18134468Y-13765031D02*
X18124944Y-13736460D01*
X18124944Y-13736460D02*
X18115420Y-13688841D01*
X18115420Y-13688841D02*
X18115420Y-13650746D01*
X18115420Y-13650746D02*
X18124944Y-13603127D01*
X18124944Y-13603127D02*
X18134468Y-13574555D01*
X18134468Y-13574555D02*
X18143991Y-13555508D01*
X18143991Y-13555508D02*
X18163039Y-13526936D01*
X18163039Y-13526936D02*
X18172563Y-13517412D01*
X18229706Y-13545984D02*
X18353515Y-13545984D01*
X18353515Y-13545984D02*
X18286849Y-13622174D01*
X18286849Y-13622174D02*
X18315420Y-13622174D01*
X18315420Y-13622174D02*
X18334468Y-13631698D01*
X18334468Y-13631698D02*
X18343991Y-13641222D01*
X18343991Y-13641222D02*
X18353515Y-13660269D01*
X18353515Y-13660269D02*
X18353515Y-13707888D01*
X18353515Y-13707888D02*
X18343991Y-13726936D01*
X18343991Y-13726936D02*
X18334468Y-13736460D01*
X18334468Y-13736460D02*
X18315420Y-13745984D01*
X18315420Y-13745984D02*
X18258277Y-13745984D01*
X18258277Y-13745984D02*
X18239230Y-13736460D01*
X18239230Y-13736460D02*
X18229706Y-13726936D01*
X18591611Y-13745984D02*
X18591611Y-13545984D01*
X18677325Y-13745984D02*
X18677325Y-13641222D01*
X18677325Y-13641222D02*
X18667801Y-13622174D01*
X18667801Y-13622174D02*
X18648753Y-13612650D01*
X18648753Y-13612650D02*
X18620182Y-13612650D01*
X18620182Y-13612650D02*
X18601134Y-13622174D01*
X18601134Y-13622174D02*
X18591611Y-13631698D01*
X18801134Y-13745984D02*
X18782087Y-13736460D01*
X18782087Y-13736460D02*
X18772563Y-13726936D01*
X18772563Y-13726936D02*
X18763039Y-13707888D01*
X18763039Y-13707888D02*
X18763039Y-13650746D01*
X18763039Y-13650746D02*
X18772563Y-13631698D01*
X18772563Y-13631698D02*
X18782087Y-13622174D01*
X18782087Y-13622174D02*
X18801134Y-13612650D01*
X18801134Y-13612650D02*
X18829706Y-13612650D01*
X18829706Y-13612650D02*
X18848753Y-13622174D01*
X18848753Y-13622174D02*
X18858277Y-13631698D01*
X18858277Y-13631698D02*
X18867801Y-13650746D01*
X18867801Y-13650746D02*
X18867801Y-13707888D01*
X18867801Y-13707888D02*
X18858277Y-13726936D01*
X18858277Y-13726936D02*
X18848753Y-13736460D01*
X18848753Y-13736460D02*
X18829706Y-13745984D01*
X18829706Y-13745984D02*
X18801134Y-13745984D01*
X18982087Y-13745984D02*
X18963039Y-13736460D01*
X18963039Y-13736460D02*
X18953515Y-13717412D01*
X18953515Y-13717412D02*
X18953515Y-13545984D01*
X19134468Y-13736460D02*
X19115420Y-13745984D01*
X19115420Y-13745984D02*
X19077325Y-13745984D01*
X19077325Y-13745984D02*
X19058277Y-13736460D01*
X19058277Y-13736460D02*
X19048753Y-13717412D01*
X19048753Y-13717412D02*
X19048753Y-13641222D01*
X19048753Y-13641222D02*
X19058277Y-13622174D01*
X19058277Y-13622174D02*
X19077325Y-13612650D01*
X19077325Y-13612650D02*
X19115420Y-13612650D01*
X19115420Y-13612650D02*
X19134468Y-13622174D01*
X19134468Y-13622174D02*
X19143992Y-13641222D01*
X19143992Y-13641222D02*
X19143992Y-13660269D01*
X19143992Y-13660269D02*
X19048753Y-13679317D01*
X19220182Y-13736460D02*
X19239230Y-13745984D01*
X19239230Y-13745984D02*
X19277325Y-13745984D01*
X19277325Y-13745984D02*
X19296373Y-13736460D01*
X19296373Y-13736460D02*
X19305896Y-13717412D01*
X19305896Y-13717412D02*
X19305896Y-13707888D01*
X19305896Y-13707888D02*
X19296373Y-13688841D01*
X19296373Y-13688841D02*
X19277325Y-13679317D01*
X19277325Y-13679317D02*
X19248753Y-13679317D01*
X19248753Y-13679317D02*
X19229706Y-13669793D01*
X19229706Y-13669793D02*
X19220182Y-13650746D01*
X19220182Y-13650746D02*
X19220182Y-13641222D01*
X19220182Y-13641222D02*
X19229706Y-13622174D01*
X19229706Y-13622174D02*
X19248753Y-13612650D01*
X19248753Y-13612650D02*
X19277325Y-13612650D01*
X19277325Y-13612650D02*
X19296373Y-13622174D01*
X19372563Y-13822174D02*
X19382087Y-13812650D01*
X19382087Y-13812650D02*
X19401134Y-13784079D01*
X19401134Y-13784079D02*
X19410658Y-13765031D01*
X19410658Y-13765031D02*
X19420182Y-13736460D01*
X19420182Y-13736460D02*
X19429706Y-13688841D01*
X19429706Y-13688841D02*
X19429706Y-13650746D01*
X19429706Y-13650746D02*
X19420182Y-13603127D01*
X19420182Y-13603127D02*
X19410658Y-13574555D01*
X19410658Y-13574555D02*
X19401134Y-13555508D01*
X19401134Y-13555508D02*
X19382087Y-13526936D01*
X19382087Y-13526936D02*
X19372563Y-13517412D01*
X14497500Y-13818500D02*
X14497500Y-14018500D01*
X14397500Y-13918500D02*
X14597500Y-13918500D01*
X14597500Y-13918500D02*
G75*
G02*
X14397500Y-13918500I-100000J0D01*
G01*
X14397500Y-13918500D02*
G75*
G02*
X14597500Y-13918500I100000J0D01*
G01*
X14839229Y-13809984D02*
X14963039Y-13809984D01*
X14963039Y-13809984D02*
X14896372Y-13886174D01*
X14896372Y-13886174D02*
X14924943Y-13886174D01*
X14924943Y-13886174D02*
X14943991Y-13895698D01*
X14943991Y-13895698D02*
X14953515Y-13905222D01*
X14953515Y-13905222D02*
X14963039Y-13924269D01*
X14963039Y-13924269D02*
X14963039Y-13971888D01*
X14963039Y-13971888D02*
X14953515Y-13990936D01*
X14953515Y-13990936D02*
X14943991Y-14000460D01*
X14943991Y-14000460D02*
X14924943Y-14009984D01*
X14924943Y-14009984D02*
X14867801Y-14009984D01*
X14867801Y-14009984D02*
X14848753Y-14000460D01*
X14848753Y-14000460D02*
X14839229Y-13990936D01*
X15048753Y-13990936D02*
X15058277Y-14000460D01*
X15058277Y-14000460D02*
X15048753Y-14009984D01*
X15048753Y-14009984D02*
X15039229Y-14000460D01*
X15039229Y-14000460D02*
X15048753Y-13990936D01*
X15048753Y-13990936D02*
X15048753Y-14009984D01*
X15134467Y-13829031D02*
X15143991Y-13819508D01*
X15143991Y-13819508D02*
X15163039Y-13809984D01*
X15163039Y-13809984D02*
X15210658Y-13809984D01*
X15210658Y-13809984D02*
X15229705Y-13819508D01*
X15229705Y-13819508D02*
X15239229Y-13829031D01*
X15239229Y-13829031D02*
X15248753Y-13848079D01*
X15248753Y-13848079D02*
X15248753Y-13867127D01*
X15248753Y-13867127D02*
X15239229Y-13895698D01*
X15239229Y-13895698D02*
X15124943Y-14009984D01*
X15124943Y-14009984D02*
X15248753Y-14009984D01*
X15372562Y-13809984D02*
X15391610Y-13809984D01*
X15391610Y-13809984D02*
X15410658Y-13819508D01*
X15410658Y-13819508D02*
X15420182Y-13829031D01*
X15420182Y-13829031D02*
X15429705Y-13848079D01*
X15429705Y-13848079D02*
X15439229Y-13886174D01*
X15439229Y-13886174D02*
X15439229Y-13933793D01*
X15439229Y-13933793D02*
X15429705Y-13971888D01*
X15429705Y-13971888D02*
X15420182Y-13990936D01*
X15420182Y-13990936D02*
X15410658Y-14000460D01*
X15410658Y-14000460D02*
X15391610Y-14009984D01*
X15391610Y-14009984D02*
X15372562Y-14009984D01*
X15372562Y-14009984D02*
X15353515Y-14000460D01*
X15353515Y-14000460D02*
X15343991Y-13990936D01*
X15343991Y-13990936D02*
X15334467Y-13971888D01*
X15334467Y-13971888D02*
X15324943Y-13933793D01*
X15324943Y-13933793D02*
X15324943Y-13886174D01*
X15324943Y-13886174D02*
X15334467Y-13848079D01*
X15334467Y-13848079D02*
X15343991Y-13829031D01*
X15343991Y-13829031D02*
X15353515Y-13819508D01*
X15353515Y-13819508D02*
X15372562Y-13809984D01*
X15563039Y-13809984D02*
X15582086Y-13809984D01*
X15582086Y-13809984D02*
X15601134Y-13819508D01*
X15601134Y-13819508D02*
X15610658Y-13829031D01*
X15610658Y-13829031D02*
X15620182Y-13848079D01*
X15620182Y-13848079D02*
X15629705Y-13886174D01*
X15629705Y-13886174D02*
X15629705Y-13933793D01*
X15629705Y-13933793D02*
X15620182Y-13971888D01*
X15620182Y-13971888D02*
X15610658Y-13990936D01*
X15610658Y-13990936D02*
X15601134Y-14000460D01*
X15601134Y-14000460D02*
X15582086Y-14009984D01*
X15582086Y-14009984D02*
X15563039Y-14009984D01*
X15563039Y-14009984D02*
X15543991Y-14000460D01*
X15543991Y-14000460D02*
X15534467Y-13990936D01*
X15534467Y-13990936D02*
X15524943Y-13971888D01*
X15524943Y-13971888D02*
X15515420Y-13933793D01*
X15515420Y-13933793D02*
X15515420Y-13886174D01*
X15515420Y-13886174D02*
X15524943Y-13848079D01*
X15524943Y-13848079D02*
X15534467Y-13829031D01*
X15534467Y-13829031D02*
X15543991Y-13819508D01*
X15543991Y-13819508D02*
X15563039Y-13809984D01*
X15715420Y-14009984D02*
X15715420Y-13876650D01*
X15715420Y-13895698D02*
X15724943Y-13886174D01*
X15724943Y-13886174D02*
X15743991Y-13876650D01*
X15743991Y-13876650D02*
X15772563Y-13876650D01*
X15772563Y-13876650D02*
X15791610Y-13886174D01*
X15791610Y-13886174D02*
X15801134Y-13905222D01*
X15801134Y-13905222D02*
X15801134Y-14009984D01*
X15801134Y-13905222D02*
X15810658Y-13886174D01*
X15810658Y-13886174D02*
X15829705Y-13876650D01*
X15829705Y-13876650D02*
X15858277Y-13876650D01*
X15858277Y-13876650D02*
X15877324Y-13886174D01*
X15877324Y-13886174D02*
X15886848Y-13905222D01*
X15886848Y-13905222D02*
X15886848Y-14009984D01*
X15982086Y-14009984D02*
X15982086Y-13876650D01*
X15982086Y-13895698D02*
X15991610Y-13886174D01*
X15991610Y-13886174D02*
X16010658Y-13876650D01*
X16010658Y-13876650D02*
X16039229Y-13876650D01*
X16039229Y-13876650D02*
X16058277Y-13886174D01*
X16058277Y-13886174D02*
X16067801Y-13905222D01*
X16067801Y-13905222D02*
X16067801Y-14009984D01*
X16067801Y-13905222D02*
X16077324Y-13886174D01*
X16077324Y-13886174D02*
X16096372Y-13876650D01*
X16096372Y-13876650D02*
X16124943Y-13876650D01*
X16124943Y-13876650D02*
X16143991Y-13886174D01*
X16143991Y-13886174D02*
X16153515Y-13905222D01*
X16153515Y-13905222D02*
X16153515Y-14009984D01*
X16543991Y-13800460D02*
X16372563Y-14057603D01*
X16801134Y-13809984D02*
X16820182Y-13809984D01*
X16820182Y-13809984D02*
X16839229Y-13819508D01*
X16839229Y-13819508D02*
X16848753Y-13829031D01*
X16848753Y-13829031D02*
X16858277Y-13848079D01*
X16858277Y-13848079D02*
X16867801Y-13886174D01*
X16867801Y-13886174D02*
X16867801Y-13933793D01*
X16867801Y-13933793D02*
X16858277Y-13971888D01*
X16858277Y-13971888D02*
X16848753Y-13990936D01*
X16848753Y-13990936D02*
X16839229Y-14000460D01*
X16839229Y-14000460D02*
X16820182Y-14009984D01*
X16820182Y-14009984D02*
X16801134Y-14009984D01*
X16801134Y-14009984D02*
X16782087Y-14000460D01*
X16782087Y-14000460D02*
X16772563Y-13990936D01*
X16772563Y-13990936D02*
X16763039Y-13971888D01*
X16763039Y-13971888D02*
X16753515Y-13933793D01*
X16753515Y-13933793D02*
X16753515Y-13886174D01*
X16753515Y-13886174D02*
X16763039Y-13848079D01*
X16763039Y-13848079D02*
X16772563Y-13829031D01*
X16772563Y-13829031D02*
X16782087Y-13819508D01*
X16782087Y-13819508D02*
X16801134Y-13809984D01*
X16953515Y-13990936D02*
X16963039Y-14000460D01*
X16963039Y-14000460D02*
X16953515Y-14009984D01*
X16953515Y-14009984D02*
X16943991Y-14000460D01*
X16943991Y-14000460D02*
X16953515Y-13990936D01*
X16953515Y-13990936D02*
X16953515Y-14009984D01*
X17153515Y-14009984D02*
X17039229Y-14009984D01*
X17096372Y-14009984D02*
X17096372Y-13809984D01*
X17096372Y-13809984D02*
X17077325Y-13838555D01*
X17077325Y-13838555D02*
X17058277Y-13857603D01*
X17058277Y-13857603D02*
X17039229Y-13867127D01*
X17229706Y-13829031D02*
X17239229Y-13819508D01*
X17239229Y-13819508D02*
X17258277Y-13809984D01*
X17258277Y-13809984D02*
X17305896Y-13809984D01*
X17305896Y-13809984D02*
X17324944Y-13819508D01*
X17324944Y-13819508D02*
X17334468Y-13829031D01*
X17334468Y-13829031D02*
X17343991Y-13848079D01*
X17343991Y-13848079D02*
X17343991Y-13867127D01*
X17343991Y-13867127D02*
X17334468Y-13895698D01*
X17334468Y-13895698D02*
X17220182Y-14009984D01*
X17220182Y-14009984D02*
X17343991Y-14009984D01*
X17515420Y-13809984D02*
X17477325Y-13809984D01*
X17477325Y-13809984D02*
X17458277Y-13819508D01*
X17458277Y-13819508D02*
X17448753Y-13829031D01*
X17448753Y-13829031D02*
X17429706Y-13857603D01*
X17429706Y-13857603D02*
X17420182Y-13895698D01*
X17420182Y-13895698D02*
X17420182Y-13971888D01*
X17420182Y-13971888D02*
X17429706Y-13990936D01*
X17429706Y-13990936D02*
X17439229Y-14000460D01*
X17439229Y-14000460D02*
X17458277Y-14009984D01*
X17458277Y-14009984D02*
X17496372Y-14009984D01*
X17496372Y-14009984D02*
X17515420Y-14000460D01*
X17515420Y-14000460D02*
X17524944Y-13990936D01*
X17524944Y-13990936D02*
X17534468Y-13971888D01*
X17534468Y-13971888D02*
X17534468Y-13924269D01*
X17534468Y-13924269D02*
X17524944Y-13905222D01*
X17524944Y-13905222D02*
X17515420Y-13895698D01*
X17515420Y-13895698D02*
X17496372Y-13886174D01*
X17496372Y-13886174D02*
X17458277Y-13886174D01*
X17458277Y-13886174D02*
X17439229Y-13895698D01*
X17439229Y-13895698D02*
X17429706Y-13905222D01*
X17429706Y-13905222D02*
X17420182Y-13924269D01*
X17658277Y-13809984D02*
X17677325Y-13809984D01*
X17677325Y-13809984D02*
X17696372Y-13819508D01*
X17696372Y-13819508D02*
X17705896Y-13829031D01*
X17705896Y-13829031D02*
X17715420Y-13848079D01*
X17715420Y-13848079D02*
X17724944Y-13886174D01*
X17724944Y-13886174D02*
X17724944Y-13933793D01*
X17724944Y-13933793D02*
X17715420Y-13971888D01*
X17715420Y-13971888D02*
X17705896Y-13990936D01*
X17705896Y-13990936D02*
X17696372Y-14000460D01*
X17696372Y-14000460D02*
X17677325Y-14009984D01*
X17677325Y-14009984D02*
X17658277Y-14009984D01*
X17658277Y-14009984D02*
X17639229Y-14000460D01*
X17639229Y-14000460D02*
X17629706Y-13990936D01*
X17629706Y-13990936D02*
X17620182Y-13971888D01*
X17620182Y-13971888D02*
X17610658Y-13933793D01*
X17610658Y-13933793D02*
X17610658Y-13886174D01*
X17610658Y-13886174D02*
X17620182Y-13848079D01*
X17620182Y-13848079D02*
X17629706Y-13829031D01*
X17629706Y-13829031D02*
X17639229Y-13819508D01*
X17639229Y-13819508D02*
X17658277Y-13809984D01*
X17801134Y-13809984D02*
X17801134Y-13848079D01*
X17877325Y-13809984D02*
X17877325Y-13848079D01*
X18172563Y-14086174D02*
X18163039Y-14076650D01*
X18163039Y-14076650D02*
X18143991Y-14048079D01*
X18143991Y-14048079D02*
X18134468Y-14029031D01*
X18134468Y-14029031D02*
X18124944Y-14000460D01*
X18124944Y-14000460D02*
X18115420Y-13952841D01*
X18115420Y-13952841D02*
X18115420Y-13914746D01*
X18115420Y-13914746D02*
X18124944Y-13867127D01*
X18124944Y-13867127D02*
X18134468Y-13838555D01*
X18134468Y-13838555D02*
X18143991Y-13819508D01*
X18143991Y-13819508D02*
X18163039Y-13790936D01*
X18163039Y-13790936D02*
X18172563Y-13781412D01*
X18239230Y-13829031D02*
X18248753Y-13819508D01*
X18248753Y-13819508D02*
X18267801Y-13809984D01*
X18267801Y-13809984D02*
X18315420Y-13809984D01*
X18315420Y-13809984D02*
X18334468Y-13819508D01*
X18334468Y-13819508D02*
X18343991Y-13829031D01*
X18343991Y-13829031D02*
X18353515Y-13848079D01*
X18353515Y-13848079D02*
X18353515Y-13867127D01*
X18353515Y-13867127D02*
X18343991Y-13895698D01*
X18343991Y-13895698D02*
X18229706Y-14009984D01*
X18229706Y-14009984D02*
X18353515Y-14009984D01*
X18591611Y-14009984D02*
X18591611Y-13809984D01*
X18677325Y-14009984D02*
X18677325Y-13905222D01*
X18677325Y-13905222D02*
X18667801Y-13886174D01*
X18667801Y-13886174D02*
X18648753Y-13876650D01*
X18648753Y-13876650D02*
X18620182Y-13876650D01*
X18620182Y-13876650D02*
X18601134Y-13886174D01*
X18601134Y-13886174D02*
X18591611Y-13895698D01*
X18801134Y-14009984D02*
X18782087Y-14000460D01*
X18782087Y-14000460D02*
X18772563Y-13990936D01*
X18772563Y-13990936D02*
X18763039Y-13971888D01*
X18763039Y-13971888D02*
X18763039Y-13914746D01*
X18763039Y-13914746D02*
X18772563Y-13895698D01*
X18772563Y-13895698D02*
X18782087Y-13886174D01*
X18782087Y-13886174D02*
X18801134Y-13876650D01*
X18801134Y-13876650D02*
X18829706Y-13876650D01*
X18829706Y-13876650D02*
X18848753Y-13886174D01*
X18848753Y-13886174D02*
X18858277Y-13895698D01*
X18858277Y-13895698D02*
X18867801Y-13914746D01*
X18867801Y-13914746D02*
X18867801Y-13971888D01*
X18867801Y-13971888D02*
X18858277Y-13990936D01*
X18858277Y-13990936D02*
X18848753Y-14000460D01*
X18848753Y-14000460D02*
X18829706Y-14009984D01*
X18829706Y-14009984D02*
X18801134Y-14009984D01*
X18982087Y-14009984D02*
X18963039Y-14000460D01*
X18963039Y-14000460D02*
X18953515Y-13981412D01*
X18953515Y-13981412D02*
X18953515Y-13809984D01*
X19134468Y-14000460D02*
X19115420Y-14009984D01*
X19115420Y-14009984D02*
X19077325Y-14009984D01*
X19077325Y-14009984D02*
X19058277Y-14000460D01*
X19058277Y-14000460D02*
X19048753Y-13981412D01*
X19048753Y-13981412D02*
X19048753Y-13905222D01*
X19048753Y-13905222D02*
X19058277Y-13886174D01*
X19058277Y-13886174D02*
X19077325Y-13876650D01*
X19077325Y-13876650D02*
X19115420Y-13876650D01*
X19115420Y-13876650D02*
X19134468Y-13886174D01*
X19134468Y-13886174D02*
X19143992Y-13905222D01*
X19143992Y-13905222D02*
X19143992Y-13924269D01*
X19143992Y-13924269D02*
X19048753Y-13943317D01*
X19220182Y-14000460D02*
X19239230Y-14009984D01*
X19239230Y-14009984D02*
X19277325Y-14009984D01*
X19277325Y-14009984D02*
X19296373Y-14000460D01*
X19296373Y-14000460D02*
X19305896Y-13981412D01*
X19305896Y-13981412D02*
X19305896Y-13971888D01*
X19305896Y-13971888D02*
X19296373Y-13952841D01*
X19296373Y-13952841D02*
X19277325Y-13943317D01*
X19277325Y-13943317D02*
X19248753Y-13943317D01*
X19248753Y-13943317D02*
X19229706Y-13933793D01*
X19229706Y-13933793D02*
X19220182Y-13914746D01*
X19220182Y-13914746D02*
X19220182Y-13905222D01*
X19220182Y-13905222D02*
X19229706Y-13886174D01*
X19229706Y-13886174D02*
X19248753Y-13876650D01*
X19248753Y-13876650D02*
X19277325Y-13876650D01*
X19277325Y-13876650D02*
X19296373Y-13886174D01*
X19372563Y-14086174D02*
X19382087Y-14076650D01*
X19382087Y-14076650D02*
X19401134Y-14048079D01*
X19401134Y-14048079D02*
X19410658Y-14029031D01*
X19410658Y-14029031D02*
X19420182Y-14000460D01*
X19420182Y-14000460D02*
X19429706Y-13952841D01*
X19429706Y-13952841D02*
X19429706Y-13914746D01*
X19429706Y-13914746D02*
X19420182Y-13867127D01*
X19420182Y-13867127D02*
X19410658Y-13838555D01*
X19410658Y-13838555D02*
X19401134Y-13819508D01*
X19401134Y-13819508D02*
X19382087Y-13790936D01*
X19382087Y-13790936D02*
X19372563Y-13781412D01*
M02*
