%TF.GenerationSoftware,KiCad,Pcbnew,8.0.5-8.0.5-0~ubuntu24.04.1*%
%TF.CreationDate,2024-12-07T14:49:09+13:00*%
%TF.ProjectId,pcb,7063622e-6b69-4636-9164-5f7063625858,rev?*%
%TF.SameCoordinates,Original*%
%TF.FileFunction,Drillmap*%
%TF.FilePolarity,Positive*%
%FSLAX45Y45*%
G04 Gerber Fmt 4.5, Leading zero omitted, Abs format (unit mm)*
G04 Created by KiCad (PCBNEW 8.0.5-8.0.5-0~ubuntu24.04.1) date 2024-12-07 14:49:09*
%MOMM*%
%LPD*%
G01*
G04 APERTURE LIST*
%ADD10C,0.050000*%
%ADD11C,0.200000*%
%ADD12C,0.320000*%
G04 APERTURE END LIST*
D10*
X20100000Y-5100000D02*
X14700000Y-5100000D01*
X14600000Y-5550000D02*
X14600000Y-10800000D01*
X14700000Y-10900000D02*
G75*
G02*
X14600000Y-10800000I0J100000D01*
G01*
X14600000Y-5200000D02*
G75*
G02*
X14700000Y-5100000I100000J0D01*
G01*
X14600000Y-5200000D02*
X14600000Y-5550000D01*
X20200000Y-6550000D02*
X20200000Y-10800000D01*
X20200000Y-5200000D02*
X20200000Y-5550000D01*
X20200000Y-6550000D02*
X20200000Y-5550000D01*
X20200000Y-10800000D02*
G75*
G02*
X20100000Y-10900000I-100000J0D01*
G01*
X20100000Y-10900000D02*
X14700000Y-10900000D01*
X20100000Y-5100000D02*
G75*
G02*
X20200000Y-5200000I0J-100000D01*
G01*
D11*
D12*
X14840000Y-5340000D02*
X15160000Y-5660000D01*
X15160000Y-5340000D02*
X14840000Y-5660000D01*
X14840000Y-10340000D02*
X15160000Y-10660000D01*
X15160000Y-10340000D02*
X14840000Y-10660000D01*
X19640000Y-5340000D02*
X19960000Y-5660000D01*
X19960000Y-5340000D02*
X19640000Y-5660000D01*
X19640000Y-10340000D02*
X19960000Y-10660000D01*
X19960000Y-10340000D02*
X19640000Y-10660000D01*
D11*
X14858277Y-11213984D02*
X14858277Y-11013984D01*
X14858277Y-11013984D02*
X14905896Y-11013984D01*
X14905896Y-11013984D02*
X14934467Y-11023508D01*
X14934467Y-11023508D02*
X14953515Y-11042555D01*
X14953515Y-11042555D02*
X14963039Y-11061603D01*
X14963039Y-11061603D02*
X14972562Y-11099698D01*
X14972562Y-11099698D02*
X14972562Y-11128270D01*
X14972562Y-11128270D02*
X14963039Y-11166365D01*
X14963039Y-11166365D02*
X14953515Y-11185412D01*
X14953515Y-11185412D02*
X14934467Y-11204460D01*
X14934467Y-11204460D02*
X14905896Y-11213984D01*
X14905896Y-11213984D02*
X14858277Y-11213984D01*
X15058277Y-11213984D02*
X15058277Y-11080650D01*
X15058277Y-11118746D02*
X15067801Y-11099698D01*
X15067801Y-11099698D02*
X15077324Y-11090174D01*
X15077324Y-11090174D02*
X15096372Y-11080650D01*
X15096372Y-11080650D02*
X15115420Y-11080650D01*
X15182086Y-11213984D02*
X15182086Y-11080650D01*
X15182086Y-11013984D02*
X15172562Y-11023508D01*
X15172562Y-11023508D02*
X15182086Y-11033031D01*
X15182086Y-11033031D02*
X15191610Y-11023508D01*
X15191610Y-11023508D02*
X15182086Y-11013984D01*
X15182086Y-11013984D02*
X15182086Y-11033031D01*
X15305896Y-11213984D02*
X15286848Y-11204460D01*
X15286848Y-11204460D02*
X15277324Y-11185412D01*
X15277324Y-11185412D02*
X15277324Y-11013984D01*
X15410658Y-11213984D02*
X15391610Y-11204460D01*
X15391610Y-11204460D02*
X15382086Y-11185412D01*
X15382086Y-11185412D02*
X15382086Y-11013984D01*
X15639229Y-11213984D02*
X15639229Y-11013984D01*
X15639229Y-11013984D02*
X15705896Y-11156841D01*
X15705896Y-11156841D02*
X15772562Y-11013984D01*
X15772562Y-11013984D02*
X15772562Y-11213984D01*
X15953515Y-11213984D02*
X15953515Y-11109222D01*
X15953515Y-11109222D02*
X15943991Y-11090174D01*
X15943991Y-11090174D02*
X15924943Y-11080650D01*
X15924943Y-11080650D02*
X15886848Y-11080650D01*
X15886848Y-11080650D02*
X15867801Y-11090174D01*
X15953515Y-11204460D02*
X15934467Y-11213984D01*
X15934467Y-11213984D02*
X15886848Y-11213984D01*
X15886848Y-11213984D02*
X15867801Y-11204460D01*
X15867801Y-11204460D02*
X15858277Y-11185412D01*
X15858277Y-11185412D02*
X15858277Y-11166365D01*
X15858277Y-11166365D02*
X15867801Y-11147317D01*
X15867801Y-11147317D02*
X15886848Y-11137793D01*
X15886848Y-11137793D02*
X15934467Y-11137793D01*
X15934467Y-11137793D02*
X15953515Y-11128270D01*
X16048753Y-11080650D02*
X16048753Y-11280650D01*
X16048753Y-11090174D02*
X16067801Y-11080650D01*
X16067801Y-11080650D02*
X16105896Y-11080650D01*
X16105896Y-11080650D02*
X16124943Y-11090174D01*
X16124943Y-11090174D02*
X16134467Y-11099698D01*
X16134467Y-11099698D02*
X16143991Y-11118746D01*
X16143991Y-11118746D02*
X16143991Y-11175889D01*
X16143991Y-11175889D02*
X16134467Y-11194936D01*
X16134467Y-11194936D02*
X16124943Y-11204460D01*
X16124943Y-11204460D02*
X16105896Y-11213984D01*
X16105896Y-11213984D02*
X16067801Y-11213984D01*
X16067801Y-11213984D02*
X16048753Y-11204460D01*
X16229705Y-11194936D02*
X16239229Y-11204460D01*
X16239229Y-11204460D02*
X16229705Y-11213984D01*
X16229705Y-11213984D02*
X16220182Y-11204460D01*
X16220182Y-11204460D02*
X16229705Y-11194936D01*
X16229705Y-11194936D02*
X16229705Y-11213984D01*
X16229705Y-11090174D02*
X16239229Y-11099698D01*
X16239229Y-11099698D02*
X16229705Y-11109222D01*
X16229705Y-11109222D02*
X16220182Y-11099698D01*
X16220182Y-11099698D02*
X16229705Y-11090174D01*
X16229705Y-11090174D02*
X16229705Y-11109222D01*
X14397500Y-11442500D02*
X14597500Y-11642500D01*
X14597500Y-11442500D02*
X14397500Y-11642500D01*
X14839229Y-11433984D02*
X14963039Y-11433984D01*
X14963039Y-11433984D02*
X14896372Y-11510174D01*
X14896372Y-11510174D02*
X14924943Y-11510174D01*
X14924943Y-11510174D02*
X14943991Y-11519698D01*
X14943991Y-11519698D02*
X14953515Y-11529222D01*
X14953515Y-11529222D02*
X14963039Y-11548269D01*
X14963039Y-11548269D02*
X14963039Y-11595888D01*
X14963039Y-11595888D02*
X14953515Y-11614936D01*
X14953515Y-11614936D02*
X14943991Y-11624460D01*
X14943991Y-11624460D02*
X14924943Y-11633984D01*
X14924943Y-11633984D02*
X14867801Y-11633984D01*
X14867801Y-11633984D02*
X14848753Y-11624460D01*
X14848753Y-11624460D02*
X14839229Y-11614936D01*
X15048753Y-11614936D02*
X15058277Y-11624460D01*
X15058277Y-11624460D02*
X15048753Y-11633984D01*
X15048753Y-11633984D02*
X15039229Y-11624460D01*
X15039229Y-11624460D02*
X15048753Y-11614936D01*
X15048753Y-11614936D02*
X15048753Y-11633984D01*
X15134467Y-11453031D02*
X15143991Y-11443508D01*
X15143991Y-11443508D02*
X15163039Y-11433984D01*
X15163039Y-11433984D02*
X15210658Y-11433984D01*
X15210658Y-11433984D02*
X15229705Y-11443508D01*
X15229705Y-11443508D02*
X15239229Y-11453031D01*
X15239229Y-11453031D02*
X15248753Y-11472079D01*
X15248753Y-11472079D02*
X15248753Y-11491127D01*
X15248753Y-11491127D02*
X15239229Y-11519698D01*
X15239229Y-11519698D02*
X15124943Y-11633984D01*
X15124943Y-11633984D02*
X15248753Y-11633984D01*
X15372562Y-11433984D02*
X15391610Y-11433984D01*
X15391610Y-11433984D02*
X15410658Y-11443508D01*
X15410658Y-11443508D02*
X15420182Y-11453031D01*
X15420182Y-11453031D02*
X15429705Y-11472079D01*
X15429705Y-11472079D02*
X15439229Y-11510174D01*
X15439229Y-11510174D02*
X15439229Y-11557793D01*
X15439229Y-11557793D02*
X15429705Y-11595888D01*
X15429705Y-11595888D02*
X15420182Y-11614936D01*
X15420182Y-11614936D02*
X15410658Y-11624460D01*
X15410658Y-11624460D02*
X15391610Y-11633984D01*
X15391610Y-11633984D02*
X15372562Y-11633984D01*
X15372562Y-11633984D02*
X15353515Y-11624460D01*
X15353515Y-11624460D02*
X15343991Y-11614936D01*
X15343991Y-11614936D02*
X15334467Y-11595888D01*
X15334467Y-11595888D02*
X15324943Y-11557793D01*
X15324943Y-11557793D02*
X15324943Y-11510174D01*
X15324943Y-11510174D02*
X15334467Y-11472079D01*
X15334467Y-11472079D02*
X15343991Y-11453031D01*
X15343991Y-11453031D02*
X15353515Y-11443508D01*
X15353515Y-11443508D02*
X15372562Y-11433984D01*
X15563039Y-11433984D02*
X15582086Y-11433984D01*
X15582086Y-11433984D02*
X15601134Y-11443508D01*
X15601134Y-11443508D02*
X15610658Y-11453031D01*
X15610658Y-11453031D02*
X15620182Y-11472079D01*
X15620182Y-11472079D02*
X15629705Y-11510174D01*
X15629705Y-11510174D02*
X15629705Y-11557793D01*
X15629705Y-11557793D02*
X15620182Y-11595888D01*
X15620182Y-11595888D02*
X15610658Y-11614936D01*
X15610658Y-11614936D02*
X15601134Y-11624460D01*
X15601134Y-11624460D02*
X15582086Y-11633984D01*
X15582086Y-11633984D02*
X15563039Y-11633984D01*
X15563039Y-11633984D02*
X15543991Y-11624460D01*
X15543991Y-11624460D02*
X15534467Y-11614936D01*
X15534467Y-11614936D02*
X15524943Y-11595888D01*
X15524943Y-11595888D02*
X15515420Y-11557793D01*
X15515420Y-11557793D02*
X15515420Y-11510174D01*
X15515420Y-11510174D02*
X15524943Y-11472079D01*
X15524943Y-11472079D02*
X15534467Y-11453031D01*
X15534467Y-11453031D02*
X15543991Y-11443508D01*
X15543991Y-11443508D02*
X15563039Y-11433984D01*
X15715420Y-11633984D02*
X15715420Y-11500650D01*
X15715420Y-11519698D02*
X15724943Y-11510174D01*
X15724943Y-11510174D02*
X15743991Y-11500650D01*
X15743991Y-11500650D02*
X15772563Y-11500650D01*
X15772563Y-11500650D02*
X15791610Y-11510174D01*
X15791610Y-11510174D02*
X15801134Y-11529222D01*
X15801134Y-11529222D02*
X15801134Y-11633984D01*
X15801134Y-11529222D02*
X15810658Y-11510174D01*
X15810658Y-11510174D02*
X15829705Y-11500650D01*
X15829705Y-11500650D02*
X15858277Y-11500650D01*
X15858277Y-11500650D02*
X15877324Y-11510174D01*
X15877324Y-11510174D02*
X15886848Y-11529222D01*
X15886848Y-11529222D02*
X15886848Y-11633984D01*
X15982086Y-11633984D02*
X15982086Y-11500650D01*
X15982086Y-11519698D02*
X15991610Y-11510174D01*
X15991610Y-11510174D02*
X16010658Y-11500650D01*
X16010658Y-11500650D02*
X16039229Y-11500650D01*
X16039229Y-11500650D02*
X16058277Y-11510174D01*
X16058277Y-11510174D02*
X16067801Y-11529222D01*
X16067801Y-11529222D02*
X16067801Y-11633984D01*
X16067801Y-11529222D02*
X16077324Y-11510174D01*
X16077324Y-11510174D02*
X16096372Y-11500650D01*
X16096372Y-11500650D02*
X16124943Y-11500650D01*
X16124943Y-11500650D02*
X16143991Y-11510174D01*
X16143991Y-11510174D02*
X16153515Y-11529222D01*
X16153515Y-11529222D02*
X16153515Y-11633984D01*
X16543991Y-11424460D02*
X16372563Y-11681603D01*
X16801134Y-11433984D02*
X16820182Y-11433984D01*
X16820182Y-11433984D02*
X16839229Y-11443508D01*
X16839229Y-11443508D02*
X16848753Y-11453031D01*
X16848753Y-11453031D02*
X16858277Y-11472079D01*
X16858277Y-11472079D02*
X16867801Y-11510174D01*
X16867801Y-11510174D02*
X16867801Y-11557793D01*
X16867801Y-11557793D02*
X16858277Y-11595888D01*
X16858277Y-11595888D02*
X16848753Y-11614936D01*
X16848753Y-11614936D02*
X16839229Y-11624460D01*
X16839229Y-11624460D02*
X16820182Y-11633984D01*
X16820182Y-11633984D02*
X16801134Y-11633984D01*
X16801134Y-11633984D02*
X16782087Y-11624460D01*
X16782087Y-11624460D02*
X16772563Y-11614936D01*
X16772563Y-11614936D02*
X16763039Y-11595888D01*
X16763039Y-11595888D02*
X16753515Y-11557793D01*
X16753515Y-11557793D02*
X16753515Y-11510174D01*
X16753515Y-11510174D02*
X16763039Y-11472079D01*
X16763039Y-11472079D02*
X16772563Y-11453031D01*
X16772563Y-11453031D02*
X16782087Y-11443508D01*
X16782087Y-11443508D02*
X16801134Y-11433984D01*
X16953515Y-11614936D02*
X16963039Y-11624460D01*
X16963039Y-11624460D02*
X16953515Y-11633984D01*
X16953515Y-11633984D02*
X16943991Y-11624460D01*
X16943991Y-11624460D02*
X16953515Y-11614936D01*
X16953515Y-11614936D02*
X16953515Y-11633984D01*
X17153515Y-11633984D02*
X17039229Y-11633984D01*
X17096372Y-11633984D02*
X17096372Y-11433984D01*
X17096372Y-11433984D02*
X17077325Y-11462555D01*
X17077325Y-11462555D02*
X17058277Y-11481603D01*
X17058277Y-11481603D02*
X17039229Y-11491127D01*
X17229706Y-11453031D02*
X17239229Y-11443508D01*
X17239229Y-11443508D02*
X17258277Y-11433984D01*
X17258277Y-11433984D02*
X17305896Y-11433984D01*
X17305896Y-11433984D02*
X17324944Y-11443508D01*
X17324944Y-11443508D02*
X17334468Y-11453031D01*
X17334468Y-11453031D02*
X17343991Y-11472079D01*
X17343991Y-11472079D02*
X17343991Y-11491127D01*
X17343991Y-11491127D02*
X17334468Y-11519698D01*
X17334468Y-11519698D02*
X17220182Y-11633984D01*
X17220182Y-11633984D02*
X17343991Y-11633984D01*
X17515420Y-11433984D02*
X17477325Y-11433984D01*
X17477325Y-11433984D02*
X17458277Y-11443508D01*
X17458277Y-11443508D02*
X17448753Y-11453031D01*
X17448753Y-11453031D02*
X17429706Y-11481603D01*
X17429706Y-11481603D02*
X17420182Y-11519698D01*
X17420182Y-11519698D02*
X17420182Y-11595888D01*
X17420182Y-11595888D02*
X17429706Y-11614936D01*
X17429706Y-11614936D02*
X17439229Y-11624460D01*
X17439229Y-11624460D02*
X17458277Y-11633984D01*
X17458277Y-11633984D02*
X17496372Y-11633984D01*
X17496372Y-11633984D02*
X17515420Y-11624460D01*
X17515420Y-11624460D02*
X17524944Y-11614936D01*
X17524944Y-11614936D02*
X17534468Y-11595888D01*
X17534468Y-11595888D02*
X17534468Y-11548269D01*
X17534468Y-11548269D02*
X17524944Y-11529222D01*
X17524944Y-11529222D02*
X17515420Y-11519698D01*
X17515420Y-11519698D02*
X17496372Y-11510174D01*
X17496372Y-11510174D02*
X17458277Y-11510174D01*
X17458277Y-11510174D02*
X17439229Y-11519698D01*
X17439229Y-11519698D02*
X17429706Y-11529222D01*
X17429706Y-11529222D02*
X17420182Y-11548269D01*
X17658277Y-11433984D02*
X17677325Y-11433984D01*
X17677325Y-11433984D02*
X17696372Y-11443508D01*
X17696372Y-11443508D02*
X17705896Y-11453031D01*
X17705896Y-11453031D02*
X17715420Y-11472079D01*
X17715420Y-11472079D02*
X17724944Y-11510174D01*
X17724944Y-11510174D02*
X17724944Y-11557793D01*
X17724944Y-11557793D02*
X17715420Y-11595888D01*
X17715420Y-11595888D02*
X17705896Y-11614936D01*
X17705896Y-11614936D02*
X17696372Y-11624460D01*
X17696372Y-11624460D02*
X17677325Y-11633984D01*
X17677325Y-11633984D02*
X17658277Y-11633984D01*
X17658277Y-11633984D02*
X17639229Y-11624460D01*
X17639229Y-11624460D02*
X17629706Y-11614936D01*
X17629706Y-11614936D02*
X17620182Y-11595888D01*
X17620182Y-11595888D02*
X17610658Y-11557793D01*
X17610658Y-11557793D02*
X17610658Y-11510174D01*
X17610658Y-11510174D02*
X17620182Y-11472079D01*
X17620182Y-11472079D02*
X17629706Y-11453031D01*
X17629706Y-11453031D02*
X17639229Y-11443508D01*
X17639229Y-11443508D02*
X17658277Y-11433984D01*
X17801134Y-11433984D02*
X17801134Y-11472079D01*
X17877325Y-11433984D02*
X17877325Y-11472079D01*
X18172563Y-11710174D02*
X18163039Y-11700650D01*
X18163039Y-11700650D02*
X18143991Y-11672079D01*
X18143991Y-11672079D02*
X18134468Y-11653031D01*
X18134468Y-11653031D02*
X18124944Y-11624460D01*
X18124944Y-11624460D02*
X18115420Y-11576841D01*
X18115420Y-11576841D02*
X18115420Y-11538746D01*
X18115420Y-11538746D02*
X18124944Y-11491127D01*
X18124944Y-11491127D02*
X18134468Y-11462555D01*
X18134468Y-11462555D02*
X18143991Y-11443508D01*
X18143991Y-11443508D02*
X18163039Y-11414936D01*
X18163039Y-11414936D02*
X18172563Y-11405412D01*
X18334468Y-11500650D02*
X18334468Y-11633984D01*
X18286849Y-11424460D02*
X18239230Y-11567317D01*
X18239230Y-11567317D02*
X18363039Y-11567317D01*
X18591611Y-11633984D02*
X18591611Y-11433984D01*
X18677325Y-11633984D02*
X18677325Y-11529222D01*
X18677325Y-11529222D02*
X18667801Y-11510174D01*
X18667801Y-11510174D02*
X18648753Y-11500650D01*
X18648753Y-11500650D02*
X18620182Y-11500650D01*
X18620182Y-11500650D02*
X18601134Y-11510174D01*
X18601134Y-11510174D02*
X18591611Y-11519698D01*
X18801134Y-11633984D02*
X18782087Y-11624460D01*
X18782087Y-11624460D02*
X18772563Y-11614936D01*
X18772563Y-11614936D02*
X18763039Y-11595888D01*
X18763039Y-11595888D02*
X18763039Y-11538746D01*
X18763039Y-11538746D02*
X18772563Y-11519698D01*
X18772563Y-11519698D02*
X18782087Y-11510174D01*
X18782087Y-11510174D02*
X18801134Y-11500650D01*
X18801134Y-11500650D02*
X18829706Y-11500650D01*
X18829706Y-11500650D02*
X18848753Y-11510174D01*
X18848753Y-11510174D02*
X18858277Y-11519698D01*
X18858277Y-11519698D02*
X18867801Y-11538746D01*
X18867801Y-11538746D02*
X18867801Y-11595888D01*
X18867801Y-11595888D02*
X18858277Y-11614936D01*
X18858277Y-11614936D02*
X18848753Y-11624460D01*
X18848753Y-11624460D02*
X18829706Y-11633984D01*
X18829706Y-11633984D02*
X18801134Y-11633984D01*
X18982087Y-11633984D02*
X18963039Y-11624460D01*
X18963039Y-11624460D02*
X18953515Y-11605412D01*
X18953515Y-11605412D02*
X18953515Y-11433984D01*
X19134468Y-11624460D02*
X19115420Y-11633984D01*
X19115420Y-11633984D02*
X19077325Y-11633984D01*
X19077325Y-11633984D02*
X19058277Y-11624460D01*
X19058277Y-11624460D02*
X19048753Y-11605412D01*
X19048753Y-11605412D02*
X19048753Y-11529222D01*
X19048753Y-11529222D02*
X19058277Y-11510174D01*
X19058277Y-11510174D02*
X19077325Y-11500650D01*
X19077325Y-11500650D02*
X19115420Y-11500650D01*
X19115420Y-11500650D02*
X19134468Y-11510174D01*
X19134468Y-11510174D02*
X19143992Y-11529222D01*
X19143992Y-11529222D02*
X19143992Y-11548269D01*
X19143992Y-11548269D02*
X19048753Y-11567317D01*
X19220182Y-11624460D02*
X19239230Y-11633984D01*
X19239230Y-11633984D02*
X19277325Y-11633984D01*
X19277325Y-11633984D02*
X19296373Y-11624460D01*
X19296373Y-11624460D02*
X19305896Y-11605412D01*
X19305896Y-11605412D02*
X19305896Y-11595888D01*
X19305896Y-11595888D02*
X19296373Y-11576841D01*
X19296373Y-11576841D02*
X19277325Y-11567317D01*
X19277325Y-11567317D02*
X19248753Y-11567317D01*
X19248753Y-11567317D02*
X19229706Y-11557793D01*
X19229706Y-11557793D02*
X19220182Y-11538746D01*
X19220182Y-11538746D02*
X19220182Y-11529222D01*
X19220182Y-11529222D02*
X19229706Y-11510174D01*
X19229706Y-11510174D02*
X19248753Y-11500650D01*
X19248753Y-11500650D02*
X19277325Y-11500650D01*
X19277325Y-11500650D02*
X19296373Y-11510174D01*
X19372563Y-11710174D02*
X19382087Y-11700650D01*
X19382087Y-11700650D02*
X19401134Y-11672079D01*
X19401134Y-11672079D02*
X19410658Y-11653031D01*
X19410658Y-11653031D02*
X19420182Y-11624460D01*
X19420182Y-11624460D02*
X19429706Y-11576841D01*
X19429706Y-11576841D02*
X19429706Y-11538746D01*
X19429706Y-11538746D02*
X19420182Y-11491127D01*
X19420182Y-11491127D02*
X19410658Y-11462555D01*
X19410658Y-11462555D02*
X19401134Y-11443508D01*
X19401134Y-11443508D02*
X19382087Y-11414936D01*
X19382087Y-11414936D02*
X19372563Y-11405412D01*
X19734468Y-11710174D02*
X19724944Y-11700650D01*
X19724944Y-11700650D02*
X19705896Y-11672079D01*
X19705896Y-11672079D02*
X19696373Y-11653031D01*
X19696373Y-11653031D02*
X19686849Y-11624460D01*
X19686849Y-11624460D02*
X19677325Y-11576841D01*
X19677325Y-11576841D02*
X19677325Y-11538746D01*
X19677325Y-11538746D02*
X19686849Y-11491127D01*
X19686849Y-11491127D02*
X19696373Y-11462555D01*
X19696373Y-11462555D02*
X19705896Y-11443508D01*
X19705896Y-11443508D02*
X19724944Y-11414936D01*
X19724944Y-11414936D02*
X19734468Y-11405412D01*
X19810658Y-11500650D02*
X19810658Y-11633984D01*
X19810658Y-11519698D02*
X19820182Y-11510174D01*
X19820182Y-11510174D02*
X19839230Y-11500650D01*
X19839230Y-11500650D02*
X19867801Y-11500650D01*
X19867801Y-11500650D02*
X19886849Y-11510174D01*
X19886849Y-11510174D02*
X19896373Y-11529222D01*
X19896373Y-11529222D02*
X19896373Y-11633984D01*
X20020182Y-11633984D02*
X20001134Y-11624460D01*
X20001134Y-11624460D02*
X19991611Y-11614936D01*
X19991611Y-11614936D02*
X19982087Y-11595888D01*
X19982087Y-11595888D02*
X19982087Y-11538746D01*
X19982087Y-11538746D02*
X19991611Y-11519698D01*
X19991611Y-11519698D02*
X20001134Y-11510174D01*
X20001134Y-11510174D02*
X20020182Y-11500650D01*
X20020182Y-11500650D02*
X20048754Y-11500650D01*
X20048754Y-11500650D02*
X20067801Y-11510174D01*
X20067801Y-11510174D02*
X20077325Y-11519698D01*
X20077325Y-11519698D02*
X20086849Y-11538746D01*
X20086849Y-11538746D02*
X20086849Y-11595888D01*
X20086849Y-11595888D02*
X20077325Y-11614936D01*
X20077325Y-11614936D02*
X20067801Y-11624460D01*
X20067801Y-11624460D02*
X20048754Y-11633984D01*
X20048754Y-11633984D02*
X20020182Y-11633984D01*
X20143992Y-11500650D02*
X20220182Y-11500650D01*
X20172563Y-11433984D02*
X20172563Y-11605412D01*
X20172563Y-11605412D02*
X20182087Y-11624460D01*
X20182087Y-11624460D02*
X20201134Y-11633984D01*
X20201134Y-11633984D02*
X20220182Y-11633984D01*
X20439230Y-11500650D02*
X20439230Y-11700650D01*
X20439230Y-11510174D02*
X20458277Y-11500650D01*
X20458277Y-11500650D02*
X20496373Y-11500650D01*
X20496373Y-11500650D02*
X20515420Y-11510174D01*
X20515420Y-11510174D02*
X20524944Y-11519698D01*
X20524944Y-11519698D02*
X20534468Y-11538746D01*
X20534468Y-11538746D02*
X20534468Y-11595888D01*
X20534468Y-11595888D02*
X20524944Y-11614936D01*
X20524944Y-11614936D02*
X20515420Y-11624460D01*
X20515420Y-11624460D02*
X20496373Y-11633984D01*
X20496373Y-11633984D02*
X20458277Y-11633984D01*
X20458277Y-11633984D02*
X20439230Y-11624460D01*
X20648754Y-11633984D02*
X20629706Y-11624460D01*
X20629706Y-11624460D02*
X20620182Y-11605412D01*
X20620182Y-11605412D02*
X20620182Y-11433984D01*
X20810658Y-11633984D02*
X20810658Y-11529222D01*
X20810658Y-11529222D02*
X20801135Y-11510174D01*
X20801135Y-11510174D02*
X20782087Y-11500650D01*
X20782087Y-11500650D02*
X20743992Y-11500650D01*
X20743992Y-11500650D02*
X20724944Y-11510174D01*
X20810658Y-11624460D02*
X20791611Y-11633984D01*
X20791611Y-11633984D02*
X20743992Y-11633984D01*
X20743992Y-11633984D02*
X20724944Y-11624460D01*
X20724944Y-11624460D02*
X20715420Y-11605412D01*
X20715420Y-11605412D02*
X20715420Y-11586365D01*
X20715420Y-11586365D02*
X20724944Y-11567317D01*
X20724944Y-11567317D02*
X20743992Y-11557793D01*
X20743992Y-11557793D02*
X20791611Y-11557793D01*
X20791611Y-11557793D02*
X20810658Y-11548269D01*
X20877325Y-11500650D02*
X20953515Y-11500650D01*
X20905896Y-11433984D02*
X20905896Y-11605412D01*
X20905896Y-11605412D02*
X20915420Y-11624460D01*
X20915420Y-11624460D02*
X20934468Y-11633984D01*
X20934468Y-11633984D02*
X20953515Y-11633984D01*
X21096373Y-11624460D02*
X21077325Y-11633984D01*
X21077325Y-11633984D02*
X21039230Y-11633984D01*
X21039230Y-11633984D02*
X21020182Y-11624460D01*
X21020182Y-11624460D02*
X21010658Y-11605412D01*
X21010658Y-11605412D02*
X21010658Y-11529222D01*
X21010658Y-11529222D02*
X21020182Y-11510174D01*
X21020182Y-11510174D02*
X21039230Y-11500650D01*
X21039230Y-11500650D02*
X21077325Y-11500650D01*
X21077325Y-11500650D02*
X21096373Y-11510174D01*
X21096373Y-11510174D02*
X21105896Y-11529222D01*
X21105896Y-11529222D02*
X21105896Y-11548269D01*
X21105896Y-11548269D02*
X21010658Y-11567317D01*
X21277325Y-11633984D02*
X21277325Y-11433984D01*
X21277325Y-11624460D02*
X21258277Y-11633984D01*
X21258277Y-11633984D02*
X21220182Y-11633984D01*
X21220182Y-11633984D02*
X21201135Y-11624460D01*
X21201135Y-11624460D02*
X21191611Y-11614936D01*
X21191611Y-11614936D02*
X21182087Y-11595888D01*
X21182087Y-11595888D02*
X21182087Y-11538746D01*
X21182087Y-11538746D02*
X21191611Y-11519698D01*
X21191611Y-11519698D02*
X21201135Y-11510174D01*
X21201135Y-11510174D02*
X21220182Y-11500650D01*
X21220182Y-11500650D02*
X21258277Y-11500650D01*
X21258277Y-11500650D02*
X21277325Y-11510174D01*
X21353516Y-11710174D02*
X21363039Y-11700650D01*
X21363039Y-11700650D02*
X21382087Y-11672079D01*
X21382087Y-11672079D02*
X21391611Y-11653031D01*
X21391611Y-11653031D02*
X21401135Y-11624460D01*
X21401135Y-11624460D02*
X21410658Y-11576841D01*
X21410658Y-11576841D02*
X21410658Y-11538746D01*
X21410658Y-11538746D02*
X21401135Y-11491127D01*
X21401135Y-11491127D02*
X21391611Y-11462555D01*
X21391611Y-11462555D02*
X21382087Y-11443508D01*
X21382087Y-11443508D02*
X21363039Y-11414936D01*
X21363039Y-11414936D02*
X21353516Y-11405412D01*
M02*
