G04 #@! TF.GenerationSoftware,KiCad,Pcbnew,8.0.5-8.0.5-0~ubuntu24.04.1*
G04 #@! TF.CreationDate,2024-12-07T12:22:56+13:00*
G04 #@! TF.ProjectId,pcb,7063622e-6b69-4636-9164-5f7063625858,rev?*
G04 #@! TF.SameCoordinates,Original*
G04 #@! TF.FileFunction,Copper,L1,Top*
G04 #@! TF.FilePolarity,Positive*
%FSLAX46Y46*%
G04 Gerber Fmt 4.6, Leading zero omitted, Abs format (unit mm)*
G04 Created by KiCad (PCBNEW 8.0.5-8.0.5-0~ubuntu24.04.1) date 2024-12-07 12:22:56*
%MOMM*%
%LPD*%
G01*
G04 APERTURE LIST*
G04 #@! TA.AperFunction,ComponentPad*
%ADD10R,1.600000X1.600000*%
G04 #@! TD*
G04 #@! TA.AperFunction,ComponentPad*
%ADD11O,1.600000X1.600000*%
G04 #@! TD*
G04 #@! TA.AperFunction,ComponentPad*
%ADD12R,2.000000X1.905000*%
G04 #@! TD*
G04 #@! TA.AperFunction,ComponentPad*
%ADD13O,2.000000X1.905000*%
G04 #@! TD*
G04 #@! TA.AperFunction,ComponentPad*
%ADD14C,1.600000*%
G04 #@! TD*
G04 #@! TA.AperFunction,ComponentPad*
%ADD15C,4.000000*%
G04 #@! TD*
G04 #@! TA.AperFunction,ComponentPad*
%ADD16R,1.700000X1.700000*%
G04 #@! TD*
G04 #@! TA.AperFunction,ComponentPad*
%ADD17O,1.700000X1.700000*%
G04 #@! TD*
G04 #@! TA.AperFunction,ComponentPad*
%ADD18R,1.800000X1.800000*%
G04 #@! TD*
G04 #@! TA.AperFunction,ComponentPad*
%ADD19C,1.800000*%
G04 #@! TD*
G04 #@! TA.AperFunction,ComponentPad*
%ADD20R,4.600000X2.000000*%
G04 #@! TD*
G04 #@! TA.AperFunction,ComponentPad*
%ADD21O,4.200000X2.000000*%
G04 #@! TD*
G04 #@! TA.AperFunction,ComponentPad*
%ADD22O,2.000000X4.200000*%
G04 #@! TD*
G04 #@! TA.AperFunction,ComponentPad*
%ADD23R,1.200000X1.200000*%
G04 #@! TD*
G04 #@! TA.AperFunction,ComponentPad*
%ADD24C,1.200000*%
G04 #@! TD*
G04 #@! TA.AperFunction,ComponentPad*
%ADD25R,2.000000X2.000000*%
G04 #@! TD*
G04 #@! TA.AperFunction,ComponentPad*
%ADD26C,2.000000*%
G04 #@! TD*
G04 #@! TA.AperFunction,ComponentPad*
%ADD27C,1.400000*%
G04 #@! TD*
G04 #@! TA.AperFunction,ComponentPad*
%ADD28O,1.400000X1.400000*%
G04 #@! TD*
G04 #@! TA.AperFunction,ComponentPad*
%ADD29C,2.340000*%
G04 #@! TD*
G04 #@! TA.AperFunction,ViaPad*
%ADD30C,0.600000*%
G04 #@! TD*
G04 #@! TA.AperFunction,Conductor*
%ADD31C,0.200000*%
G04 #@! TD*
G04 APERTURE END LIST*
D10*
X155880000Y-86720000D03*
D11*
X155880000Y-89260000D03*
X155880000Y-91800000D03*
X155880000Y-94340000D03*
X155880000Y-96880000D03*
X155880000Y-99420000D03*
X155880000Y-101960000D03*
X155880000Y-104500000D03*
X163500000Y-104500000D03*
X163500000Y-101960000D03*
X163500000Y-99420000D03*
X163500000Y-96880000D03*
X163500000Y-94340000D03*
X163500000Y-91800000D03*
X163500000Y-89260000D03*
X163500000Y-86720000D03*
D10*
X169760000Y-69060000D03*
D11*
X169760000Y-71600000D03*
X169760000Y-74140000D03*
X169760000Y-76680000D03*
X169760000Y-79220000D03*
X169760000Y-81760000D03*
X169760000Y-84300000D03*
X169760000Y-86840000D03*
X169760000Y-89380000D03*
X169760000Y-91920000D03*
X169760000Y-94460000D03*
X169760000Y-97000000D03*
X169760000Y-99540000D03*
X169760000Y-102080000D03*
X169760000Y-104620000D03*
X185000000Y-104620000D03*
X185000000Y-102080000D03*
X185000000Y-99540000D03*
X185000000Y-97000000D03*
X185000000Y-94460000D03*
X185000000Y-91920000D03*
X185000000Y-89380000D03*
X185000000Y-86840000D03*
X185000000Y-84300000D03*
X185000000Y-81760000D03*
X185000000Y-79220000D03*
X185000000Y-76680000D03*
X185000000Y-74140000D03*
X185000000Y-71600000D03*
X185000000Y-69060000D03*
D12*
X149500000Y-73500000D03*
D13*
X149500000Y-76040000D03*
X149500000Y-78580000D03*
D10*
X149500000Y-66580000D03*
D14*
X149500000Y-68580000D03*
D15*
X192080000Y-97540000D03*
X192080000Y-72540000D03*
D10*
X190660000Y-79500000D03*
D14*
X190660000Y-82270000D03*
X190660000Y-85040000D03*
X190660000Y-87810000D03*
X190660000Y-90580000D03*
X193500000Y-80885000D03*
X193500000Y-83655000D03*
X193500000Y-86425000D03*
X193500000Y-89195000D03*
D16*
X192500000Y-55500000D03*
D17*
X189960000Y-55500000D03*
X187420000Y-55500000D03*
D18*
X161000000Y-80500000D03*
D19*
X158460000Y-80500000D03*
D20*
X159500000Y-65000000D03*
D21*
X159500000Y-58700000D03*
D22*
X154700000Y-62100000D03*
D23*
X150000000Y-83777401D03*
D24*
X150000000Y-85277401D03*
D25*
X183500000Y-55500000D03*
D26*
X180960000Y-55500000D03*
X178420000Y-55500000D03*
X175880000Y-55500000D03*
X173340000Y-55500000D03*
X170800000Y-55500000D03*
D27*
X155880000Y-75000000D03*
D28*
X163500000Y-75000000D03*
D29*
X188500000Y-66000000D03*
X198500000Y-63500000D03*
X188500000Y-61000000D03*
D30*
X177250000Y-62500000D03*
X175750000Y-72250000D03*
X175750000Y-78750000D03*
X195750000Y-85250000D03*
X172000000Y-75500000D03*
X175750000Y-86250000D03*
X174000000Y-95250000D03*
X188000000Y-80250000D03*
X195750000Y-88000000D03*
X187250000Y-99250000D03*
X154000000Y-90500000D03*
X154000000Y-95500000D03*
X154000000Y-100500000D03*
X195750000Y-82500000D03*
X172000000Y-70500000D03*
X172000000Y-93000000D03*
X148000000Y-63500000D03*
X187500000Y-88250000D03*
D31*
X163500000Y-86720000D02*
X160530000Y-83750000D01*
X160530000Y-83750000D02*
X149972599Y-83750000D01*
X149972599Y-83750000D02*
X149500000Y-83277401D01*
X149500000Y-78580000D02*
X152300000Y-78580000D01*
X152300000Y-78580000D02*
X155880000Y-75000000D01*
X149500000Y-83277401D02*
X149500000Y-78580000D01*
X159520000Y-90700000D02*
X165900000Y-90700000D01*
X165900000Y-90700000D02*
X169760000Y-86840000D01*
X155880000Y-94340000D02*
X159520000Y-90700000D01*
X159520000Y-88160000D02*
X165900000Y-88160000D01*
X155880000Y-91800000D02*
X159520000Y-88160000D01*
X165900000Y-88160000D02*
X169760000Y-84300000D01*
X159520000Y-95780000D02*
X165900000Y-95780000D01*
X155880000Y-99420000D02*
X159520000Y-95780000D01*
X165900000Y-95780000D02*
X169760000Y-91920000D01*
X173340000Y-59160000D02*
X175880000Y-56620000D01*
X173340000Y-93660000D02*
X173340000Y-59160000D01*
X175880000Y-56620000D02*
X175880000Y-55500000D01*
X169760000Y-94460000D02*
X172540000Y-94460000D01*
X172540000Y-94460000D02*
X173340000Y-93660000D01*
X155880000Y-96880000D02*
X159860000Y-92900000D01*
X166240000Y-92900000D02*
X169760000Y-89380000D01*
X159860000Y-92900000D02*
X166240000Y-92900000D01*
X180960000Y-92040000D02*
X180960000Y-55500000D01*
X176000000Y-97000000D02*
X180960000Y-92040000D01*
X169760000Y-97000000D02*
X176000000Y-97000000D01*
X152500000Y-89000000D02*
X154780000Y-86720000D01*
X152500000Y-101500000D02*
X152500000Y-89000000D01*
X154780000Y-86720000D02*
X155880000Y-86720000D01*
X168540000Y-103400000D02*
X154400000Y-103400000D01*
X169760000Y-104620000D02*
X168540000Y-103400000D01*
X154400000Y-103400000D02*
X152500000Y-101500000D01*
X158460000Y-80040000D02*
X158460000Y-80500000D01*
X163500000Y-75000000D02*
X158460000Y-80040000D01*
X197500000Y-63500000D02*
X198500000Y-63500000D01*
X189960000Y-55500000D02*
X189960000Y-55960000D01*
X189960000Y-55960000D02*
X197500000Y-63500000D01*
X182500000Y-96000000D02*
X182500000Y-66500000D01*
X166000000Y-107000000D02*
X171500000Y-107000000D01*
X187420000Y-55920000D02*
X190970000Y-59470000D01*
X171500000Y-107000000D02*
X182500000Y-96000000D01*
X183000000Y-66000000D02*
X188500000Y-66000000D01*
X163500000Y-104500000D02*
X166000000Y-107000000D01*
X190970000Y-59470000D02*
X190970000Y-63530000D01*
X190970000Y-63530000D02*
X188500000Y-66000000D01*
X187420000Y-55500000D02*
X187420000Y-55920000D01*
X182500000Y-66500000D02*
X183000000Y-66000000D01*
G04 #@! TA.AperFunction,Conductor*
G36*
X162192902Y-96400185D02*
G01*
X162238657Y-96452989D01*
X162248601Y-96522147D01*
X162245638Y-96536593D01*
X162214366Y-96653302D01*
X162214364Y-96653313D01*
X162194532Y-96879998D01*
X162194532Y-96880001D01*
X162214364Y-97106686D01*
X162214366Y-97106697D01*
X162273258Y-97326488D01*
X162273261Y-97326497D01*
X162369431Y-97532732D01*
X162369432Y-97532734D01*
X162499954Y-97719141D01*
X162660858Y-97880045D01*
X162660861Y-97880047D01*
X162847266Y-98010568D01*
X162905275Y-98037618D01*
X162957714Y-98083791D01*
X162976866Y-98150984D01*
X162956650Y-98217865D01*
X162905275Y-98262382D01*
X162847267Y-98289431D01*
X162847265Y-98289432D01*
X162660858Y-98419954D01*
X162499954Y-98580858D01*
X162369432Y-98767265D01*
X162369431Y-98767267D01*
X162273261Y-98973502D01*
X162273258Y-98973511D01*
X162214366Y-99193302D01*
X162214364Y-99193313D01*
X162194532Y-99419998D01*
X162194532Y-99420001D01*
X162214364Y-99646686D01*
X162214366Y-99646697D01*
X162273258Y-99866488D01*
X162273261Y-99866497D01*
X162369431Y-100072732D01*
X162369432Y-100072734D01*
X162499954Y-100259141D01*
X162660858Y-100420045D01*
X162660861Y-100420047D01*
X162847266Y-100550568D01*
X162905865Y-100577893D01*
X162958305Y-100624065D01*
X162977457Y-100691258D01*
X162957242Y-100758139D01*
X162905867Y-100802657D01*
X162847515Y-100829867D01*
X162661179Y-100960342D01*
X162500342Y-101121179D01*
X162369865Y-101307517D01*
X162273734Y-101513673D01*
X162273730Y-101513682D01*
X162221127Y-101709999D01*
X162221128Y-101710000D01*
X163184314Y-101710000D01*
X163179920Y-101714394D01*
X163127259Y-101805606D01*
X163100000Y-101907339D01*
X163100000Y-102012661D01*
X163127259Y-102114394D01*
X163179920Y-102205606D01*
X163184314Y-102210000D01*
X162221128Y-102210000D01*
X162273730Y-102406317D01*
X162273734Y-102406326D01*
X162369867Y-102612485D01*
X162370456Y-102613505D01*
X162370578Y-102614010D01*
X162372154Y-102617389D01*
X162371474Y-102617705D01*
X162386925Y-102681406D01*
X162364070Y-102747432D01*
X162309147Y-102790620D01*
X162263066Y-102799500D01*
X157117512Y-102799500D01*
X157050473Y-102779815D01*
X157004718Y-102727011D01*
X156994774Y-102657853D01*
X157008636Y-102617806D01*
X157008280Y-102617640D01*
X157009887Y-102614193D01*
X157010130Y-102613492D01*
X157010559Y-102612746D01*
X157010568Y-102612734D01*
X157106739Y-102406496D01*
X157165635Y-102186692D01*
X157185468Y-101960000D01*
X157165635Y-101733308D01*
X157106739Y-101513504D01*
X157010568Y-101307266D01*
X156880047Y-101120861D01*
X156880045Y-101120858D01*
X156719141Y-100959954D01*
X156532734Y-100829432D01*
X156532728Y-100829429D01*
X156474725Y-100802382D01*
X156422285Y-100756210D01*
X156403133Y-100689017D01*
X156423348Y-100622135D01*
X156474725Y-100577618D01*
X156532734Y-100550568D01*
X156719139Y-100420047D01*
X156880047Y-100259139D01*
X157010568Y-100072734D01*
X157106739Y-99866496D01*
X157165635Y-99646692D01*
X157185468Y-99420000D01*
X157165635Y-99193308D01*
X157139847Y-99097066D01*
X157141510Y-99027217D01*
X157171939Y-98977294D01*
X159732416Y-96416819D01*
X159793739Y-96383334D01*
X159820097Y-96380500D01*
X162125863Y-96380500D01*
X162192902Y-96400185D01*
G37*
G04 #@! TD.AperFunction*
G04 #@! TA.AperFunction,Conductor*
G36*
X168381586Y-94250161D02*
G01*
X168437519Y-94292033D01*
X168461936Y-94357497D01*
X168461780Y-94377150D01*
X168454532Y-94459997D01*
X168454532Y-94460001D01*
X168474364Y-94686686D01*
X168474366Y-94686697D01*
X168533258Y-94906488D01*
X168533261Y-94906497D01*
X168629431Y-95112732D01*
X168629432Y-95112734D01*
X168759954Y-95299141D01*
X168920858Y-95460045D01*
X168920861Y-95460047D01*
X169107266Y-95590568D01*
X169165275Y-95617618D01*
X169217714Y-95663791D01*
X169236866Y-95730984D01*
X169216650Y-95797865D01*
X169165275Y-95842382D01*
X169107267Y-95869431D01*
X169107265Y-95869432D01*
X168920858Y-95999954D01*
X168759954Y-96160858D01*
X168629432Y-96347265D01*
X168629431Y-96347267D01*
X168533261Y-96553502D01*
X168533258Y-96553511D01*
X168474366Y-96773302D01*
X168474364Y-96773313D01*
X168454532Y-96999998D01*
X168454532Y-97000001D01*
X168474364Y-97226686D01*
X168474366Y-97226697D01*
X168533258Y-97446488D01*
X168533261Y-97446497D01*
X168629431Y-97652732D01*
X168629432Y-97652734D01*
X168759954Y-97839141D01*
X168920858Y-98000045D01*
X168967693Y-98032839D01*
X169107266Y-98130568D01*
X169157917Y-98154187D01*
X169165275Y-98157618D01*
X169217714Y-98203791D01*
X169236866Y-98270984D01*
X169216650Y-98337865D01*
X169165275Y-98382382D01*
X169107267Y-98409431D01*
X169107265Y-98409432D01*
X168920858Y-98539954D01*
X168759954Y-98700858D01*
X168629432Y-98887265D01*
X168629431Y-98887267D01*
X168533261Y-99093502D01*
X168533258Y-99093511D01*
X168474366Y-99313302D01*
X168474364Y-99313313D01*
X168454532Y-99539998D01*
X168454532Y-99540001D01*
X168474364Y-99766686D01*
X168474366Y-99766697D01*
X168533258Y-99986488D01*
X168533261Y-99986497D01*
X168629431Y-100192732D01*
X168629432Y-100192734D01*
X168759954Y-100379141D01*
X168920858Y-100540045D01*
X168967693Y-100572839D01*
X169107266Y-100670568D01*
X169151636Y-100691258D01*
X169165275Y-100697618D01*
X169217714Y-100743791D01*
X169236866Y-100810984D01*
X169216650Y-100877865D01*
X169165275Y-100922382D01*
X169107267Y-100949431D01*
X169107265Y-100949432D01*
X168920858Y-101079954D01*
X168759954Y-101240858D01*
X168629432Y-101427265D01*
X168629431Y-101427267D01*
X168533261Y-101633502D01*
X168533258Y-101633511D01*
X168474366Y-101853302D01*
X168474364Y-101853313D01*
X168454532Y-102079998D01*
X168454532Y-102080001D01*
X168474364Y-102306686D01*
X168474366Y-102306697D01*
X168533258Y-102526488D01*
X168533261Y-102526496D01*
X168575762Y-102617640D01*
X168578306Y-102623094D01*
X168588798Y-102692171D01*
X168560278Y-102755955D01*
X168501802Y-102794195D01*
X168465924Y-102799499D01*
X168453347Y-102799499D01*
X168453331Y-102799500D01*
X164736934Y-102799500D01*
X164669895Y-102779815D01*
X164624140Y-102727011D01*
X164614196Y-102657853D01*
X164628150Y-102617531D01*
X164627846Y-102617389D01*
X164629218Y-102614446D01*
X164629544Y-102613505D01*
X164630132Y-102612485D01*
X164726265Y-102406326D01*
X164726269Y-102406317D01*
X164778872Y-102210000D01*
X163815686Y-102210000D01*
X163820080Y-102205606D01*
X163872741Y-102114394D01*
X163900000Y-102012661D01*
X163900000Y-101907339D01*
X163872741Y-101805606D01*
X163820080Y-101714394D01*
X163815686Y-101710000D01*
X164778872Y-101710000D01*
X164778872Y-101709999D01*
X164726269Y-101513682D01*
X164726265Y-101513673D01*
X164630134Y-101307517D01*
X164499657Y-101121179D01*
X164338820Y-100960342D01*
X164152482Y-100829865D01*
X164094133Y-100802657D01*
X164041694Y-100756484D01*
X164022542Y-100689291D01*
X164042758Y-100622410D01*
X164094129Y-100577895D01*
X164152734Y-100550568D01*
X164339139Y-100420047D01*
X164500047Y-100259139D01*
X164630568Y-100072734D01*
X164726739Y-99866496D01*
X164785635Y-99646692D01*
X164805468Y-99420000D01*
X164785635Y-99193308D01*
X164726739Y-98973504D01*
X164630568Y-98767266D01*
X164500047Y-98580861D01*
X164500045Y-98580858D01*
X164339141Y-98419954D01*
X164152734Y-98289432D01*
X164152728Y-98289429D01*
X164094725Y-98262382D01*
X164042285Y-98216210D01*
X164023133Y-98149017D01*
X164043348Y-98082135D01*
X164094725Y-98037618D01*
X164152734Y-98010568D01*
X164339139Y-97880047D01*
X164500047Y-97719139D01*
X164630568Y-97532734D01*
X164726739Y-97326496D01*
X164785635Y-97106692D01*
X164805468Y-96880000D01*
X164785635Y-96653308D01*
X164772308Y-96603573D01*
X164754362Y-96536593D01*
X164756025Y-96466743D01*
X164795188Y-96408881D01*
X164859417Y-96381377D01*
X164874137Y-96380500D01*
X165813331Y-96380500D01*
X165813347Y-96380501D01*
X165820943Y-96380501D01*
X165979054Y-96380501D01*
X165979057Y-96380501D01*
X166131785Y-96339577D01*
X166190002Y-96305965D01*
X166268716Y-96260520D01*
X166380520Y-96148716D01*
X166380520Y-96148714D01*
X166390724Y-96138511D01*
X166390728Y-96138506D01*
X168250573Y-94278660D01*
X168311894Y-94245177D01*
X168381586Y-94250161D01*
G37*
G04 #@! TD.AperFunction*
G04 #@! TA.AperFunction,Conductor*
G36*
X154644923Y-87806824D02*
G01*
X154700855Y-87848694D01*
X154722455Y-87877547D01*
X154837664Y-87963793D01*
X154837671Y-87963797D01*
X154972513Y-88014090D01*
X154972514Y-88014090D01*
X154972517Y-88014091D01*
X155008353Y-88017944D01*
X155072901Y-88044679D01*
X155112751Y-88102070D01*
X155115246Y-88171896D01*
X155079595Y-88231985D01*
X155066223Y-88242805D01*
X155041182Y-88260339D01*
X154880342Y-88421179D01*
X154749865Y-88607517D01*
X154653734Y-88813673D01*
X154653730Y-88813682D01*
X154601127Y-89009999D01*
X154601128Y-89010000D01*
X155564314Y-89010000D01*
X155559920Y-89014394D01*
X155507259Y-89105606D01*
X155480000Y-89207339D01*
X155480000Y-89312661D01*
X155507259Y-89414394D01*
X155559920Y-89505606D01*
X155564314Y-89510000D01*
X154601128Y-89510000D01*
X154653730Y-89706317D01*
X154653734Y-89706326D01*
X154749865Y-89912482D01*
X154880342Y-90098820D01*
X155041179Y-90259657D01*
X155227518Y-90390134D01*
X155227520Y-90390135D01*
X155285865Y-90417342D01*
X155338305Y-90463514D01*
X155357457Y-90530707D01*
X155337242Y-90597589D01*
X155285867Y-90642105D01*
X155271046Y-90649017D01*
X155227264Y-90669433D01*
X155040858Y-90799954D01*
X154879954Y-90960858D01*
X154749432Y-91147265D01*
X154749431Y-91147267D01*
X154653261Y-91353502D01*
X154653258Y-91353511D01*
X154594366Y-91573302D01*
X154594364Y-91573313D01*
X154574532Y-91799998D01*
X154574532Y-91800001D01*
X154594364Y-92026686D01*
X154594366Y-92026697D01*
X154653258Y-92246488D01*
X154653261Y-92246497D01*
X154749431Y-92452732D01*
X154749432Y-92452734D01*
X154879954Y-92639141D01*
X155040858Y-92800045D01*
X155040861Y-92800047D01*
X155227266Y-92930568D01*
X155285275Y-92957618D01*
X155337714Y-93003791D01*
X155356866Y-93070984D01*
X155336650Y-93137865D01*
X155285275Y-93182382D01*
X155227267Y-93209431D01*
X155227265Y-93209432D01*
X155040858Y-93339954D01*
X154879954Y-93500858D01*
X154749432Y-93687265D01*
X154749431Y-93687267D01*
X154653261Y-93893502D01*
X154653258Y-93893511D01*
X154594366Y-94113302D01*
X154594364Y-94113313D01*
X154574532Y-94339998D01*
X154574532Y-94340001D01*
X154594364Y-94566686D01*
X154594366Y-94566697D01*
X154653258Y-94786488D01*
X154653261Y-94786497D01*
X154749431Y-94992732D01*
X154749432Y-94992734D01*
X154879954Y-95179141D01*
X155040858Y-95340045D01*
X155040861Y-95340047D01*
X155227266Y-95470568D01*
X155285275Y-95497618D01*
X155337714Y-95543791D01*
X155356866Y-95610984D01*
X155336650Y-95677865D01*
X155285275Y-95722382D01*
X155227267Y-95749431D01*
X155227265Y-95749432D01*
X155040858Y-95879954D01*
X154879954Y-96040858D01*
X154749432Y-96227265D01*
X154749431Y-96227267D01*
X154653261Y-96433502D01*
X154653258Y-96433511D01*
X154594366Y-96653302D01*
X154594364Y-96653313D01*
X154574532Y-96879998D01*
X154574532Y-96880001D01*
X154594364Y-97106686D01*
X154594366Y-97106697D01*
X154653258Y-97326488D01*
X154653261Y-97326497D01*
X154749431Y-97532732D01*
X154749432Y-97532734D01*
X154879954Y-97719141D01*
X155040858Y-97880045D01*
X155040861Y-97880047D01*
X155227266Y-98010568D01*
X155285275Y-98037618D01*
X155337714Y-98083791D01*
X155356866Y-98150984D01*
X155336650Y-98217865D01*
X155285275Y-98262382D01*
X155227267Y-98289431D01*
X155227265Y-98289432D01*
X155040858Y-98419954D01*
X154879954Y-98580858D01*
X154749432Y-98767265D01*
X154749431Y-98767267D01*
X154653261Y-98973502D01*
X154653258Y-98973511D01*
X154594366Y-99193302D01*
X154594364Y-99193313D01*
X154574532Y-99419998D01*
X154574532Y-99420001D01*
X154594364Y-99646686D01*
X154594366Y-99646697D01*
X154653258Y-99866488D01*
X154653261Y-99866497D01*
X154749431Y-100072732D01*
X154749432Y-100072734D01*
X154879954Y-100259141D01*
X155040858Y-100420045D01*
X155040861Y-100420047D01*
X155227266Y-100550568D01*
X155285275Y-100577618D01*
X155337714Y-100623791D01*
X155356866Y-100690984D01*
X155336650Y-100757865D01*
X155285275Y-100802382D01*
X155227267Y-100829431D01*
X155227265Y-100829432D01*
X155040858Y-100959954D01*
X154879954Y-101120858D01*
X154749432Y-101307265D01*
X154749431Y-101307267D01*
X154653261Y-101513502D01*
X154653258Y-101513511D01*
X154594366Y-101733302D01*
X154594364Y-101733313D01*
X154574532Y-101959998D01*
X154574532Y-101960001D01*
X154594364Y-102186686D01*
X154594366Y-102186697D01*
X154653258Y-102406488D01*
X154653260Y-102406492D01*
X154653261Y-102406496D01*
X154703397Y-102514012D01*
X154713889Y-102583090D01*
X154685369Y-102646874D01*
X154626893Y-102685113D01*
X154557025Y-102685668D01*
X154503334Y-102654098D01*
X153136819Y-101287583D01*
X153103334Y-101226260D01*
X153100500Y-101199902D01*
X153100500Y-89300096D01*
X153120185Y-89233057D01*
X153136814Y-89212420D01*
X154513910Y-87835323D01*
X154575231Y-87801840D01*
X154644923Y-87806824D01*
G37*
G04 #@! TD.AperFunction*
G04 #@! TA.AperFunction,Conductor*
G36*
X179728495Y-56401099D02*
G01*
X179781228Y-56434988D01*
X179940256Y-56607738D01*
X180136491Y-56760474D01*
X180136494Y-56760476D01*
X180136496Y-56760477D01*
X180197248Y-56793354D01*
X180294517Y-56845993D01*
X180344108Y-56895212D01*
X180359500Y-56955048D01*
X180359500Y-91739903D01*
X180339815Y-91806942D01*
X180323181Y-91827584D01*
X175787584Y-96363181D01*
X175726261Y-96396666D01*
X175699903Y-96399500D01*
X170991692Y-96399500D01*
X170924653Y-96379815D01*
X170890119Y-96346625D01*
X170760047Y-96160861D01*
X170760045Y-96160858D01*
X170599141Y-95999954D01*
X170412734Y-95869432D01*
X170412728Y-95869429D01*
X170354725Y-95842382D01*
X170302285Y-95796210D01*
X170283133Y-95729017D01*
X170303348Y-95662135D01*
X170354725Y-95617618D01*
X170412734Y-95590568D01*
X170599139Y-95460047D01*
X170760047Y-95299139D01*
X170890118Y-95113375D01*
X170944693Y-95069752D01*
X170991692Y-95060500D01*
X172453331Y-95060500D01*
X172453347Y-95060501D01*
X172460943Y-95060501D01*
X172619054Y-95060501D01*
X172619057Y-95060501D01*
X172771785Y-95019577D01*
X172821904Y-94990639D01*
X172908716Y-94940520D01*
X173020520Y-94828716D01*
X173020520Y-94828714D01*
X173030728Y-94818507D01*
X173030730Y-94818504D01*
X173698506Y-94150728D01*
X173698511Y-94150724D01*
X173708714Y-94140520D01*
X173708716Y-94140520D01*
X173820520Y-94028716D01*
X173887067Y-93913453D01*
X173899577Y-93891785D01*
X173940501Y-93739057D01*
X173940501Y-93580943D01*
X173940501Y-93573348D01*
X173940500Y-93573330D01*
X173940500Y-59460096D01*
X173960185Y-59393057D01*
X173976814Y-59372420D01*
X176238506Y-57110727D01*
X176238511Y-57110724D01*
X176248714Y-57100520D01*
X176248716Y-57100520D01*
X176360520Y-56988716D01*
X176385708Y-56945087D01*
X176436274Y-56896871D01*
X176452824Y-56889808D01*
X176484810Y-56878828D01*
X176703509Y-56760474D01*
X176899744Y-56607738D01*
X177058771Y-56434988D01*
X177118657Y-56398999D01*
X177188495Y-56401099D01*
X177241228Y-56434988D01*
X177400256Y-56607738D01*
X177596491Y-56760474D01*
X177596493Y-56760475D01*
X177814332Y-56878364D01*
X177815190Y-56878828D01*
X177966189Y-56930666D01*
X178048964Y-56959083D01*
X178050386Y-56959571D01*
X178295665Y-57000500D01*
X178544335Y-57000500D01*
X178789614Y-56959571D01*
X179024810Y-56878828D01*
X179243509Y-56760474D01*
X179439744Y-56607738D01*
X179598771Y-56434988D01*
X179658657Y-56398999D01*
X179728495Y-56401099D01*
G37*
G04 #@! TD.AperFunction*
G04 #@! TA.AperFunction,Conductor*
G36*
X201006922Y-51501280D02*
G01*
X201097266Y-51511459D01*
X201124331Y-51517636D01*
X201203540Y-51545352D01*
X201228553Y-51557398D01*
X201299606Y-51602043D01*
X201321313Y-51619355D01*
X201380644Y-51678686D01*
X201397957Y-51700395D01*
X201442600Y-51771444D01*
X201454648Y-51796462D01*
X201482362Y-51875666D01*
X201488540Y-51902735D01*
X201498720Y-51993076D01*
X201499500Y-52006961D01*
X201499500Y-107993038D01*
X201498720Y-108006923D01*
X201488540Y-108097264D01*
X201482362Y-108124333D01*
X201454648Y-108203537D01*
X201442600Y-108228555D01*
X201397957Y-108299604D01*
X201380644Y-108321313D01*
X201321313Y-108380644D01*
X201299604Y-108397957D01*
X201228555Y-108442600D01*
X201203537Y-108454648D01*
X201124333Y-108482362D01*
X201097264Y-108488540D01*
X201017075Y-108497576D01*
X201006921Y-108498720D01*
X200993038Y-108499500D01*
X147006962Y-108499500D01*
X146993078Y-108498720D01*
X146980553Y-108497308D01*
X146902735Y-108488540D01*
X146875666Y-108482362D01*
X146796462Y-108454648D01*
X146771444Y-108442600D01*
X146700395Y-108397957D01*
X146678686Y-108380644D01*
X146619355Y-108321313D01*
X146602042Y-108299604D01*
X146557399Y-108228555D01*
X146545351Y-108203537D01*
X146517637Y-108124333D01*
X146511459Y-108097263D01*
X146501280Y-108006922D01*
X146500500Y-107993038D01*
X146500500Y-104878711D01*
X148149500Y-104878711D01*
X148149500Y-105121288D01*
X148181161Y-105361785D01*
X148243947Y-105596104D01*
X148336773Y-105820205D01*
X148336777Y-105820214D01*
X148358974Y-105858661D01*
X148458064Y-106030289D01*
X148458066Y-106030292D01*
X148458067Y-106030293D01*
X148605733Y-106222736D01*
X148605739Y-106222743D01*
X148777256Y-106394260D01*
X148777262Y-106394265D01*
X148969711Y-106541936D01*
X149179788Y-106663224D01*
X149403900Y-106756054D01*
X149638211Y-106818838D01*
X149818586Y-106842584D01*
X149878711Y-106850500D01*
X149878712Y-106850500D01*
X150121289Y-106850500D01*
X150169388Y-106844167D01*
X150361789Y-106818838D01*
X150596100Y-106756054D01*
X150820212Y-106663224D01*
X151030289Y-106541936D01*
X151222738Y-106394265D01*
X151394265Y-106222738D01*
X151541936Y-106030289D01*
X151663224Y-105820212D01*
X151756054Y-105596100D01*
X151818838Y-105361789D01*
X151850500Y-105121288D01*
X151850500Y-104878712D01*
X151818838Y-104638211D01*
X151756054Y-104403900D01*
X151663224Y-104179788D01*
X151541936Y-103969711D01*
X151473501Y-103880524D01*
X151394266Y-103777263D01*
X151394260Y-103777256D01*
X151222743Y-103605739D01*
X151222736Y-103605733D01*
X151030293Y-103458067D01*
X151030292Y-103458066D01*
X151030289Y-103458064D01*
X150820212Y-103336776D01*
X150820205Y-103336773D01*
X150596104Y-103243947D01*
X150361785Y-103181161D01*
X150121289Y-103149500D01*
X150121288Y-103149500D01*
X149878712Y-103149500D01*
X149878711Y-103149500D01*
X149638214Y-103181161D01*
X149403895Y-103243947D01*
X149179794Y-103336773D01*
X149179785Y-103336777D01*
X148969706Y-103458067D01*
X148777263Y-103605733D01*
X148777256Y-103605739D01*
X148605739Y-103777256D01*
X148605733Y-103777263D01*
X148458067Y-103969706D01*
X148336777Y-104179785D01*
X148336773Y-104179794D01*
X148243947Y-104403895D01*
X148181161Y-104638214D01*
X148149500Y-104878711D01*
X146500500Y-104878711D01*
X146500500Y-86211641D01*
X149419311Y-86211641D01*
X149507585Y-86266298D01*
X149697678Y-86339940D01*
X149898072Y-86377401D01*
X150101928Y-86377401D01*
X150302322Y-86339940D01*
X150492412Y-86266300D01*
X150492416Y-86266298D01*
X150580686Y-86211642D01*
X150580686Y-86211641D01*
X150000001Y-85630954D01*
X150000000Y-85630954D01*
X149419311Y-86211641D01*
X146500500Y-86211641D01*
X146500500Y-72499635D01*
X147999500Y-72499635D01*
X147999500Y-74500370D01*
X147999501Y-74500376D01*
X148005908Y-74559983D01*
X148056202Y-74694828D01*
X148056206Y-74694835D01*
X148142452Y-74810044D01*
X148142455Y-74810047D01*
X148257664Y-74896293D01*
X148257667Y-74896295D01*
X148257668Y-74896295D01*
X148257669Y-74896296D01*
X148286025Y-74906872D01*
X148341958Y-74948742D01*
X148366376Y-75014206D01*
X148351525Y-75082479D01*
X148343010Y-75095939D01*
X148210213Y-75278719D01*
X148106417Y-75482429D01*
X148035765Y-75699871D01*
X148021491Y-75790000D01*
X149009252Y-75790000D01*
X148987482Y-75827708D01*
X148950000Y-75967591D01*
X148950000Y-76112409D01*
X148987482Y-76252292D01*
X149009252Y-76290000D01*
X148021491Y-76290000D01*
X148035765Y-76380128D01*
X148106417Y-76597570D01*
X148210211Y-76801276D01*
X148344597Y-76986242D01*
X148506257Y-77147902D01*
X148506263Y-77147907D01*
X148590863Y-77209372D01*
X148633529Y-77264701D01*
X148639508Y-77334315D01*
X148606903Y-77396110D01*
X148590864Y-77410007D01*
X148505940Y-77471709D01*
X148505931Y-77471716D01*
X148344216Y-77633431D01*
X148344216Y-77633432D01*
X148344214Y-77633434D01*
X148310631Y-77679657D01*
X148209783Y-77818461D01*
X148105950Y-78022244D01*
X148035278Y-78239750D01*
X148035278Y-78239753D01*
X147999500Y-78465646D01*
X147999500Y-78694353D01*
X148035278Y-78920246D01*
X148035278Y-78920249D01*
X148105950Y-79137755D01*
X148200607Y-79323530D01*
X148209783Y-79341538D01*
X148344214Y-79526566D01*
X148505934Y-79688286D01*
X148596975Y-79754431D01*
X148690963Y-79822718D01*
X148766688Y-79861301D01*
X148831794Y-79894474D01*
X148882591Y-79942448D01*
X148899500Y-80004959D01*
X148899500Y-83190731D01*
X148899499Y-83190749D01*
X148899499Y-83364053D01*
X148899500Y-83364070D01*
X148899500Y-84425271D01*
X148899501Y-84425277D01*
X148905908Y-84484884D01*
X148956202Y-84619729D01*
X148956206Y-84619736D01*
X148995954Y-84672832D01*
X149020372Y-84738296D01*
X149007688Y-84802414D01*
X148969888Y-84878326D01*
X148969883Y-84878337D01*
X148914097Y-85074408D01*
X148914096Y-85074411D01*
X148895287Y-85277400D01*
X148895287Y-85277401D01*
X148914096Y-85480390D01*
X148914097Y-85480393D01*
X148969883Y-85676464D01*
X148969886Y-85676470D01*
X149060751Y-85858952D01*
X149062533Y-85861312D01*
X149705145Y-85218699D01*
X149700000Y-85237905D01*
X149700000Y-85316897D01*
X149720444Y-85393197D01*
X149759940Y-85461606D01*
X149815795Y-85517461D01*
X149884204Y-85556957D01*
X149960504Y-85577401D01*
X150039496Y-85577401D01*
X150115796Y-85556957D01*
X150184205Y-85517461D01*
X150240060Y-85461606D01*
X150279556Y-85393197D01*
X150300000Y-85316897D01*
X150300000Y-85237905D01*
X150294854Y-85218702D01*
X150937465Y-85861313D01*
X150939247Y-85858954D01*
X150939248Y-85858952D01*
X151030113Y-85676470D01*
X151030116Y-85676464D01*
X151085902Y-85480393D01*
X151085903Y-85480390D01*
X151104713Y-85277401D01*
X151104713Y-85277400D01*
X151085903Y-85074411D01*
X151085902Y-85074409D01*
X151030115Y-84878337D01*
X151030110Y-84878326D01*
X150992311Y-84802414D01*
X150980050Y-84733629D01*
X151004045Y-84672832D01*
X151043796Y-84619732D01*
X151053579Y-84593504D01*
X151094091Y-84484884D01*
X151096633Y-84461244D01*
X151123371Y-84396693D01*
X151180764Y-84356845D01*
X151219922Y-84350500D01*
X160229903Y-84350500D01*
X160296942Y-84370185D01*
X160317584Y-84386819D01*
X162208058Y-86277293D01*
X162241543Y-86338616D01*
X162240152Y-86397067D01*
X162214366Y-86493302D01*
X162214364Y-86493313D01*
X162194532Y-86719998D01*
X162194532Y-86720001D01*
X162214364Y-86946686D01*
X162214366Y-86946697D01*
X162273258Y-87166488D01*
X162273261Y-87166496D01*
X162369432Y-87372734D01*
X162369435Y-87372738D01*
X162369870Y-87373492D01*
X162369961Y-87373868D01*
X162371720Y-87377640D01*
X162370962Y-87377993D01*
X162386348Y-87441391D01*
X162363501Y-87507419D01*
X162308583Y-87550614D01*
X162262488Y-87559500D01*
X159440941Y-87559500D01*
X159409697Y-87567871D01*
X159409698Y-87567872D01*
X159288214Y-87600423D01*
X159288209Y-87600426D01*
X159151290Y-87679475D01*
X159151282Y-87679481D01*
X159039478Y-87791286D01*
X157329142Y-89501620D01*
X157267819Y-89535105D01*
X157198127Y-89530121D01*
X157170912Y-89510000D01*
X156195686Y-89510000D01*
X156200080Y-89505606D01*
X156252741Y-89414394D01*
X156280000Y-89312661D01*
X156280000Y-89207339D01*
X156252741Y-89105606D01*
X156200080Y-89014394D01*
X156195686Y-89010000D01*
X157158872Y-89010000D01*
X157158872Y-89009999D01*
X157106269Y-88813682D01*
X157106265Y-88813673D01*
X157010134Y-88607517D01*
X156879657Y-88421179D01*
X156718820Y-88260342D01*
X156693779Y-88242808D01*
X156650154Y-88188230D01*
X156642962Y-88118732D01*
X156674484Y-88056377D01*
X156734714Y-88020964D01*
X156751650Y-88017943D01*
X156787483Y-88014091D01*
X156904177Y-87970567D01*
X156922331Y-87963796D01*
X157037546Y-87877546D01*
X157123796Y-87762331D01*
X157174091Y-87627483D01*
X157180500Y-87567873D01*
X157180499Y-85872128D01*
X157174091Y-85812517D01*
X157159078Y-85772266D01*
X157123797Y-85677671D01*
X157123793Y-85677664D01*
X157037547Y-85562455D01*
X157037544Y-85562452D01*
X156922335Y-85476206D01*
X156922328Y-85476202D01*
X156787482Y-85425908D01*
X156787483Y-85425908D01*
X156727883Y-85419501D01*
X156727881Y-85419500D01*
X156727873Y-85419500D01*
X156727864Y-85419500D01*
X155032129Y-85419500D01*
X155032123Y-85419501D01*
X154972516Y-85425908D01*
X154837671Y-85476202D01*
X154837664Y-85476206D01*
X154722455Y-85562452D01*
X154722452Y-85562455D01*
X154636206Y-85677664D01*
X154636202Y-85677671D01*
X154585908Y-85812517D01*
X154579501Y-85872116D01*
X154579501Y-85872123D01*
X154579500Y-85872135D01*
X154579500Y-86070769D01*
X154559815Y-86137808D01*
X154517500Y-86178156D01*
X154411287Y-86239477D01*
X154411282Y-86239481D01*
X152019481Y-88631282D01*
X152019475Y-88631290D01*
X151981752Y-88696630D01*
X151981752Y-88696632D01*
X151940423Y-88768214D01*
X151929214Y-88810047D01*
X151899499Y-88920943D01*
X151899499Y-88920945D01*
X151899499Y-89089046D01*
X151899500Y-89089059D01*
X151899500Y-101413330D01*
X151899499Y-101413348D01*
X151899499Y-101579054D01*
X151899498Y-101579054D01*
X151940423Y-101731785D01*
X151969358Y-101781900D01*
X151969359Y-101781904D01*
X151969360Y-101781904D01*
X152019479Y-101868714D01*
X152019481Y-101868717D01*
X152138349Y-101987585D01*
X152138354Y-101987589D01*
X154031284Y-103880520D01*
X154031286Y-103880521D01*
X154031290Y-103880524D01*
X154168209Y-103959573D01*
X154168216Y-103959577D01*
X154320943Y-104000501D01*
X154320945Y-104000501D01*
X154486654Y-104000501D01*
X154486670Y-104000500D01*
X154506381Y-104000500D01*
X154573420Y-104020185D01*
X154619175Y-104072989D01*
X154629119Y-104142147D01*
X154626156Y-104156594D01*
X154601128Y-104249999D01*
X154601128Y-104250000D01*
X155564314Y-104250000D01*
X155559920Y-104254394D01*
X155507259Y-104345606D01*
X155480000Y-104447339D01*
X155480000Y-104552661D01*
X155507259Y-104654394D01*
X155559920Y-104745606D01*
X155564314Y-104750000D01*
X154601128Y-104750000D01*
X154653730Y-104946317D01*
X154653734Y-104946326D01*
X154749865Y-105152482D01*
X154880342Y-105338820D01*
X155041179Y-105499657D01*
X155227517Y-105630134D01*
X155433673Y-105726265D01*
X155433682Y-105726269D01*
X155629999Y-105778872D01*
X155630000Y-105778871D01*
X155630000Y-104815686D01*
X155634394Y-104820080D01*
X155725606Y-104872741D01*
X155827339Y-104900000D01*
X155932661Y-104900000D01*
X156034394Y-104872741D01*
X156125606Y-104820080D01*
X156130000Y-104815686D01*
X156130000Y-105778872D01*
X156326317Y-105726269D01*
X156326326Y-105726265D01*
X156532482Y-105630134D01*
X156718820Y-105499657D01*
X156879657Y-105338820D01*
X157010134Y-105152482D01*
X157106265Y-104946326D01*
X157106269Y-104946317D01*
X157158872Y-104750000D01*
X156195686Y-104750000D01*
X156200080Y-104745606D01*
X156252741Y-104654394D01*
X156280000Y-104552661D01*
X156280000Y-104447339D01*
X156252741Y-104345606D01*
X156200080Y-104254394D01*
X156195686Y-104250000D01*
X157158872Y-104250000D01*
X157158871Y-104249999D01*
X157133844Y-104156594D01*
X157135507Y-104086744D01*
X157174669Y-104028881D01*
X157238898Y-104001377D01*
X157253619Y-104000500D01*
X162125863Y-104000500D01*
X162192902Y-104020185D01*
X162238657Y-104072989D01*
X162248601Y-104142147D01*
X162245638Y-104156593D01*
X162214366Y-104273302D01*
X162214364Y-104273313D01*
X162194532Y-104499998D01*
X162194532Y-104500001D01*
X162214364Y-104726686D01*
X162214366Y-104726697D01*
X162273258Y-104946488D01*
X162273261Y-104946497D01*
X162369431Y-105152732D01*
X162369432Y-105152734D01*
X162499954Y-105339141D01*
X162660858Y-105500045D01*
X162660861Y-105500047D01*
X162847266Y-105630568D01*
X163053504Y-105726739D01*
X163273308Y-105785635D01*
X163435230Y-105799801D01*
X163499998Y-105805468D01*
X163500000Y-105805468D01*
X163500002Y-105805468D01*
X163556673Y-105800509D01*
X163726692Y-105785635D01*
X163822932Y-105759847D01*
X163892781Y-105761510D01*
X163942706Y-105791941D01*
X165515139Y-107364374D01*
X165515149Y-107364385D01*
X165519479Y-107368715D01*
X165519480Y-107368716D01*
X165631284Y-107480520D01*
X165718095Y-107530639D01*
X165718097Y-107530641D01*
X165756151Y-107552611D01*
X165768215Y-107559577D01*
X165920943Y-107600501D01*
X165920946Y-107600501D01*
X166086653Y-107600501D01*
X166086669Y-107600500D01*
X171413331Y-107600500D01*
X171413347Y-107600501D01*
X171420943Y-107600501D01*
X171579054Y-107600501D01*
X171579057Y-107600501D01*
X171731785Y-107559577D01*
X171781904Y-107530639D01*
X171868716Y-107480520D01*
X171980520Y-107368716D01*
X171980520Y-107368714D01*
X171990728Y-107358507D01*
X171990730Y-107358504D01*
X182868713Y-96480521D01*
X182868716Y-96480520D01*
X182980520Y-96368716D01*
X183030639Y-96281904D01*
X183059577Y-96231785D01*
X183100500Y-96079057D01*
X183100500Y-95920943D01*
X183100500Y-69059998D01*
X183694532Y-69059998D01*
X183694532Y-69060001D01*
X183714364Y-69286686D01*
X183714366Y-69286697D01*
X183773258Y-69506488D01*
X183773261Y-69506497D01*
X183869431Y-69712732D01*
X183869432Y-69712734D01*
X183999954Y-69899141D01*
X184160858Y-70060045D01*
X184160861Y-70060047D01*
X184347266Y-70190568D01*
X184405865Y-70217893D01*
X184458305Y-70264065D01*
X184477457Y-70331258D01*
X184457242Y-70398139D01*
X184405867Y-70442657D01*
X184347515Y-70469867D01*
X184161179Y-70600342D01*
X184000342Y-70761179D01*
X183869865Y-70947517D01*
X183773734Y-71153673D01*
X183773730Y-71153682D01*
X183721127Y-71349999D01*
X183721128Y-71350000D01*
X184566988Y-71350000D01*
X184534075Y-71407007D01*
X184500000Y-71534174D01*
X184500000Y-71665826D01*
X184534075Y-71792993D01*
X184566988Y-71850000D01*
X183721128Y-71850000D01*
X183773730Y-72046317D01*
X183773734Y-72046326D01*
X183869865Y-72252482D01*
X184000342Y-72438820D01*
X184161179Y-72599657D01*
X184347518Y-72730134D01*
X184347520Y-72730135D01*
X184405865Y-72757342D01*
X184458305Y-72803514D01*
X184477457Y-72870707D01*
X184457242Y-72937589D01*
X184405867Y-72982105D01*
X184347268Y-73009431D01*
X184347264Y-73009433D01*
X184160858Y-73139954D01*
X183999954Y-73300858D01*
X183869432Y-73487265D01*
X183869431Y-73487267D01*
X183773261Y-73693502D01*
X183773258Y-73693511D01*
X183714366Y-73913302D01*
X183714364Y-73913313D01*
X183694532Y-74139998D01*
X183694532Y-74140001D01*
X183714364Y-74366686D01*
X183714366Y-74366697D01*
X183773258Y-74586488D01*
X183773261Y-74586497D01*
X183869431Y-74792732D01*
X183869432Y-74792734D01*
X183999954Y-74979141D01*
X184160858Y-75140045D01*
X184160861Y-75140047D01*
X184347266Y-75270568D01*
X184405275Y-75297618D01*
X184457714Y-75343791D01*
X184476866Y-75410984D01*
X184456650Y-75477865D01*
X184405275Y-75522382D01*
X184347267Y-75549431D01*
X184347265Y-75549432D01*
X184160858Y-75679954D01*
X183999954Y-75840858D01*
X183869432Y-76027265D01*
X183869431Y-76027267D01*
X183773261Y-76233502D01*
X183773258Y-76233511D01*
X183714366Y-76453302D01*
X183714364Y-76453313D01*
X183694532Y-76679998D01*
X183694532Y-76680001D01*
X183714364Y-76906686D01*
X183714366Y-76906697D01*
X183773258Y-77126488D01*
X183773261Y-77126497D01*
X183869431Y-77332732D01*
X183869432Y-77332734D01*
X183999954Y-77519141D01*
X184160858Y-77680045D01*
X184160861Y-77680047D01*
X184347266Y-77810568D01*
X184364195Y-77818462D01*
X184405275Y-77837618D01*
X184457714Y-77883791D01*
X184476866Y-77950984D01*
X184456650Y-78017865D01*
X184405275Y-78062382D01*
X184347267Y-78089431D01*
X184347265Y-78089432D01*
X184160858Y-78219954D01*
X183999954Y-78380858D01*
X183869432Y-78567265D01*
X183869431Y-78567267D01*
X183773261Y-78773502D01*
X183773258Y-78773511D01*
X183714366Y-78993302D01*
X183714364Y-78993313D01*
X183694532Y-79219998D01*
X183694532Y-79220001D01*
X183714364Y-79446686D01*
X183714366Y-79446697D01*
X183773258Y-79666488D01*
X183773261Y-79666497D01*
X183869431Y-79872732D01*
X183869432Y-79872734D01*
X183999954Y-80059141D01*
X184160858Y-80220045D01*
X184178310Y-80232265D01*
X184347266Y-80350568D01*
X184405275Y-80377618D01*
X184457714Y-80423791D01*
X184476866Y-80490984D01*
X184456650Y-80557865D01*
X184405275Y-80602382D01*
X184347267Y-80629431D01*
X184347265Y-80629432D01*
X184160858Y-80759954D01*
X183999954Y-80920858D01*
X183869432Y-81107265D01*
X183869431Y-81107267D01*
X183773261Y-81313502D01*
X183773258Y-81313511D01*
X183714366Y-81533302D01*
X183714364Y-81533313D01*
X183694532Y-81759998D01*
X183694532Y-81760001D01*
X183714364Y-81986686D01*
X183714366Y-81986697D01*
X183773258Y-82206488D01*
X183773261Y-82206497D01*
X183869431Y-82412732D01*
X183869432Y-82412734D01*
X183999954Y-82599141D01*
X184160858Y-82760045D01*
X184160861Y-82760047D01*
X184347266Y-82890568D01*
X184405275Y-82917618D01*
X184457714Y-82963791D01*
X184476866Y-83030984D01*
X184456650Y-83097865D01*
X184405275Y-83142382D01*
X184347267Y-83169431D01*
X184347265Y-83169432D01*
X184160858Y-83299954D01*
X183999954Y-83460858D01*
X183869432Y-83647265D01*
X183869431Y-83647267D01*
X183773261Y-83853502D01*
X183773258Y-83853511D01*
X183714366Y-84073302D01*
X183714364Y-84073313D01*
X183694532Y-84299998D01*
X183694532Y-84300001D01*
X183714364Y-84526686D01*
X183714366Y-84526697D01*
X183773258Y-84746488D01*
X183773261Y-84746497D01*
X183869431Y-84952732D01*
X183869432Y-84952734D01*
X183999954Y-85139141D01*
X184160858Y-85300045D01*
X184207693Y-85332839D01*
X184347266Y-85430568D01*
X184405275Y-85457618D01*
X184457714Y-85503791D01*
X184476866Y-85570984D01*
X184456650Y-85637865D01*
X184405275Y-85682382D01*
X184347267Y-85709431D01*
X184347265Y-85709432D01*
X184160858Y-85839954D01*
X183999954Y-86000858D01*
X183869432Y-86187265D01*
X183869431Y-86187267D01*
X183773261Y-86393502D01*
X183773258Y-86393511D01*
X183714366Y-86613302D01*
X183714364Y-86613313D01*
X183694532Y-86839998D01*
X183694532Y-86840001D01*
X183714364Y-87066686D01*
X183714366Y-87066697D01*
X183773258Y-87286488D01*
X183773261Y-87286497D01*
X183869431Y-87492732D01*
X183869432Y-87492734D01*
X183999954Y-87679141D01*
X184160858Y-87840045D01*
X184160861Y-87840047D01*
X184347266Y-87970568D01*
X184405275Y-87997618D01*
X184457714Y-88043791D01*
X184476866Y-88110984D01*
X184456650Y-88177865D01*
X184405275Y-88222382D01*
X184347267Y-88249431D01*
X184347265Y-88249432D01*
X184160858Y-88379954D01*
X183999954Y-88540858D01*
X183869432Y-88727265D01*
X183869431Y-88727267D01*
X183773261Y-88933502D01*
X183773258Y-88933511D01*
X183714366Y-89153302D01*
X183714364Y-89153313D01*
X183694532Y-89379998D01*
X183694532Y-89380001D01*
X183714364Y-89606686D01*
X183714366Y-89606697D01*
X183773258Y-89826488D01*
X183773261Y-89826497D01*
X183869431Y-90032732D01*
X183869432Y-90032734D01*
X183999954Y-90219141D01*
X184160858Y-90380045D01*
X184160861Y-90380047D01*
X184347266Y-90510568D01*
X184405275Y-90537618D01*
X184457714Y-90583791D01*
X184476866Y-90650984D01*
X184456650Y-90717865D01*
X184405275Y-90762382D01*
X184347267Y-90789431D01*
X184347265Y-90789432D01*
X184160858Y-90919954D01*
X183999954Y-91080858D01*
X183869432Y-91267265D01*
X183869431Y-91267267D01*
X183773261Y-91473502D01*
X183773258Y-91473511D01*
X183714366Y-91693302D01*
X183714364Y-91693313D01*
X183694532Y-91919998D01*
X183694532Y-91920001D01*
X183714364Y-92146686D01*
X183714366Y-92146697D01*
X183773258Y-92366488D01*
X183773261Y-92366497D01*
X183869431Y-92572732D01*
X183869432Y-92572734D01*
X183999954Y-92759141D01*
X184160858Y-92920045D01*
X184160861Y-92920047D01*
X184347266Y-93050568D01*
X184405275Y-93077618D01*
X184457714Y-93123791D01*
X184476866Y-93190984D01*
X184456650Y-93257865D01*
X184405275Y-93302382D01*
X184347267Y-93329431D01*
X184347265Y-93329432D01*
X184160858Y-93459954D01*
X183999954Y-93620858D01*
X183869432Y-93807265D01*
X183869431Y-93807267D01*
X183773261Y-94013502D01*
X183773258Y-94013511D01*
X183714366Y-94233302D01*
X183714364Y-94233313D01*
X183694532Y-94459998D01*
X183694532Y-94460001D01*
X183714364Y-94686686D01*
X183714366Y-94686697D01*
X183773258Y-94906488D01*
X183773261Y-94906497D01*
X183869431Y-95112732D01*
X183869432Y-95112734D01*
X183999954Y-95299141D01*
X184160858Y-95460045D01*
X184160861Y-95460047D01*
X184347266Y-95590568D01*
X184405275Y-95617618D01*
X184457714Y-95663791D01*
X184476866Y-95730984D01*
X184456650Y-95797865D01*
X184405275Y-95842382D01*
X184347267Y-95869431D01*
X184347265Y-95869432D01*
X184160858Y-95999954D01*
X183999954Y-96160858D01*
X183869432Y-96347265D01*
X183869431Y-96347267D01*
X183773261Y-96553502D01*
X183773258Y-96553511D01*
X183714366Y-96773302D01*
X183714364Y-96773313D01*
X183694532Y-96999998D01*
X183694532Y-97000001D01*
X183714364Y-97226686D01*
X183714366Y-97226697D01*
X183773258Y-97446488D01*
X183773261Y-97446497D01*
X183869431Y-97652732D01*
X183869432Y-97652734D01*
X183999954Y-97839141D01*
X184160858Y-98000045D01*
X184207693Y-98032839D01*
X184347266Y-98130568D01*
X184397917Y-98154187D01*
X184405275Y-98157618D01*
X184457714Y-98203791D01*
X184476866Y-98270984D01*
X184456650Y-98337865D01*
X184405275Y-98382382D01*
X184347267Y-98409431D01*
X184347265Y-98409432D01*
X184160858Y-98539954D01*
X183999954Y-98700858D01*
X183869432Y-98887265D01*
X183869431Y-98887267D01*
X183773261Y-99093502D01*
X183773258Y-99093511D01*
X183714366Y-99313302D01*
X183714364Y-99313313D01*
X183694532Y-99539998D01*
X183694532Y-99540001D01*
X183714364Y-99766686D01*
X183714366Y-99766697D01*
X183773258Y-99986488D01*
X183773261Y-99986497D01*
X183869431Y-100192732D01*
X183869432Y-100192734D01*
X183999954Y-100379141D01*
X184160858Y-100540045D01*
X184207693Y-100572839D01*
X184347266Y-100670568D01*
X184391636Y-100691258D01*
X184405275Y-100697618D01*
X184457714Y-100743791D01*
X184476866Y-100810984D01*
X184456650Y-100877865D01*
X184405275Y-100922382D01*
X184347267Y-100949431D01*
X184347265Y-100949432D01*
X184160858Y-101079954D01*
X183999954Y-101240858D01*
X183869432Y-101427265D01*
X183869431Y-101427267D01*
X183773261Y-101633502D01*
X183773258Y-101633511D01*
X183714366Y-101853302D01*
X183714364Y-101853313D01*
X183694532Y-102079998D01*
X183694532Y-102080001D01*
X183714364Y-102306686D01*
X183714366Y-102306697D01*
X183773258Y-102526488D01*
X183773261Y-102526497D01*
X183869431Y-102732732D01*
X183869432Y-102732734D01*
X183999954Y-102919141D01*
X184160858Y-103080045D01*
X184160861Y-103080047D01*
X184347266Y-103210568D01*
X184405275Y-103237618D01*
X184457714Y-103283791D01*
X184476866Y-103350984D01*
X184456650Y-103417865D01*
X184405275Y-103462382D01*
X184347267Y-103489431D01*
X184347265Y-103489432D01*
X184160858Y-103619954D01*
X183999954Y-103780858D01*
X183869432Y-103967265D01*
X183869431Y-103967267D01*
X183773261Y-104173502D01*
X183773258Y-104173511D01*
X183714366Y-104393302D01*
X183714364Y-104393313D01*
X183694532Y-104619998D01*
X183694532Y-104620001D01*
X183714364Y-104846686D01*
X183714366Y-104846697D01*
X183773258Y-105066488D01*
X183773261Y-105066497D01*
X183869431Y-105272732D01*
X183869432Y-105272734D01*
X183999954Y-105459141D01*
X184160858Y-105620045D01*
X184160861Y-105620047D01*
X184347266Y-105750568D01*
X184553504Y-105846739D01*
X184773308Y-105905635D01*
X184935230Y-105919801D01*
X184999998Y-105925468D01*
X185000000Y-105925468D01*
X185000002Y-105925468D01*
X185056673Y-105920509D01*
X185226692Y-105905635D01*
X185446496Y-105846739D01*
X185652734Y-105750568D01*
X185839139Y-105620047D01*
X186000047Y-105459139D01*
X186130568Y-105272734D01*
X186226739Y-105066496D01*
X186277056Y-104878711D01*
X196149500Y-104878711D01*
X196149500Y-105121288D01*
X196181161Y-105361785D01*
X196243947Y-105596104D01*
X196336773Y-105820205D01*
X196336777Y-105820214D01*
X196358974Y-105858661D01*
X196458064Y-106030289D01*
X196458066Y-106030292D01*
X196458067Y-106030293D01*
X196605733Y-106222736D01*
X196605739Y-106222743D01*
X196777256Y-106394260D01*
X196777262Y-106394265D01*
X196969711Y-106541936D01*
X197179788Y-106663224D01*
X197403900Y-106756054D01*
X197638211Y-106818838D01*
X197818586Y-106842584D01*
X197878711Y-106850500D01*
X197878712Y-106850500D01*
X198121289Y-106850500D01*
X198169388Y-106844167D01*
X198361789Y-106818838D01*
X198596100Y-106756054D01*
X198820212Y-106663224D01*
X199030289Y-106541936D01*
X199222738Y-106394265D01*
X199394265Y-106222738D01*
X199541936Y-106030289D01*
X199663224Y-105820212D01*
X199756054Y-105596100D01*
X199818838Y-105361789D01*
X199850500Y-105121288D01*
X199850500Y-104878712D01*
X199818838Y-104638211D01*
X199756054Y-104403900D01*
X199663224Y-104179788D01*
X199541936Y-103969711D01*
X199473501Y-103880524D01*
X199394266Y-103777263D01*
X199394260Y-103777256D01*
X199222743Y-103605739D01*
X199222736Y-103605733D01*
X199030293Y-103458067D01*
X199030292Y-103458066D01*
X199030289Y-103458064D01*
X198820212Y-103336776D01*
X198820205Y-103336773D01*
X198596104Y-103243947D01*
X198361785Y-103181161D01*
X198121289Y-103149500D01*
X198121288Y-103149500D01*
X197878712Y-103149500D01*
X197878711Y-103149500D01*
X197638214Y-103181161D01*
X197403895Y-103243947D01*
X197179794Y-103336773D01*
X197179785Y-103336777D01*
X196969706Y-103458067D01*
X196777263Y-103605733D01*
X196777256Y-103605739D01*
X196605739Y-103777256D01*
X196605733Y-103777263D01*
X196458067Y-103969706D01*
X196336777Y-104179785D01*
X196336773Y-104179794D01*
X196243947Y-104403895D01*
X196181161Y-104638214D01*
X196149500Y-104878711D01*
X186277056Y-104878711D01*
X186285635Y-104846692D01*
X186302634Y-104652384D01*
X186305468Y-104620001D01*
X186305468Y-104619998D01*
X186290362Y-104447339D01*
X186285635Y-104393308D01*
X186228458Y-104179920D01*
X186226741Y-104173511D01*
X186226738Y-104173502D01*
X186179868Y-104072989D01*
X186130568Y-103967266D01*
X186000047Y-103780861D01*
X186000045Y-103780858D01*
X185839141Y-103619954D01*
X185652734Y-103489432D01*
X185652728Y-103489429D01*
X185594725Y-103462382D01*
X185542285Y-103416210D01*
X185523133Y-103349017D01*
X185543348Y-103282135D01*
X185594725Y-103237618D01*
X185652734Y-103210568D01*
X185839139Y-103080047D01*
X186000047Y-102919139D01*
X186130568Y-102732734D01*
X186226739Y-102526496D01*
X186285635Y-102306692D01*
X186305468Y-102080000D01*
X186285635Y-101853308D01*
X186226739Y-101633504D01*
X186130568Y-101427266D01*
X186000047Y-101240861D01*
X186000045Y-101240858D01*
X185839141Y-101079954D01*
X185652734Y-100949432D01*
X185652728Y-100949429D01*
X185594725Y-100922382D01*
X185542285Y-100876210D01*
X185523133Y-100809017D01*
X185543348Y-100742135D01*
X185594725Y-100697618D01*
X185608364Y-100691258D01*
X185652734Y-100670568D01*
X185839139Y-100540047D01*
X186000047Y-100379139D01*
X186130568Y-100192734D01*
X186226739Y-99986496D01*
X186285635Y-99766692D01*
X186305468Y-99540000D01*
X186285635Y-99313308D01*
X186228641Y-99100603D01*
X186226741Y-99093511D01*
X186226738Y-99093502D01*
X186130568Y-98887266D01*
X186000047Y-98700861D01*
X186000045Y-98700858D01*
X185839141Y-98539954D01*
X185652734Y-98409432D01*
X185652728Y-98409429D01*
X185594725Y-98382382D01*
X185542285Y-98336210D01*
X185523133Y-98269017D01*
X185543348Y-98202135D01*
X185594725Y-98157618D01*
X185602083Y-98154187D01*
X185652734Y-98130568D01*
X185839139Y-98000047D01*
X186000047Y-97839139D01*
X186130568Y-97652734D01*
X186183140Y-97539994D01*
X189575057Y-97539994D01*
X189575057Y-97540005D01*
X189594807Y-97853942D01*
X189594808Y-97853949D01*
X189653755Y-98162958D01*
X189750963Y-98462132D01*
X189750965Y-98462137D01*
X189884900Y-98746761D01*
X189884903Y-98746767D01*
X190053457Y-99012367D01*
X190053460Y-99012371D01*
X190144286Y-99122160D01*
X190785748Y-98480698D01*
X190859588Y-98582330D01*
X191037670Y-98760412D01*
X191139300Y-98834250D01*
X190494971Y-99478579D01*
X190494972Y-99478581D01*
X190737772Y-99654985D01*
X190737790Y-99654996D01*
X191013447Y-99806540D01*
X191013455Y-99806544D01*
X191305926Y-99922340D01*
X191610620Y-100000573D01*
X191610629Y-100000575D01*
X191922701Y-100039999D01*
X191922715Y-100040000D01*
X192237285Y-100040000D01*
X192237298Y-100039999D01*
X192549370Y-100000575D01*
X192549379Y-100000573D01*
X192854073Y-99922340D01*
X193146544Y-99806544D01*
X193146552Y-99806540D01*
X193422209Y-99654996D01*
X193422219Y-99654990D01*
X193665026Y-99478579D01*
X193665027Y-99478579D01*
X193020698Y-98834251D01*
X193122330Y-98760412D01*
X193300412Y-98582330D01*
X193374251Y-98480699D01*
X194015712Y-99122160D01*
X194106544Y-99012364D01*
X194275096Y-98746767D01*
X194275099Y-98746761D01*
X194409034Y-98462137D01*
X194409036Y-98462132D01*
X194506244Y-98162958D01*
X194565191Y-97853949D01*
X194565192Y-97853942D01*
X194584943Y-97540005D01*
X194584943Y-97539994D01*
X194565192Y-97226057D01*
X194565191Y-97226050D01*
X194506244Y-96917041D01*
X194409036Y-96617867D01*
X194409034Y-96617862D01*
X194275099Y-96333238D01*
X194275096Y-96333232D01*
X194106542Y-96067632D01*
X194106539Y-96067628D01*
X194015712Y-95957838D01*
X193374250Y-96599299D01*
X193300412Y-96497670D01*
X193122330Y-96319588D01*
X193020698Y-96245748D01*
X193665027Y-95601419D01*
X193665026Y-95601417D01*
X193422227Y-95425014D01*
X193422209Y-95425003D01*
X193146552Y-95273459D01*
X193146544Y-95273455D01*
X192854073Y-95157659D01*
X192549379Y-95079426D01*
X192549370Y-95079424D01*
X192237298Y-95040000D01*
X191922701Y-95040000D01*
X191610629Y-95079424D01*
X191610620Y-95079426D01*
X191305926Y-95157659D01*
X191013455Y-95273455D01*
X191013447Y-95273459D01*
X190737787Y-95425004D01*
X190737782Y-95425007D01*
X190494972Y-95601418D01*
X190494971Y-95601419D01*
X191139301Y-96245748D01*
X191037670Y-96319588D01*
X190859588Y-96497670D01*
X190785748Y-96599300D01*
X190144286Y-95957838D01*
X190144285Y-95957838D01*
X190053459Y-96067629D01*
X190053457Y-96067632D01*
X189884903Y-96333232D01*
X189884900Y-96333238D01*
X189750965Y-96617862D01*
X189750963Y-96617867D01*
X189653755Y-96917041D01*
X189594808Y-97226050D01*
X189594807Y-97226057D01*
X189575057Y-97539994D01*
X186183140Y-97539994D01*
X186226739Y-97446496D01*
X186285635Y-97226692D01*
X186305468Y-97000000D01*
X186285635Y-96773308D01*
X186240916Y-96606415D01*
X186226741Y-96553511D01*
X186226738Y-96553502D01*
X186197465Y-96490726D01*
X186130568Y-96347266D01*
X186000047Y-96160861D01*
X186000045Y-96160858D01*
X185839141Y-95999954D01*
X185652734Y-95869432D01*
X185652728Y-95869429D01*
X185594725Y-95842382D01*
X185542285Y-95796210D01*
X185523133Y-95729017D01*
X185543348Y-95662135D01*
X185594725Y-95617618D01*
X185652734Y-95590568D01*
X185839139Y-95460047D01*
X186000047Y-95299139D01*
X186130568Y-95112734D01*
X186226739Y-94906496D01*
X186285635Y-94686692D01*
X186305468Y-94460000D01*
X186285635Y-94233308D01*
X186230815Y-94028716D01*
X186226741Y-94013511D01*
X186226738Y-94013502D01*
X186211422Y-93980657D01*
X186130568Y-93807266D01*
X186032839Y-93667693D01*
X186000045Y-93620858D01*
X185839141Y-93459954D01*
X185652734Y-93329432D01*
X185652728Y-93329429D01*
X185594725Y-93302382D01*
X185542285Y-93256210D01*
X185523133Y-93189017D01*
X185543348Y-93122135D01*
X185594725Y-93077618D01*
X185652734Y-93050568D01*
X185839139Y-92920047D01*
X186000047Y-92759139D01*
X186130568Y-92572734D01*
X186226739Y-92366496D01*
X186285635Y-92146692D01*
X186305468Y-91920000D01*
X186300711Y-91865633D01*
X186290773Y-91752034D01*
X186285635Y-91693308D01*
X186240916Y-91526415D01*
X186226741Y-91473511D01*
X186226738Y-91473502D01*
X186212117Y-91442147D01*
X186130568Y-91267266D01*
X186000047Y-91080861D01*
X186000045Y-91080858D01*
X185839141Y-90919954D01*
X185652734Y-90789432D01*
X185652728Y-90789429D01*
X185594725Y-90762382D01*
X185542285Y-90716210D01*
X185523133Y-90649017D01*
X185543348Y-90582135D01*
X185594725Y-90537618D01*
X185652734Y-90510568D01*
X185839139Y-90380047D01*
X186000047Y-90219139D01*
X186130568Y-90032734D01*
X186226739Y-89826496D01*
X186285635Y-89606692D01*
X186305468Y-89380000D01*
X186285635Y-89153308D01*
X186226739Y-88933504D01*
X186130568Y-88727266D01*
X186032839Y-88587693D01*
X186000045Y-88540858D01*
X185839141Y-88379954D01*
X185652734Y-88249432D01*
X185652728Y-88249429D01*
X185594725Y-88222382D01*
X185542285Y-88176210D01*
X185523133Y-88109017D01*
X185543348Y-88042135D01*
X185594725Y-87997618D01*
X185652734Y-87970568D01*
X185839139Y-87840047D01*
X186000047Y-87679139D01*
X186130568Y-87492734D01*
X186226739Y-87286496D01*
X186285635Y-87066692D01*
X186305468Y-86840000D01*
X186285635Y-86613308D01*
X186235178Y-86424998D01*
X186226741Y-86393511D01*
X186226738Y-86393502D01*
X186202531Y-86341590D01*
X186130568Y-86187266D01*
X186000047Y-86000861D01*
X186000045Y-86000858D01*
X185839141Y-85839954D01*
X185652734Y-85709432D01*
X185652728Y-85709429D01*
X185594725Y-85682382D01*
X185542285Y-85636210D01*
X185523133Y-85569017D01*
X185543348Y-85502135D01*
X185594725Y-85457618D01*
X185652734Y-85430568D01*
X185839139Y-85300047D01*
X186000047Y-85139139D01*
X186130568Y-84952734D01*
X186226739Y-84746496D01*
X186285635Y-84526692D01*
X186305468Y-84300000D01*
X186285635Y-84073308D01*
X186226739Y-83853504D01*
X186130568Y-83647266D01*
X186000047Y-83460861D01*
X186000045Y-83460858D01*
X185839141Y-83299954D01*
X185652734Y-83169432D01*
X185652728Y-83169429D01*
X185594725Y-83142382D01*
X185542285Y-83096210D01*
X185523133Y-83029017D01*
X185543348Y-82962135D01*
X185594725Y-82917618D01*
X185652734Y-82890568D01*
X185839139Y-82760047D01*
X186000047Y-82599139D01*
X186130568Y-82412734D01*
X186197127Y-82269998D01*
X189354532Y-82269998D01*
X189354532Y-82270001D01*
X189374364Y-82496686D01*
X189374366Y-82496697D01*
X189433258Y-82716488D01*
X189433261Y-82716497D01*
X189529431Y-82922732D01*
X189529432Y-82922734D01*
X189659954Y-83109141D01*
X189820858Y-83270045D01*
X189820861Y-83270047D01*
X190007266Y-83400568D01*
X190213504Y-83496739D01*
X190213509Y-83496740D01*
X190213511Y-83496741D01*
X190357136Y-83535225D01*
X190416797Y-83571590D01*
X190447326Y-83634437D01*
X190439031Y-83703812D01*
X190394546Y-83757690D01*
X190357136Y-83774775D01*
X190213511Y-83813258D01*
X190213502Y-83813261D01*
X190007267Y-83909431D01*
X190007265Y-83909432D01*
X189820858Y-84039954D01*
X189659954Y-84200858D01*
X189529432Y-84387265D01*
X189529431Y-84387267D01*
X189433261Y-84593502D01*
X189433258Y-84593511D01*
X189374366Y-84813302D01*
X189374364Y-84813313D01*
X189354532Y-85039998D01*
X189354532Y-85040001D01*
X189374364Y-85266686D01*
X189374366Y-85266697D01*
X189433258Y-85486488D01*
X189433261Y-85486497D01*
X189529431Y-85692732D01*
X189529432Y-85692734D01*
X189659954Y-85879141D01*
X189820858Y-86040045D01*
X189820861Y-86040047D01*
X190007266Y-86170568D01*
X190213504Y-86266739D01*
X190213509Y-86266740D01*
X190213511Y-86266741D01*
X190357136Y-86305225D01*
X190416797Y-86341590D01*
X190447326Y-86404437D01*
X190439031Y-86473812D01*
X190394546Y-86527690D01*
X190357136Y-86544775D01*
X190213511Y-86583258D01*
X190213502Y-86583261D01*
X190007267Y-86679431D01*
X190007265Y-86679432D01*
X189820858Y-86809954D01*
X189659954Y-86970858D01*
X189529432Y-87157265D01*
X189529431Y-87157267D01*
X189433261Y-87363502D01*
X189433258Y-87363511D01*
X189374366Y-87583302D01*
X189374364Y-87583313D01*
X189354532Y-87809998D01*
X189354532Y-87810001D01*
X189374364Y-88036686D01*
X189374366Y-88036697D01*
X189433258Y-88256488D01*
X189433261Y-88256497D01*
X189529431Y-88462732D01*
X189529432Y-88462734D01*
X189659954Y-88649141D01*
X189820858Y-88810045D01*
X189826052Y-88813682D01*
X190007266Y-88940568D01*
X190213504Y-89036739D01*
X190213509Y-89036740D01*
X190213511Y-89036741D01*
X190357136Y-89075225D01*
X190416797Y-89111590D01*
X190447326Y-89174437D01*
X190439031Y-89243812D01*
X190394546Y-89297690D01*
X190357136Y-89314775D01*
X190213511Y-89353258D01*
X190213502Y-89353261D01*
X190007267Y-89449431D01*
X190007265Y-89449432D01*
X189820858Y-89579954D01*
X189659954Y-89740858D01*
X189529432Y-89927265D01*
X189529431Y-89927267D01*
X189433261Y-90133502D01*
X189433258Y-90133511D01*
X189374366Y-90353302D01*
X189374364Y-90353313D01*
X189354532Y-90579998D01*
X189354532Y-90580001D01*
X189374364Y-90806686D01*
X189374366Y-90806697D01*
X189433258Y-91026488D01*
X189433261Y-91026497D01*
X189529431Y-91232732D01*
X189529432Y-91232734D01*
X189659954Y-91419141D01*
X189820858Y-91580045D01*
X189820861Y-91580047D01*
X190007266Y-91710568D01*
X190213504Y-91806739D01*
X190213509Y-91806740D01*
X190213511Y-91806741D01*
X190253657Y-91817498D01*
X190433308Y-91865635D01*
X190595230Y-91879801D01*
X190659998Y-91885468D01*
X190660000Y-91885468D01*
X190660002Y-91885468D01*
X190716673Y-91880509D01*
X190886692Y-91865635D01*
X191106496Y-91806739D01*
X191312734Y-91710568D01*
X191499139Y-91580047D01*
X191660047Y-91419139D01*
X191790568Y-91232734D01*
X191886739Y-91026496D01*
X191945635Y-90806692D01*
X191965468Y-90580000D01*
X191964878Y-90573261D01*
X191958510Y-90500468D01*
X191945635Y-90353308D01*
X191886739Y-90133504D01*
X191790568Y-89927266D01*
X191660047Y-89740861D01*
X191660045Y-89740858D01*
X191499141Y-89579954D01*
X191312734Y-89449432D01*
X191312732Y-89449431D01*
X191106497Y-89353261D01*
X191106488Y-89353258D01*
X190983966Y-89320429D01*
X190962862Y-89314774D01*
X190903202Y-89278410D01*
X190872673Y-89215563D01*
X190880968Y-89146188D01*
X190925453Y-89092310D01*
X190962862Y-89075225D01*
X191106496Y-89036739D01*
X191312734Y-88940568D01*
X191499139Y-88810047D01*
X191660047Y-88649139D01*
X191790568Y-88462734D01*
X191886739Y-88256496D01*
X191945635Y-88036692D01*
X191965468Y-87810000D01*
X191961297Y-87762331D01*
X191954049Y-87679480D01*
X191945635Y-87583308D01*
X191886739Y-87363504D01*
X191790568Y-87157266D01*
X191660047Y-86970861D01*
X191660045Y-86970858D01*
X191499141Y-86809954D01*
X191312734Y-86679432D01*
X191312732Y-86679431D01*
X191106497Y-86583261D01*
X191106488Y-86583258D01*
X190983966Y-86550429D01*
X190962862Y-86544774D01*
X190903202Y-86508410D01*
X190872673Y-86445563D01*
X190880968Y-86376188D01*
X190925453Y-86322310D01*
X190962862Y-86305225D01*
X191106496Y-86266739D01*
X191312734Y-86170568D01*
X191499139Y-86040047D01*
X191660047Y-85879139D01*
X191790568Y-85692734D01*
X191886739Y-85486496D01*
X191945635Y-85266692D01*
X191965468Y-85040000D01*
X191965235Y-85037341D01*
X191945635Y-84813313D01*
X191945635Y-84813308D01*
X191886739Y-84593504D01*
X191790568Y-84387266D01*
X191660047Y-84200861D01*
X191660045Y-84200858D01*
X191499141Y-84039954D01*
X191312734Y-83909432D01*
X191312732Y-83909431D01*
X191106497Y-83813261D01*
X191106488Y-83813258D01*
X190983966Y-83780429D01*
X190962862Y-83774774D01*
X190903202Y-83738410D01*
X190872673Y-83675563D01*
X190880968Y-83606188D01*
X190925453Y-83552310D01*
X190962862Y-83535225D01*
X191106496Y-83496739D01*
X191312734Y-83400568D01*
X191499139Y-83270047D01*
X191660047Y-83109139D01*
X191790568Y-82922734D01*
X191886739Y-82716496D01*
X191945635Y-82496692D01*
X191965468Y-82270000D01*
X191961197Y-82221188D01*
X191945635Y-82043313D01*
X191945635Y-82043308D01*
X191897134Y-81862298D01*
X191886741Y-81823511D01*
X191886738Y-81823502D01*
X191855816Y-81757190D01*
X191790568Y-81617266D01*
X191660047Y-81430861D01*
X191660045Y-81430858D01*
X191499141Y-81269954D01*
X191312734Y-81139432D01*
X191312732Y-81139431D01*
X191106497Y-81043261D01*
X191101402Y-81041407D01*
X191102159Y-81039325D01*
X191050617Y-81007908D01*
X191020088Y-80945061D01*
X191027270Y-80884998D01*
X192194532Y-80884998D01*
X192194532Y-80885001D01*
X192214364Y-81111686D01*
X192214366Y-81111697D01*
X192273258Y-81331488D01*
X192273261Y-81331497D01*
X192369431Y-81537732D01*
X192369432Y-81537734D01*
X192499954Y-81724141D01*
X192660858Y-81885045D01*
X192660861Y-81885047D01*
X192847266Y-82015568D01*
X193053504Y-82111739D01*
X193053509Y-82111740D01*
X193053511Y-82111741D01*
X193197136Y-82150225D01*
X193256797Y-82186590D01*
X193287326Y-82249437D01*
X193279031Y-82318812D01*
X193234546Y-82372690D01*
X193197136Y-82389775D01*
X193053511Y-82428258D01*
X193053502Y-82428261D01*
X192847267Y-82524431D01*
X192847265Y-82524432D01*
X192660858Y-82654954D01*
X192499954Y-82815858D01*
X192369432Y-83002265D01*
X192369431Y-83002267D01*
X192273261Y-83208502D01*
X192273258Y-83208511D01*
X192214366Y-83428302D01*
X192214364Y-83428313D01*
X192194532Y-83654998D01*
X192194532Y-83655001D01*
X192214364Y-83881686D01*
X192214366Y-83881697D01*
X192273258Y-84101488D01*
X192273261Y-84101497D01*
X192369431Y-84307732D01*
X192369432Y-84307734D01*
X192499954Y-84494141D01*
X192660858Y-84655045D01*
X192660861Y-84655047D01*
X192847266Y-84785568D01*
X193053504Y-84881739D01*
X193053509Y-84881740D01*
X193053511Y-84881741D01*
X193197136Y-84920225D01*
X193256797Y-84956590D01*
X193287326Y-85019437D01*
X193279031Y-85088812D01*
X193234546Y-85142690D01*
X193197136Y-85159775D01*
X193053511Y-85198258D01*
X193053502Y-85198261D01*
X192847267Y-85294431D01*
X192847265Y-85294432D01*
X192660858Y-85424954D01*
X192499954Y-85585858D01*
X192369432Y-85772265D01*
X192369431Y-85772267D01*
X192273261Y-85978502D01*
X192273258Y-85978511D01*
X192214366Y-86198302D01*
X192214364Y-86198313D01*
X192194532Y-86424998D01*
X192194532Y-86425001D01*
X192214364Y-86651686D01*
X192214366Y-86651697D01*
X192273258Y-86871488D01*
X192273261Y-86871497D01*
X192369431Y-87077732D01*
X192369432Y-87077734D01*
X192499954Y-87264141D01*
X192660858Y-87425045D01*
X192660861Y-87425047D01*
X192847266Y-87555568D01*
X193053504Y-87651739D01*
X193053509Y-87651740D01*
X193053511Y-87651741D01*
X193197136Y-87690225D01*
X193256797Y-87726590D01*
X193287326Y-87789437D01*
X193279031Y-87858812D01*
X193234546Y-87912690D01*
X193197136Y-87929775D01*
X193053511Y-87968258D01*
X193053502Y-87968261D01*
X192847267Y-88064431D01*
X192847265Y-88064432D01*
X192660858Y-88194954D01*
X192499954Y-88355858D01*
X192369432Y-88542265D01*
X192369431Y-88542267D01*
X192273261Y-88748502D01*
X192273258Y-88748511D01*
X192214366Y-88968302D01*
X192214364Y-88968313D01*
X192194532Y-89194998D01*
X192194532Y-89195001D01*
X192214364Y-89421686D01*
X192214366Y-89421697D01*
X192273258Y-89641488D01*
X192273261Y-89641497D01*
X192369431Y-89847732D01*
X192369432Y-89847734D01*
X192499954Y-90034141D01*
X192660858Y-90195045D01*
X192660861Y-90195047D01*
X192847266Y-90325568D01*
X193053504Y-90421739D01*
X193273308Y-90480635D01*
X193432151Y-90494532D01*
X193499998Y-90500468D01*
X193500000Y-90500468D01*
X193500002Y-90500468D01*
X193556673Y-90495509D01*
X193726692Y-90480635D01*
X193946496Y-90421739D01*
X194152734Y-90325568D01*
X194339139Y-90195047D01*
X194500047Y-90034139D01*
X194630568Y-89847734D01*
X194726739Y-89641496D01*
X194785635Y-89421692D01*
X194803978Y-89212033D01*
X194805468Y-89195001D01*
X194805468Y-89194998D01*
X194796198Y-89089046D01*
X194785635Y-88968308D01*
X194726739Y-88748504D01*
X194630568Y-88542266D01*
X194500047Y-88355861D01*
X194500045Y-88355858D01*
X194339141Y-88194954D01*
X194152734Y-88064432D01*
X194152732Y-88064431D01*
X193946497Y-87968261D01*
X193946488Y-87968258D01*
X193823966Y-87935429D01*
X193802862Y-87929774D01*
X193743202Y-87893410D01*
X193712673Y-87830563D01*
X193720968Y-87761188D01*
X193765453Y-87707310D01*
X193802862Y-87690225D01*
X193946496Y-87651739D01*
X194152734Y-87555568D01*
X194339139Y-87425047D01*
X194500047Y-87264139D01*
X194630568Y-87077734D01*
X194726739Y-86871496D01*
X194785635Y-86651692D01*
X194805468Y-86425000D01*
X194802712Y-86393504D01*
X194792214Y-86273504D01*
X194785635Y-86198308D01*
X194726739Y-85978504D01*
X194630568Y-85772266D01*
X194519233Y-85613261D01*
X194500045Y-85585858D01*
X194339141Y-85424954D01*
X194152734Y-85294432D01*
X194152732Y-85294431D01*
X193946497Y-85198261D01*
X193946488Y-85198258D01*
X193809693Y-85161605D01*
X193802862Y-85159774D01*
X193743202Y-85123410D01*
X193712673Y-85060563D01*
X193720968Y-84991188D01*
X193765453Y-84937310D01*
X193802862Y-84920225D01*
X193946496Y-84881739D01*
X194152734Y-84785568D01*
X194339139Y-84655047D01*
X194500047Y-84494139D01*
X194630568Y-84307734D01*
X194726739Y-84101496D01*
X194785635Y-83881692D01*
X194805468Y-83655000D01*
X194804791Y-83647267D01*
X194788483Y-83460861D01*
X194785635Y-83428308D01*
X194726739Y-83208504D01*
X194630568Y-83002266D01*
X194500047Y-82815861D01*
X194500045Y-82815858D01*
X194339141Y-82654954D01*
X194152734Y-82524432D01*
X194152732Y-82524431D01*
X193946497Y-82428261D01*
X193946488Y-82428258D01*
X193823966Y-82395429D01*
X193802862Y-82389774D01*
X193743202Y-82353410D01*
X193712673Y-82290563D01*
X193720968Y-82221188D01*
X193765453Y-82167310D01*
X193802862Y-82150225D01*
X193946496Y-82111739D01*
X194152734Y-82015568D01*
X194339139Y-81885047D01*
X194500047Y-81724139D01*
X194630568Y-81537734D01*
X194726739Y-81331496D01*
X194785635Y-81111692D01*
X194805468Y-80885000D01*
X194785635Y-80658308D01*
X194728946Y-80446739D01*
X194726741Y-80438511D01*
X194726738Y-80438502D01*
X194719106Y-80422135D01*
X194630568Y-80232266D01*
X194500047Y-80045861D01*
X194500045Y-80045858D01*
X194339141Y-79884954D01*
X194152734Y-79754432D01*
X194152732Y-79754431D01*
X193946497Y-79658261D01*
X193946488Y-79658258D01*
X193726697Y-79599366D01*
X193726693Y-79599365D01*
X193726692Y-79599365D01*
X193726691Y-79599364D01*
X193726686Y-79599364D01*
X193500002Y-79579532D01*
X193499998Y-79579532D01*
X193273313Y-79599364D01*
X193273302Y-79599366D01*
X193053511Y-79658258D01*
X193053502Y-79658261D01*
X192847267Y-79754431D01*
X192847265Y-79754432D01*
X192660858Y-79884954D01*
X192499954Y-80045858D01*
X192369432Y-80232265D01*
X192369431Y-80232267D01*
X192273261Y-80438502D01*
X192273258Y-80438511D01*
X192214366Y-80658302D01*
X192214364Y-80658313D01*
X192194532Y-80884998D01*
X191027270Y-80884998D01*
X191028383Y-80875686D01*
X191072869Y-80821808D01*
X191139421Y-80800534D01*
X191142352Y-80800499D01*
X191507872Y-80800499D01*
X191567483Y-80794091D01*
X191702331Y-80743796D01*
X191817546Y-80657546D01*
X191903796Y-80542331D01*
X191954091Y-80407483D01*
X191960500Y-80347873D01*
X191960499Y-78652128D01*
X191954091Y-78592517D01*
X191944673Y-78567267D01*
X191903797Y-78457671D01*
X191903793Y-78457664D01*
X191817547Y-78342455D01*
X191817544Y-78342452D01*
X191702335Y-78256206D01*
X191702328Y-78256202D01*
X191567482Y-78205908D01*
X191567483Y-78205908D01*
X191507883Y-78199501D01*
X191507881Y-78199500D01*
X191507873Y-78199500D01*
X191507864Y-78199500D01*
X189812129Y-78199500D01*
X189812123Y-78199501D01*
X189752516Y-78205908D01*
X189617671Y-78256202D01*
X189617664Y-78256206D01*
X189502455Y-78342452D01*
X189502452Y-78342455D01*
X189416206Y-78457664D01*
X189416202Y-78457671D01*
X189365908Y-78592517D01*
X189359501Y-78652116D01*
X189359501Y-78652123D01*
X189359500Y-78652135D01*
X189359501Y-80347862D01*
X189359501Y-80347876D01*
X189365908Y-80407483D01*
X189416202Y-80542328D01*
X189416206Y-80542335D01*
X189502452Y-80657544D01*
X189502455Y-80657547D01*
X189617664Y-80743793D01*
X189617671Y-80743797D01*
X189752517Y-80794091D01*
X189752516Y-80794091D01*
X189759444Y-80794835D01*
X189812127Y-80800500D01*
X190177628Y-80800499D01*
X190244665Y-80820183D01*
X190290420Y-80872987D01*
X190300364Y-80942146D01*
X190271339Y-81005701D01*
X190218063Y-81039939D01*
X190218598Y-81041407D01*
X190213502Y-81043261D01*
X190007267Y-81139431D01*
X190007265Y-81139432D01*
X189820858Y-81269954D01*
X189659954Y-81430858D01*
X189529432Y-81617265D01*
X189529431Y-81617267D01*
X189433261Y-81823502D01*
X189433258Y-81823511D01*
X189374366Y-82043302D01*
X189374364Y-82043313D01*
X189354532Y-82269998D01*
X186197127Y-82269998D01*
X186226739Y-82206496D01*
X186285635Y-81986692D01*
X186303111Y-81786936D01*
X186305468Y-81760001D01*
X186305468Y-81759998D01*
X186298160Y-81676468D01*
X186285635Y-81533308D01*
X186226739Y-81313504D01*
X186130568Y-81107266D01*
X186000047Y-80920861D01*
X186000045Y-80920858D01*
X185839141Y-80759954D01*
X185652734Y-80629432D01*
X185652728Y-80629429D01*
X185594725Y-80602382D01*
X185542285Y-80556210D01*
X185523133Y-80489017D01*
X185543348Y-80422135D01*
X185594725Y-80377618D01*
X185652734Y-80350568D01*
X185839139Y-80220047D01*
X186000047Y-80059139D01*
X186130568Y-79872734D01*
X186226739Y-79666496D01*
X186285635Y-79446692D01*
X186305468Y-79220000D01*
X186285635Y-78993308D01*
X186226739Y-78773504D01*
X186130568Y-78567266D01*
X186000047Y-78380861D01*
X186000045Y-78380858D01*
X185839141Y-78219954D01*
X185652734Y-78089432D01*
X185652728Y-78089429D01*
X185594725Y-78062382D01*
X185542285Y-78016210D01*
X185523133Y-77949017D01*
X185543348Y-77882135D01*
X185594725Y-77837618D01*
X185595319Y-77837341D01*
X185652734Y-77810568D01*
X185839139Y-77680047D01*
X186000047Y-77519139D01*
X186130568Y-77332734D01*
X186226739Y-77126496D01*
X186285635Y-76906692D01*
X186305468Y-76680000D01*
X186285635Y-76453308D01*
X186226739Y-76233504D01*
X186130568Y-76027266D01*
X186000047Y-75840861D01*
X186000045Y-75840858D01*
X185839141Y-75679954D01*
X185652734Y-75549432D01*
X185652728Y-75549429D01*
X185594725Y-75522382D01*
X185542285Y-75476210D01*
X185523133Y-75409017D01*
X185543348Y-75342135D01*
X185594725Y-75297618D01*
X185652734Y-75270568D01*
X185839139Y-75140047D01*
X186000047Y-74979139D01*
X186130568Y-74792734D01*
X186226739Y-74586496D01*
X186285635Y-74366692D01*
X186305468Y-74140000D01*
X186285635Y-73913308D01*
X186226739Y-73693504D01*
X186130568Y-73487266D01*
X186000047Y-73300861D01*
X186000045Y-73300858D01*
X185839141Y-73139954D01*
X185652734Y-73009432D01*
X185652732Y-73009431D01*
X185594725Y-72982382D01*
X185594132Y-72982105D01*
X185541694Y-72935934D01*
X185522542Y-72868740D01*
X185542758Y-72801859D01*
X185594134Y-72757341D01*
X185652484Y-72730132D01*
X185838820Y-72599657D01*
X185898483Y-72539994D01*
X189575057Y-72539994D01*
X189575057Y-72540005D01*
X189594807Y-72853942D01*
X189594808Y-72853949D01*
X189653755Y-73162958D01*
X189750963Y-73462132D01*
X189750965Y-73462137D01*
X189884900Y-73746761D01*
X189884903Y-73746767D01*
X190053457Y-74012367D01*
X190053460Y-74012371D01*
X190144286Y-74122160D01*
X190785748Y-73480698D01*
X190859588Y-73582330D01*
X191037670Y-73760412D01*
X191139300Y-73834250D01*
X190494971Y-74478579D01*
X190494972Y-74478581D01*
X190737772Y-74654985D01*
X190737790Y-74654996D01*
X191013447Y-74806540D01*
X191013455Y-74806544D01*
X191305926Y-74922340D01*
X191610620Y-75000573D01*
X191610629Y-75000575D01*
X191922701Y-75039999D01*
X191922715Y-75040000D01*
X192237285Y-75040000D01*
X192237298Y-75039999D01*
X192549370Y-75000575D01*
X192549379Y-75000573D01*
X192854073Y-74922340D01*
X193146544Y-74806544D01*
X193146552Y-74806540D01*
X193422209Y-74654996D01*
X193422219Y-74654990D01*
X193665026Y-74478579D01*
X193665027Y-74478579D01*
X193020698Y-73834251D01*
X193122330Y-73760412D01*
X193300412Y-73582330D01*
X193374251Y-73480699D01*
X194015712Y-74122160D01*
X194106544Y-74012364D01*
X194275096Y-73746767D01*
X194275099Y-73746761D01*
X194409034Y-73462137D01*
X194409036Y-73462132D01*
X194506244Y-73162958D01*
X194565191Y-72853949D01*
X194565192Y-72853942D01*
X194584943Y-72540005D01*
X194584943Y-72539994D01*
X194565192Y-72226057D01*
X194565191Y-72226050D01*
X194506244Y-71917041D01*
X194409036Y-71617867D01*
X194409034Y-71617862D01*
X194275099Y-71333238D01*
X194275096Y-71333232D01*
X194106542Y-71067632D01*
X194106539Y-71067628D01*
X194015712Y-70957838D01*
X193374250Y-71599299D01*
X193300412Y-71497670D01*
X193122330Y-71319588D01*
X193020698Y-71245748D01*
X193665027Y-70601419D01*
X193665026Y-70601417D01*
X193422227Y-70425014D01*
X193422209Y-70425003D01*
X193146552Y-70273459D01*
X193146544Y-70273455D01*
X192854073Y-70157659D01*
X192549379Y-70079426D01*
X192549370Y-70079424D01*
X192237298Y-70040000D01*
X191922701Y-70040000D01*
X191610629Y-70079424D01*
X191610620Y-70079426D01*
X191305926Y-70157659D01*
X191013455Y-70273455D01*
X191013447Y-70273459D01*
X190737787Y-70425004D01*
X190737782Y-70425007D01*
X190494972Y-70601418D01*
X190494971Y-70601419D01*
X191139301Y-71245748D01*
X191037670Y-71319588D01*
X190859588Y-71497670D01*
X190785748Y-71599300D01*
X190144286Y-70957838D01*
X190144285Y-70957838D01*
X190053459Y-71067629D01*
X190053457Y-71067632D01*
X189884903Y-71333232D01*
X189884900Y-71333238D01*
X189750965Y-71617862D01*
X189750963Y-71617867D01*
X189653755Y-71917041D01*
X189594808Y-72226050D01*
X189594807Y-72226057D01*
X189575057Y-72539994D01*
X185898483Y-72539994D01*
X185999657Y-72438820D01*
X186130134Y-72252482D01*
X186226265Y-72046326D01*
X186226269Y-72046317D01*
X186278872Y-71850000D01*
X185433012Y-71850000D01*
X185465925Y-71792993D01*
X185500000Y-71665826D01*
X185500000Y-71534174D01*
X185465925Y-71407007D01*
X185433012Y-71350000D01*
X186278872Y-71350000D01*
X186278872Y-71349999D01*
X186226269Y-71153682D01*
X186226265Y-71153673D01*
X186130134Y-70947517D01*
X185999657Y-70761179D01*
X185838820Y-70600342D01*
X185652482Y-70469865D01*
X185594133Y-70442657D01*
X185541694Y-70396484D01*
X185522542Y-70329291D01*
X185542758Y-70262410D01*
X185594129Y-70217895D01*
X185652734Y-70190568D01*
X185839139Y-70060047D01*
X186000047Y-69899139D01*
X186130568Y-69712734D01*
X186226739Y-69506496D01*
X186285635Y-69286692D01*
X186305468Y-69060000D01*
X186285635Y-68833308D01*
X186226739Y-68613504D01*
X186130568Y-68407266D01*
X186000047Y-68220861D01*
X186000045Y-68220858D01*
X185839141Y-68059954D01*
X185652734Y-67929432D01*
X185652732Y-67929431D01*
X185446497Y-67833261D01*
X185446488Y-67833258D01*
X185226697Y-67774366D01*
X185226693Y-67774365D01*
X185226692Y-67774365D01*
X185226691Y-67774364D01*
X185226686Y-67774364D01*
X185000002Y-67754532D01*
X184999998Y-67754532D01*
X184773313Y-67774364D01*
X184773302Y-67774366D01*
X184553511Y-67833258D01*
X184553502Y-67833261D01*
X184347267Y-67929431D01*
X184347265Y-67929432D01*
X184160858Y-68059954D01*
X183999954Y-68220858D01*
X183869432Y-68407265D01*
X183869431Y-68407267D01*
X183773261Y-68613502D01*
X183773258Y-68613511D01*
X183714366Y-68833302D01*
X183714364Y-68833313D01*
X183694532Y-69059998D01*
X183100500Y-69059998D01*
X183100500Y-66800098D01*
X183120185Y-66733059D01*
X183136819Y-66712416D01*
X183212418Y-66636818D01*
X183273742Y-66603334D01*
X183300099Y-66600500D01*
X186856587Y-66600500D01*
X186923626Y-66620185D01*
X186969381Y-66672989D01*
X186972004Y-66679171D01*
X186990711Y-66726835D01*
X187115898Y-66943665D01*
X187241981Y-67101768D01*
X187272006Y-67139418D01*
X187445264Y-67300177D01*
X187455540Y-67309712D01*
X187662408Y-67450752D01*
X187662413Y-67450754D01*
X187662414Y-67450755D01*
X187662415Y-67450756D01*
X187782218Y-67508449D01*
X187887983Y-67559383D01*
X187887984Y-67559383D01*
X187887987Y-67559385D01*
X188127236Y-67633184D01*
X188127237Y-67633184D01*
X188127240Y-67633185D01*
X188374805Y-67670499D01*
X188374810Y-67670499D01*
X188374813Y-67670500D01*
X188374814Y-67670500D01*
X188625186Y-67670500D01*
X188625187Y-67670500D01*
X188625194Y-67670499D01*
X188872759Y-67633185D01*
X188872760Y-67633184D01*
X188872764Y-67633184D01*
X189112013Y-67559385D01*
X189337592Y-67450752D01*
X189544460Y-67309712D01*
X189727997Y-67139414D01*
X189884102Y-66943665D01*
X190009289Y-66726835D01*
X190100760Y-66493769D01*
X190156474Y-66249673D01*
X190157024Y-66242331D01*
X190175184Y-66000004D01*
X190175184Y-65999995D01*
X190156475Y-65750336D01*
X190156474Y-65750331D01*
X190156474Y-65750327D01*
X190100760Y-65506231D01*
X190057770Y-65396695D01*
X190051602Y-65327102D01*
X190084040Y-65265218D01*
X190085458Y-65263775D01*
X191328506Y-64020728D01*
X191328511Y-64020724D01*
X191338714Y-64010520D01*
X191338716Y-64010520D01*
X191450520Y-63898716D01*
X191529577Y-63761784D01*
X191570500Y-63609057D01*
X191570500Y-59390943D01*
X191529577Y-59238215D01*
X191500639Y-59188095D01*
X191450520Y-59101284D01*
X191338716Y-58989480D01*
X191338715Y-58989479D01*
X191334385Y-58985149D01*
X191334374Y-58985139D01*
X189294323Y-56945088D01*
X189260838Y-56883765D01*
X189265822Y-56814073D01*
X189307694Y-56758140D01*
X189373158Y-56733723D01*
X189434407Y-56745024D01*
X189496337Y-56773903D01*
X189724592Y-56835063D01*
X189895319Y-56850000D01*
X189965394Y-56856131D01*
X189965175Y-56858628D01*
X190022101Y-56875344D01*
X190042743Y-56891978D01*
X196806381Y-63655616D01*
X196839866Y-63716939D01*
X196842353Y-63734025D01*
X196843526Y-63749673D01*
X196897565Y-63986433D01*
X196899240Y-63993769D01*
X196990711Y-64226835D01*
X197115898Y-64443665D01*
X197200094Y-64549243D01*
X197272006Y-64639418D01*
X197445264Y-64800177D01*
X197455540Y-64809712D01*
X197662408Y-64950752D01*
X197662413Y-64950754D01*
X197662414Y-64950755D01*
X197662415Y-64950756D01*
X197782218Y-65008449D01*
X197887983Y-65059383D01*
X197887984Y-65059383D01*
X197887987Y-65059385D01*
X198127236Y-65133184D01*
X198127237Y-65133184D01*
X198127240Y-65133185D01*
X198374805Y-65170499D01*
X198374810Y-65170499D01*
X198374813Y-65170500D01*
X198374814Y-65170500D01*
X198625186Y-65170500D01*
X198625187Y-65170500D01*
X198625194Y-65170499D01*
X198872759Y-65133185D01*
X198872760Y-65133184D01*
X198872764Y-65133184D01*
X199112013Y-65059385D01*
X199337592Y-64950752D01*
X199544460Y-64809712D01*
X199686895Y-64677550D01*
X199727993Y-64639418D01*
X199727993Y-64639416D01*
X199727997Y-64639414D01*
X199884102Y-64443665D01*
X200009289Y-64226835D01*
X200100760Y-63993769D01*
X200156474Y-63749673D01*
X200158927Y-63716939D01*
X200175184Y-63500004D01*
X200175184Y-63499995D01*
X200156475Y-63250336D01*
X200156474Y-63250331D01*
X200156474Y-63250327D01*
X200100760Y-63006231D01*
X200009289Y-62773165D01*
X199884102Y-62556335D01*
X199727997Y-62360586D01*
X199727996Y-62360585D01*
X199727993Y-62360581D01*
X199544460Y-62190288D01*
X199337592Y-62049248D01*
X199337588Y-62049246D01*
X199337585Y-62049244D01*
X199337584Y-62049243D01*
X199119034Y-61943996D01*
X199112015Y-61940616D01*
X199112017Y-61940616D01*
X198872765Y-61866816D01*
X198872759Y-61866814D01*
X198625194Y-61829500D01*
X198625187Y-61829500D01*
X198374813Y-61829500D01*
X198374805Y-61829500D01*
X198127240Y-61866814D01*
X198127234Y-61866816D01*
X197887983Y-61940616D01*
X197662415Y-62049243D01*
X197662414Y-62049244D01*
X197455539Y-62190288D01*
X197327308Y-62309269D01*
X197264775Y-62340437D01*
X197195319Y-62332850D01*
X197155286Y-62306051D01*
X191910916Y-57061681D01*
X191877431Y-57000358D01*
X191882415Y-56930666D01*
X191924287Y-56874733D01*
X191989751Y-56850316D01*
X191998597Y-56850000D01*
X192250000Y-56850000D01*
X192250000Y-55933012D01*
X192307007Y-55965925D01*
X192434174Y-56000000D01*
X192565826Y-56000000D01*
X192692993Y-55965925D01*
X192750000Y-55933012D01*
X192750000Y-56850000D01*
X193397828Y-56850000D01*
X193397844Y-56849999D01*
X193457372Y-56843598D01*
X193457379Y-56843596D01*
X193592086Y-56793354D01*
X193592093Y-56793350D01*
X193707187Y-56707190D01*
X193707190Y-56707187D01*
X193793350Y-56592093D01*
X193793354Y-56592086D01*
X193843596Y-56457379D01*
X193843598Y-56457372D01*
X193849999Y-56397844D01*
X193850000Y-56397827D01*
X193850000Y-55750000D01*
X192933012Y-55750000D01*
X192965925Y-55692993D01*
X193000000Y-55565826D01*
X193000000Y-55434174D01*
X192965925Y-55307007D01*
X192933012Y-55250000D01*
X193850000Y-55250000D01*
X193850000Y-54878711D01*
X196149500Y-54878711D01*
X196149500Y-55121288D01*
X196181161Y-55361785D01*
X196243947Y-55596104D01*
X196307693Y-55750000D01*
X196336776Y-55820212D01*
X196458064Y-56030289D01*
X196458066Y-56030292D01*
X196458067Y-56030293D01*
X196605733Y-56222736D01*
X196605739Y-56222743D01*
X196777256Y-56394260D01*
X196777263Y-56394266D01*
X196830335Y-56434989D01*
X196969711Y-56541936D01*
X197179788Y-56663224D01*
X197403900Y-56756054D01*
X197638211Y-56818838D01*
X197818586Y-56842584D01*
X197878711Y-56850500D01*
X197878712Y-56850500D01*
X198121289Y-56850500D01*
X198173730Y-56843596D01*
X198361789Y-56818838D01*
X198596100Y-56756054D01*
X198820212Y-56663224D01*
X199030289Y-56541936D01*
X199222738Y-56394265D01*
X199394265Y-56222738D01*
X199541936Y-56030289D01*
X199663224Y-55820212D01*
X199756054Y-55596100D01*
X199818838Y-55361789D01*
X199850500Y-55121288D01*
X199850500Y-54878712D01*
X199818838Y-54638211D01*
X199756054Y-54403900D01*
X199663224Y-54179788D01*
X199541936Y-53969711D01*
X199394265Y-53777262D01*
X199394260Y-53777256D01*
X199222743Y-53605739D01*
X199222736Y-53605733D01*
X199030293Y-53458067D01*
X199030292Y-53458066D01*
X199030289Y-53458064D01*
X198820212Y-53336776D01*
X198820205Y-53336773D01*
X198596104Y-53243947D01*
X198361785Y-53181161D01*
X198121289Y-53149500D01*
X198121288Y-53149500D01*
X197878712Y-53149500D01*
X197878711Y-53149500D01*
X197638214Y-53181161D01*
X197403895Y-53243947D01*
X197179794Y-53336773D01*
X197179785Y-53336777D01*
X196969706Y-53458067D01*
X196777263Y-53605733D01*
X196777256Y-53605739D01*
X196605739Y-53777256D01*
X196605733Y-53777263D01*
X196458067Y-53969706D01*
X196336777Y-54179785D01*
X196336773Y-54179794D01*
X196243947Y-54403895D01*
X196181161Y-54638214D01*
X196149500Y-54878711D01*
X193850000Y-54878711D01*
X193850000Y-54602172D01*
X193849999Y-54602155D01*
X193843598Y-54542627D01*
X193843596Y-54542620D01*
X193793354Y-54407913D01*
X193793350Y-54407906D01*
X193707190Y-54292812D01*
X193707187Y-54292809D01*
X193592093Y-54206649D01*
X193592086Y-54206645D01*
X193457379Y-54156403D01*
X193457372Y-54156401D01*
X193397844Y-54150000D01*
X192750000Y-54150000D01*
X192750000Y-55066988D01*
X192692993Y-55034075D01*
X192565826Y-55000000D01*
X192434174Y-55000000D01*
X192307007Y-55034075D01*
X192250000Y-55066988D01*
X192250000Y-54150000D01*
X191602155Y-54150000D01*
X191542627Y-54156401D01*
X191542620Y-54156403D01*
X191407913Y-54206645D01*
X191407906Y-54206649D01*
X191292812Y-54292809D01*
X191292809Y-54292812D01*
X191206649Y-54407906D01*
X191206645Y-54407913D01*
X191157578Y-54539470D01*
X191115707Y-54595404D01*
X191050242Y-54619821D01*
X190981969Y-54604969D01*
X190953715Y-54583819D01*
X190909366Y-54539470D01*
X190831401Y-54461505D01*
X190831397Y-54461502D01*
X190831396Y-54461501D01*
X190637834Y-54325967D01*
X190637830Y-54325965D01*
X190615598Y-54315598D01*
X190423663Y-54226097D01*
X190423659Y-54226096D01*
X190423655Y-54226094D01*
X190195413Y-54164938D01*
X190195403Y-54164936D01*
X189960001Y-54144341D01*
X189959999Y-54144341D01*
X189724596Y-54164936D01*
X189724586Y-54164938D01*
X189496344Y-54226094D01*
X189496335Y-54226098D01*
X189282171Y-54325964D01*
X189282169Y-54325965D01*
X189088597Y-54461505D01*
X188921505Y-54628597D01*
X188791575Y-54814158D01*
X188736998Y-54857783D01*
X188667500Y-54864977D01*
X188605145Y-54833454D01*
X188588425Y-54814158D01*
X188458494Y-54628597D01*
X188291402Y-54461506D01*
X188291395Y-54461501D01*
X188097834Y-54325967D01*
X188097830Y-54325965D01*
X188075598Y-54315598D01*
X187883663Y-54226097D01*
X187883659Y-54226096D01*
X187883655Y-54226094D01*
X187655413Y-54164938D01*
X187655403Y-54164936D01*
X187420001Y-54144341D01*
X187419999Y-54144341D01*
X187184596Y-54164936D01*
X187184586Y-54164938D01*
X186956344Y-54226094D01*
X186956335Y-54226098D01*
X186742171Y-54325964D01*
X186742169Y-54325965D01*
X186548597Y-54461505D01*
X186381505Y-54628597D01*
X186245965Y-54822169D01*
X186245964Y-54822171D01*
X186146098Y-55036335D01*
X186146094Y-55036344D01*
X186084938Y-55264586D01*
X186084936Y-55264596D01*
X186064341Y-55499999D01*
X186064341Y-55500000D01*
X186084936Y-55735403D01*
X186084938Y-55735413D01*
X186146094Y-55963655D01*
X186146096Y-55963659D01*
X186146097Y-55963663D01*
X186209672Y-56100000D01*
X186245965Y-56177830D01*
X186245967Y-56177834D01*
X186331177Y-56299525D01*
X186381505Y-56371401D01*
X186548599Y-56538495D01*
X186561951Y-56547844D01*
X186742165Y-56674032D01*
X186742167Y-56674033D01*
X186742170Y-56674035D01*
X186956337Y-56773903D01*
X187184592Y-56835063D01*
X187420000Y-56855659D01*
X187441868Y-56853745D01*
X187510365Y-56867510D01*
X187540357Y-56889592D01*
X190333181Y-59682416D01*
X190366666Y-59743739D01*
X190369500Y-59770097D01*
X190369500Y-60585368D01*
X190349815Y-60652407D01*
X190297011Y-60698162D01*
X190227853Y-60708106D01*
X190164297Y-60679081D01*
X190126523Y-60620303D01*
X190124609Y-60612961D01*
X190100284Y-60506390D01*
X190100279Y-60506373D01*
X190008836Y-60273381D01*
X189883688Y-60056618D01*
X189883681Y-60056607D01*
X189845199Y-60008354D01*
X189845198Y-60008353D01*
X189101041Y-60752510D01*
X189076022Y-60692110D01*
X189004888Y-60585649D01*
X188914351Y-60495112D01*
X188807890Y-60423978D01*
X188747488Y-60398958D01*
X189491595Y-59654850D01*
X189337335Y-59549678D01*
X189337334Y-59549677D01*
X189111832Y-59441083D01*
X189111834Y-59441083D01*
X188872653Y-59367305D01*
X188872647Y-59367303D01*
X188625156Y-59330000D01*
X188374843Y-59330000D01*
X188127352Y-59367303D01*
X188127346Y-59367305D01*
X187888166Y-59441083D01*
X187662664Y-59549679D01*
X187662651Y-59549686D01*
X187508403Y-59654849D01*
X188252512Y-60398958D01*
X188192110Y-60423978D01*
X188085649Y-60495112D01*
X187995112Y-60585649D01*
X187923978Y-60692110D01*
X187898958Y-60752512D01*
X187154800Y-60008354D01*
X187116311Y-60056617D01*
X186991163Y-60273381D01*
X186899720Y-60506373D01*
X186899714Y-60506392D01*
X186844021Y-60750400D01*
X186844021Y-60750402D01*
X186825317Y-60999995D01*
X186825317Y-61000004D01*
X186844021Y-61249597D01*
X186844021Y-61249599D01*
X186899714Y-61493607D01*
X186899720Y-61493626D01*
X186991163Y-61726618D01*
X187116311Y-61943381D01*
X187116318Y-61943392D01*
X187154799Y-61991645D01*
X187154800Y-61991645D01*
X187898958Y-61247487D01*
X187923978Y-61307890D01*
X187995112Y-61414351D01*
X188085649Y-61504888D01*
X188192110Y-61576022D01*
X188252511Y-61601041D01*
X187508403Y-62345148D01*
X187662658Y-62450317D01*
X187662666Y-62450322D01*
X187888167Y-62558916D01*
X187888165Y-62558916D01*
X188127346Y-62632694D01*
X188127352Y-62632696D01*
X188374843Y-62669999D01*
X188374852Y-62670000D01*
X188625148Y-62670000D01*
X188625156Y-62669999D01*
X188872647Y-62632696D01*
X188872653Y-62632694D01*
X189111833Y-62558916D01*
X189337334Y-62450322D01*
X189337344Y-62450315D01*
X189491595Y-62345148D01*
X188747489Y-61601041D01*
X188807890Y-61576022D01*
X188914351Y-61504888D01*
X189004888Y-61414351D01*
X189076022Y-61307890D01*
X189101041Y-61247488D01*
X189845197Y-61991645D01*
X189845198Y-61991644D01*
X189883690Y-61943379D01*
X190008836Y-61726618D01*
X190100279Y-61493626D01*
X190100285Y-61493607D01*
X190124609Y-61387039D01*
X190158717Y-61326060D01*
X190220379Y-61293202D01*
X190290016Y-61298897D01*
X190345520Y-61341337D01*
X190369268Y-61407047D01*
X190369500Y-61414631D01*
X190369500Y-63229902D01*
X190349815Y-63296941D01*
X190333181Y-63317583D01*
X189239847Y-64410916D01*
X189178524Y-64444401D01*
X189115616Y-64441726D01*
X188872765Y-64366816D01*
X188872759Y-64366814D01*
X188625194Y-64329500D01*
X188625187Y-64329500D01*
X188374813Y-64329500D01*
X188374805Y-64329500D01*
X188127240Y-64366814D01*
X188127234Y-64366816D01*
X187887983Y-64440616D01*
X187662415Y-64549243D01*
X187662414Y-64549244D01*
X187455539Y-64690288D01*
X187272006Y-64860581D01*
X187115898Y-65056335D01*
X186990714Y-65273158D01*
X186990711Y-65273163D01*
X186990711Y-65273165D01*
X186972014Y-65320804D01*
X186929200Y-65376016D01*
X186863330Y-65399317D01*
X186856587Y-65399500D01*
X183086670Y-65399500D01*
X183086654Y-65399499D01*
X183079058Y-65399499D01*
X182920943Y-65399499D01*
X182844579Y-65419961D01*
X182768214Y-65440423D01*
X182768209Y-65440426D01*
X182631290Y-65519475D01*
X182631282Y-65519481D01*
X182124217Y-66026546D01*
X182124214Y-66026548D01*
X182124215Y-66026549D01*
X182019478Y-66131286D01*
X181969361Y-66218094D01*
X181969359Y-66218096D01*
X181940425Y-66268209D01*
X181940424Y-66268210D01*
X181940423Y-66268215D01*
X181899499Y-66420943D01*
X181899499Y-66420945D01*
X181899499Y-66589046D01*
X181899500Y-66589059D01*
X181899500Y-95699903D01*
X181879815Y-95766942D01*
X181863181Y-95787584D01*
X171287584Y-106363181D01*
X171226261Y-106396666D01*
X171199903Y-106399500D01*
X166300097Y-106399500D01*
X166233058Y-106379815D01*
X166212416Y-106363181D01*
X164791941Y-104942706D01*
X164758456Y-104881383D01*
X164759847Y-104822931D01*
X164760611Y-104820080D01*
X164785635Y-104726692D01*
X164805468Y-104500000D01*
X164785635Y-104273308D01*
X164758893Y-104173504D01*
X164754362Y-104156593D01*
X164756025Y-104086743D01*
X164795188Y-104028881D01*
X164859417Y-104001377D01*
X164874137Y-104000500D01*
X168239903Y-104000500D01*
X168306942Y-104020185D01*
X168327584Y-104036819D01*
X168468058Y-104177293D01*
X168501543Y-104238616D01*
X168500152Y-104297067D01*
X168474366Y-104393302D01*
X168474364Y-104393313D01*
X168454532Y-104619998D01*
X168454532Y-104620001D01*
X168474364Y-104846686D01*
X168474366Y-104846697D01*
X168533258Y-105066488D01*
X168533261Y-105066497D01*
X168629431Y-105272732D01*
X168629432Y-105272734D01*
X168759954Y-105459141D01*
X168920858Y-105620045D01*
X168920861Y-105620047D01*
X169107266Y-105750568D01*
X169313504Y-105846739D01*
X169533308Y-105905635D01*
X169695230Y-105919801D01*
X169759998Y-105925468D01*
X169760000Y-105925468D01*
X169760002Y-105925468D01*
X169816673Y-105920509D01*
X169986692Y-105905635D01*
X170206496Y-105846739D01*
X170412734Y-105750568D01*
X170599139Y-105620047D01*
X170760047Y-105459139D01*
X170890568Y-105272734D01*
X170986739Y-105066496D01*
X171045635Y-104846692D01*
X171062634Y-104652384D01*
X171065468Y-104620001D01*
X171065468Y-104619998D01*
X171050362Y-104447339D01*
X171045635Y-104393308D01*
X170988458Y-104179920D01*
X170986741Y-104173511D01*
X170986738Y-104173502D01*
X170939868Y-104072989D01*
X170890568Y-103967266D01*
X170760047Y-103780861D01*
X170760045Y-103780858D01*
X170599141Y-103619954D01*
X170412734Y-103489432D01*
X170412728Y-103489429D01*
X170354725Y-103462382D01*
X170302285Y-103416210D01*
X170283133Y-103349017D01*
X170303348Y-103282135D01*
X170354725Y-103237618D01*
X170412734Y-103210568D01*
X170599139Y-103080047D01*
X170760047Y-102919139D01*
X170890568Y-102732734D01*
X170986739Y-102526496D01*
X171045635Y-102306692D01*
X171065468Y-102080000D01*
X171045635Y-101853308D01*
X170986739Y-101633504D01*
X170890568Y-101427266D01*
X170760047Y-101240861D01*
X170760045Y-101240858D01*
X170599141Y-101079954D01*
X170412734Y-100949432D01*
X170412728Y-100949429D01*
X170354725Y-100922382D01*
X170302285Y-100876210D01*
X170283133Y-100809017D01*
X170303348Y-100742135D01*
X170354725Y-100697618D01*
X170368364Y-100691258D01*
X170412734Y-100670568D01*
X170599139Y-100540047D01*
X170760047Y-100379139D01*
X170890568Y-100192734D01*
X170986739Y-99986496D01*
X171045635Y-99766692D01*
X171065468Y-99540000D01*
X171045635Y-99313308D01*
X170988641Y-99100603D01*
X170986741Y-99093511D01*
X170986738Y-99093502D01*
X170890568Y-98887266D01*
X170760047Y-98700861D01*
X170760045Y-98700858D01*
X170599141Y-98539954D01*
X170412734Y-98409432D01*
X170412728Y-98409429D01*
X170354725Y-98382382D01*
X170302285Y-98336210D01*
X170283133Y-98269017D01*
X170303348Y-98202135D01*
X170354725Y-98157618D01*
X170362083Y-98154187D01*
X170412734Y-98130568D01*
X170599139Y-98000047D01*
X170760047Y-97839139D01*
X170890118Y-97653375D01*
X170944693Y-97609752D01*
X170991692Y-97600500D01*
X175913331Y-97600500D01*
X175913347Y-97600501D01*
X175920943Y-97600501D01*
X176079054Y-97600501D01*
X176079057Y-97600501D01*
X176231785Y-97559577D01*
X176281904Y-97530639D01*
X176368716Y-97480520D01*
X176480520Y-97368716D01*
X176480520Y-97368714D01*
X176490728Y-97358507D01*
X176490730Y-97358504D01*
X181328713Y-92520521D01*
X181328716Y-92520520D01*
X181440520Y-92408716D01*
X181490639Y-92321904D01*
X181519577Y-92271785D01*
X181560500Y-92119058D01*
X181560500Y-91960943D01*
X181560500Y-56955048D01*
X181580185Y-56888009D01*
X181625481Y-56845993D01*
X181783509Y-56760474D01*
X181867201Y-56695333D01*
X181932192Y-56669692D01*
X182000732Y-56683258D01*
X182051057Y-56731726D01*
X182052290Y-56734361D01*
X182052396Y-56734304D01*
X182056649Y-56742093D01*
X182142809Y-56857187D01*
X182142812Y-56857190D01*
X182257906Y-56943350D01*
X182257913Y-56943354D01*
X182392620Y-56993596D01*
X182392627Y-56993598D01*
X182452155Y-56999999D01*
X182452172Y-57000000D01*
X183250000Y-57000000D01*
X183250000Y-56048482D01*
X183268409Y-56059111D01*
X183421009Y-56100000D01*
X183578991Y-56100000D01*
X183731591Y-56059111D01*
X183750000Y-56048482D01*
X183750000Y-57000000D01*
X184547828Y-57000000D01*
X184547844Y-56999999D01*
X184607372Y-56993598D01*
X184607379Y-56993596D01*
X184742086Y-56943354D01*
X184742093Y-56943350D01*
X184857187Y-56857190D01*
X184857190Y-56857187D01*
X184943350Y-56742093D01*
X184943354Y-56742086D01*
X184993596Y-56607379D01*
X184993598Y-56607372D01*
X184999999Y-56547844D01*
X185000000Y-56547827D01*
X185000000Y-55750000D01*
X184048482Y-55750000D01*
X184059111Y-55731591D01*
X184100000Y-55578991D01*
X184100000Y-55421009D01*
X184059111Y-55268409D01*
X184048482Y-55250000D01*
X185000000Y-55250000D01*
X185000000Y-54452172D01*
X184999999Y-54452155D01*
X184993598Y-54392627D01*
X184993596Y-54392620D01*
X184943354Y-54257913D01*
X184943350Y-54257906D01*
X184857190Y-54142812D01*
X184857187Y-54142809D01*
X184742093Y-54056649D01*
X184742086Y-54056645D01*
X184607379Y-54006403D01*
X184607372Y-54006401D01*
X184547844Y-54000000D01*
X183750000Y-54000000D01*
X183750000Y-54951517D01*
X183731591Y-54940889D01*
X183578991Y-54900000D01*
X183421009Y-54900000D01*
X183268409Y-54940889D01*
X183250000Y-54951517D01*
X183250000Y-54000000D01*
X182452155Y-54000000D01*
X182392627Y-54006401D01*
X182392620Y-54006403D01*
X182257913Y-54056645D01*
X182257906Y-54056649D01*
X182142812Y-54142809D01*
X182142809Y-54142812D01*
X182056649Y-54257906D01*
X182052396Y-54265696D01*
X182049217Y-54263960D01*
X182017596Y-54306135D01*
X181952113Y-54330502D01*
X181883851Y-54315598D01*
X181867199Y-54304665D01*
X181851970Y-54292812D01*
X181783509Y-54239526D01*
X181783507Y-54239525D01*
X181783506Y-54239524D01*
X181564811Y-54121172D01*
X181564802Y-54121169D01*
X181329616Y-54040429D01*
X181084335Y-53999500D01*
X180835665Y-53999500D01*
X180590383Y-54040429D01*
X180355197Y-54121169D01*
X180355188Y-54121172D01*
X180136493Y-54239524D01*
X180019605Y-54330502D01*
X179940256Y-54392262D01*
X179925855Y-54407906D01*
X179781230Y-54565010D01*
X179721342Y-54601001D01*
X179651504Y-54598900D01*
X179598770Y-54565010D01*
X179559108Y-54521926D01*
X179439744Y-54392262D01*
X179243509Y-54239526D01*
X179243507Y-54239525D01*
X179243506Y-54239524D01*
X179024811Y-54121172D01*
X179024802Y-54121169D01*
X178789616Y-54040429D01*
X178544335Y-53999500D01*
X178295665Y-53999500D01*
X178050383Y-54040429D01*
X177815197Y-54121169D01*
X177815188Y-54121172D01*
X177596493Y-54239524D01*
X177479605Y-54330502D01*
X177400256Y-54392262D01*
X177385855Y-54407906D01*
X177241230Y-54565010D01*
X177181342Y-54601001D01*
X177111504Y-54598900D01*
X177058770Y-54565010D01*
X177019108Y-54521926D01*
X176899744Y-54392262D01*
X176703509Y-54239526D01*
X176703507Y-54239525D01*
X176703506Y-54239524D01*
X176484811Y-54121172D01*
X176484802Y-54121169D01*
X176249616Y-54040429D01*
X176004335Y-53999500D01*
X175755665Y-53999500D01*
X175510383Y-54040429D01*
X175275197Y-54121169D01*
X175275188Y-54121172D01*
X175056493Y-54239524D01*
X174939605Y-54330502D01*
X174860256Y-54392262D01*
X174845855Y-54407906D01*
X174701230Y-54565010D01*
X174641342Y-54601001D01*
X174571504Y-54598900D01*
X174518770Y-54565010D01*
X174479108Y-54521926D01*
X174359744Y-54392262D01*
X174163509Y-54239526D01*
X174163507Y-54239525D01*
X174163506Y-54239524D01*
X173944811Y-54121172D01*
X173944802Y-54121169D01*
X173709616Y-54040429D01*
X173464335Y-53999500D01*
X173215665Y-53999500D01*
X172970383Y-54040429D01*
X172735197Y-54121169D01*
X172735188Y-54121172D01*
X172516493Y-54239524D01*
X172399605Y-54330502D01*
X172320256Y-54392262D01*
X172319920Y-54392627D01*
X172151837Y-54575213D01*
X172151829Y-54575224D01*
X172151455Y-54575797D01*
X172151242Y-54575978D01*
X172148690Y-54579258D01*
X172148014Y-54578732D01*
X172098304Y-54621147D01*
X172034865Y-54631302D01*
X172023434Y-54630116D01*
X171364612Y-55288939D01*
X171359111Y-55268409D01*
X171280119Y-55131592D01*
X171168408Y-55019881D01*
X171031591Y-54940889D01*
X171011060Y-54935387D01*
X171670057Y-54276390D01*
X171670056Y-54276389D01*
X171623229Y-54239943D01*
X171404614Y-54121635D01*
X171404603Y-54121630D01*
X171169493Y-54040916D01*
X170924293Y-54000000D01*
X170675707Y-54000000D01*
X170430506Y-54040916D01*
X170195396Y-54121630D01*
X170195390Y-54121632D01*
X169976761Y-54239949D01*
X169929942Y-54276388D01*
X169929942Y-54276390D01*
X170588940Y-54935387D01*
X170568409Y-54940889D01*
X170431592Y-55019881D01*
X170319881Y-55131592D01*
X170240889Y-55268409D01*
X170235387Y-55288939D01*
X169576564Y-54630116D01*
X169476267Y-54783632D01*
X169376412Y-55011282D01*
X169315387Y-55252261D01*
X169315385Y-55252270D01*
X169294859Y-55499994D01*
X169294859Y-55500005D01*
X169315385Y-55747729D01*
X169315387Y-55747738D01*
X169376412Y-55988717D01*
X169476266Y-56216364D01*
X169576564Y-56369882D01*
X170235387Y-55711059D01*
X170240889Y-55731591D01*
X170319881Y-55868408D01*
X170431592Y-55980119D01*
X170568409Y-56059111D01*
X170588940Y-56064612D01*
X169929942Y-56723609D01*
X169976768Y-56760055D01*
X169976770Y-56760056D01*
X170195385Y-56878364D01*
X170195396Y-56878369D01*
X170430506Y-56959083D01*
X170675707Y-57000000D01*
X170924293Y-57000000D01*
X171169493Y-56959083D01*
X171404603Y-56878369D01*
X171404614Y-56878364D01*
X171623228Y-56760057D01*
X171623231Y-56760055D01*
X171670056Y-56723609D01*
X171011059Y-56064612D01*
X171031591Y-56059111D01*
X171168408Y-55980119D01*
X171280119Y-55868408D01*
X171359111Y-55731591D01*
X171364612Y-55711060D01*
X172023434Y-56369882D01*
X172034861Y-56368697D01*
X172103573Y-56381360D01*
X172148092Y-56421194D01*
X172148683Y-56420735D01*
X172151218Y-56423992D01*
X172151456Y-56424205D01*
X172151831Y-56424780D01*
X172151836Y-56424785D01*
X172320256Y-56607738D01*
X172516491Y-56760474D01*
X172516493Y-56760475D01*
X172734332Y-56878364D01*
X172735190Y-56878828D01*
X172886189Y-56930666D01*
X172968964Y-56959083D01*
X172970386Y-56959571D01*
X173215665Y-57000500D01*
X173464335Y-57000500D01*
X173709614Y-56959571D01*
X173944810Y-56878828D01*
X174163509Y-56760474D01*
X174359744Y-56607738D01*
X174518771Y-56434988D01*
X174578657Y-56398999D01*
X174648495Y-56401099D01*
X174701228Y-56434988D01*
X174721841Y-56457379D01*
X174860254Y-56607736D01*
X174860332Y-56607807D01*
X174860354Y-56607843D01*
X174863730Y-56611511D01*
X174862975Y-56612205D01*
X174896328Y-56667691D01*
X174894234Y-56737529D01*
X174864038Y-56786725D01*
X172971286Y-58679478D01*
X172859482Y-58791281D01*
X172859478Y-58791287D01*
X172814322Y-58869500D01*
X172780424Y-58928212D01*
X172780423Y-58928213D01*
X172765170Y-58985139D01*
X172739499Y-59080943D01*
X172739499Y-59080945D01*
X172739499Y-59249046D01*
X172739500Y-59249059D01*
X172739500Y-93359903D01*
X172719815Y-93426942D01*
X172703181Y-93447584D01*
X172327584Y-93823181D01*
X172266261Y-93856666D01*
X172239903Y-93859500D01*
X170991692Y-93859500D01*
X170924653Y-93839815D01*
X170890119Y-93806625D01*
X170760047Y-93620861D01*
X170760045Y-93620858D01*
X170599141Y-93459954D01*
X170412734Y-93329432D01*
X170412728Y-93329429D01*
X170354725Y-93302382D01*
X170302285Y-93256210D01*
X170283133Y-93189017D01*
X170303348Y-93122135D01*
X170354725Y-93077618D01*
X170412734Y-93050568D01*
X170599139Y-92920047D01*
X170760047Y-92759139D01*
X170890568Y-92572734D01*
X170986739Y-92366496D01*
X171045635Y-92146692D01*
X171065468Y-91920000D01*
X171060711Y-91865633D01*
X171050773Y-91752034D01*
X171045635Y-91693308D01*
X171000916Y-91526415D01*
X170986741Y-91473511D01*
X170986738Y-91473502D01*
X170972117Y-91442147D01*
X170890568Y-91267266D01*
X170760047Y-91080861D01*
X170760045Y-91080858D01*
X170599141Y-90919954D01*
X170412734Y-90789432D01*
X170412728Y-90789429D01*
X170354725Y-90762382D01*
X170302285Y-90716210D01*
X170283133Y-90649017D01*
X170303348Y-90582135D01*
X170354725Y-90537618D01*
X170412734Y-90510568D01*
X170599139Y-90380047D01*
X170760047Y-90219139D01*
X170890568Y-90032734D01*
X170986739Y-89826496D01*
X171045635Y-89606692D01*
X171065468Y-89380000D01*
X171045635Y-89153308D01*
X170986739Y-88933504D01*
X170890568Y-88727266D01*
X170792839Y-88587693D01*
X170760045Y-88540858D01*
X170599141Y-88379954D01*
X170412734Y-88249432D01*
X170412728Y-88249429D01*
X170354725Y-88222382D01*
X170302285Y-88176210D01*
X170283133Y-88109017D01*
X170303348Y-88042135D01*
X170354725Y-87997618D01*
X170412734Y-87970568D01*
X170599139Y-87840047D01*
X170760047Y-87679139D01*
X170890568Y-87492734D01*
X170986739Y-87286496D01*
X171045635Y-87066692D01*
X171065468Y-86840000D01*
X171045635Y-86613308D01*
X170995178Y-86424998D01*
X170986741Y-86393511D01*
X170986738Y-86393502D01*
X170962531Y-86341590D01*
X170890568Y-86187266D01*
X170760047Y-86000861D01*
X170760045Y-86000858D01*
X170599141Y-85839954D01*
X170412734Y-85709432D01*
X170412728Y-85709429D01*
X170354725Y-85682382D01*
X170302285Y-85636210D01*
X170283133Y-85569017D01*
X170303348Y-85502135D01*
X170354725Y-85457618D01*
X170412734Y-85430568D01*
X170599139Y-85300047D01*
X170760047Y-85139139D01*
X170890568Y-84952734D01*
X170986739Y-84746496D01*
X171045635Y-84526692D01*
X171065468Y-84300000D01*
X171045635Y-84073308D01*
X170986739Y-83853504D01*
X170890568Y-83647266D01*
X170760047Y-83460861D01*
X170760045Y-83460858D01*
X170599141Y-83299954D01*
X170412734Y-83169432D01*
X170412728Y-83169429D01*
X170354725Y-83142382D01*
X170302285Y-83096210D01*
X170283133Y-83029017D01*
X170303348Y-82962135D01*
X170354725Y-82917618D01*
X170412734Y-82890568D01*
X170599139Y-82760047D01*
X170760047Y-82599139D01*
X170890568Y-82412734D01*
X170986739Y-82206496D01*
X171045635Y-81986692D01*
X171063111Y-81786936D01*
X171065468Y-81760001D01*
X171065468Y-81759998D01*
X171058160Y-81676468D01*
X171045635Y-81533308D01*
X170986739Y-81313504D01*
X170890568Y-81107266D01*
X170760047Y-80920861D01*
X170760045Y-80920858D01*
X170599141Y-80759954D01*
X170412734Y-80629432D01*
X170412728Y-80629429D01*
X170354725Y-80602382D01*
X170302285Y-80556210D01*
X170283133Y-80489017D01*
X170303348Y-80422135D01*
X170354725Y-80377618D01*
X170412734Y-80350568D01*
X170599139Y-80220047D01*
X170760047Y-80059139D01*
X170890568Y-79872734D01*
X170986739Y-79666496D01*
X171045635Y-79446692D01*
X171065468Y-79220000D01*
X171045635Y-78993308D01*
X170986739Y-78773504D01*
X170890568Y-78567266D01*
X170760047Y-78380861D01*
X170760045Y-78380858D01*
X170599141Y-78219954D01*
X170412734Y-78089432D01*
X170412732Y-78089431D01*
X170354725Y-78062382D01*
X170354132Y-78062105D01*
X170301694Y-78015934D01*
X170282542Y-77948740D01*
X170302758Y-77881859D01*
X170354134Y-77837341D01*
X170412484Y-77810132D01*
X170598820Y-77679657D01*
X170759657Y-77518820D01*
X170890134Y-77332482D01*
X170986265Y-77126326D01*
X170986269Y-77126317D01*
X171038872Y-76930000D01*
X170193012Y-76930000D01*
X170225925Y-76872993D01*
X170260000Y-76745826D01*
X170260000Y-76614174D01*
X170225925Y-76487007D01*
X170193012Y-76430000D01*
X171038872Y-76430000D01*
X171038872Y-76429999D01*
X170986269Y-76233682D01*
X170986265Y-76233673D01*
X170890134Y-76027517D01*
X170759657Y-75841179D01*
X170598820Y-75680342D01*
X170412482Y-75549865D01*
X170354133Y-75522657D01*
X170301694Y-75476484D01*
X170282542Y-75409291D01*
X170302758Y-75342410D01*
X170354129Y-75297895D01*
X170412734Y-75270568D01*
X170599139Y-75140047D01*
X170760047Y-74979139D01*
X170890568Y-74792734D01*
X170986739Y-74586496D01*
X171045635Y-74366692D01*
X171065468Y-74140000D01*
X171045635Y-73913308D01*
X170986739Y-73693504D01*
X170890568Y-73487266D01*
X170760047Y-73300861D01*
X170760045Y-73300858D01*
X170599141Y-73139954D01*
X170412734Y-73009432D01*
X170412728Y-73009429D01*
X170354725Y-72982382D01*
X170302285Y-72936210D01*
X170283133Y-72869017D01*
X170303348Y-72802135D01*
X170354725Y-72757618D01*
X170355319Y-72757341D01*
X170412734Y-72730568D01*
X170599139Y-72600047D01*
X170760047Y-72439139D01*
X170890568Y-72252734D01*
X170986739Y-72046496D01*
X171045635Y-71826692D01*
X171065468Y-71600000D01*
X171045635Y-71373308D01*
X170986739Y-71153504D01*
X170890568Y-70947266D01*
X170760047Y-70760861D01*
X170760045Y-70760858D01*
X170599143Y-70599956D01*
X170574536Y-70582726D01*
X170530912Y-70528149D01*
X170523719Y-70458650D01*
X170555241Y-70396296D01*
X170615471Y-70360882D01*
X170632404Y-70357861D01*
X170667483Y-70354091D01*
X170802331Y-70303796D01*
X170917546Y-70217546D01*
X171003796Y-70102331D01*
X171054091Y-69967483D01*
X171060500Y-69907873D01*
X171060499Y-68212128D01*
X171054091Y-68152517D01*
X171019567Y-68059954D01*
X171003797Y-68017671D01*
X171003793Y-68017664D01*
X170917547Y-67902455D01*
X170917544Y-67902452D01*
X170802335Y-67816206D01*
X170802328Y-67816202D01*
X170667482Y-67765908D01*
X170667483Y-67765908D01*
X170607883Y-67759501D01*
X170607881Y-67759500D01*
X170607873Y-67759500D01*
X170607864Y-67759500D01*
X168912129Y-67759500D01*
X168912123Y-67759501D01*
X168852516Y-67765908D01*
X168717671Y-67816202D01*
X168717664Y-67816206D01*
X168602455Y-67902452D01*
X168602452Y-67902455D01*
X168516206Y-68017664D01*
X168516202Y-68017671D01*
X168465908Y-68152517D01*
X168462954Y-68180000D01*
X168459501Y-68212123D01*
X168459500Y-68212135D01*
X168459500Y-69907870D01*
X168459501Y-69907876D01*
X168465908Y-69967483D01*
X168516202Y-70102328D01*
X168516206Y-70102335D01*
X168602452Y-70217544D01*
X168602455Y-70217547D01*
X168717664Y-70303793D01*
X168717671Y-70303797D01*
X168762618Y-70320561D01*
X168852517Y-70354091D01*
X168887596Y-70357862D01*
X168952144Y-70384599D01*
X168991993Y-70441991D01*
X168994488Y-70511816D01*
X168958836Y-70571905D01*
X168945464Y-70582725D01*
X168920858Y-70599954D01*
X168759954Y-70760858D01*
X168629432Y-70947265D01*
X168629431Y-70947267D01*
X168533261Y-71153502D01*
X168533258Y-71153511D01*
X168474366Y-71373302D01*
X168474364Y-71373313D01*
X168454532Y-71599998D01*
X168454532Y-71600001D01*
X168474364Y-71826686D01*
X168474366Y-71826697D01*
X168533258Y-72046488D01*
X168533261Y-72046497D01*
X168629431Y-72252732D01*
X168629432Y-72252734D01*
X168759954Y-72439141D01*
X168920858Y-72600045D01*
X168920861Y-72600047D01*
X169107266Y-72730568D01*
X169164681Y-72757341D01*
X169165275Y-72757618D01*
X169217714Y-72803791D01*
X169236866Y-72870984D01*
X169216650Y-72937865D01*
X169165275Y-72982382D01*
X169107267Y-73009431D01*
X169107265Y-73009432D01*
X168920858Y-73139954D01*
X168759954Y-73300858D01*
X168629432Y-73487265D01*
X168629431Y-73487267D01*
X168533261Y-73693502D01*
X168533258Y-73693511D01*
X168474366Y-73913302D01*
X168474364Y-73913313D01*
X168454532Y-74139998D01*
X168454532Y-74140001D01*
X168474364Y-74366686D01*
X168474366Y-74366697D01*
X168533258Y-74586488D01*
X168533261Y-74586497D01*
X168629431Y-74792732D01*
X168629432Y-74792734D01*
X168759954Y-74979141D01*
X168920858Y-75140045D01*
X168920861Y-75140047D01*
X169107266Y-75270568D01*
X169165865Y-75297893D01*
X169218305Y-75344065D01*
X169237457Y-75411258D01*
X169217242Y-75478139D01*
X169165867Y-75522657D01*
X169107515Y-75549867D01*
X168921179Y-75680342D01*
X168760342Y-75841179D01*
X168629865Y-76027517D01*
X168533734Y-76233673D01*
X168533730Y-76233682D01*
X168481127Y-76429999D01*
X168481128Y-76430000D01*
X169326988Y-76430000D01*
X169294075Y-76487007D01*
X169260000Y-76614174D01*
X169260000Y-76745826D01*
X169294075Y-76872993D01*
X169326988Y-76930000D01*
X168481128Y-76930000D01*
X168533730Y-77126317D01*
X168533734Y-77126326D01*
X168629865Y-77332482D01*
X168760342Y-77518820D01*
X168921179Y-77679657D01*
X169107518Y-77810134D01*
X169107520Y-77810135D01*
X169165865Y-77837342D01*
X169218305Y-77883514D01*
X169237457Y-77950707D01*
X169217242Y-78017589D01*
X169165867Y-78062105D01*
X169107268Y-78089431D01*
X169107264Y-78089433D01*
X168920858Y-78219954D01*
X168759954Y-78380858D01*
X168629432Y-78567265D01*
X168629431Y-78567267D01*
X168533261Y-78773502D01*
X168533258Y-78773511D01*
X168474366Y-78993302D01*
X168474364Y-78993313D01*
X168454532Y-79219998D01*
X168454532Y-79220001D01*
X168474364Y-79446686D01*
X168474366Y-79446697D01*
X168533258Y-79666488D01*
X168533261Y-79666497D01*
X168629431Y-79872732D01*
X168629432Y-79872734D01*
X168759954Y-80059141D01*
X168920858Y-80220045D01*
X168938310Y-80232265D01*
X169107266Y-80350568D01*
X169165275Y-80377618D01*
X169217714Y-80423791D01*
X169236866Y-80490984D01*
X169216650Y-80557865D01*
X169165275Y-80602382D01*
X169107267Y-80629431D01*
X169107265Y-80629432D01*
X168920858Y-80759954D01*
X168759954Y-80920858D01*
X168629432Y-81107265D01*
X168629431Y-81107267D01*
X168533261Y-81313502D01*
X168533258Y-81313511D01*
X168474366Y-81533302D01*
X168474364Y-81533313D01*
X168454532Y-81759998D01*
X168454532Y-81760001D01*
X168474364Y-81986686D01*
X168474366Y-81986697D01*
X168533258Y-82206488D01*
X168533261Y-82206497D01*
X168629431Y-82412732D01*
X168629432Y-82412734D01*
X168759954Y-82599141D01*
X168920858Y-82760045D01*
X168920861Y-82760047D01*
X169107266Y-82890568D01*
X169165275Y-82917618D01*
X169217714Y-82963791D01*
X169236866Y-83030984D01*
X169216650Y-83097865D01*
X169165275Y-83142382D01*
X169107267Y-83169431D01*
X169107265Y-83169432D01*
X168920858Y-83299954D01*
X168759954Y-83460858D01*
X168629432Y-83647265D01*
X168629431Y-83647267D01*
X168533261Y-83853502D01*
X168533258Y-83853511D01*
X168474366Y-84073302D01*
X168474364Y-84073313D01*
X168454532Y-84299998D01*
X168454532Y-84300001D01*
X168474364Y-84526686D01*
X168474366Y-84526697D01*
X168500152Y-84622931D01*
X168498489Y-84692781D01*
X168468058Y-84742705D01*
X165687584Y-87523181D01*
X165626261Y-87556666D01*
X165599903Y-87559500D01*
X164737512Y-87559500D01*
X164670473Y-87539815D01*
X164624718Y-87487011D01*
X164614774Y-87417853D01*
X164628636Y-87377806D01*
X164628280Y-87377640D01*
X164629887Y-87374193D01*
X164630130Y-87373492D01*
X164630559Y-87372746D01*
X164630568Y-87372734D01*
X164726739Y-87166496D01*
X164785635Y-86946692D01*
X164805468Y-86720000D01*
X164785635Y-86493308D01*
X164726739Y-86273504D01*
X164630568Y-86067266D01*
X164500047Y-85880861D01*
X164500045Y-85880858D01*
X164339141Y-85719954D01*
X164152734Y-85589432D01*
X164152732Y-85589431D01*
X163946497Y-85493261D01*
X163946488Y-85493258D01*
X163726697Y-85434366D01*
X163726693Y-85434365D01*
X163726692Y-85434365D01*
X163726691Y-85434364D01*
X163726686Y-85434364D01*
X163500002Y-85414532D01*
X163499998Y-85414532D01*
X163273313Y-85434364D01*
X163273302Y-85434366D01*
X163177067Y-85460152D01*
X163107217Y-85458489D01*
X163057293Y-85428058D01*
X161017590Y-83388355D01*
X161017588Y-83388352D01*
X160898717Y-83269481D01*
X160898716Y-83269480D01*
X160811904Y-83219360D01*
X160811904Y-83219359D01*
X160811900Y-83219358D01*
X160761785Y-83190423D01*
X160609057Y-83149499D01*
X160450943Y-83149499D01*
X160443347Y-83149499D01*
X160443331Y-83149500D01*
X151209869Y-83149500D01*
X151142830Y-83129815D01*
X151097075Y-83077011D01*
X151093687Y-83068833D01*
X151043797Y-82935072D01*
X151043793Y-82935065D01*
X150957547Y-82819856D01*
X150957544Y-82819853D01*
X150842335Y-82733607D01*
X150842328Y-82733603D01*
X150707482Y-82683309D01*
X150707483Y-82683309D01*
X150647883Y-82676902D01*
X150647881Y-82676901D01*
X150647873Y-82676901D01*
X150647865Y-82676901D01*
X150224500Y-82676901D01*
X150157461Y-82657216D01*
X150111706Y-82604412D01*
X150100500Y-82552901D01*
X150100500Y-80499993D01*
X157054700Y-80499993D01*
X157054700Y-80500006D01*
X157073864Y-80731297D01*
X157073866Y-80731308D01*
X157130842Y-80956300D01*
X157224075Y-81168848D01*
X157351016Y-81363147D01*
X157351019Y-81363151D01*
X157351021Y-81363153D01*
X157508216Y-81533913D01*
X157508219Y-81533915D01*
X157508222Y-81533918D01*
X157691365Y-81676464D01*
X157691371Y-81676468D01*
X157691374Y-81676470D01*
X157895497Y-81786936D01*
X158002010Y-81823502D01*
X158115015Y-81862297D01*
X158115017Y-81862297D01*
X158115019Y-81862298D01*
X158343951Y-81900500D01*
X158343952Y-81900500D01*
X158576048Y-81900500D01*
X158576049Y-81900500D01*
X158804981Y-81862298D01*
X159024503Y-81786936D01*
X159228626Y-81676470D01*
X159411784Y-81533913D01*
X159420511Y-81524432D01*
X159480394Y-81488441D01*
X159550232Y-81490538D01*
X159607850Y-81530060D01*
X159627924Y-81565080D01*
X159656645Y-81642086D01*
X159656649Y-81642093D01*
X159742809Y-81757187D01*
X159742812Y-81757190D01*
X159857906Y-81843350D01*
X159857913Y-81843354D01*
X159992620Y-81893596D01*
X159992627Y-81893598D01*
X160052155Y-81899999D01*
X160052172Y-81900000D01*
X160750000Y-81900000D01*
X160750000Y-80875277D01*
X160826306Y-80919333D01*
X160940756Y-80950000D01*
X161059244Y-80950000D01*
X161173694Y-80919333D01*
X161250000Y-80875277D01*
X161250000Y-81900000D01*
X161947828Y-81900000D01*
X161947844Y-81899999D01*
X162007372Y-81893598D01*
X162007379Y-81893596D01*
X162142086Y-81843354D01*
X162142093Y-81843350D01*
X162257187Y-81757190D01*
X162257190Y-81757187D01*
X162343350Y-81642093D01*
X162343354Y-81642086D01*
X162393596Y-81507379D01*
X162393598Y-81507372D01*
X162399999Y-81447844D01*
X162400000Y-81447827D01*
X162400000Y-80750000D01*
X161375278Y-80750000D01*
X161419333Y-80673694D01*
X161450000Y-80559244D01*
X161450000Y-80440756D01*
X161419333Y-80326306D01*
X161375278Y-80250000D01*
X162400000Y-80250000D01*
X162400000Y-79552172D01*
X162399999Y-79552155D01*
X162393598Y-79492627D01*
X162393596Y-79492620D01*
X162343354Y-79357913D01*
X162343350Y-79357906D01*
X162257190Y-79242812D01*
X162257187Y-79242809D01*
X162142093Y-79156649D01*
X162142086Y-79156645D01*
X162007379Y-79106403D01*
X162007372Y-79106401D01*
X161947844Y-79100000D01*
X161250000Y-79100000D01*
X161250000Y-80124722D01*
X161173694Y-80080667D01*
X161059244Y-80050000D01*
X160940756Y-80050000D01*
X160826306Y-80080667D01*
X160750000Y-80124722D01*
X160750000Y-79100000D01*
X160548596Y-79100000D01*
X160481557Y-79080315D01*
X160435802Y-79027511D01*
X160425858Y-78958353D01*
X160454883Y-78894797D01*
X160460915Y-78888319D01*
X161715803Y-77633431D01*
X163140319Y-76208914D01*
X163201640Y-76175431D01*
X163250783Y-76174708D01*
X163388757Y-76200500D01*
X163388759Y-76200500D01*
X163611241Y-76200500D01*
X163611243Y-76200500D01*
X163829940Y-76159618D01*
X164037401Y-76079247D01*
X164226562Y-75962124D01*
X164390981Y-75812236D01*
X164525058Y-75634689D01*
X164624229Y-75435528D01*
X164685115Y-75221536D01*
X164705643Y-75000000D01*
X164697013Y-74906871D01*
X164685115Y-74778464D01*
X164685114Y-74778462D01*
X164649983Y-74654990D01*
X164624229Y-74564472D01*
X164621994Y-74559983D01*
X164525061Y-74365316D01*
X164525056Y-74365308D01*
X164390979Y-74187761D01*
X164226562Y-74037876D01*
X164226560Y-74037874D01*
X164037404Y-73920754D01*
X164037398Y-73920752D01*
X164018183Y-73913308D01*
X163829940Y-73840382D01*
X163611243Y-73799500D01*
X163388757Y-73799500D01*
X163170060Y-73840382D01*
X163038864Y-73891207D01*
X162962601Y-73920752D01*
X162962595Y-73920754D01*
X162773439Y-74037874D01*
X162773437Y-74037876D01*
X162609020Y-74187761D01*
X162474943Y-74365308D01*
X162474938Y-74365316D01*
X162375775Y-74564461D01*
X162375769Y-74564476D01*
X162314885Y-74778462D01*
X162314884Y-74778464D01*
X162294357Y-74999999D01*
X162294357Y-75000000D01*
X162314885Y-75221537D01*
X162320270Y-75240463D01*
X162319683Y-75310330D01*
X162288685Y-75362078D01*
X158587584Y-79063181D01*
X158526261Y-79096666D01*
X158499903Y-79099500D01*
X158343951Y-79099500D01*
X158302596Y-79106401D01*
X158115015Y-79137702D01*
X157895504Y-79213061D01*
X157895495Y-79213064D01*
X157691371Y-79323531D01*
X157691365Y-79323535D01*
X157508222Y-79466081D01*
X157508219Y-79466084D01*
X157351016Y-79636852D01*
X157224075Y-79831151D01*
X157130842Y-80043699D01*
X157073866Y-80268691D01*
X157073864Y-80268702D01*
X157054700Y-80499993D01*
X150100500Y-80499993D01*
X150100500Y-80004959D01*
X150120185Y-79937920D01*
X150168204Y-79894474D01*
X150309038Y-79822717D01*
X150494066Y-79688286D01*
X150655786Y-79526566D01*
X150790217Y-79341538D01*
X150837773Y-79248205D01*
X150885748Y-79197409D01*
X150948258Y-79180500D01*
X152213331Y-79180500D01*
X152213347Y-79180501D01*
X152220943Y-79180501D01*
X152379054Y-79180501D01*
X152379057Y-79180501D01*
X152531785Y-79139577D01*
X152601200Y-79099500D01*
X152668716Y-79060520D01*
X152780520Y-78948716D01*
X152780520Y-78948714D01*
X152790724Y-78938511D01*
X152790727Y-78938506D01*
X155520320Y-76208914D01*
X155581641Y-76175431D01*
X155630784Y-76174708D01*
X155768757Y-76200500D01*
X155768759Y-76200500D01*
X155991241Y-76200500D01*
X155991243Y-76200500D01*
X156209940Y-76159618D01*
X156417401Y-76079247D01*
X156606562Y-75962124D01*
X156770981Y-75812236D01*
X156905058Y-75634689D01*
X157004229Y-75435528D01*
X157065115Y-75221536D01*
X157085643Y-75000000D01*
X157077013Y-74906871D01*
X157065115Y-74778464D01*
X157065114Y-74778462D01*
X157029983Y-74654990D01*
X157004229Y-74564472D01*
X157001994Y-74559983D01*
X156905061Y-74365316D01*
X156905056Y-74365308D01*
X156770979Y-74187761D01*
X156606562Y-74037876D01*
X156606560Y-74037874D01*
X156417404Y-73920754D01*
X156417398Y-73920752D01*
X156398183Y-73913308D01*
X156209940Y-73840382D01*
X155991243Y-73799500D01*
X155768757Y-73799500D01*
X155550060Y-73840382D01*
X155418864Y-73891207D01*
X155342601Y-73920752D01*
X155342595Y-73920754D01*
X155153439Y-74037874D01*
X155153437Y-74037876D01*
X154989020Y-74187761D01*
X154854943Y-74365308D01*
X154854938Y-74365316D01*
X154755775Y-74564461D01*
X154755769Y-74564476D01*
X154694885Y-74778462D01*
X154694884Y-74778464D01*
X154674357Y-74999999D01*
X154674357Y-75000000D01*
X154694884Y-75221534D01*
X154700270Y-75240461D01*
X154699684Y-75310328D01*
X154668685Y-75362077D01*
X152087584Y-77943181D01*
X152026261Y-77976666D01*
X151999903Y-77979500D01*
X150948258Y-77979500D01*
X150881219Y-77959815D01*
X150837773Y-77911795D01*
X150790216Y-77818461D01*
X150784483Y-77810570D01*
X150655786Y-77633434D01*
X150494066Y-77471714D01*
X150409134Y-77410007D01*
X150366470Y-77354678D01*
X150360491Y-77285064D01*
X150393097Y-77223269D01*
X150409137Y-77209371D01*
X150493739Y-77147905D01*
X150655402Y-76986242D01*
X150789788Y-76801276D01*
X150893582Y-76597570D01*
X150964234Y-76380128D01*
X150978509Y-76290000D01*
X149990748Y-76290000D01*
X150012518Y-76252292D01*
X150050000Y-76112409D01*
X150050000Y-75967591D01*
X150012518Y-75827708D01*
X149990748Y-75790000D01*
X150978509Y-75790000D01*
X150964234Y-75699871D01*
X150893582Y-75482429D01*
X150789788Y-75278723D01*
X150656988Y-75095940D01*
X150633508Y-75030133D01*
X150649333Y-74962079D01*
X150699439Y-74913384D01*
X150713966Y-74906875D01*
X150742331Y-74896296D01*
X150857546Y-74810046D01*
X150943796Y-74694831D01*
X150994091Y-74559983D01*
X151000500Y-74500373D01*
X151000499Y-72499628D01*
X150994091Y-72440017D01*
X150993764Y-72439141D01*
X150943797Y-72305171D01*
X150943793Y-72305164D01*
X150857547Y-72189955D01*
X150857544Y-72189952D01*
X150742335Y-72103706D01*
X150742328Y-72103702D01*
X150607482Y-72053408D01*
X150607483Y-72053408D01*
X150547883Y-72047001D01*
X150547881Y-72047000D01*
X150547873Y-72047000D01*
X150547864Y-72047000D01*
X148452129Y-72047000D01*
X148452123Y-72047001D01*
X148392516Y-72053408D01*
X148257671Y-72103702D01*
X148257664Y-72103706D01*
X148142455Y-72189952D01*
X148142452Y-72189955D01*
X148056206Y-72305164D01*
X148056202Y-72305171D01*
X148005908Y-72440017D01*
X147999501Y-72499616D01*
X147999501Y-72499623D01*
X147999500Y-72499635D01*
X146500500Y-72499635D01*
X146500500Y-68579997D01*
X148195034Y-68579997D01*
X148195034Y-68580002D01*
X148214858Y-68806599D01*
X148214860Y-68806610D01*
X148273730Y-69026317D01*
X148273735Y-69026331D01*
X148369863Y-69232478D01*
X148420974Y-69305472D01*
X149100000Y-68626446D01*
X149100000Y-68632661D01*
X149127259Y-68734394D01*
X149179920Y-68825606D01*
X149254394Y-68900080D01*
X149345606Y-68952741D01*
X149447339Y-68980000D01*
X149453553Y-68980000D01*
X148774526Y-69659025D01*
X148847513Y-69710132D01*
X148847521Y-69710136D01*
X149053668Y-69806264D01*
X149053682Y-69806269D01*
X149273389Y-69865139D01*
X149273400Y-69865141D01*
X149499998Y-69884966D01*
X149500002Y-69884966D01*
X149726599Y-69865141D01*
X149726610Y-69865139D01*
X149946317Y-69806269D01*
X149946331Y-69806264D01*
X150152478Y-69710136D01*
X150225471Y-69659024D01*
X149546447Y-68980000D01*
X149552661Y-68980000D01*
X149654394Y-68952741D01*
X149745606Y-68900080D01*
X149820080Y-68825606D01*
X149872741Y-68734394D01*
X149900000Y-68632661D01*
X149900000Y-68626447D01*
X150579024Y-69305471D01*
X150630136Y-69232478D01*
X150726264Y-69026331D01*
X150726269Y-69026317D01*
X150785139Y-68806610D01*
X150785141Y-68806599D01*
X150804966Y-68580002D01*
X150804966Y-68579997D01*
X150785141Y-68353400D01*
X150785139Y-68353389D01*
X150726269Y-68133682D01*
X150726265Y-68133673D01*
X150630134Y-67927518D01*
X150630130Y-67927512D01*
X150621188Y-67914740D01*
X150598861Y-67848534D01*
X150615873Y-67780767D01*
X150648454Y-67744351D01*
X150657546Y-67737546D01*
X150743796Y-67622331D01*
X150794091Y-67487483D01*
X150800500Y-67427873D01*
X150800499Y-65732128D01*
X150794091Y-65672517D01*
X150743796Y-65537669D01*
X150743795Y-65537668D01*
X150743793Y-65537664D01*
X150657547Y-65422455D01*
X150657544Y-65422452D01*
X150542335Y-65336206D01*
X150542328Y-65336202D01*
X150407482Y-65285908D01*
X150407483Y-65285908D01*
X150347883Y-65279501D01*
X150347881Y-65279500D01*
X150347873Y-65279500D01*
X150347864Y-65279500D01*
X148652129Y-65279500D01*
X148652123Y-65279501D01*
X148592516Y-65285908D01*
X148457671Y-65336202D01*
X148457664Y-65336206D01*
X148342455Y-65422452D01*
X148342452Y-65422455D01*
X148256206Y-65537664D01*
X148256202Y-65537671D01*
X148205908Y-65672517D01*
X148199501Y-65732116D01*
X148199501Y-65732123D01*
X148199500Y-65732135D01*
X148199500Y-67427870D01*
X148199501Y-67427876D01*
X148205908Y-67487483D01*
X148256202Y-67622328D01*
X148256206Y-67622335D01*
X148342452Y-67737544D01*
X148342453Y-67737544D01*
X148342454Y-67737546D01*
X148351545Y-67744351D01*
X148393416Y-67800282D01*
X148398402Y-67869974D01*
X148378813Y-67914736D01*
X148369871Y-67927507D01*
X148369868Y-67927512D01*
X148273734Y-68133673D01*
X148273730Y-68133682D01*
X148214860Y-68353389D01*
X148214858Y-68353400D01*
X148195034Y-68579997D01*
X146500500Y-68579997D01*
X146500500Y-60881902D01*
X153199500Y-60881902D01*
X153199500Y-63318097D01*
X153236446Y-63551368D01*
X153309433Y-63775996D01*
X153399175Y-63952123D01*
X153416657Y-63986433D01*
X153555483Y-64177510D01*
X153722490Y-64344517D01*
X153913567Y-64483343D01*
X154012991Y-64534002D01*
X154124003Y-64590566D01*
X154124005Y-64590566D01*
X154124008Y-64590568D01*
X154244412Y-64629689D01*
X154348631Y-64663553D01*
X154581903Y-64700500D01*
X154581908Y-64700500D01*
X154818097Y-64700500D01*
X155051368Y-64663553D01*
X155275992Y-64590568D01*
X155486433Y-64483343D01*
X155677510Y-64344517D01*
X155844517Y-64177510D01*
X155983343Y-63986433D01*
X156000819Y-63952135D01*
X156699500Y-63952135D01*
X156699500Y-66047870D01*
X156699501Y-66047876D01*
X156705908Y-66107483D01*
X156756202Y-66242328D01*
X156756206Y-66242335D01*
X156842452Y-66357544D01*
X156842455Y-66357547D01*
X156957664Y-66443793D01*
X156957671Y-66443797D01*
X157092517Y-66494091D01*
X157092516Y-66494091D01*
X157099444Y-66494835D01*
X157152127Y-66500500D01*
X161847872Y-66500499D01*
X161907483Y-66494091D01*
X162042331Y-66443796D01*
X162157546Y-66357546D01*
X162243796Y-66242331D01*
X162294091Y-66107483D01*
X162300500Y-66047873D01*
X162300499Y-63952128D01*
X162295299Y-63903757D01*
X162294091Y-63892516D01*
X162243797Y-63757671D01*
X162243793Y-63757664D01*
X162157547Y-63642455D01*
X162157544Y-63642452D01*
X162042335Y-63556206D01*
X162042328Y-63556202D01*
X161907482Y-63505908D01*
X161907483Y-63505908D01*
X161847883Y-63499501D01*
X161847881Y-63499500D01*
X161847873Y-63499500D01*
X161847864Y-63499500D01*
X157152129Y-63499500D01*
X157152123Y-63499501D01*
X157092516Y-63505908D01*
X156957671Y-63556202D01*
X156957664Y-63556206D01*
X156842455Y-63642452D01*
X156842452Y-63642455D01*
X156756206Y-63757664D01*
X156756202Y-63757671D01*
X156705908Y-63892517D01*
X156699501Y-63952116D01*
X156699501Y-63952123D01*
X156699500Y-63952135D01*
X156000819Y-63952135D01*
X156090568Y-63775992D01*
X156163553Y-63551368D01*
X156171768Y-63499500D01*
X156200500Y-63318097D01*
X156200500Y-60881902D01*
X156163553Y-60648631D01*
X156090566Y-60424003D01*
X155983342Y-60213566D01*
X155973486Y-60200000D01*
X155844517Y-60022490D01*
X155677510Y-59855483D01*
X155486433Y-59716657D01*
X155275996Y-59609433D01*
X155051368Y-59536446D01*
X154818097Y-59499500D01*
X154818092Y-59499500D01*
X154581908Y-59499500D01*
X154581903Y-59499500D01*
X154348631Y-59536446D01*
X154124003Y-59609433D01*
X153913566Y-59716657D01*
X153840013Y-59770097D01*
X153722490Y-59855483D01*
X153722488Y-59855485D01*
X153722487Y-59855485D01*
X153555485Y-60022487D01*
X153555485Y-60022488D01*
X153555483Y-60022490D01*
X153506360Y-60090102D01*
X153416657Y-60213566D01*
X153309433Y-60424003D01*
X153236446Y-60648631D01*
X153199500Y-60881902D01*
X146500500Y-60881902D01*
X146500500Y-58450000D01*
X156920898Y-58450000D01*
X157966988Y-58450000D01*
X157934075Y-58507007D01*
X157900000Y-58634174D01*
X157900000Y-58765826D01*
X157934075Y-58892993D01*
X157966988Y-58950000D01*
X156920898Y-58950000D01*
X156936934Y-59051247D01*
X157009897Y-59275802D01*
X157117085Y-59486171D01*
X157255866Y-59677186D01*
X157422813Y-59844133D01*
X157613828Y-59982914D01*
X157824197Y-60090102D01*
X158048752Y-60163065D01*
X158048751Y-60163065D01*
X158281948Y-60200000D01*
X159250000Y-60200000D01*
X159250000Y-59200000D01*
X159750000Y-59200000D01*
X159750000Y-60200000D01*
X160718052Y-60200000D01*
X160951247Y-60163065D01*
X161175802Y-60090102D01*
X161386171Y-59982914D01*
X161577186Y-59844133D01*
X161744133Y-59677186D01*
X161882914Y-59486171D01*
X161990102Y-59275802D01*
X162063065Y-59051247D01*
X162079102Y-58950000D01*
X161033012Y-58950000D01*
X161065925Y-58892993D01*
X161100000Y-58765826D01*
X161100000Y-58634174D01*
X161065925Y-58507007D01*
X161033012Y-58450000D01*
X162079102Y-58450000D01*
X162063065Y-58348752D01*
X161990102Y-58124197D01*
X161882914Y-57913828D01*
X161744133Y-57722813D01*
X161577186Y-57555866D01*
X161386171Y-57417085D01*
X161175802Y-57309897D01*
X160951247Y-57236934D01*
X160951248Y-57236934D01*
X160718052Y-57200000D01*
X159750000Y-57200000D01*
X159750000Y-58200000D01*
X159250000Y-58200000D01*
X159250000Y-57200000D01*
X158281948Y-57200000D01*
X158048752Y-57236934D01*
X157824197Y-57309897D01*
X157613828Y-57417085D01*
X157422813Y-57555866D01*
X157255866Y-57722813D01*
X157117085Y-57913828D01*
X157009897Y-58124197D01*
X156936934Y-58348752D01*
X156920898Y-58450000D01*
X146500500Y-58450000D01*
X146500500Y-54878711D01*
X148149500Y-54878711D01*
X148149500Y-55121288D01*
X148181161Y-55361785D01*
X148243947Y-55596104D01*
X148307693Y-55750000D01*
X148336776Y-55820212D01*
X148458064Y-56030289D01*
X148458066Y-56030292D01*
X148458067Y-56030293D01*
X148605733Y-56222736D01*
X148605739Y-56222743D01*
X148777256Y-56394260D01*
X148777263Y-56394266D01*
X148830335Y-56434989D01*
X148969711Y-56541936D01*
X149179788Y-56663224D01*
X149403900Y-56756054D01*
X149638211Y-56818838D01*
X149818586Y-56842584D01*
X149878711Y-56850500D01*
X149878712Y-56850500D01*
X150121289Y-56850500D01*
X150173730Y-56843596D01*
X150361789Y-56818838D01*
X150596100Y-56756054D01*
X150820212Y-56663224D01*
X151030289Y-56541936D01*
X151222738Y-56394265D01*
X151394265Y-56222738D01*
X151541936Y-56030289D01*
X151663224Y-55820212D01*
X151756054Y-55596100D01*
X151818838Y-55361789D01*
X151850500Y-55121288D01*
X151850500Y-54878712D01*
X151818838Y-54638211D01*
X151756054Y-54403900D01*
X151663224Y-54179788D01*
X151541936Y-53969711D01*
X151394265Y-53777262D01*
X151394260Y-53777256D01*
X151222743Y-53605739D01*
X151222736Y-53605733D01*
X151030293Y-53458067D01*
X151030292Y-53458066D01*
X151030289Y-53458064D01*
X150820212Y-53336776D01*
X150820205Y-53336773D01*
X150596104Y-53243947D01*
X150361785Y-53181161D01*
X150121289Y-53149500D01*
X150121288Y-53149500D01*
X149878712Y-53149500D01*
X149878711Y-53149500D01*
X149638214Y-53181161D01*
X149403895Y-53243947D01*
X149179794Y-53336773D01*
X149179785Y-53336777D01*
X148969706Y-53458067D01*
X148777263Y-53605733D01*
X148777256Y-53605739D01*
X148605739Y-53777256D01*
X148605733Y-53777263D01*
X148458067Y-53969706D01*
X148336777Y-54179785D01*
X148336773Y-54179794D01*
X148243947Y-54403895D01*
X148181161Y-54638214D01*
X148149500Y-54878711D01*
X146500500Y-54878711D01*
X146500500Y-52006961D01*
X146501280Y-51993077D01*
X146501280Y-51993076D01*
X146511459Y-51902731D01*
X146517635Y-51875670D01*
X146545353Y-51796456D01*
X146557396Y-51771450D01*
X146602046Y-51700389D01*
X146619351Y-51678690D01*
X146678690Y-51619351D01*
X146700389Y-51602046D01*
X146771450Y-51557396D01*
X146796456Y-51545353D01*
X146875670Y-51517635D01*
X146902733Y-51511459D01*
X146965419Y-51504396D01*
X146993079Y-51501280D01*
X147006962Y-51500500D01*
X147065892Y-51500500D01*
X200934108Y-51500500D01*
X200993038Y-51500500D01*
X201006922Y-51501280D01*
G37*
G04 #@! TD.AperFunction*
M02*
